<?xml version="1.0" encoding="UTF-8"?>
<svg version="1.1" xmlns="http://www.w3.org/2000/svg" width="198" height="192">
<path d="M0 0 C3.97449345 2.99137351 5.81161935 5.76506018 6.5625 10.6875 C6.7790625 12.3271875 6.7790625 12.3271875 7 14 C10.4479068 17.75213387 14.04225414 19.0756745 19 20 C20.38044216 19.85801166 21.75678821 19.6694003 23.125 19.4375 C27 19 27 19 29.875 20.1875 C32.65897149 22.56206392 33.87196635 24.57931892 34.203125 28.25390625 C34.22632813 29.39666016 34.22632813 29.39666016 34.25 30.5625 C34.38494117 32.91819381 34.38494117 32.91819381 35 35 C37.86702744 36.89198799 37.86702744 36.89198799 41 38 C43.6384873 41.56504638 43.36724068 45.68151394 43.375 49.9375 C43.39949219 50.64068359 43.42398438 51.34386719 43.44921875 52.06835938 C43.47057747 55.8666518 43.11976724 57.82219883 40.9765625 61.00390625 C40.32429687 61.66261719 39.67203125 62.32132813 39 63 C39.33 63.680625 39.66 64.36125 40 65.0625 C42.08575625 71.18940898 40.75343475 77.24583316 39.48706055 83.41040039 C39.32606873 84.22108475 39.1650769 85.0317691 38.99920654 85.86701965 C38.46861202 88.52866834 37.92809661 91.18818157 37.38671875 93.84765625 C37.01241549 95.70650895 36.63846361 97.56543243 36.2648468 99.42442322 C35.48163283 103.3129339 34.69334534 107.20037367 33.90161133 111.0871582 C32.88911423 116.0604015 31.89056864 121.03632768 30.89596844 126.01317692 C30.12735954 129.85004221 29.350717 133.68524805 28.57172585 137.52001762 C28.20033106 139.35384808 27.8315673 141.18821347 27.46552086 143.02311897 C26.9522963 145.59016617 26.42811851 148.15474365 25.90112305 150.71899414 C25.67885796 151.84833374 25.67885796 151.84833374 25.45210266 153.00048828 C24.53658771 157.38581932 23.35843693 161.17380572 21 165 C17.14715938 166.28428021 13.49369692 166.17207856 9.47705078 166.19287109 C8.17170883 166.20513733 8.17170883 166.20513733 6.83999634 166.21765137 C3.95844205 166.24247705 1.07693685 166.25901224 -1.8046875 166.2734375 C-3.28059546 166.28142302 -3.28059546 166.28142302 -4.78631973 166.28956985 C-9.99214143 166.31628639 -15.19793924 166.33566796 -20.40380859 166.35009766 C-25.78320339 166.36676157 -31.16198747 166.41155829 -36.54115105 166.4624691 C-40.67612422 166.4960995 -44.81095147 166.50767032 -48.94604874 166.51332474 C-50.92921758 166.5200465 -52.91237651 166.53529251 -54.89541245 166.55921555 C-57.67020512 166.59078615 -60.44333708 166.59091645 -63.21826172 166.58349609 C-64.03713867 166.59990143 -64.85601562 166.61630676 -65.69970703 166.63320923 C-69.70953208 166.58930933 -71.5466874 166.31466172 -74.92158508 163.97201538 C-77.42630185 160.39041255 -78.29825627 157.08850366 -79.03637695 152.86425781 C-79.19316422 152.05868439 -79.34995148 151.25311096 -79.51148987 150.42312622 C-80.02280717 147.76968543 -80.50593647 145.11197213 -80.98828125 142.453125 C-81.33838864 140.59825295 -81.68998964 138.74366226 -82.04301453 136.88934326 C-82.77842014 133.00453766 -83.50081517 129.11761933 -84.21313477 125.22851562 C-85.12330093 120.26092716 -86.05754137 115.29827195 -87.00063801 110.33684158 C-87.72730988 106.50668252 -88.44506017 102.67489681 -89.1597805 98.84249115 C-89.50126593 97.01305434 -89.84454298 95.18395097 -90.18969154 93.35520172 C-90.67173289 90.78937672 -91.14271108 88.22175973 -91.6105957 85.65332031 C-91.82323059 84.53544632 -91.82323059 84.53544632 -92.04016113 83.39498901 C-93.48673969 75.31127864 -93.78804956 69.40391504 -90 62 C-90.79117904 60.00016466 -90.79117904 60.00016466 -92 58 C-92.47357835 53.73779488 -92.29830613 51.5539971 -90.25 47.75 C-88 45 -88 45 -85.9375 43.6875 C-83.69347908 41.73303017 -83.49247586 40.74509872 -82.6875 37.9375 C-80.99127553 32.19860722 -77.78269793 27.59392713 -74 23 C-70.75295251 21.37647626 -67.30186266 21.98540458 -63.7265625 22.0625 C-61.24848916 22.00569603 -59.30192967 21.91338035 -57 21 C-56.71125 20.071875 -56.4225 19.14375 -56.125 18.1875 C-54.65260931 14.01572639 -52.85292252 13.03978251 -49 11 C-46.125 10.25 -46.125 10.25 -44 10 C-43.79375 9.0925 -43.5875 8.185 -43.375 7.25 C-41.62265266 3.10808811 -40.01057061 1.96744973 -36 0 C-32.09022701 -0.42652069 -29.55523565 -0.21098955 -25.875 1.1875 C-21.67139939 2.06890013 -19.72126501 1.61990794 -15.625 0.5625 C-5.24929046 -2.07014272 -5.24929046 -2.07014272 0 0 Z M-35.625 8.0625 C-37.31025083 10.08196042 -37.31025083 10.08196042 -37.25 13.5 C-37.4975 14.655 -37.745 15.81 -38 17 C-41.5 18.75 -41.5 18.75 -45 20 C-45.33 20.99 -45.66 21.98 -46 23 C-44.62750037 25.67676547 -44.62750037 25.67676547 -43 28 C-45.64738916 29.4606285 -46.89448334 30 -50 30 C-50.639375 29.649375 -51.27875 29.29875 -51.9375 28.9375 C-53.9311377 27.81415733 -53.9311377 27.81415733 -56 28.25 C-58.08764473 29.03286677 -60.03529239 29.94747807 -62 31 C-62.99 30.34 -63.98 29.68 -65 29 C-67.56189845 28.84525388 -67.56189845 28.84525388 -70 30 C-71.72512465 32.95009373 -71.72512465 32.95009373 -73 36 C-73.66 36.33 -74.32 36.66 -75 37 C-75 38.32 -75 39.64 -75 41 C-71.81233444 43.37708753 -71.81233444 43.37708753 -68 44 C-69.84573653 47.50689941 -71.12369984 49.74958059 -75 51 C-75.66 50.67 -76.32 50.34 -77 50 C-78.99960012 49.960008 -81.00047242 49.95653201 -83 50 C-84.19838209 52.32854463 -84.19838209 52.32854463 -85 55 C-84.34 55.99 -83.68 56.98 -83 58 C-82.38125 57.649375 -81.7625 57.29875 -81.125 56.9375 C-74.42795006 54.92838502 -68.50763519 56.50053179 -62.375 59.5625 C-60.90797834 60.35920561 -59.44621405 61.16611914 -58 62 C-57.52949219 61.65066406 -57.05898437 61.30132812 -56.57421875 60.94140625 C-55.95160156 60.48636719 -55.32898438 60.03132813 -54.6875 59.5625 C-54.07261719 59.11003906 -53.45773438 58.65757813 -52.82421875 58.19140625 C-48.06530551 55.08333658 -42.4624365 55.44032413 -37 56 C-34.09851222 57.01359921 -31.61470685 58.40438825 -29 60 C-27.67184146 60.67691736 -26.33974829 61.34632061 -25 62 C-24.278125 61.38125 -23.55625 60.7625 -22.8125 60.125 C-17.17100245 55.86253518 -11.9527956 55.11240907 -5 56 C-0.9462014 57.44681027 2.43302009 59.6220134 6 62 C6.54269531 61.65066406 7.08539063 61.30132812 7.64453125 60.94140625 C8.35996094 60.48636719 9.07539063 60.03132813 9.8125 59.5625 C10.52019531 59.11003906 11.22789062 58.65757813 11.95703125 58.19140625 C16.76491599 55.38757289 21.59595283 55.63973019 27 56 C30.625 57 30.625 57 33 58 C33.99 56.68 34.98 55.36 36 54 C34.515 53.01 34.515 53.01 33 52 C33.33 51.2575 33.66 50.515 34 49.75 C35.22782871 46.86116688 35.22782871 46.86116688 35 43 C31.7 43 28.4 43 25 43 C24.3125 40.25 24.3125 40.25 24 37 C24.95298777 35.63266972 25.95374591 34.29735507 27 33 C27.33425735 30.37374861 27.33425735 30.37374861 27 28 C25.96021815 26.75121502 25.96021815 26.75121502 23.6875 26.75 C20.55923162 27.04100171 19.31322267 27.94380207 17 30 C16.2265625 29.0409375 16.2265625 29.0409375 15.4375 28.0625 C11.67063371 24.8751516 7.78701243 25 3 25 C2.525625 24.505 2.05125 24.01 1.5625 23.5 C-0.11993064 21.53831211 -0.11993064 21.53831211 -4 22 C-4.1875 18.6875 -4.1875 18.6875 -4 15 C-2.4375 13.3125 -2.4375 13.3125 -1 12 C-1.25146579 9.86254078 -1.45925779 8.54074221 -3 7 C-6.26898586 6.7771146 -8.56846383 6.8253306 -11.625 8.0625 C-14 9 -14 9 -16.0625 8.4375 C-16.701875 8.293125 -17.34125 8.14875 -18 8 C-18.66 8.495 -19.32 8.99 -20 9.5 C-22 11 -22 11 -23.9375 10.875 C-26 10 -26 10 -28.5625 8.4375 C-31.30090178 6.82254511 -32.85067951 6.24852122 -35.625 8.0625 Z M-55 68 C-55.01192816 70.41237482 -54.89802827 72.67970198 -54.6796875 75.07421875 C-54.62111572 75.8101123 -54.56254395 76.54600586 -54.50219727 77.30419922 C-54.30350726 79.76627196 -54.08937806 82.22674735 -53.875 84.6875 C-53.73238349 86.40919069 -53.59063548 88.13095352 -53.44970703 89.8527832 C-53.14346003 93.56778901 -52.83007563 97.28210646 -52.51171875 100.99609375 C-52.0652637 106.21075756 -51.63346744 111.42653267 -51.20553589 116.64274597 C-50.76624802 121.99134962 -50.32062577 127.33942139 -49.875 132.6875 C-49.78909607 133.72562836 -49.70319214 134.76375671 -49.61468506 135.83334351 C-49.36902255 138.7889431 -49.11880464 141.74412086 -48.8671875 144.69921875 C-48.79435547 145.58295166 -48.72152344 146.46668457 -48.64648438 147.37719727 C-48.57606934 148.19333496 -48.5056543 149.00947266 -48.43310547 149.8503418 C-48.37331512 150.55877731 -48.31352478 151.26721283 -48.25192261 151.99711609 C-47.99584142 154.35541329 -47.99584142 154.35541329 -47 158 C-41.39 158 -35.78 158 -30 158 C-29.88709744 146.33456016 -29.7953405 134.6694824 -29.74093914 123.00362015 C-29.71483091 117.58684259 -29.67941001 112.17045776 -29.62280273 106.75390625 C-29.56852739 101.52786137 -29.53858871 96.30219453 -29.52561378 91.07588959 C-29.5163659 89.08071693 -29.49830696 87.08556526 -29.47134972 85.09055328 C-29.43511887 82.2985187 -29.43005214 79.50805165 -29.43237305 76.71582031 C-29.41439667 75.88863495 -29.39642029 75.06144958 -29.37789917 74.209198 C-29.41361914 70.24514527 -29.57575159 68.43983071 -32.37922668 65.53338623 C-40.68115372 60.67601817 -47.97444223 60.97444223 -55 68 Z M-22 68 C-22.09519368 70.7998972 -22.12553944 73.57506174 -22.11352539 76.37524414 C-22.11367142 77.25321152 -22.11381744 78.13117889 -22.1139679 79.03575134 C-22.11326844 81.95224435 -22.10547455 84.86867433 -22.09765625 87.78515625 C-22.09579218 89.80154892 -22.09436823 91.81794204 -22.09336853 93.83433533 C-22.08954244 99.15265138 -22.07971139 104.4709403 -22.06866455 109.78924561 C-22.05845238 115.21170688 -22.05387133 120.63417252 -22.04882812 126.05664062 C-22.0380892 136.70443903 -22.02101169 147.35221726 -22 158 C-19.52076199 158.02685095 -17.0418116 158.04676547 -14.5625 158.0625 C-13.85544922 158.07087891 -13.14839844 158.07925781 -12.41992188 158.08789062 C-10.61306441 158.09653588 -8.80612397 158.05220011 -7 158 C-4.91629274 155.91629274 -5.34945898 151.65794185 -5.07275391 148.7800293 C-4.98654785 147.91824066 -4.9003418 147.05645203 -4.81152344 146.16854858 C-4.52726123 143.3043183 -4.25081465 140.4394242 -3.9765625 137.57421875 C-3.88297832 136.59823038 -3.78939415 135.62224201 -3.69297409 134.61667824 C-3.19959318 129.45149755 -2.71351516 124.28567794 -2.23193359 119.11938477 C-1.83107291 114.83528796 -1.41514894 110.55306649 -0.98583984 106.27172852 C-0.46844364 101.11144683 0.02305712 95.94932078 0.49586868 90.78476906 C0.68064933 88.81389785 0.87455392 86.84386039 1.07764816 84.8747921 C1.35971422 82.12090725 1.60837162 79.36591455 1.84912109 76.6081543 C1.94033234 75.79189072 2.03154358 74.97562714 2.1255188 74.1346283 C2.38464029 71.59110405 2.38464029 71.59110405 2 68 C-0.23068213 65.46183106 -0.23068213 65.46183106 -3 64 C-3.639375 63.5875 -4.27875 63.175 -4.9375 62.75 C-11.51175184 60.35936297 -17.25115069 63.25115069 -22 68 Z M9 69 C8.24552464 72.12362149 8.24552464 72.12362149 7.90673828 75.72705078 C7.82904772 76.39114519 7.75135715 77.0552396 7.67131233 77.73945808 C7.43234546 79.82496429 7.21363961 81.91175935 7 84 C6.86801208 85.25085388 6.73602417 86.50170776 6.60003662 87.79046631 C6.20995905 91.647578 5.84633603 95.50665987 5.4921875 99.3671875 C5.36066826 100.78151769 5.22900202 102.19583422 5.09719849 103.61013794 C4.82464786 106.54264258 4.55435117 109.47534386 4.28564453 112.40820312 C3.94314664 116.1436603 3.59409517 119.87847281 3.24328423 123.61315727 C2.97098424 126.52128638 2.70255297 129.42976314 2.435215 132.3383522 C2.30811417 133.71541221 2.1797566 135.09235689 2.05004501 136.46917343 C1.37313297 143.6741902 0.84344092 150.76185033 1 158 C5.95 158 10.9 158 16 158 C17.56291698 153.31124905 18.77344496 148.79421271 19.75927734 143.97851562 C19.9220517 143.19723801 20.08482605 142.41596039 20.25253296 141.61100769 C21.93523279 133.50381125 23.57276982 125.387193 25.20654297 117.27001953 C25.98283506 113.42044919 26.77311338 109.57415657 27.57568359 105.72998047 C28.54672621 101.07840803 29.49327922 96.42248118 30.42247391 91.76237488 C30.78000672 89.99044274 31.14609324 88.22021401 31.52091599 86.45185852 C32.04316746 83.97913761 32.53366227 81.50204433 33.01708984 79.02148438 C33.17794067 78.29507248 33.3387915 77.56866058 33.5045166 76.82023621 C34.22950747 72.90849551 34.09426213 71.178198 32.20986938 67.61584473 C29.1510701 63.99511309 26.84329224 62.28050099 22.125 61.5625 C17.0250561 62.27649215 12.17023232 64.84601276 9 69 Z M-84 67 C-89.01085428 74.51628142 -83.518404 88.45249808 -81.875 97.0234375 C-81.56459745 98.65859563 -81.25454487 100.29382024 -80.94482422 101.92910767 C-80.29850953 105.33686767 -79.64942422 108.74408304 -78.99804688 112.15087891 C-78.16371516 116.51466676 -77.33418631 120.87934934 -76.50643921 125.24439049 C-75.71422686 129.42104418 -74.91973236 133.59726271 -74.125 137.7734375 C-73.97415955 138.56702038 -73.82331909 139.36060326 -73.66790771 140.1782341 C-73.24079693 142.42293801 -72.8120738 144.66732756 -72.3828125 146.91162109 C-72.01760498 148.82495743 -72.01760498 148.82495743 -71.64501953 150.77694702 C-71.1604475 153.19827111 -70.59890196 155.60439218 -70 158 C-64.72 158 -59.44 158 -54 158 C-54.89327912 147.42924042 -55.78826944 136.85862952 -56.68624783 126.28826809 C-57.10317559 121.37968674 -57.519362 116.4710449 -57.93383789 111.56225586 C-58.33407968 106.82237498 -58.73629011 102.08266485 -59.13984871 97.34306526 C-59.29324085 95.53749561 -59.44593129 93.73186621 -59.59789848 91.92617607 C-59.8113569 89.39129467 -60.02734062 86.85663989 -60.24389648 84.32202148 C-60.30575638 83.58042786 -60.36761627 82.83883423 -60.43135071 82.07476807 C-60.60337434 74.23102385 -60.60337434 74.23102385 -63.33984375 67.2578125 C-70.2416501 62.36411118 -77.45997992 60.06361506 -84 67 Z " fill="#000000" transform="translate(123,26)"/>
<path d="M0 0 C2.01145488 2.85496822 2.85290937 4.28178418 2.9375 7.75 C2.29829057 9.75894394 1.62710962 11.75779443 0.9375 13.75 C0.78731297 15.28941709 0.66370729 16.83158878 0.5625 18.375 C0.25614526 21.31007604 -0.01385511 22.66892518 -1.5625 25.25 C-5.30570234 27.49592141 -8.75914229 27.59303862 -13.0625 27.75 C-14.45855469 27.82734375 -14.45855469 27.82734375 -15.8828125 27.90625 C-21.36760696 28.08558933 -25.37190811 27.95935234 -30.0625 24.75 C-31.7502634 21.3744732 -31.24709799 17.58376289 -31.25 13.875 C-31.26224609 13.05902344 -31.27449219 12.24304687 -31.28710938 11.40234375 C-31.28904297 10.61214844 -31.29097656 9.82195313 -31.29296875 9.0078125 C-31.29707764 8.2873877 -31.30118652 7.56696289 -31.30541992 6.82470703 C-31.01874242 4.37627952 -30.37643408 2.83205912 -29.0625 0.75 C-21.51826078 -4.27949282 -7.52075879 -5.52545543 0 0 Z M-10.0625 3.75 C-11.0525 4.41 -12.0425 5.07 -13.0625 5.75 C-15.54296875 5.9453125 -15.54296875 5.9453125 -18.25 5.875 C-19.15105469 5.85695313 -20.05210938 5.83890625 -20.98046875 5.8203125 C-21.66753906 5.79710937 -22.35460938 5.77390625 -23.0625 5.75 C-23.99673645 8.76031744 -24.10699911 9.61650268 -23.0625 12.75 C-23.34019908 15.0906065 -23.66789977 17.42624308 -24.0625 19.75 C-23.38703125 19.73839844 -22.7115625 19.72679687 -22.015625 19.71484375 C-20.67757812 19.70130859 -20.67757812 19.70130859 -19.3125 19.6875 C-17.98992188 19.67009766 -17.98992188 19.67009766 -16.640625 19.65234375 C-14.0625 19.75 -14.0625 19.75 -11.921875 20.31640625 C-9.85110544 20.97031926 -9.85110544 20.97031926 -7.0625 19.75 C-5.66153754 16.67757947 -5.66153754 16.67757947 -7.5 13.5625 C-8.015625 12.634375 -8.53125 11.70625 -9.0625 10.75 C-8.0725 10.42 -7.0825 10.09 -6.0625 9.75 C-5.32926204 7.73491642 -5.32926204 7.73491642 -5.0625 5.75 C-7.39104463 4.55161791 -7.39104463 4.55161791 -10.0625 3.75 Z " fill="#000000" transform="translate(68.0625,9.25)"/>
<path d="M0 0 C3.21062713 2.09460435 6.08502694 4.51707736 9 7 C9.969375 7.721875 10.93875 8.44375 11.9375 9.1875 C15.49307318 12.31209461 15.9226331 14.18764751 16.375 18.9375 C16.26067437 21.73328143 15.91517509 23.19085604 14.75 25.8125 C11.05966694 28.74799221 7.44663471 29.39274818 2.875 30.32421875 C0.2662969 30.93740576 -1.64067831 31.78764067 -4 33 C-10.049321 33.68482879 -13.17043126 32.40910735 -18 29 C-19.94129885 25.9916296 -20.29626753 23.54950075 -20.3125 20 C-20.32925781 19.154375 -20.34601563 18.30875 -20.36328125 17.4375 C-19.92669083 14.50811909 -18.86166495 13.25993158 -17 11 C-16.2884375 9.2675 -16.2884375 9.2675 -15.5625 7.5 C-14.04878114 4.10926975 -12.84977783 2.31544448 -10 0 C-6.32284851 -1.22571716 -3.62011887 -1.26007984 0 0 Z M-7 7 C-9.29013653 10.4352048 -9.17842973 11.985331 -9 16 C-10.98 16.99 -10.98 16.99 -13 18 C-13.33425735 20.37374861 -13.33425735 20.37374861 -13 23 C-11.48105194 25.09764165 -11.48105194 25.09764165 -9 26 C-5.7993286 25.43326199 -5.7993286 25.43326199 -3 24 C-2.67 23.34 -2.34 22.68 -2 22 C-1.06027344 22.01740234 -1.06027344 22.01740234 -0.1015625 22.03515625 C1.12433594 22.04869141 1.12433594 22.04869141 2.375 22.0625 C3.59316406 22.07990234 3.59316406 22.07990234 4.8359375 22.09765625 C7.04937142 22.14466334 7.04937142 22.14466334 9 21 C8.50153711 17.31137465 7.9758353 15.31453856 5 13 C4.34 12.690625 3.68 12.38125 3 12.0625 C1 11 1 11 -0.4375 8.875 C-1.87638671 6.73561826 -1.87638671 6.73561826 -4.5625 6.5625 C-5.366875 6.706875 -6.17125 6.85125 -7 7 Z " fill="#000000" transform="translate(151,1)"/>
<path d="M0 0 C4.36617938 2.41729088 6.57597562 4.90139137 8.375 9.5625 C8.65746878 15.91190682 4.60669051 22.05143733 1 27 C-3.45655699 30.55113512 -6.32554709 31.65207161 -11.890625 31.390625 C-15.10069989 30.79616669 -16.75631351 29.30779182 -19 27 C-19.66 26.360625 -20.32 25.72125 -21 25.0625 C-21.66 24.381875 -22.32 23.70125 -23 23 C-23.886875 22.2575 -24.77375 21.515 -25.6875 20.75 C-28.88044724 16.95298167 -29 14.9465777 -29 10 C-27.40575802 6.22416372 -25.42655245 4.17887349 -22 2 C-19.5625 1.55859375 -19.5625 1.55859375 -17 1.4375 C-10.67004467 1.11907237 -6.50672079 -2.04393274 0 0 Z M-6 6 C-6.556875 6.66 -7.11375 7.32 -7.6875 8 C-10 10 -10 10 -12.18359375 10.01171875 C-13.78661805 9.79883712 -15.38533754 9.54983091 -16.9765625 9.26171875 C-19.06545022 8.80012023 -19.06545022 8.80012023 -21 10 C-21.16687448 12.41645782 -21.16687448 12.41645782 -21 15 C-19.16116119 17.28728734 -19.16116119 17.28728734 -16.375 17.125 C-15.59125 17.08375 -14.8075 17.0425 -14 17 C-13.34 19.31 -12.68 21.62 -12 24 C-8.535 23.505 -8.535 23.505 -5 23 C-3.74335022 20.09399739 -3 18.20395416 -3 15 C-1 12.8125 -1 12.8125 1 11 C-0.45914772 8.73832103 -1.52251713 7.24644277 -3.9375 6 C-4.618125 6 -5.29875 6 -6 6 Z " fill="#000000" transform="translate(29,42)"/>
<path d="M0 0 C4.50408395 -0.20473109 7.18063482 0.40273972 10.75 3.15625 C11.348125 3.548125 11.94625 3.94 12.5625 4.34375 C14.51094732 7.31769591 14.28527737 10.70822957 13.75 14.15625 C13.09 15.14625 12.43 16.13625 11.75 17.15625 C11.46125 18.31125 11.1725 19.46625 10.875 20.65625 C9.62673592 24.53973824 9.13094533 25.13904732 5.75 27.15625 C-0.53651314 29.15314241 -7.66117039 31.09751137 -14.25 30.15625 C-19.78846154 27.07932692 -19.78846154 27.07932692 -21.25 24.15625 C-21.96452555 16.29646895 -20.15572222 8.74567157 -15.125 2.53125 C-10.22678484 0.18862536 -5.32526377 0.36980998 0 0 Z M-5.25 8.15625 C-7.24897128 8.49569795 -9.24875639 8.83046616 -11.25 9.15625 C-11.559375 10.39375 -11.86875 11.63125 -12.1875 12.90625 C-12.72624849 15.06124394 -13.25843122 17.18235344 -13.94140625 19.296875 C-14.04324219 19.91046875 -14.14507812 20.5240625 -14.25 21.15625 C-13.59 21.81625 -12.93 22.47625 -12.25 23.15625 C-8.94316534 22.86641731 -8.94316534 22.86641731 -6.25 21.15625 C-4.73530552 20.92432135 -3.21245438 20.74409762 -1.6875 20.59375 C-0.86121094 20.50996094 -0.03492188 20.42617188 0.81640625 20.33984375 C1.45449219 20.27925781 2.09257812 20.21867187 2.75 20.15625 C3.03875 19.2075 3.3275 18.25875 3.625 17.28125 C4.75 14.15625 4.75 14.15625 6.75 12.15625 C6.4314823 10.04804203 6.4314823 10.04804203 5.75 8.15625 C1.68605135 7.3056561 -1.23268944 7.15192236 -5.25 8.15625 Z " fill="#000000" transform="translate(184.25,27.84375)"/>
<path d="M0 0 C2.94556752 1.21822854 3.94444407 2.31777554 5.53125 5.046875 C6.21875 7.796875 6.21875 7.796875 6.53125 10.046875 C3.89125 10.046875 1.25125 10.046875 -1.46875 10.046875 C-1.46875 9.056875 -1.46875 8.066875 -1.46875 7.046875 C-2.21125 7.3975 -2.95375 7.748125 -3.71875 8.109375 C-6.63084794 9.10213566 -7.67944033 9.2010721 -10.46875 8.046875 C-11.12875 7.386875 -11.78875 6.726875 -12.46875 6.046875 C-16.05218976 5.88010218 -16.05218976 5.88010218 -19.46875 6.046875 C-19.79875 8.356875 -20.12875 10.666875 -20.46875 13.046875 C-21.10683594 13.16804688 -21.74492188 13.28921875 -22.40234375 13.4140625 C-23.22863281 13.58164063 -24.05492188 13.74921875 -24.90625 13.921875 C-26.14181641 14.16550781 -26.14181641 14.16550781 -27.40234375 14.4140625 C-28.08425781 14.62289062 -28.76617187 14.83171875 -29.46875 15.046875 C-29.79875 15.706875 -30.12875 16.366875 -30.46875 17.046875 C-33.10875 17.046875 -35.74875 17.046875 -38.46875 17.046875 C-38.1715315 13.57932588 -37.48092428 12.06217981 -35.28125 9.296875 C-32.20048064 6.83225952 -30.35257414 6.31783947 -26.46875 6.046875 C-26.406875 5.469375 -26.345 4.891875 -26.28125 4.296875 C-22.44261608 -6.33318816 -8.24747546 -1.95334945 0 0 Z " fill="#000000" transform="translate(111.46875,52.953125)"/>
<path d="M0 0 C2.0625 1.9375 2.0625 1.9375 3 4 C3 5.32 3 6.64 3 8 C-0.375 8.125 -0.375 8.125 -4 8 C-4.66 7.34 -5.32 6.68 -6 6 C-8.45769153 5.58320703 -8.45769153 5.58320703 -11 6 C-11.67675781 6.76183594 -11.67675781 6.76183594 -12.3671875 7.5390625 C-14 9 -14 9 -16.26171875 9.07421875 C-17.06222656 8.94660156 -17.86273438 8.81898437 -18.6875 8.6875 C-19.89986328 8.50767578 -19.89986328 8.50767578 -21.13671875 8.32421875 C-21.75160156 8.21722656 -22.36648437 8.11023438 -23 8 C-23.33 8.99 -23.66 9.98 -24 11 C-26.31 11 -28.62 11 -31 11 C-30.69947157 7.69418729 -30.43004639 5.54984503 -28.359375 2.90234375 C-25.4467457 0.55391582 -23.154674 0.0375672 -19.5 -0.6875 C-18.3759375 -0.91824219 -17.251875 -1.14898437 -16.09375 -1.38671875 C-15.0728125 -1.58910156 -14.051875 -1.79148437 -13 -2 C-12.30003906 -2.2165625 -11.60007812 -2.433125 -10.87890625 -2.65625 C-7.06823546 -3.35342054 -3.42361431 -1.58212479 0 0 Z " fill="#000000" transform="translate(137,66)"/>
<path d="M0 0 C0.50567729 2.56149628 1.00470132 5.12399465 1.5 7.6875 C1.64308594 8.40873047 1.78617188 9.12996094 1.93359375 9.87304688 C2.65151899 13.61651421 3.29302637 17.16868026 3 21 C2.67 21.33 2.34 21.66 2 22 C0.02 22 -1.96 22 -4 22 C-5.32 15.07 -6.64 8.14 -8 1 C-5.07175348 0.02391783 -3.04386724 -0.08226668 0 0 Z " fill="#000000" transform="translate(50,98)"/>
<path d="M0 0 C2.64 0 5.28 0 8 0 C7.85888117 2.75031587 7.71228835 5.50015418 7.5625 8.25 C7.50352539 9.41595703 7.50352539 9.41595703 7.44335938 10.60546875 C7.40146484 11.35957031 7.35957031 12.11367187 7.31640625 12.890625 C7.26141968 13.92751465 7.26141968 13.92751465 7.20532227 14.98535156 C6.99324476 17.06628329 6.55491323 18.98572422 6 21 C3.69 21 1.38 21 -1 21 C-0.67 14.07 -0.34 7.14 0 0 Z " fill="#000000" transform="translate(110,119)"/>
<path d="M0 0 C2.64 0 5.28 0 8 0 C8.33 4.62 8.66 9.24 9 14 C6.36 14 3.72 14 1 14 C0.67 9.38 0.34 4.76 0 0 Z " fill="#000000" transform="translate(53,151)"/>
<path d="M0 0 C2.33944736 0.28730055 4.6739143 0.61936779 7 1 C6.67 4.96 6.34 8.92 6 13 C3.69 13 1.38 13 -1 13 C-2.30055604 10.39888792 -1.93112435 8.81258678 -1.625 5.9375 C-1.53476563 5.03902344 -1.44453125 4.14054687 -1.3515625 3.21484375 C-1 1 -1 1 0 0 Z " fill="#000000" transform="translate(113,98)"/>
<path d="M0 0 C2.33294775 -0.04241723 4.66702567 -0.04092937 7 0 C8 1 8 1 8.0625 4.5625 C8.041875 5.696875 8.02125 6.83125 8 8 C5.36 8 2.72 8 0 8 C0 5.36 0 2.72 0 0 Z " fill="#000000" transform="translate(106,161)"/>
</svg>
