<?xml version="1.0" encoding="utf-8"?>
<!DOCTYPE svg PUBLIC "-//W3C//DTD SVG 20010904//EN" "http://www.w3.org/TR/2001/REC-SVG-20010904/DTD/svg10.dtd">
<svg version="1.0" xmlns="http://www.w3.org/2000/svg" width="1862pt" height="1862pt" viewBox="0 0 1862 1862" preserveAspectRatio="xMidYMid meet">
<g fill="#FEAE02FC">
<path d="M 944.00 1842.66 L 944.00 1837.32 L 906.34 1836.66 C 885.62 1836.30 846.47 1836.00 819.34 1836.00 L 770.00 1836.00 L 770.00 1830.00 L 770.00 1824.00 L 754.75 1823.99 C 746.36 1823.99 735.11 1823.70 729.75 1823.34 L 720.00 1822.70 L 720.00 1817.50 L 720.00 1812.30 L 710.25 1811.66 C 704.89 1811.30 690.94 1811.01 679.25 1811.01 L 658.00 1811.00 L 658.00 1805.00 L 658.00 1799.00 L 645.50 1799.00 L 633.00 1799.00 L 633.00 1793.15 L 633.00 1787.30 L 623.85 1786.65 C 618.81 1786.29 610.73 1786.00 605.90 1786.00 L 597.10 1786.00 L 596.80 1780.25 L 596.50 1774.50 L 583.75 1774.22 L 571.00 1773.94 L 571.00 1767.97 L 571.00 1762.00 L 562.25 1761.99 C 557.44 1761.99 549.11 1761.70 543.75 1761.34 L 534.00 1760.70 L 534.00 1754.85 L 534.00 1749.00 L 527.50 1749.00 L 521.00 1749.00 L 521.00 1743.00 L 521.00 1737.00 L 509.00 1737.00 L 497.00 1737.00 L 497.00 1731.10 L 497.00 1725.20 L 484.50 1724.48 L 472.00 1723.76 L 472.00 1717.88 L 472.00 1712.00 L 459.50 1712.00 L 447.00 1712.00 L 447.00 1706.00 L 447.00 1700.00 L 441.00 1700.00 L 435.00 1700.00 L 435.00 1694.11 L 435.00 1688.22 L 423.00 1687.50 L 411.00 1686.78 L 411.00 1680.89 L 411.00 1675.00 L 404.50 1675.00 L 398.00 1675.00 L 398.00 1669.10 L 398.00 1663.20 L 385.50 1662.48 L 373.00 1661.76 L 373.00 1655.88 L 373.00 1650.00 L 367.05 1650.00 L 361.10 1650.00 L 360.80 1643.75 L 360.50 1637.50 L 354.25 1637.20 L 348.00 1636.90 L 348.00 1630.95 L 348.00 1625.00 L 342.00 1625.00 L 336.00 1625.00 L 336.00 1619.00 L 336.00 1613.00 L 329.50 1613.00 L 323.00 1613.00 L 323.00 1607.11 L 323.00 1601.22 L 311.10 1600.51 L 299.21 1599.79 L 298.50 1588.00 L 297.79 1576.21 L 285.90 1575.49 L 274.00 1574.78 L 274.00 1568.89 L 274.00 1563.00 L 268.11 1563.00 L 262.22 1563.00 L 261.50 1551.00 L 260.78 1539.00 L 254.89 1539.00 L 249.00 1539.00 L 249.00 1532.50 L 249.00 1526.00 L 243.00 1526.00 L 237.00 1526.00 L 237.00 1520.05 L 237.00 1514.10 L 230.75 1513.80 L 224.50 1513.50 L 224.20 1507.25 L 223.90 1501.00 L 217.95 1501.00 L 212.00 1501.00 L 212.00 1489.05 L 212.00 1477.10 L 205.75 1476.80 L 199.50 1476.50 L 199.20 1470.25 L 198.90 1464.00 L 192.95 1464.00 L 187.00 1464.00 L 187.00 1457.50 L 187.00 1451.00 L 181.11 1451.00 L 175.22 1451.00 L 174.50 1439.00 L 173.78 1427.00 L 167.89 1427.00 L 162.00 1427.00 L 162.00 1414.50 L 162.00 1402.00 L 156.05 1402.00 L 150.10 1402.00 L 149.80 1395.75 L 149.50 1389.50 L 143.86 1389.20 L 138.22 1388.91 L 137.50 1376.95 L 136.78 1365.00 L 130.89 1365.00 L 125.00 1365.00 L 125.00 1358.50 L 125.00 1352.00 L 119.00 1352.00 L 113.00 1352.00 L 113.00 1342.65 C 113.00 1337.51 112.71 1329.19 112.35 1324.15 L 111.70 1315.00 L 105.85 1315.00 L 100.00 1315.00 L 100.00 1297.00 L 100.00 1279.00 L 94.13 1279.00 L 88.26 1279.00 L 87.54 1266.00 L 86.82 1253.00 L 81.52 1253.00 L 76.22 1253.00 L 75.50 1241.00 L 74.78 1229.00 L 68.89 1229.00 L 63.00 1229.00 L 63.00 1204.00 L 63.00 1179.00 L 57.00 1179.00 L 51.00 1179.00 L 50.99 1163.75 C 50.99 1155.36 50.70 1144.11 50.34 1138.75 L 49.70 1129.00 L 44.50 1129.00 L 39.30 1129.00 L 38.65 1119.85 C 38.29 1114.81 38.00 1095.46 38.00 1076.85 L 38.00 1043.00 L 32.15 1043.00 L 26.29 1043.00 L 25.78 986.75 C 25.50 955.81 25.50 905.41 25.78 874.75 L 26.29 819.00 L 32.14 819.00 L 38.00 819.00 L 38.00 785.15 C 38.00 766.54 38.29 747.19 38.65 742.15 L 39.30 733.00 L 44.50 733.00 L 49.70 733.00 L 50.34 723.25 C 50.70 717.89 50.99 706.64 50.99 698.25 L 51.00 683.00 L 57.00 683.00 L 63.00 683.00 L 63.00 658.00 L 63.00 633.00 L 68.89 633.00 L 74.78 633.00 L 75.50 621.05 L 76.22 609.09 L 81.86 608.80 L 87.50 608.50 L 87.78 595.75 L 88.06 583.00 L 94.03 583.00 L 100.00 583.00 L 100.00 565.05 L 100.00 547.10 L 106.25 546.80 L 112.50 546.50 L 112.78 533.75 L 113.06 521.00 L 119.03 521.00 L 125.00 521.00 L 125.00 509.00 L 125.00 497.00 L 130.89 497.00 L 136.78 497.00 L 137.50 485.05 L 138.22 473.09 L 143.86 472.80 L 149.50 472.50 L 149.80 466.25 L 150.10 460.00 L 156.05 460.00 L 162.00 460.00 L 162.00 447.50 L 162.00 435.00 L 167.90 435.00 L 173.80 435.00 L 174.52 422.50 L 175.24 410.00 L 181.12 410.00 L 187.00 410.00 L 187.00 404.00 L 187.00 398.00 L 192.95 398.00 L 198.90 398.00 L 199.20 391.75 L 199.50 385.50 L 205.75 385.20 L 212.00 384.90 L 212.00 372.95 L 212.00 361.00 L 217.95 361.00 L 223.90 361.00 L 224.20 354.75 L 224.50 348.50 L 230.75 348.20 L 237.00 347.90 L 237.00 341.95 L 237.00 336.00 L 243.00 336.00 L 249.00 336.00 L 249.00 329.50 L 249.00 323.00 L 255.00 323.00 L 261.00 323.00 L 261.00 317.00 L 261.00 311.00 L 266.95 311.00 L 272.90 311.00 L 273.20 304.75 L 273.50 298.50 L 279.75 298.20 L 286.00 297.90 L 286.00 291.95 L 286.00 286.00 L 292.50 286.00 L 299.00 286.00 L 299.00 279.50 L 299.00 273.00 L 305.00 273.00 L 311.00 273.00 L 311.00 261.00 L 311.00 249.00 L 323.50 249.00 L 336.00 249.00 L 336.00 243.00 L 336.00 237.00 L 342.00 237.00 L 348.00 237.00 L 348.00 231.05 L 348.00 225.10 L 354.25 224.80 L 360.50 224.50 L 360.80 218.25 L 361.10 212.00 L 367.05 212.00 L 373.00 212.00 L 373.00 206.12 L 373.00 200.24 L 385.50 199.52 L 398.00 198.80 L 398.00 192.90 L 398.00 187.00 L 409.95 187.00 L 421.90 187.00 L 422.20 180.75 L 422.50 174.50 L 428.75 174.20 L 435.00 173.90 L 435.00 167.95 L 435.00 162.00 L 441.00 162.00 L 447.00 162.00 L 447.00 156.00 L 447.00 150.00 L 459.50 150.00 L 472.00 150.00 L 472.00 144.12 L 472.00 138.24 L 484.50 137.52 L 497.00 136.80 L 497.00 130.90 L 497.00 125.00 L 509.50 125.00 L 522.00 125.00 L 522.00 119.00 L 522.00 113.00 L 528.00 113.00 L 534.00 113.00 L 534.00 107.15 L 534.00 101.30 L 543.15 100.65 C 548.19 100.29 556.51 100.00 561.65 100.00 L 571.00 100.00 L 571.00 94.00 L 571.00 88.00 L 580.35 88.00 C 585.49 88.00 593.81 87.71 598.85 87.35 L 608.00 86.70 L 608.00 81.47 L 608.00 76.24 L 620.50 75.52 L 633.00 74.80 L 633.00 68.90 L 633.00 63.00 L 645.50 63.00 L 658.00 63.00 L 658.00 57.00 L 658.00 51.00 L 679.85 51.00 C 691.86 51.00 705.81 50.71 710.85 50.35 L 720.00 49.70 L 720.00 44.50 L 720.00 39.30 L 729.15 38.65 C 734.19 38.29 748.14 38.00 760.15 38.00 L 782.00 38.00 L 782.00 32.16 L 782.00 26.33 L 856.13 25.67 C 896.90 25.30 963.95 25.30 1005.13 25.67 L 1080.00 26.33 L 1080.00 32.16 L 1080.00 38.00 L 1107.85 38.00 C 1123.16 38.00 1139.79 38.29 1144.80 38.65 L 1153.91 39.29 L 1154.20 44.90 L 1154.50 50.50 L 1179.25 50.77 L 1204.00 51.03 L 1204.00 57.02 L 1204.00 63.00 L 1216.50 63.00 L 1229.00 63.00 L 1229.00 69.00 L 1229.00 75.00 L 1237.85 75.00 C 1242.71 75.00 1250.79 75.29 1255.80 75.65 L 1264.91 76.29 L 1265.20 81.90 L 1265.50 87.50 L 1278.25 87.78 L 1291.00 88.06 L 1291.00 94.03 L 1291.00 100.00 L 1300.35 100.00 C 1305.49 100.00 1313.81 100.29 1318.85 100.65 L 1328.00 101.30 L 1328.00 107.15 L 1328.00 113.00 L 1334.00 113.00 L 1340.00 113.00 L 1340.00 119.00 L 1340.00 125.00 L 1352.50 125.00 L 1365.00 125.00 L 1365.00 130.88 L 1365.00 136.76 L 1377.50 137.48 L 1390.00 138.20 L 1390.00 144.10 L 1390.00 150.00 L 1408.50 150.00 L 1427.00 150.00 L 1427.00 161.89 L 1427.00 173.78 L 1439.00 174.50 L 1451.00 175.22 L 1451.00 181.11 L 1451.00 187.00 L 1463.45 187.00 L 1475.90 187.00 L 1476.20 193.25 L 1476.50 199.50 L 1482.75 199.80 L 1489.00 200.10 L 1489.00 206.05 L 1489.00 212.00 L 1495.00 212.00 L 1501.00 212.00 L 1501.00 217.95 L 1501.00 223.90 L 1507.25 224.20 L 1513.50 224.50 L 1513.80 230.75 L 1514.10 237.00 L 1520.05 237.00 L 1526.00 237.00 L 1526.00 243.00 L 1526.00 249.00 L 1538.50 249.00 L 1551.00 249.00 L 1551.00 255.50 L 1551.00 262.00 L 1556.89 262.00 L 1562.78 262.00 L 1563.50 274.00 L 1564.22 286.00 L 1576.11 286.00 L 1588.00 286.00 L 1588.00 292.50 L 1588.00 299.00 L 1593.89 299.00 L 1599.78 299.00 L 1600.50 311.00 L 1601.22 323.00 L 1607.11 323.00 L 1613.00 323.00 L 1613.00 328.95 L 1613.00 334.90 L 1619.25 335.20 L 1625.50 335.50 L 1625.80 341.75 L 1626.10 348.00 L 1632.05 348.00 L 1638.00 348.00 L 1638.00 354.50 L 1638.00 361.00 L 1644.00 361.00 L 1650.00 361.00 L 1650.00 372.95 L 1650.00 384.90 L 1656.25 385.20 L 1662.50 385.50 L 1662.80 391.75 L 1663.10 398.00 L 1669.05 398.00 L 1675.00 398.00 L 1675.00 404.00 L 1675.00 410.00 L 1680.88 410.00 L 1686.76 410.00 L 1687.48 422.50 L 1688.20 435.00 L 1694.10 435.00 L 1700.00 435.00 L 1700.00 441.50 L 1700.00 448.00 L 1706.00 448.00 L 1712.00 448.00 L 1712.00 460.00 L 1712.00 472.00 L 1717.95 472.00 L 1723.90 472.00 L 1724.20 478.25 L 1724.50 484.50 L 1730.75 484.80 L 1737.00 485.10 L 1737.00 497.55 L 1737.00 510.00 L 1743.00 510.00 L 1749.00 510.00 L 1749.01 518.75 C 1749.01 523.56 1749.30 531.89 1749.66 537.25 L 1750.30 547.00 L 1755.54 547.00 L 1760.78 547.00 L 1761.50 559.00 L 1762.22 571.00 L 1768.11 571.00 L 1774.00 571.00 L 1774.00 583.50 L 1774.00 596.00 L 1780.00 596.00 L 1786.00 596.00 L 1786.00 605.35 C 1786.00 610.49 1786.29 618.81 1786.65 623.85 L 1787.30 633.00 L 1793.15 633.00 L 1799.00 633.00 L 1799.00 652.00 L 1799.00 671.00 L 1805.00 671.00 L 1811.00 671.00 L 1811.01 692.25 C 1811.01 703.94 1811.30 717.89 1811.66 723.25 L 1812.30 733.00 L 1817.50 733.00 L 1822.70 733.00 L 1823.35 742.15 C 1823.71 747.19 1824.00 758.21 1824.00 766.65 L 1824.00 782.00 L 1830.00 782.00 L 1836.00 782.00 L 1836.00 816.35 C 1836.00 835.24 1836.29 854.81 1836.65 859.85 L 1837.30 869.00 L 1842.65 869.00 L 1848.00 869.00 L 1848.00 925.00 L 1848.00 981.00 L 1842.65 981.00 L 1837.30 981.00 L 1836.65 990.15 C 1836.29 995.19 1836.00 1014.76 1836.00 1033.65 L 1836.00 1068.00 L 1830.00 1068.00 L 1824.00 1068.00 L 1824.00 1080.25 C 1824.00 1086.99 1823.70 1100.94 1823.34 1111.25 L 1822.68 1130.00 L 1817.49 1130.00 L 1812.30 1130.00 L 1811.65 1139.15 C 1811.29 1144.19 1811.00 1157.91 1811.00 1169.65 L 1811.00 1191.00 L 1805.00 1191.00 L 1799.00 1191.00 L 1799.00 1209.50 L 1799.00 1228.00 L 1793.15 1228.00 L 1787.30 1228.00 L 1786.66 1237.75 C 1786.30 1243.11 1786.01 1251.42 1786.01 1256.20 L 1786.00 1264.90 L 1780.25 1265.20 L 1774.50 1265.50 L 1774.22 1277.75 L 1773.94 1290.00 L 1768.09 1290.00 L 1762.24 1290.00 L 1761.52 1302.50 L 1760.80 1315.00 L 1755.55 1315.00 L 1750.30 1315.00 L 1749.65 1324.15 C 1749.29 1329.19 1749.00 1337.51 1749.00 1342.65 L 1749.00 1352.00 L 1743.00 1352.00 L 1737.00 1352.00 L 1737.00 1358.50 L 1737.00 1365.00 L 1731.10 1365.00 L 1725.20 1365.00 L 1724.48 1377.50 L 1723.76 1390.00 L 1717.88 1390.00 L 1712.00 1390.00 L 1712.00 1402.00 L 1712.00 1414.00 L 1706.00 1414.00 L 1700.00 1414.00 L 1700.00 1420.50 L 1700.00 1427.00 L 1694.10 1427.00 L 1688.20 1427.00 L 1687.48 1439.50 L 1686.76 1452.00 L 1680.88 1452.00 L 1675.00 1452.00 L 1675.00 1458.00 L 1675.00 1464.00 L 1669.05 1464.00 L 1663.10 1464.00 L 1662.80 1470.25 L 1662.50 1476.50 L 1656.25 1476.80 L 1650.00 1477.10 L 1650.00 1489.05 L 1650.00 1501.00 L 1644.05 1501.00 L 1638.10 1501.00 L 1637.80 1507.25 L 1637.50 1513.50 L 1631.25 1513.80 L 1625.00 1514.10 L 1625.00 1520.05 L 1625.00 1526.00 L 1619.00 1526.00 L 1613.00 1526.00 L 1613.00 1538.50 L 1613.00 1551.00 L 1601.11 1551.00 L 1589.22 1551.00 L 1588.51 1562.90 L 1587.79 1574.79 L 1576.00 1575.50 L 1564.21 1576.21 L 1563.50 1588.00 L 1562.79 1599.79 L 1550.90 1600.51 L 1539.00 1601.22 L 1539.00 1607.11 L 1539.00 1613.00 L 1532.50 1613.00 L 1526.00 1613.00 L 1526.00 1619.50 L 1526.00 1626.00 L 1520.05 1626.00 L 1514.10 1626.00 L 1513.80 1631.75 L 1513.50 1637.50 L 1507.25 1637.80 L 1501.00 1638.10 L 1501.00 1644.05 L 1501.00 1650.00 L 1495.00 1650.00 L 1489.00 1650.00 L 1489.00 1655.89 L 1489.00 1661.78 L 1477.00 1662.50 L 1465.00 1663.22 L 1465.00 1669.11 L 1465.00 1675.00 L 1458.00 1675.00 L 1451.00 1675.00 L 1451.00 1680.89 L 1451.00 1686.78 L 1439.00 1687.50 L 1427.00 1688.22 L 1427.00 1694.11 L 1427.00 1700.00 L 1421.00 1700.00 L 1415.00 1700.00 L 1415.00 1706.00 L 1415.00 1712.00 L 1402.50 1712.00 L 1390.00 1712.00 L 1390.00 1717.90 L 1390.00 1723.80 L 1377.50 1724.52 L 1365.00 1725.24 L 1365.00 1731.12 L 1365.00 1737.00 L 1358.50 1737.00 L 1352.00 1737.00 L 1352.00 1743.00 L 1352.00 1749.00 L 1340.00 1749.00 L 1328.00 1749.00 L 1328.00 1754.85 L 1328.00 1760.70 L 1318.25 1761.34 C 1312.89 1761.70 1304.56 1761.99 1299.75 1761.99 L 1291.00 1762.00 L 1291.00 1767.97 L 1291.00 1773.94 L 1278.25 1774.22 L 1265.50 1774.50 L 1265.20 1780.25 L 1264.90 1786.00 L 1256.10 1786.00 C 1251.27 1786.00 1243.19 1786.29 1238.15 1786.65 L 1229.00 1787.30 L 1229.00 1793.15 L 1229.00 1799.00 L 1216.50 1799.00 L 1204.00 1799.00 L 1204.00 1805.00 L 1204.00 1811.00 L 1188.15 1811.00 C 1179.44 1811.00 1168.19 1811.29 1163.15 1811.65 L 1154.00 1812.30 L 1154.00 1817.49 L 1154.00 1822.68 L 1135.25 1823.34 C 1124.94 1823.70 1108.29 1824.00 1098.25 1824.00 L 1080.00 1824.00 L 1080.00 1830.00 L 1080.00 1836.00 L 1028.16 1836.00 C 999.64 1836.00 971.52 1836.29 965.66 1836.65 L 955.00 1837.30 L 955.00 1842.65 L 955.00 1848.00 L 949.50 1848.00 L 944.00 1848.00 L 944.00 1842.66ZM 1018.00 1743.00 L 1018.00 1737.00 L 1061.00 1737.00 L 1104.00 1737.00 L 1104.00 1731.00 L 1104.00 1725.00 L 1119.75 1724.99 C 1128.41 1724.99 1139.89 1724.70 1145.25 1724.34 L 1155.00 1723.70 L 1155.00 1718.50 L 1155.00 1713.30 L 1164.15 1712.65 C 1169.19 1712.29 1177.29 1712.00 1182.15 1712.00 L 1191.00 1712.00 L 1191.00 1706.03 L 1191.00 1700.06 L 1203.75 1699.78 L 1216.50 1699.50 L 1216.80 1693.75 L 1217.10 1688.00 L 1225.80 1687.99 C 1230.58 1687.99 1238.89 1687.70 1244.25 1687.34 L 1254.00 1686.70 L 1254.00 1680.85 L 1254.00 1675.00 L 1266.50 1675.00 L 1279.00 1675.00 L 1279.00 1669.00 L 1279.00 1663.00 L 1291.00 1663.00 L 1303.00 1663.00 L 1303.00 1656.50 L 1303.00 1650.00 L 1315.00 1650.00 L 1327.00 1650.00 L 1327.00 1644.03 L 1327.00 1638.06 L 1339.75 1637.78 L 1352.50 1637.50 L 1352.80 1631.75 L 1353.10 1626.00 L 1359.05 1626.00 L 1365.00 1626.00 L 1365.00 1619.50 L 1365.00 1613.00 L 1377.50 1613.00 L 1390.00 1613.00 L 1390.00 1607.00 L 1390.00 1601.00 L 1395.95 1601.00 L 1401.90 1601.00 L 1402.20 1594.75 L 1402.50 1588.50 L 1408.75 1588.20 L 1415.00 1587.90 L 1415.00 1581.95 L 1415.00 1576.00 L 1427.00 1576.00 L 1439.00 1576.00 L 1439.00 1570.05 L 1439.00 1564.10 L 1445.25 1563.80 L 1451.50 1563.50 L 1451.80 1557.25 L 1452.10 1551.00 L 1458.05 1551.00 L 1464.00 1551.00 L 1464.00 1545.00 L 1464.00 1539.00 L 1470.50 1539.00 L 1477.00 1539.00 L 1477.00 1533.11 L 1477.00 1527.22 L 1488.96 1526.50 L 1500.91 1525.78 L 1501.21 1519.64 L 1501.50 1513.50 L 1507.17 1513.20 L 1512.83 1512.91 L 1513.54 1500.95 L 1514.26 1489.00 L 1520.63 1489.00 L 1527.00 1489.00 L 1527.00 1483.00 L 1527.00 1477.00 L 1533.00 1477.00 L 1539.00 1477.00 L 1539.00 1471.00 L 1539.00 1465.00 L 1545.00 1465.00 L 1551.00 1465.00 L 1551.00 1458.50 L 1551.00 1452.00 L 1556.95 1452.00 L 1562.90 1452.00 L 1563.20 1445.75 L 1563.50 1439.50 L 1569.14 1439.20 L 1574.78 1438.91 L 1575.50 1427.00 L 1576.22 1415.09 L 1582.36 1414.79 L 1588.50 1414.50 L 1588.80 1408.25 L 1589.10 1402.00 L 1595.05 1402.00 L 1601.00 1402.00 L 1601.00 1396.00 L 1601.00 1390.00 L 1607.00 1390.00 L 1613.00 1390.00 L 1613.00 1377.50 L 1613.00 1365.00 L 1618.90 1365.00 L 1624.80 1365.00 L 1625.52 1352.50 L 1626.24 1340.00 L 1632.12 1340.00 L 1638.00 1340.00 L 1638.00 1334.00 L 1638.00 1328.00 L 1644.00 1328.00 L 1650.00 1328.00 L 1650.00 1315.50 L 1650.00 1303.00 L 1656.50 1303.00 L 1663.00 1303.00 L 1663.00 1290.50 L 1663.00 1278.00 L 1669.00 1278.00 L 1675.00 1278.00 L 1675.00 1259.50 L 1675.00 1241.00 L 1680.89 1241.00 L 1686.78 1241.00 L 1687.50 1229.05 L 1688.22 1217.09 L 1693.86 1216.80 L 1699.50 1216.50 L 1699.77 1197.75 L 1700.04 1179.00 L 1706.02 1179.00 L 1712.00 1179.00 L 1712.00 1169.65 C 1712.00 1164.51 1712.29 1156.19 1712.65 1151.15 L 1713.30 1142.00 L 1718.50 1142.00 L 1723.70 1142.00 L 1724.35 1132.85 C 1724.71 1127.81 1725.00 1110.94 1725.00 1095.35 L 1725.00 1067.00 L 1731.00 1067.00 L 1737.00 1067.00 L 1737.00 1030.00 L 1737.00 993.00 L 1743.00 993.00 L 1749.00 993.00 L 1749.00 937.00 L 1749.00 881.00 L 1743.00 881.00 L 1737.00 881.00 L 1737.00 838.00 L 1737.00 795.00 L 1731.00 795.00 L 1725.00 795.00 L 1724.99 767.25 C 1724.99 751.99 1724.70 735.11 1724.34 729.75 L 1723.70 720.00 L 1717.85 720.00 L 1712.00 720.00 L 1712.00 701.50 L 1712.00 683.00 L 1706.02 683.00 L 1700.04 683.00 L 1699.77 664.25 L 1699.50 645.50 L 1693.86 645.20 L 1688.22 644.91 L 1687.50 632.95 L 1686.78 621.00 L 1680.89 621.00 L 1675.00 621.00 L 1675.00 602.50 L 1675.00 584.00 L 1669.12 584.00 L 1663.24 584.00 L 1662.52 571.50 L 1661.80 559.00 L 1655.90 559.00 L 1650.00 559.00 L 1650.00 546.50 L 1650.00 534.00 L 1644.00 534.00 L 1638.00 534.00 L 1638.00 528.00 L 1638.00 522.00 L 1632.12 522.00 L 1626.24 522.00 L 1625.52 509.50 L 1624.80 497.00 L 1618.90 497.00 L 1613.00 497.00 L 1613.00 484.50 L 1613.00 472.00 L 1607.05 472.00 L 1601.10 472.00 L 1600.80 465.75 L 1600.50 459.50 L 1594.25 459.20 L 1588.00 458.90 L 1588.00 452.95 L 1588.00 447.00 L 1582.00 447.00 L 1576.00 447.00 L 1576.00 441.00 L 1576.00 435.00 L 1570.12 435.00 L 1564.24 435.00 L 1563.52 422.50 L 1562.80 410.00 L 1556.90 410.00 L 1551.00 410.00 L 1551.00 403.50 L 1551.00 397.00 L 1545.00 397.00 L 1539.00 397.00 L 1539.00 391.00 L 1539.00 385.00 L 1533.00 385.00 L 1527.00 385.00 L 1527.00 379.00 L 1527.00 373.00 L 1520.50 373.00 L 1514.00 373.00 L 1514.00 366.50 L 1514.00 360.00 L 1508.00 360.00 L 1502.00 360.00 L 1502.00 354.00 L 1502.00 348.00 L 1495.50 348.00 L 1489.00 348.00 L 1489.00 341.50 L 1489.00 335.00 L 1483.00 335.00 L 1477.00 335.00 L 1477.00 329.00 L 1477.00 323.00 L 1470.50 323.00 L 1464.00 323.00 L 1464.00 317.00 L 1464.00 311.00 L 1458.00 311.00 L 1452.00 311.00 L 1452.00 305.05 L 1452.00 299.10 L 1445.75 298.80 L 1439.50 298.50 L 1439.20 292.25 L 1438.90 286.00 L 1427.00 286.00 L 1415.10 286.00 L 1414.80 279.75 L 1414.50 273.50 L 1408.25 273.20 L 1402.00 272.90 L 1402.00 266.95 L 1402.00 261.00 L 1396.00 261.00 L 1390.00 261.00 L 1390.00 255.00 L 1390.00 249.00 L 1377.50 249.00 L 1365.00 249.00 L 1365.00 242.50 L 1365.00 236.00 L 1358.50 236.00 L 1352.00 236.00 L 1352.00 230.59 L 1352.00 225.18 L 1340.00 224.46 L 1328.00 223.74 L 1328.00 217.87 L 1328.00 212.00 L 1318.65 212.00 C 1313.51 212.00 1305.19 211.71 1300.15 211.35 L 1291.00 210.70 L 1291.00 204.85 L 1291.00 199.00 L 1284.50 199.00 L 1278.00 199.00 L 1278.00 193.00 L 1278.00 187.00 L 1266.00 187.00 L 1254.00 187.00 L 1254.00 181.15 L 1254.00 175.30 L 1244.25 174.66 C 1238.89 174.30 1230.34 174.01 1225.25 174.01 L 1216.00 174.00 L 1216.00 168.00 L 1216.00 162.00 L 1197.50 162.00 L 1179.00 162.00 L 1179.00 156.10 L 1179.00 150.20 L 1166.50 149.48 L 1154.00 148.76 L 1154.00 143.53 L 1154.00 138.30 L 1144.25 137.66 C 1138.89 137.30 1124.94 137.01 1113.25 137.01 L 1092.00 137.00 L 1092.00 131.00 L 1092.00 125.00 L 1054.50 125.00 L 1017.00 125.00 L 1017.00 119.00 L 1017.00 113.00 L 930.50 113.00 L 844.00 113.00 L 844.00 119.00 L 844.00 125.00 L 806.50 125.00 L 769.00 125.00 L 769.00 131.00 L 769.00 137.00 L 747.65 137.00 C 735.91 137.00 722.19 137.29 717.15 137.65 L 708.00 138.30 L 708.00 143.55 L 708.00 148.80 L 695.50 149.52 L 683.00 150.24 L 683.00 156.12 L 683.00 162.00 L 664.50 162.00 L 646.00 162.00 L 646.00 168.00 L 646.00 174.00 L 636.65 174.00 C 631.51 174.00 623.19 174.29 618.15 174.65 L 609.00 175.30 L 609.00 181.15 L 609.00 187.00 L 596.50 187.00 L 584.00 187.00 L 584.00 193.00 L 584.00 199.00 L 577.50 199.00 L 571.00 199.00 L 571.00 204.90 L 571.00 210.80 L 558.50 211.52 L 546.00 212.24 L 546.00 218.12 L 546.00 224.00 L 536.25 224.01 C 530.89 224.01 522.79 224.30 518.25 224.65 L 510.00 225.30 L 510.00 230.65 L 510.00 236.00 L 503.50 236.00 L 497.00 236.00 L 497.00 242.50 L 497.00 249.00 L 484.50 249.00 L 472.00 249.00 L 472.00 255.00 L 472.00 261.00 L 466.00 261.00 L 460.00 261.00 L 460.00 266.95 L 460.00 272.90 L 453.75 273.20 L 447.50 273.50 L 447.21 279.64 L 446.91 285.78 L 435.00 286.50 L 423.09 287.22 L 422.80 292.86 L 422.50 298.50 L 416.25 298.80 L 410.00 299.10 L 410.00 305.05 L 410.00 311.00 L 404.00 311.00 L 398.00 311.00 L 398.00 317.00 L 398.00 323.00 L 391.50 323.00 L 385.00 323.00 L 385.00 329.00 L 385.00 335.00 L 379.00 335.00 L 373.00 335.00 L 373.00 341.50 L 373.00 348.00 L 366.50 348.00 L 360.00 348.00 L 360.00 354.00 L 360.00 360.00 L 354.00 360.00 L 348.00 360.00 L 348.00 366.50 L 348.00 373.00 L 341.50 373.00 L 335.00 373.00 L 335.00 379.00 L 335.00 385.00 L 329.00 385.00 L 323.00 385.00 L 323.00 391.50 L 323.00 398.00 L 317.00 398.00 L 311.00 398.00 L 311.00 404.00 L 311.00 410.00 L 305.05 410.00 L 299.10 410.00 L 298.80 416.25 L 298.50 422.50 L 292.86 422.80 L 287.22 423.09 L 286.50 435.05 L 285.78 447.00 L 279.94 447.00 L 274.10 447.00 L 273.80 453.25 L 273.50 459.50 L 267.80 459.80 L 262.09 460.10 L 261.80 466.30 L 261.50 472.50 L 255.25 472.80 L 249.00 473.10 L 249.00 485.05 L 249.00 497.00 L 243.10 497.00 L 237.20 497.00 L 236.48 509.50 L 235.76 522.00 L 229.88 522.00 L 224.00 522.00 L 224.00 534.00 L 224.00 546.00 L 218.12 546.00 L 212.24 546.00 L 211.52 558.50 L 210.80 571.00 L 204.90 571.00 L 199.00 571.00 L 199.00 577.50 L 199.00 584.00 L 193.00 584.00 L 187.00 584.00 L 187.00 602.50 L 187.00 621.00 L 181.15 621.00 L 175.30 621.00 L 174.65 630.15 C 174.29 635.19 174.00 643.51 174.00 648.65 L 174.00 658.00 L 168.00 658.00 L 162.00 658.00 L 162.00 670.50 L 162.00 683.00 L 156.00 683.00 L 150.00 683.00 L 149.99 692.25 C 149.99 697.34 149.70 705.89 149.34 711.25 L 148.70 721.00 L 143.50 721.00 L 138.30 721.00 L 137.65 730.15 C 137.29 735.19 137.00 749.14 137.00 761.15 L 137.00 783.00 L 131.00 783.00 L 125.00 783.00 L 125.00 931.00 L 125.00 1079.00 L 131.00 1079.00 L 137.00 1079.00 L 137.00 1094.85 C 137.00 1103.56 137.29 1114.81 137.65 1119.85 L 138.30 1129.00 L 143.53 1129.00 L 148.76 1129.00 L 149.50 1154.00 L 150.24 1179.00 L 156.12 1179.00 L 162.00 1179.00 L 162.00 1191.50 L 162.00 1204.00 L 168.00 1204.00 L 174.00 1204.00 L 174.01 1212.75 C 174.01 1217.56 174.30 1225.89 174.66 1231.25 L 175.30 1241.00 L 181.15 1241.00 L 187.00 1241.00 L 187.00 1259.50 L 187.00 1278.00 L 192.88 1278.00 L 198.76 1278.00 L 199.48 1290.50 L 200.20 1303.00 L 206.10 1303.00 L 212.00 1303.00 L 212.00 1309.50 L 212.00 1316.00 L 218.00 1316.00 L 224.00 1316.00 L 224.00 1328.00 L 224.00 1340.00 L 229.88 1340.00 L 235.76 1340.00 L 236.48 1352.50 L 237.20 1365.00 L 243.10 1365.00 L 249.00 1365.00 L 249.00 1377.00 L 249.00 1389.00 L 255.00 1389.00 L 261.00 1389.00 L 261.00 1395.45 L 261.00 1401.90 L 267.25 1402.20 L 273.50 1402.50 L 273.80 1408.75 L 274.10 1415.00 L 279.94 1415.00 L 285.78 1415.00 L 286.50 1426.95 L 287.22 1438.91 L 292.86 1439.20 L 298.50 1439.50 L 298.80 1445.75 L 299.10 1452.00 L 305.05 1452.00 L 311.00 1452.00 L 311.00 1458.00 L 311.00 1464.00 L 317.00 1464.00 L 323.00 1464.00 L 323.00 1470.50 L 323.00 1477.00 L 329.00 1477.00 L 335.00 1477.00 L 335.00 1483.00 L 335.00 1489.00 L 341.50 1489.00 L 348.00 1489.00 L 348.00 1495.50 L 348.00 1502.00 L 354.00 1502.00 L 360.00 1502.00 L 360.00 1508.00 L 360.00 1514.00 L 366.50 1514.00 L 373.00 1514.00 L 373.00 1520.00 L 373.00 1526.00 L 379.00 1526.00 L 385.00 1526.00 L 385.00 1532.50 L 385.00 1539.00 L 391.50 1539.00 L 398.00 1539.00 L 398.00 1545.00 L 398.00 1551.00 L 404.00 1551.00 L 410.00 1551.00 L 410.00 1556.95 L 410.00 1562.90 L 416.25 1563.20 L 422.50 1563.50 L 422.80 1569.75 L 423.10 1576.00 L 435.05 1576.00 L 447.00 1576.00 L 447.00 1581.95 L 447.00 1587.90 L 453.25 1588.20 L 459.50 1588.50 L 459.80 1594.75 L 460.10 1601.00 L 466.05 1601.00 L 472.00 1601.00 L 472.00 1607.00 L 472.00 1613.00 L 484.50 1613.00 L 497.00 1613.00 L 497.00 1619.50 L 497.00 1626.00 L 503.50 1626.00 L 510.00 1626.00 L 510.00 1631.35 L 510.00 1636.70 L 518.25 1637.35 C 522.79 1637.70 530.89 1637.99 536.25 1637.99 L 546.00 1638.00 L 546.00 1644.00 L 546.00 1650.00 L 552.50 1650.00 L 559.00 1650.00 L 559.00 1655.90 L 559.00 1661.80 L 571.50 1662.52 L 584.00 1663.24 L 584.00 1669.12 L 584.00 1675.00 L 596.50 1675.00 L 609.00 1675.00 L 609.00 1680.85 L 609.00 1686.70 L 618.15 1687.35 C 623.19 1687.71 631.51 1688.00 636.65 1688.00 L 646.00 1688.00 L 646.00 1694.00 L 646.00 1700.00 L 664.50 1700.00 L 683.00 1700.00 L 683.00 1705.97 L 683.00 1711.94 L 695.25 1712.22 L 707.50 1712.50 L 707.80 1718.10 L 708.09 1723.71 L 717.20 1724.35 C 722.21 1724.71 735.91 1725.00 747.65 1725.00 L 769.00 1725.00 L 769.00 1731.00 L 769.00 1737.00 L 806.50 1737.00 L 844.00 1737.00 L 844.00 1743.00 L 844.00 1749.00 L 931.00 1749.00 L 1018.00 1749.00 L 1018.00 1743.00ZM 497.00 1247.00 L 497.00 1241.00 L 491.00 1241.00 L 485.00 1241.00 L 485.00 1210.00 L 485.00 1179.00 L 491.00 1179.00 L 497.00 1179.00 L 497.00 1173.00 L 497.00 1167.00 L 502.95 1167.00 L 508.90 1167.00 L 509.20 1160.75 L 509.50 1154.50 L 930.75 1154.25 L 1352.00 1154.00 L 1352.00 1160.50 L 1352.00 1167.00 L 1358.50 1167.00 L 1365.00 1167.00 L 1365.00 1173.00 L 1365.00 1179.00 L 1371.00 1179.00 L 1377.00 1179.00 L 1377.00 1203.50 L 1377.00 1228.00 L 1371.00 1228.00 L 1365.00 1228.00 L 1365.00 1240.50 L 1365.00 1253.00 L 931.00 1253.00 L 497.00 1253.00 L 497.00 1247.00ZM 707.00 838.00 L 707.00 832.00 L 695.00 832.00 L 683.00 832.00 L 683.00 825.50 L 683.00 819.00 L 677.11 819.00 L 671.22 819.00 L 670.50 807.00 L 669.78 795.00 L 663.89 795.00 L 658.00 795.00 L 658.00 788.50 L 658.00 782.00 L 652.00 782.00 L 646.00 782.00 L 646.00 766.65 C 646.00 758.21 645.71 747.19 645.35 742.15 L 644.70 733.00 L 639.35 733.00 L 634.00 733.00 L 634.00 695.50 L 634.00 658.00 L 639.35 658.00 L 644.70 658.00 L 645.35 648.85 C 645.71 643.81 646.00 635.49 646.00 630.35 L 646.00 621.00 L 652.00 621.00 L 658.00 621.00 L 658.00 608.50 L 658.00 596.00 L 663.89 596.00 L 669.78 596.00 L 670.50 584.00 L 671.22 572.00 L 677.11 572.00 L 683.00 572.00 L 683.00 565.50 L 683.00 559.00 L 695.50 559.00 L 708.00 559.00 L 708.00 553.00 L 708.00 547.00 L 714.00 547.00 L 720.00 547.00 L 720.00 553.00 L 720.00 559.00 L 738.37 559.00 L 756.74 559.00 L 757.46 570.95 L 758.17 582.91 L 763.83 583.20 L 769.50 583.50 L 769.78 595.75 L 770.06 608.00 L 776.00 608.00 L 781.94 608.00 L 782.22 620.75 L 782.50 633.50 L 788.10 633.80 L 793.69 634.09 L 794.40 664.71 C 794.79 681.56 794.79 709.19 794.40 726.12 L 793.70 756.91 L 788.10 757.20 L 782.50 757.50 L 782.22 769.75 L 781.94 782.00 L 775.97 782.00 L 770.00 782.00 L 770.00 794.50 L 770.00 807.00 L 764.11 807.00 L 758.22 807.00 L 757.51 818.91 L 756.79 830.81 L 744.40 831.53 L 732.00 832.24 L 732.00 838.12 L 732.00 844.00 L 719.50 844.00 L 707.00 844.00 L 707.00 838.00ZM 1130.00 838.12 L 1130.00 832.24 L 1117.60 831.53 L 1105.21 830.81 L 1104.49 818.91 L 1103.78 807.00 L 1097.89 807.00 L 1092.00 807.00 L 1092.00 794.50 L 1092.00 782.00 L 1086.00 782.00 L 1080.00 782.00 L 1080.00 772.65 C 1080.00 767.51 1079.71 759.19 1079.35 754.15 L 1078.70 745.00 L 1073.35 745.00 L 1068.00 745.00 L 1068.00 701.50 L 1068.00 658.00 L 1073.35 658.00 L 1078.70 658.00 L 1079.34 648.25 C 1079.70 642.89 1079.99 631.86 1079.99 623.75 L 1080.00 609.00 L 1086.00 609.00 L 1092.00 609.00 L 1092.00 596.50 L 1092.00 584.00 L 1097.90 584.00 L 1103.80 584.00 L 1104.52 571.50 L 1105.24 559.00 L 1123.62 559.00 L 1142.00 559.00 L 1142.00 553.00 L 1142.00 547.00 L 1148.00 547.00 L 1154.00 547.00 L 1154.00 553.00 L 1154.00 559.00 L 1166.50 559.00 L 1179.00 559.00 L 1179.00 565.50 L 1179.00 572.00 L 1185.00 572.00 L 1191.00 572.00 L 1191.00 578.00 L 1191.00 584.00 L 1196.90 584.00 L 1202.80 584.00 L 1203.52 596.50 L 1204.24 609.00 L 1210.12 609.00 L 1216.00 609.00 L 1216.00 627.50 L 1216.00 646.00 L 1222.00 646.00 L 1228.00 646.00 L 1228.00 695.50 L 1228.00 745.00 L 1222.00 745.00 L 1216.00 745.00 L 1216.00 763.50 L 1216.00 782.00 L 1210.12 782.00 L 1204.24 782.00 L 1203.52 794.50 L 1202.80 807.00 L 1196.90 807.00 L 1191.00 807.00 L 1191.00 813.00 L 1191.00 819.00 L 1185.00 819.00 L 1179.00 819.00 L 1179.00 825.50 L 1179.00 832.00 L 1172.50 832.00 L 1166.00 832.00 L 1166.00 838.00 L 1166.00 844.00 L 1148.00 844.00 L 1130.00 844.00 L 1130.00 838.12Z"/></g>
</svg>
