<?xml version="1.0" encoding="UTF-8"?>
<svg version="1.1" xmlns="http://www.w3.org/2000/svg" width="148" height="184">
<path d="M0 0 C43.37879753 -1.25979083 43.37879753 -1.25979083 58 6 C59.68029297 6.77730469 59.68029297 6.77730469 61.39453125 7.5703125 C76.36691944 15.36725427 86.24789732 28.82536657 91.32666016 44.64990234 C93.80747535 52.84792615 95.45712339 59.78933196 92 68 C91.37483301 73.61816732 93.23804637 77.36637455 95.6875 82.25 C96.05037109 82.99926758 96.41324219 83.74853516 96.78710938 84.52050781 C99.14844054 89.37528725 101.59741587 94.18474745 104.1875 98.921875 C105.17277477 101.44190471 105.28266268 103.31694794 105 106 C102.09929233 108.4328516 98.85581688 109.42175366 95.30859375 110.5859375 C94.50091553 110.85196777 93.6932373 111.11799805 92.86108398 111.39208984 C91.93984741 111.69300537 91.93984741 111.69300537 91 112 C90.98018066 112.95366455 90.96036133 113.9073291 90.93994141 114.88989258 C90.86384986 118.42922299 90.77513839 121.96814417 90.68261719 125.50708008 C90.64434202 127.03857339 90.60948651 128.57015615 90.578125 130.10180664 C90.53244193 132.3038733 90.47445463 134.50532496 90.4140625 136.70703125 C90.40251129 137.39150833 90.39096008 138.07598541 90.37905884 138.78120422 C90.26726256 142.38460837 90.05605447 143.9159183 88 147 C85.93701172 147.34057617 85.93701172 147.34057617 83.4296875 147.29296875 C82.53378906 147.28330078 81.63789062 147.27363281 80.71484375 147.26367188 C79.77769531 147.23853516 78.84054688 147.21339844 77.875 147.1875 C76.93011719 147.17396484 75.98523438 147.16042969 75.01171875 147.14648438 C72.67391221 147.11106306 70.33723763 147.06167271 68 147 C68.06058594 147.62342285 68.12117188 148.2468457 68.18359375 148.88916016 C68.46254999 151.80049767 68.73128405 154.71270012 69 157.625 C69.09539062 158.6046875 69.19078125 159.584375 69.2890625 160.59375 C70.00752206 168.49680519 70 175.97695071 70 184 C41.95 184 13.9 184 -15 184 C-15 171.64560517 -15 171.64560517 -13.50390625 166.73046875 C-13.19243652 165.66417236 -12.8809668 164.59787598 -12.56005859 163.49926758 C-12.23086426 162.40638428 -11.90166992 161.31350098 -11.5625 160.1875 C-6.60944992 142.66463834 -4.66757578 126.84767187 -13.71875 110.05078125 C-14.98184662 107.92918742 -14.98184662 107.92918742 -16.71875 105.91796875 C-17.1415625 105.28503906 -17.564375 104.65210937 -18 104 C-17 101 -17 101 -13.9375 99.3125 C-12.968125 98.879375 -11.99875 98.44625 -11 98 C1.17907886 115.99493113 3.95297557 132.69425458 0.1875 154 C0.02185547 155.00289062 -0.14378906 156.00578125 -0.31445312 157.0390625 C-1.48878781 163.89894963 -3.14406778 170.19491519 -5 177 C17.11 177 39.22 177 62 177 C61.67 176.34 61.34 175.68 61 175 C60.7770039 173.05276946 60.60753207 171.09928804 60.46484375 169.14453125 C60.37783203 167.96439453 60.29082031 166.78425781 60.20117188 165.56835938 C60.11416016 164.32892578 60.02714844 163.08949219 59.9375 161.8125 C59.80118164 159.98235352 59.80118164 159.98235352 59.66210938 158.11523438 C59.41859817 154.74452662 59.20581934 151.37318015 59 148 C58.93441895 147.23478027 58.86883789 146.46956055 58.80126953 145.68115234 C58.63674172 142.90026665 58.73844394 141.36221106 60.390625 139.07421875 C64.46287609 137.39776808 68.39712338 137.68712172 72.75 137.8125 C73.63816406 137.82603516 74.52632813 137.83957031 75.44140625 137.85351562 C77.62822578 137.88878691 79.81379966 137.93807248 82 138 C81.98428955 137.17798096 81.9685791 136.35596191 81.95239258 135.5090332 C81.88994927 131.77692572 81.85097864 128.04492828 81.8125 124.3125 C81.78736328 123.01892578 81.76222656 121.72535156 81.73632812 120.39257812 C81.72666016 119.14541016 81.71699219 117.89824219 81.70703125 116.61328125 C81.6913208 115.46641846 81.67561035 114.31955566 81.65942383 113.13793945 C82.04092498 109.62293277 82.87854746 107.80258157 85 105 C88.72966548 102.69871705 90.56661697 102 95 102 C94.20335937 100.20755859 94.20335937 100.20755859 93.390625 98.37890625 C89.140625 88.81640625 89.140625 88.81640625 88.07885742 86.41088867 C87.35311068 84.7890853 86.61072191 83.17463766 85.8527832 81.56762695 C82.46515437 74.30240119 82.46515437 74.30240119 82.6875 70.0625 C82.72423828 68.96615234 82.72423828 68.96615234 82.76171875 67.84765625 C83 66 83 66 84 64 C85.11899437 50.57206761 79.77509978 37.49698883 71.66796875 26.97265625 C59.16562821 13.0425228 41.38961901 9.31640179 23.43554688 8.11132812 C18.05459861 7.86536658 12.66865197 7.88850059 7.28393555 7.98510742 C5.18959718 8.02129966 3.09459796 8.01491575 1 8 C0 7 0 7 -0.0625 3.4375 C-0.041875 2.303125 -0.02125 1.16875 0 0 Z " fill="#090909" transform="translate(43,0)"/>
<path d="M0 0 C2 2 2 2 2.1953125 5.2578125 C2.17210937 6.53398437 2.14890625 7.81015625 2.125 9.125 C2.10695312 10.40632813 2.08890625 11.68765625 2.0703125 13.0078125 C2.04710937 13.99523438 2.02390625 14.98265625 2 16 C2.88353149 15.97643433 2.88353149 15.97643433 3.78491211 15.95239258 C6.50234027 15.889308 9.21961361 15.85078009 11.9375 15.8125 C13.32678711 15.77479492 13.32678711 15.77479492 14.74414062 15.73632812 C24.64040369 15.63215693 32.79682304 17.97649412 40 25 C41.6626148 27.27931168 42.76332793 29.43152724 44 32 C44.32871094 32.55300781 44.65742187 33.10601562 44.99609375 33.67578125 C49.05938253 43.08300625 50.86512953 57.33465346 47.25390625 66.99609375 C46.4375 68.6875 46.4375 68.6875 45 71 C43.02 71 41.04 71 39 71 C38.69707031 70.18015625 38.39414063 69.3603125 38.08203125 68.515625 C37.66308594 67.43796875 37.24414062 66.3603125 36.8125 65.25 C36.20341797 63.64898437 36.20341797 63.64898437 35.58203125 62.015625 C32.99947685 57.09282994 29.1610777 54.62272276 24.03857422 52.57177734 C19.95700865 51.42698374 15.77720676 51.41870211 11.5625 51.3125 C10.64017578 51.27833984 9.71785156 51.24417969 8.76757812 51.20898438 C6.51212643 51.12718043 4.25608573 51.06189828 2 51 C2 56.28 2 61.56 2 67 C-4 68 -4 68 -6.08984375 67.03125 C-7.00443359 66.27328125 -7.00443359 66.27328125 -7.9375 65.5 C-8.61683594 64.94183594 -9.29617187 64.38367188 -9.99609375 63.80859375 C-12.50112192 61.54772037 -14.88480355 59.19852703 -17.23046875 56.7734375 C-19.021382 54.9785708 -20.8844802 53.3334648 -22.8125 51.6875 C-27.07185786 48.0282865 -30.97842416 44.05616595 -34.8984375 40.0390625 C-36.83096046 37.95873909 -36.83096046 37.95873909 -39 37 C-39.47362314 34.01720012 -39.59053547 31.86926633 -37.84918213 29.30599976 C-36.13324685 27.42207011 -34.34873608 25.64881325 -32.5078125 23.88671875 C-31.8466745 23.23169876 -31.1855365 22.57667877 -30.50436401 21.90180969 C-28.39156878 19.81593232 -26.25857124 17.75209907 -24.125 15.6875 C-22.69530171 14.27932649 -21.26690002 12.86983526 -19.83984375 11.45898438 C-17.22770582 8.88897771 -14.61407283 6.32074168 -11.98095703 3.7722168 C-11.45245148 3.25958786 -10.92394592 2.74695892 -10.37942505 2.21879578 C-7.16982425 -0.61705812 -4.13319291 -0.22142105 0 0 Z M-13.5625 19.0625 C-18.62631606 23.80700536 -23.72219438 28.49255731 -29 33 C-27.64571539 36.10412761 -26.22865747 37.91475724 -23.625 40.0625 C-19.27693367 43.7299298 -15.10605167 47.56220931 -10.94970703 51.44360352 C-8.79585346 53.90477004 -8.79585346 53.90477004 -6 55 C-5.67 51.37 -5.34 47.74 -5 44 C-0.70846555 43.91192915 3.58283224 43.85925079 7.875 43.8125 C9.07898437 43.78736328 10.28296875 43.76222656 11.5234375 43.73632812 C22.02651579 43.6507052 30.11154159 45.39640665 39 51 C39.51002996 44.08626051 39.22855446 38.68911367 35 33 C30.38062784 28.11060191 25.94637495 24.40690024 19.06152344 23.69702148 C18.00481445 23.67196533 16.94810547 23.64690918 15.859375 23.62109375 C14.70695312 23.58693359 13.55453125 23.55277344 12.3671875 23.51757812 C10.57667969 23.47793945 10.57667969 23.47793945 8.75 23.4375 C6.36968361 23.37786521 3.98946157 23.31428724 1.609375 23.24609375 C0.55717773 23.22216553 -0.49501953 23.1982373 -1.57910156 23.17358398 C-4 23 -4 23 -5 22 C-5.23192865 20.48530552 -5.41215238 18.96245438 -5.5625 17.4375 C-5.68818359 16.19806641 -5.68818359 16.19806641 -5.81640625 14.93359375 C-5.87699219 14.29550781 -5.93757813 13.65742188 -6 13 C-8.5044849 13 -11.69484273 17.30014732 -13.5625 19.0625 Z " fill="#010101" transform="translate(39,16)"/>
<path d="M0 0 C0.66 0 1.32 0 2 0 C3.10228696 4.40914783 3.07654536 8.48382401 3 13 C4.32 13.66 5.64 14.32 7 15 C5.125 15.625 5.125 15.625 3 16 C-0.00617269 12.99382731 0.40414684 10.17618402 0 6 C-0.92941406 6.88042969 -1.85882812 7.76085937 -2.81640625 8.66796875 C-4.06489899 9.84136418 -5.31360852 11.01452897 -6.5625 12.1875 C-7.17158203 12.76564453 -7.78066406 13.34378906 -8.40820312 13.93945312 C-12.3972262 17.67520489 -16.48693544 20.91578214 -21 24 C-20.34 22.35 -19.68 20.7 -19 19 C-18.34 19 -17.68 19 -17 19 C-17 18.34 -17 17.68 -17 17 C-15.56934237 15.76896901 -14.13293599 14.54359409 -12.66015625 13.36328125 C-9.26088589 10.57188041 -6.43695091 7.65542636 -4 4 C-3.34 4 -2.68 4 -2 4 C-2 3.34 -2 2.68 -2 2 C-1.34 2 -0.68 2 0 2 C0 1.34 0 0.68 0 0 Z " fill="#191919" transform="translate(32,24)"/>
<path d="M0 0 C0.66 0.66 1.32 1.32 2 2 C2.68642578 2.68449219 2.68642578 2.68449219 3.38671875 3.3828125 C4.5402876 4.53917449 5.68809309 5.70129744 6.83203125 6.8671875 C10.85680973 10.94753492 14.98281146 14.8259142 19.3359375 18.5546875 C20.60166464 19.65402798 21.8145434 20.8145434 23 22 C23.12117188 21.28972656 23.24234375 20.57945313 23.3671875 19.84765625 C23.53476562 18.92855469 23.70234375 18.00945312 23.875 17.0625 C24.03742187 16.14597656 24.19984375 15.22945312 24.3671875 14.28515625 C24.57601562 13.53105469 24.78484375 12.77695312 25 12 C28.21451269 10.39274365 31.43612536 10.94251815 35 11 C35 11.33 35 11.66 35 12 C32.36 12.33 29.72 12.66 27 13 C26.34 16.96 25.68 20.92 25 25 C21.8767428 23.4383714 20.11464987 22.41241334 17.625 20.1875 C16.94695313 19.58164063 16.26890625 18.97578125 15.5703125 18.3515625 C10.01481027 13.26886897 4.50284026 8.13959098 -1 3 C-0.67 2.01 -0.34 1.02 0 0 Z " fill="#171717" transform="translate(9,48)"/>
<path d="M0 0 C7.45277385 0.13550498 11.74539457 2.76612279 17 8 C18.6917137 10.29215293 19.77126245 12.39507638 21 15 C21.433125 15.7425 21.86625 16.485 22.3125 17.25 C23 19 23 19 22 22 C21.46890625 21.09636719 20.9378125 20.19273438 20.390625 19.26171875 C19.67750604 18.07005944 18.96394077 16.87866713 18.25 15.6875 C17.90195313 15.09259766 17.55390625 14.49769531 17.1953125 13.88476562 C15.14474711 10.48614335 13.24132585 8.25578759 10 6 C10 5.34 10 4.68 10 4 C9.278125 3.87625 8.55625 3.7525 7.8125 3.625 C5.04278106 3.0095069 2.6029646 2.11555626 0 1 C0 0.67 0 0.34 0 0 Z " fill="#1C181A" transform="translate(62,33)"/>
<path d="M0 0 C2.26954631 3.40431947 2.36549949 5.16524202 2.625 9.1875 C2.69976562 10.27417969 2.77453125 11.36085938 2.8515625 12.48046875 C2.90054688 13.31191406 2.94953125 14.14335938 3 15 C2.54109375 14.60167969 2.0821875 14.20335938 1.609375 13.79296875 C-0.25226329 12.18554577 -2.12566 10.59257647 -4 9 C-4.9590625 8.1646875 -4.9590625 8.1646875 -5.9375 7.3125 C-9.09404194 5.30379149 -12.47240125 4.23465956 -16 3 C-13.29840881 1.95462905 -12.21584123 1.91843788 -9.45703125 2.9609375 C-8.58433594 3.42757812 -7.71164063 3.89421875 -6.8125 4.375 C-5.93207031 4.83648437 -5.05164063 5.29796875 -4.14453125 5.7734375 C-2 7 -2 7 -1 8 C-0.67 5.36 -0.34 2.72 0 0 Z " fill="#171717" transform="translate(78,58)"/>
<path d="M0 0 C2.1171875 0.3984375 2.1171875 0.3984375 4 1 C-1.76831658 6.37194039 -7.42634177 11.61756118 -14 16 C-13.34 14.35 -12.68 12.7 -12 11 C-11.34 11 -10.68 11 -10 11 C-10 10.34 -10 9.68 -10 9 C-8.54900355 7.7468667 -7.09127325 6.49980707 -5.5859375 5.3125 C-3.81958456 3.91705017 -3.81958456 3.91705017 -1.875 1.625 C-1.25625 1.08875 -0.6375 0.5525 0 0 Z " fill="#1D1D1D" transform="translate(25,32)"/>
<path d="M0 0 C0.33 0 0.66 0 1 0 C1 1.65 1 3.3 1 5 C-0.98 5.33 -2.96 5.66 -5 6 C-5.33 5.34 -5.66 4.68 -6 4 C-4.02 3.34 -2.04 2.68 0 2 C0 1.34 0 0.68 0 0 Z " fill="#181818" transform="translate(40,78)"/>
<path d="M0 0 C0.33 0 0.66 0 1 0 C1 2.64 1 5.28 1 8 C2.32 8.66 3.64 9.32 5 10 C3.68 10.33 2.36 10.66 1 11 C-1.78637633 6.8204355 -0.79562512 4.85331323 0 0 Z " fill="#0F0F0F" transform="translate(34,29)"/>
<path d="M0 0 C0.66 0 1.32 0 2 0 C2.625 2.375 2.625 2.375 3 5 C2.34 5.66 1.68 6.32 1 7 C0.34 6.67 -0.32 6.34 -1 6 C-0.67 4.02 -0.34 2.04 0 0 Z " fill="#1C1C1C" transform="translate(29,169)"/>
</svg>
