<?xml version="1.0" encoding="UTF-8"?>
<svg version="1.1" xmlns="http://www.w3.org/2000/svg" width="107" height="184">
<path d="M0 0 C3.5625 0.4375 3.5625 0.4375 6.0625 2 C8.21677672 5.50069968 7.40407288 7.4610046 6.5625 11.4375 C5.49391988 14.03326935 4.39395663 16.47346602 3.1328125 18.96875 C2.78633667 19.67413406 2.43986084 20.37951813 2.08288574 21.10627747 C0.95994563 23.38784753 -0.1762074 25.66255511 -1.3125 27.9375 C-2.08911532 29.51013684 -2.86466272 31.08330148 -3.63916016 32.65698242 C-5.18181152 35.79043622 -6.72831991 38.92193828 -8.27734375 42.05224609 C-11.17757232 47.92527274 -14.00118111 53.83392157 -16.8125 59.75 C-17.65320427 61.51713722 -18.49431298 63.28408213 -19.3359375 65.05078125 C-19.67286621 65.76016846 -20.00979492 66.46955566 -20.35693359 67.20043945 C-21.68986024 69.95995298 -23.06238838 72.69880552 -24.4375 75.4375 C-23.40343018 75.42178955 -22.36936035 75.4060791 -21.30395508 75.38989258 C-17.45556473 75.33545946 -13.60720821 75.30110151 -9.75854492 75.27270508 C-8.09507519 75.25764886 -6.43164495 75.23719937 -4.76831055 75.21118164 C-2.37278478 75.17465793 0.02221467 75.15774218 2.41796875 75.14453125 C3.52763252 75.12130547 3.52763252 75.12130547 4.65971375 75.09761047 C9.16359311 75.09615327 11.97577094 75.67735934 15.5625 78.4375 C18.03578466 81.40544159 18.58038873 82.83572312 18.46484375 86.72265625 C17.38197588 91.18069669 15.40564418 93.4841342 12.25 96.625 C11.66404053 97.23158447 11.07808105 97.83816895 10.47436523 98.46313477 C8.19097803 100.809027 5.87863835 103.12391903 3.5625 105.4375 C2.4644225 106.53701378 1.36644751 107.63662994 0.26855469 108.73632812 C-9.71480631 118.72943374 -9.71480631 118.72943374 -14.57348633 123.5378418 C-15.16966766 124.12958191 -15.765849 124.72132202 -16.38009644 125.33099365 C-17.49563561 126.4379486 -18.61315469 127.54291398 -19.73318481 128.64532471 C-22.56998444 131.46432746 -25.26607688 134.3543724 -27.88110352 137.38110352 C-31.30739487 141.33915788 -34.93100133 145.04336171 -38.65625 148.71875 C-39.31782104 149.37653442 -39.97939209 150.03431885 -40.66101074 150.71203613 C-43.45328144 153.48816558 -46.25155416 156.25821537 -49.04931641 159.02880859 C-51.10790898 161.0691708 -53.16337903 163.11264331 -55.21875 165.15625 C-56.14874817 166.07380066 -56.14874817 166.07380066 -57.09753418 167.0098877 C-60.87703997 170.76849957 -64.44572878 174.65295407 -67.91589355 178.69934082 C-71.15386835 182.39813931 -73.09606893 184.27560315 -78.0625 184.875 C-81.4375 184.4375 -81.4375 184.4375 -83.375 183.375 C-85.04639013 180.32717095 -85.08536508 177.77046638 -84.4375 174.4375 C-82.59112657 170.19213174 -80.26753658 166.24570369 -77.9375 162.25 C-77.26029161 161.06432558 -76.58445353 159.87786754 -75.90991211 158.69067383 C-74.49242516 156.20195581 -73.06613626 153.71860571 -71.63232422 151.23925781 C-69.45821506 147.47885195 -67.30693101 143.70574793 -65.16015625 139.9296875 C-61.90408999 134.2071133 -58.63354848 128.49299587 -55.35595703 122.78271484 C-52.04254998 117.00512468 -48.74033919 111.22113598 -45.4375 105.4375 C-46.53215576 105.42291748 -47.62681152 105.40833496 -48.75463867 105.39331055 C-52.82706905 105.33521261 -56.89895315 105.25798073 -60.97094727 105.17504883 C-62.73127355 105.14185346 -64.49170488 105.11380476 -66.25219727 105.09106445 C-68.78707525 105.0574188 -71.32099523 105.0050994 -73.85546875 104.94921875 C-74.63899216 104.94282883 -75.42251556 104.9364389 -76.2297821 104.92985535 C-81.23124782 104.79614232 -84.82699129 104.04800871 -88.4375 100.4375 C-88.98135158 97.10640907 -89.1696195 94.58331716 -87.296875 91.65234375 C-85.41615525 89.50229762 -83.44062223 87.47434483 -81.4375 85.4375 C-79.98685535 83.88197696 -78.54842105 82.31568606 -77.11035156 80.74853516 C-75.55003266 79.04891964 -73.98261021 77.35608332 -72.4140625 75.6640625 C-69.8976997 72.9431953 -67.41032816 70.19807544 -64.9375 67.4375 C-60.96219946 63.00129505 -56.92542332 58.62495602 -52.87890625 54.25390625 C-49.87339278 51.00366903 -46.89190391 47.7344435 -43.9375 44.4375 C-39.96219946 40.00129505 -35.92542332 35.62495602 -31.87890625 31.25390625 C-28.87339278 28.00366903 -25.89190391 24.7344435 -22.9375 21.4375 C-19.34374699 17.42908318 -15.71233445 13.4572814 -12.0625 9.5 C-11.55009766 8.94376953 -11.03769531 8.38753906 -10.50976562 7.81445312 C-9.15742164 6.35076077 -7.79780207 4.89379936 -6.4375 3.4375 C-5.62732422 2.52097656 -5.62732422 2.52097656 -4.80078125 1.5859375 C-3.4375 0.4375 -3.4375 0.4375 0 0 Z M-4.4375 12.4375 C-5.20320313 13.29408203 -5.20320313 13.29408203 -5.984375 14.16796875 C-10.43105807 19.12712416 -14.91250957 24.04984702 -19.4375 28.9375 C-22.96448664 32.74733193 -26.47260226 36.57087498 -29.9375 40.4375 C-33.91280054 44.87370495 -37.94957668 49.25004398 -41.99609375 53.62109375 C-45.00160722 56.87133097 -47.98309609 60.1405565 -50.9375 63.4375 C-54.90621979 67.86636122 -58.93569569 72.23604353 -62.97631836 76.59912109 C-66.89259887 80.8331079 -70.75835116 85.11003706 -74.59765625 89.4140625 C-76.4375 91.4375 -76.4375 91.4375 -78.18359375 93.0859375 C-79.66420865 94.37459205 -79.66420865 94.37459205 -79.4375 96.4375 C-78.2414917 96.4468457 -77.0454834 96.45619141 -75.81323242 96.46582031 C-71.37925862 96.50566814 -66.94598252 96.57141191 -62.51245117 96.64501953 C-60.59294593 96.67325948 -58.67332375 96.69445895 -56.75366211 96.70849609 C-53.99532062 96.72988411 -51.23838962 96.77651133 -48.48046875 96.828125 C-47.62100143 96.82935364 -46.76153412 96.83058228 -45.87602234 96.83184814 C-40.02807644 96.97588133 -40.02807644 96.97588133 -37.30981445 99.10058594 C-35.80108962 103.14243147 -36.88222395 106.21264331 -38.61401367 110.03271484 C-39.35228394 111.32749756 -39.35228394 111.32749756 -40.10546875 112.6484375 C-40.66234375 113.63440918 -41.21921875 114.62038086 -41.79296875 115.63623047 C-42.69982422 117.20848389 -42.69982422 117.20848389 -43.625 118.8125 C-44.24632812 119.90578613 -44.86765625 120.99907227 -45.5078125 122.12548828 C-50.48506948 130.85696903 -55.53973342 139.54520628 -60.64135742 148.20458984 C-62.25187838 150.94225968 -63.84943581 153.68674596 -65.4375 156.4375 C-66.02273437 157.44973633 -66.60796875 158.46197266 -67.2109375 159.50488281 C-67.77039063 160.49584961 -68.32984375 161.48681641 -68.90625 162.5078125 C-69.41607422 163.40516113 -69.92589844 164.30250977 -70.45117188 165.22705078 C-70.77666016 165.95649902 -71.10214844 166.68594727 -71.4375 167.4375 C-71.1075 168.0975 -70.7775 168.7575 -70.4375 169.4375 C-66.43232718 165.45724213 -62.43060045 161.47356133 -58.43188477 157.48681641 C-57.07407873 156.13400645 -55.71537249 154.78209934 -54.35571289 153.43115234 C-52.38965212 151.47736592 -50.42696555 149.52024126 -48.46484375 147.5625 C-47.56752785 146.67292603 -47.56752785 146.67292603 -46.65208435 145.76538086 C-43.63498529 142.74867465 -40.73921937 139.676233 -37.94946289 136.44726562 C-34.53922943 132.50376307 -30.92869168 128.81653617 -27.21875 125.15625 C-26.55717896 124.49846558 -25.89560791 123.84068115 -25.21398926 123.16296387 C-22.42171856 120.38683442 -19.62344584 117.61678463 -16.82568359 114.84619141 C-14.76709102 112.8058292 -12.71162097 110.76235669 -10.65625 108.71875 C-10.03625122 108.10704956 -9.41625244 107.49534912 -8.77746582 106.8651123 C-4.99080122 103.09938119 -1.41313587 99.20691071 2.06874084 95.15734863 C3.79945671 93.16467846 5.61482303 91.28420397 7.5 89.4375 C8.08652344 88.86 8.67304687 88.2825 9.27734375 87.6875 C9.70144531 87.275 10.12554687 86.8625 10.5625 86.4375 C10.2325 85.4475 9.9025 84.4575 9.5625 83.4375 C8.42707764 83.41768066 7.29165527 83.39786133 6.12182617 83.37744141 C1.91163856 83.30140316 -2.29820263 83.21268314 -6.50805664 83.12011719 C-8.33057824 83.08182005 -10.15317563 83.04696845 -11.97583008 83.015625 C-14.59483941 82.96999021 -17.21332674 82.91199378 -19.83203125 82.8515625 C-20.64775101 82.84001129 -21.46347076 82.82846008 -22.3039093 82.81655884 C-26.17114504 82.71552726 -28.14909785 82.6297681 -31.4375 80.4375 C-32.82853511 76.45098668 -32.2888191 74.23581886 -30.5078125 70.4921875 C-30.04979248 69.51378906 -29.59177246 68.53539062 -29.11987305 67.52734375 C-28.34897339 65.93599609 -28.34897339 65.93599609 -27.5625 64.3125 C-27.03889893 63.20261719 -26.51529785 62.09273437 -25.97583008 60.94921875 C-22.65151388 53.93838544 -19.23433637 46.97336197 -15.81640625 40.0078125 C-15.42745178 39.2133371 -15.03849731 38.41886169 -14.63775635 37.60031128 C-12.69946942 33.64145308 -10.75268876 29.68732683 -8.78759766 25.74169922 C-8.07038242 24.28625874 -7.35341095 22.8306981 -6.63671875 21.375 C-6.29774063 20.70220001 -5.95876251 20.02940002 -5.60951233 19.33621216 C-4.82462313 17.73168527 -4.12227499 16.08723962 -3.4375 14.4375 C-3.9325 13.4475 -3.9325 13.4475 -4.4375 12.4375 Z " fill="#000000" transform="translate(88.4375,-0.4375)"/>
</svg>
