<?xml version="1.0" encoding="UTF-8"?>
<svg version="1.1" xmlns="http://www.w3.org/2000/svg" width="200" height="184">
<path d="M0 0 C0.79757721 -0.00524185 1.59515442 -0.0104837 2.41690063 -0.0158844 C4.09953654 -0.02228988 5.7822173 -0.0209867 7.46484375 -0.01245117 C10.02425939 -0.00395539 12.58143038 -0.03269705 15.140625 -0.06445312 C16.78124934 -0.06606584 18.42187759 -0.06548626 20.0625 -0.0625 C20.82001556 -0.07373398 21.57753113 -0.08496796 22.35800171 -0.09654236 C27.88653773 -0.02491844 31.1596058 1.17098734 35.6640625 4.43359375 C39.36930104 8.66493107 39.02600396 12.9099742 38.8515625 18.24609375 C38.83802734 19.03435547 38.82449219 19.82261719 38.81054688 20.63476562 C38.77539706 22.56800544 38.72159611 24.50089057 38.6640625 26.43359375 C39.37292603 26.42693192 40.08178955 26.42027008 40.81213379 26.41340637 C47.52016045 26.35308408 54.22811047 26.30751267 60.93634796 26.27815723 C64.38444164 26.26255747 67.83230962 26.24142482 71.28027344 26.20727539 C75.25192485 26.1681892 79.22348755 26.15383746 83.1953125 26.140625 C85.03639587 26.11739922 85.03639587 26.11739922 86.91467285 26.09370422 C101.01027916 26.09095223 101.01027916 26.09095223 106.21276855 30.85041809 C109.93544436 35.09413599 110.78681605 38.37459065 110.81796265 43.86564636 C110.82656311 44.99411987 110.83516357 46.12259338 110.84402466 47.28526306 C110.85041458 49.14375633 110.85041458 49.14375633 110.85693359 51.03979492 C110.86919983 52.99627457 110.86919983 52.99627457 110.88171387 54.99227905 C110.90791016 59.32035258 110.92324083 63.64843565 110.9375 67.9765625 C110.94286099 69.4681378 110.9482385 70.95971304 110.95363235 72.45128822 C110.97525911 78.65782808 110.99399412 84.86436535 111.00525475 91.07093334 C111.02148304 99.95627614 111.05463539 108.84118091 111.11165559 117.72635859 C111.15040697 123.97872167 111.16989365 130.23096786 111.17517531 136.48344785 C111.17882221 140.21516434 111.19077162 143.94641338 111.22327805 147.6779995 C111.25906333 151.84573607 111.2549747 156.01253622 111.24755859 160.18041992 C111.26396393 161.40929428 111.28036926 162.63816864 111.29727173 163.90428162 C111.24699523 170.80993559 110.70511901 176.3424367 105.6640625 181.43359375 C101.54373213 184.57314951 98.39425768 184.81347655 93.27639771 184.82800293 C92.54202512 184.83409403 91.80765253 184.84018514 91.05102623 184.84646082 C88.59522005 184.86308301 86.13993282 184.85831625 83.68408203 184.85351562 C81.92132021 184.86085645 80.1585632 184.86944272 78.39581299 184.87918091 C73.61062516 184.90140493 68.82560949 184.90432712 64.04037714 184.9024334 C60.04436268 184.90231373 56.04838474 184.91087638 52.05238044 184.91921091 C42.62392548 184.93844842 33.19555906 184.94132763 23.76708984 184.93457031 C14.04387939 184.92792991 4.32104832 184.95079309 -5.40208519 184.98788404 C-13.75299163 185.01858323 -22.10377604 185.02994081 -30.45473778 185.02604723 C-35.44107051 185.02397986 -40.42710805 185.02945714 -45.4133873 185.05393982 C-50.10359305 185.07620782 -54.7931822 185.07432872 -59.48339081 185.0540123 C-61.20267084 185.05060227 -62.92199238 185.05569108 -64.64121628 185.06999588 C-66.99296237 185.08821011 -69.34262142 185.07542611 -71.69430542 185.05505371 C-73.6659583 185.05612247 -73.6659583 185.05612247 -75.67744255 185.05721283 C-81.22875854 184.1109476 -84.86059164 181.36597456 -88.24719238 176.93026733 C-89.94295349 171.48406786 -89.76939262 166.15857341 -89.75585938 160.48681641 C-89.76432892 159.18205856 -89.77279846 157.87730072 -89.78152466 156.53300476 C-89.80368979 152.96469761 -89.80667386 149.39662172 -89.80477715 145.82825518 C-89.8046572 142.84380824 -89.81323104 139.85940988 -89.82155466 136.87497652 C-89.84077101 129.83068036 -89.84367915 122.78650269 -89.83691406 115.7421875 C-89.83027546 108.48818206 -89.85313391 101.23468538 -89.89022779 93.9807831 C-89.92097135 87.74106859 -89.93227978 81.50151734 -89.92839098 75.26172864 C-89.92632813 71.54016049 -89.93172998 67.81898828 -89.95628357 64.09749222 C-89.98278111 59.94437482 -89.96878757 55.79232476 -89.95117188 51.63916016 C-89.96443512 50.41499893 -89.97769836 49.19083771 -89.99136353 47.92958069 C-89.9218442 40.86999635 -89.15600136 35.80983861 -84.3359375 30.43359375 C-79.59524927 26.84917094 -75.38752797 26.30739464 -69.55761719 26.32006836 C-68.3967157 26.32014389 -67.23581421 26.32021942 -66.03973389 26.32029724 C-64.1676828 26.32803917 -64.1676828 26.32803917 -62.2578125 26.3359375 C-60.97610168 26.33735245 -59.69439087 26.3387674 -58.37384033 26.34022522 C-54.9741011 26.34403474 -51.5744049 26.35385161 -48.17468262 26.3649292 C-44.7023985 26.37517701 -41.2301074 26.37973005 -37.7578125 26.38476562 C-30.95050321 26.39547534 -24.14322242 26.41253291 -17.3359375 26.43359375 C-17.38234375 25.27601562 -17.42875 24.1184375 -17.4765625 22.92578125 C-17.51409998 21.38674469 -17.55049801 19.84768005 -17.5859375 18.30859375 C-17.61945313 17.54804688 -17.65296875 16.7875 -17.6875 16.00390625 C-17.77967223 10.65791702 -16.97943033 7.60997839 -13.3359375 3.43359375 C-9.21516271 0.01736764 -5.15001864 -0.01985203 0 0 Z M-9.3359375 9.43359375 C-11.87452854 14.51077582 -10.3359375 20.75713163 -10.3359375 26.43359375 C3.5240625 26.43359375 17.3840625 26.43359375 31.6640625 26.43359375 C33.1640625 12.60026042 33.1640625 12.60026042 28.6640625 7.43359375 C23.59207302 5.74293059 18.20322442 6.20827355 12.89501953 6.19335938 C10.80330544 6.1836598 8.71257713 6.15262613 6.62109375 6.12109375 C5.28385997 6.11456235 3.9466192 6.10931242 2.609375 6.10546875 C1.39781738 6.09612305 0.18625977 6.08677734 -1.06201172 6.07714844 C-4.62529623 6.46509738 -6.49354935 7.2908804 -9.3359375 9.43359375 Z M-81.3359375 38.43359375 C-84.43749122 44.63670118 -83.55038951 54.77329768 -82.3359375 61.43359375 C-79.77861143 65.59628971 -76.62264264 67.24875694 -72.3359375 69.43359375 C-70.29195837 70.76337939 -68.25038901 72.0968746 -66.2109375 73.43359375 C-50.62324454 82.76425503 -34.28381477 89.94187872 -16.7734375 94.80859375 C-15.83290527 95.07172363 -14.89237305 95.33485352 -13.92333984 95.60595703 C-9.2912822 96.84411445 -5.17723625 97.77192078 -0.3359375 97.43359375 C-0.31015625 96.76972656 -0.284375 96.10585937 -0.2578125 95.421875 C0.09585396 89.91593119 0.4505628 86.39172983 4.6640625 82.43359375 C7.72836026 80.90144487 10.2806267 81.20420827 13.6640625 81.43359375 C17.2027619 83.0849868 18.47476403 84.14964604 20.6640625 87.43359375 C21.078125 90.1328125 21.078125 90.1328125 21.2890625 93.12109375 C21.40121094 94.61189453 21.40121094 94.61189453 21.515625 96.1328125 C21.58910156 97.27169922 21.58910156 97.27169922 21.6640625 98.43359375 C50.52780444 95.37867216 78.0244558 82.19235655 100.6640625 64.43359375 C101.6540625 63.77359375 102.6440625 63.11359375 103.6640625 62.43359375 C104.32813024 58.87170293 104.12694863 55.23746346 104.1015625 51.62109375 C104.12154297 50.62271484 104.14152344 49.62433594 104.16210938 48.59570312 C104.15908118 44.0503831 104.15567418 41.24419781 101.76171875 37.296875 C98.10345708 34.04735765 95.68908042 34.3026397 90.85148621 34.28642273 C90.14276707 34.28274604 89.43404794 34.27906935 88.70385247 34.27528125 C86.31712814 34.26422404 83.93044731 34.26039715 81.54370117 34.2565918 C79.83725343 34.25032872 78.13080705 34.24368206 76.42436218 34.23667908 C71.77966968 34.21925572 67.13498748 34.20871383 62.49027038 34.20047355 C59.58995557 34.19532656 56.68964398 34.18925072 53.78933144 34.18296242 C44.71936022 34.16390721 35.64939717 34.14967638 26.57940978 34.14135045 C16.10128063 34.1315737 5.62336249 34.10524416 -4.85469228 34.06484956 C-12.94816387 34.03471599 -21.04157488 34.01988423 -29.1351015 34.01656944 C-33.97160518 34.01421592 -38.80788353 34.00521644 -43.64432716 33.98010826 C-48.19403983 33.95687051 -52.74337811 33.9525769 -57.29313469 33.96286964 C-58.96327076 33.96336615 -60.63342498 33.95701185 -62.30350494 33.9433136 C-64.58359093 33.92565798 -66.86232405 33.93266824 -69.14241028 33.94584656 C-70.41833951 33.9434582 -71.69426874 33.94106985 -73.0088625 33.93860912 C-76.91730941 34.52008719 -78.557825 35.67965935 -81.3359375 38.43359375 Z M-82.3359375 72.43359375 C-82.4285906 85.25517494 -82.49967892 98.07667658 -82.54318619 110.89852428 C-82.56406682 116.85214749 -82.59239368 122.80554176 -82.63769531 128.7590332 C-82.68113529 134.50377467 -82.70507102 140.24829583 -82.71544647 145.99318886 C-82.7228411 148.18567689 -82.73728095 150.37815278 -82.75885773 152.5705471 C-82.78786652 155.63998915 -82.79189448 158.70851924 -82.79003906 161.77807617 C-82.80442017 162.68582291 -82.81880127 163.59356964 -82.83361816 164.52882385 C-82.8065873 168.657565 -82.67495023 170.87357532 -80.49505615 174.4745636 C-76.74366509 177.87830808 -73.35092855 177.5625259 -68.47903442 177.57403564 C-67.77762797 177.57700677 -67.07622152 177.57997789 -66.35356033 177.58303905 C-63.99757638 177.59172743 -61.64164324 177.5932344 -59.28564453 177.59472656 C-57.59875378 177.59935459 -55.91186407 177.60437924 -54.22497559 177.60977173 C-49.63818734 177.62289814 -45.05141372 177.62934102 -40.46460962 177.63378239 C-37.59996881 177.63671239 -34.735332 177.64081703 -31.87069321 177.64528656 C-22.91071374 177.65896139 -13.95074343 177.66862843 -4.99075425 177.67248845 C5.35771595 177.67697098 15.70605418 177.69452795 26.05448425 177.72348905 C34.05031318 177.74509075 42.04610494 177.7551919 50.04196274 177.75652957 C54.81916316 177.75757857 59.59623953 177.76350675 64.37340927 177.78134918 C68.8664576 177.79780402 73.35928827 177.799998 77.85235596 177.79121017 C79.5015229 177.79043844 81.15070142 177.79480044 82.79983902 177.80466843 C85.05121703 177.81735021 87.30181973 177.81153228 89.55319214 177.80108643 C90.81307386 177.80255299 92.07295559 177.80401955 93.37101555 177.80553055 C96.9636422 177.39975739 98.80859241 176.61330785 101.6640625 174.43359375 C103.71070816 171.36362526 103.91332667 170.76830812 103.90457153 167.31440735 C103.90732086 166.4772821 103.91007019 165.64015686 103.91290283 164.77766418 C103.90571228 163.8627269 103.89852173 162.94778961 103.89111328 162.00512695 C103.89140533 161.03908539 103.89169739 160.07304382 103.89199829 159.07772827 C103.89060329 155.87985295 103.87503393 152.68220969 103.859375 149.484375 C103.85564548 147.26905952 103.85279822 145.0537424 103.85079956 142.83842468 C103.84315831 137.00389055 103.82350554 131.16945578 103.8013916 125.33496094 C103.78094379 119.38282617 103.77180012 113.43067538 103.76171875 107.47851562 C103.74026017 95.79683131 103.70611825 84.11522079 103.6640625 72.43359375 C102.91695007 72.91098999 102.16983765 73.38838623 101.40008545 73.88024902 C99.92345428 74.8222113 99.92345428 74.8222113 98.41699219 75.78320312 C96.95601105 76.71585999 96.95601105 76.71585999 95.46551514 77.6673584 C72.23033957 92.31646863 48.48350707 100.80687277 21.6640625 106.43359375 C21.62667969 107.67496094 21.58929688 108.91632813 21.55078125 110.1953125 C21.485103 111.83726886 21.4186563 113.47919462 21.3515625 115.12109375 C21.32900391 115.93771484 21.30644531 116.75433594 21.28320312 117.59570312 C21.07355597 122.30323479 20.7142521 125.61520826 17.6640625 129.43359375 C13.97530223 131.27797388 9.69075937 130.92148109 5.6640625 130.43359375 C3.08768779 128.54844152 2.06738822 127.24024518 0.6640625 124.43359375 C0.51401277 123.06013025 0.41568244 121.68074115 0.34765625 120.30078125 C0.30576172 119.49511719 0.26386719 118.68945312 0.22070312 117.859375 C0.18138672 117.01761719 0.14207031 116.17585938 0.1015625 115.30859375 C0.05837891 114.45910156 0.01519531 113.60960937 -0.02929688 112.734375 C-0.13547986 110.63431152 -0.23622247 108.53397427 -0.3359375 106.43359375 C-4.01056242 105.35880227 -7.68268946 104.333014 -11.40234375 103.42578125 C-34.9995043 97.61874989 -57.14746004 89.00557286 -77.0859375 74.9296875 C-79.34759437 73.28417662 -79.34759437 73.28417662 -82.3359375 72.43359375 Z " fill="#000000" transform="translate(89.3359375,-0.43359375)"/>
</svg>
