<?xml version="1.0" encoding="UTF-8"?>
<svg version="1.1" xmlns="http://www.w3.org/2000/svg" width="201" height="192">
<path d="M0 0 C1.03253906 -0.01611328 2.06507813 -0.03222656 3.12890625 -0.04882812 C12.47621954 -0.05485865 12.47621954 -0.05485865 16.5 3.3125 C17.5 4.3125 17.5 4.3125 17.61352539 7.45532227 C17.61336633 8.84652697 17.60767506 10.23773761 17.59765625 11.62890625 C17.5962413 12.35996078 17.59482635 13.09101532 17.59336853 13.84422302 C17.58775408 16.18785632 17.57519922 18.53139539 17.5625 20.875 C17.55748686 22.46028508 17.55292363 24.04557166 17.54882812 25.63085938 C17.53777997 29.5247761 17.52050572 33.41862205 17.5 37.3125 C18.73302856 37.28893433 18.73302856 37.28893433 19.9909668 37.26489258 C23.72307428 37.20244927 27.45507172 37.16347864 31.1875 37.125 C33.12786133 37.08729492 33.12786133 37.08729492 35.10742188 37.04882812 C36.35458984 37.03916016 37.60175781 37.02949219 38.88671875 37.01953125 C40.03358154 37.0038208 41.18044434 36.98811035 42.36206055 36.97192383 C45.85237798 37.35074533 47.70644999 38.22408098 50.5 40.3125 C52.77424718 44.86099436 51.68502536 51.19366822 51.6875 56.1875 C51.69974609 57.48042969 51.71199219 58.77335937 51.72460938 60.10546875 C51.72654297 61.34683594 51.72847656 62.58820313 51.73046875 63.8671875 C51.73457764 65.00655762 51.73868652 66.14592773 51.74291992 67.31982422 C51.50564878 70.24290928 51.11802777 71.89452841 49.5 74.3125 C46.68175808 75.72162096 44.32748718 75.42433553 41.1796875 75.41015625 C39.92285156 75.40693359 38.66601562 75.40371094 37.37109375 75.40039062 C36.05238281 75.39201172 34.73367187 75.38363281 33.375 75.375 C32.03515789 75.36998489 30.695314 75.36542201 29.35546875 75.36132812 C26.07026794 75.34951086 22.78515603 75.33303617 19.5 75.3125 C19.51571045 76.19510498 19.5314209 77.07770996 19.54760742 77.98706055 C19.59887998 81.27650886 19.63641917 84.56552961 19.66479492 87.85522461 C19.6798376 89.27619141 19.70027704 90.69711213 19.72631836 92.11791992 C19.76290347 94.16596886 19.77977097 96.2134015 19.79296875 98.26171875 C19.8086792 99.49237061 19.82438965 100.72302246 19.84057617 101.9909668 C19.44185388 105.879581 18.28231001 108.53018999 15.5 111.3125 C11.26128682 111.55471218 7.01684019 111.54101631 2.77197266 111.55273438 C0.64055196 111.56242926 -1.48990008 111.59343407 -3.62109375 111.625 C-4.97395259 111.631531 -6.32681835 111.63678109 -7.6796875 111.640625 C-8.91444824 111.6499707 -10.14920898 111.65931641 -11.42138672 111.66894531 C-14.5 111.3125 -14.5 111.3125 -16.36376953 109.97949219 C-18.88400532 106.28199112 -18.61591933 102.78538092 -18.59765625 98.45703125 C-18.5962413 97.79539474 -18.59482635 97.13375824 -18.59336853 96.45207214 C-18.58777996 94.34300172 -18.57522965 92.23403823 -18.5625 90.125 C-18.55748352 88.69336091 -18.55292087 87.26172015 -18.54882812 85.83007812 C-18.5378143 82.32418412 -18.52055755 78.8183525 -18.5 75.3125 C-19.74088379 75.3439209 -19.74088379 75.3439209 -21.00683594 75.37597656 C-24.7544337 75.45911619 -28.50183749 75.51115531 -32.25 75.5625 C-33.55195312 75.59601563 -34.85390625 75.62953125 -36.1953125 75.6640625 C-37.44570312 75.67695313 -38.69609375 75.68984375 -39.984375 75.703125 C-41.13647461 75.72407227 -42.28857422 75.74501953 -43.47558594 75.76660156 C-46.5 75.3125 -46.5 75.3125 -48.87182617 73.69799805 C-51.89714181 69.26549555 -51.12655683 64.09784915 -51.07641602 58.89526367 C-51.06255901 56.88356701 -51.09661216 54.87653743 -51.13476562 52.86523438 C-51.13283203 51.59099609 -51.13089844 50.31675781 -51.12890625 49.00390625 C-51.12963135 47.84060791 -51.13035645 46.67730957 -51.13110352 45.47875977 C-50.29722886 41.29519285 -48.90791756 39.82916975 -45.5 37.3125 C-42.45385742 36.74487305 -42.45385742 36.74487305 -39.10546875 36.82421875 C-37.90341797 36.84033203 -36.70136719 36.85644531 -35.46289062 36.87304688 C-33.59407227 36.93588867 -33.59407227 36.93588867 -31.6875 37 C-30.42228516 37.02255859 -29.15707031 37.04511719 -27.85351562 37.06835938 C-24.73447381 37.12720922 -21.61784098 37.2093863 -18.5 37.3125 C-18.51047363 36.42989502 -18.52094727 35.54729004 -18.53173828 34.63793945 C-18.56591964 31.34852462 -18.5909471 28.05929987 -18.60986328 24.76977539 C-18.61989146 23.34884657 -18.63351741 21.92793822 -18.65087891 20.50708008 C-18.67526821 18.45909556 -18.6865149 16.41138502 -18.6953125 14.36328125 C-18.70578613 13.13262939 -18.71625977 11.90197754 -18.72705078 10.6340332 C-18.49971878 7.30838608 -18.20344669 5.17407295 -16.5 2.3125 C-11.35570072 -0.59240643 -5.74008391 -0.01791537 0 0 Z M-10.5 8.3125 C-10.53867188 11.70789063 -10.53867188 11.70789063 -10.578125 15.171875 C-10.61656291 17.36959143 -10.66171707 19.56707461 -10.70751953 21.76464844 C-10.73570535 23.28927431 -10.75693189 24.81404566 -10.77099609 26.33886719 C-10.79246049 28.53395936 -10.83912169 30.72730711 -10.890625 32.921875 C-10.91157227 34.24155273 -10.93251953 35.56123047 -10.95410156 36.92089844 C-11.5 40.3125 -11.5 40.3125 -13.13085938 42.73632812 C-16.22798103 44.79682044 -18.30887144 44.85447948 -22.015625 44.921875 C-23.26601562 44.95410156 -24.51640625 44.98632812 -25.8046875 45.01953125 C-27.10664062 45.03371094 -28.40859375 45.04789063 -29.75 45.0625 C-31.06742188 45.09214844 -32.38484375 45.12179688 -33.7421875 45.15234375 C-36.99446134 45.22304536 -40.24723492 45.2700357 -43.5 45.3125 C-43.5 52.9025 -43.5 60.4925 -43.5 68.3125 C-40.41205078 68.36857422 -40.41205078 68.36857422 -37.26171875 68.42578125 C-35.26600608 68.47445717 -33.27029443 68.52323607 -31.2746582 68.57495117 C-29.88870623 68.60818549 -28.50261939 68.63622226 -27.11645508 68.65893555 C-25.12293157 68.69250617 -23.12978259 68.74638 -21.13671875 68.80078125 C-19.93748779 68.82696533 -18.73825684 68.85314941 -17.50268555 68.88012695 C-14.5 69.3125 -14.5 69.3125 -12.6171875 70.38867188 C-10.90936884 73.32958339 -11.01920024 76.29348169 -10.98828125 79.60546875 C-10.97033005 80.31149734 -10.95237885 81.01752594 -10.93388367 81.74494934 C-10.87976822 83.99657241 -10.84588278 86.24798343 -10.8125 88.5 C-10.77932781 90.02802431 -10.74483823 91.55602063 -10.70898438 93.08398438 C-10.62156266 96.82685357 -10.56151193 100.56875647 -10.5 104.3125 C-3.24 104.3125 4.02 104.3125 11.5 104.3125 C11.53738281 102.03730469 11.57476562 99.76210937 11.61328125 97.41796875 C11.65949722 95.21368818 11.71073034 93.00957738 11.76245117 90.80541992 C11.79569818 89.27394941 11.82373093 87.74235644 11.84643555 86.21069336 C11.87998718 84.00842113 11.9322991 81.80727088 11.98828125 79.60546875 C11.99467117 78.92099167 12.0010611 78.23651459 12.00764465 77.53129578 C12.09138182 74.82199048 12.24251389 72.75053768 13.63085938 70.38867188 C16.39801648 68.79546021 18.74035162 68.87267304 21.91796875 68.80078125 C23.17158203 68.76533203 24.42519531 68.72988281 25.71679688 68.69335938 C27.68229492 68.65952148 27.68229492 68.65952148 29.6875 68.625 C31.02282013 68.59182334 32.35810832 68.55733334 33.69335938 68.52148438 C36.96193825 68.43888491 40.23095644 68.37401996 43.5 68.3125 C43.5 60.7225 43.5 53.1325 43.5 45.3125 C41.44136719 45.27511719 39.38273437 45.23773438 37.26171875 45.19921875 C35.26600608 45.15054283 33.27029443 45.10176393 31.2746582 45.05004883 C29.88870623 45.01681451 28.50261939 44.98877774 27.11645508 44.96606445 C25.12293157 44.93249383 23.12978259 44.87862 21.13671875 44.82421875 C19.93748779 44.79803467 18.73825684 44.77185059 17.50268555 44.74487305 C14.5 44.3125 14.5 44.3125 12.6171875 43.25 C10.88428698 40.24469001 11.01885235 37.18015232 10.98828125 33.80078125 C10.97033005 33.07255661 10.95237885 32.34433197 10.93388367 31.59403992 C10.87975787 29.27108529 10.8458792 26.94833634 10.8125 24.625 C10.77932875 23.04879949 10.74483927 21.47262612 10.70898438 19.89648438 C10.62154973 16.03512634 10.56150686 12.17470646 10.5 8.3125 C3.57 8.3125 -3.36 8.3125 -10.5 8.3125 Z " fill="#000000" transform="translate(149.5,78.6875)"/>
<path d="M0 0 C3.06551291 2.31032269 5.08549869 4.35342572 7.140625 7.61328125 C6.953125 9.98828125 6.953125 9.98828125 6.140625 11.61328125 C4.46875 12.34765625 4.46875 12.34765625 2.140625 12.61328125 C-0.375 11.06640625 -0.375 11.06640625 -3.109375 8.86328125 C-12.60560046 1.71612208 -19.85788508 0.53870117 -31.859375 1.61328125 C-45.89680001 4.38012337 -58.48894337 11.85934836 -66.609375 23.73828125 C-74.17077755 36.45597204 -75.84682621 50.22274831 -72.859375 64.61328125 C-65.97523112 88.36842563 -47.85842353 106.45145891 -31.31640625 123.94140625 C-28.62037909 126.79457494 -25.97083648 129.68214934 -23.359375 132.61328125 C-14.26076019 142.78936361 -4.87941721 152.68906988 4.82983398 162.28320312 C8.48238333 165.90747393 11.89360411 169.62408415 15.140625 173.61328125 C19.4691979 173.13683412 21.51252248 170.57456913 24.453125 167.55078125 C24.9373291 167.05852051 25.4215332 166.56625977 25.92041016 166.05908203 C29.32698394 162.56402581 32.50553066 158.92531326 35.5078125 155.07421875 C37.61282754 153.19078424 39.37961096 152.95957793 42.140625 152.61328125 C43.130625 155.08828125 43.130625 155.08828125 44.140625 157.61328125 C38.81028899 164.60194402 33.00538905 171.05865238 26.890625 177.36328125 C26.20548828 178.09095703 25.52035156 178.81863281 24.81445312 179.56835938 C24.15380859 180.23802734 23.49316406 180.90769531 22.8125 181.59765625 C22.2256543 182.20319336 21.63880859 182.80873047 21.03417969 183.43261719 C19.140625 184.61328125 19.140625 184.61328125 16.86376953 184.7277832 C12.6754785 183.01364042 10.02369985 180.00603458 6.8984375 176.796875 C6.21184052 176.1069899 5.52524353 175.4171048 4.81784058 174.70631409 C2.62425981 172.49699305 0.44519136 170.27391968 -1.734375 168.05078125 C-3.19314245 166.58051852 -4.65276917 165.11110781 -6.11328125 163.64257812 C-7.52681193 162.21560635 -8.93959607 160.7878946 -10.3515625 159.359375 C-10.99970917 158.7038414 -11.64785583 158.0483078 -12.31564331 157.37290955 C-16.10336353 153.50727823 -19.72940048 149.54330126 -23.25027466 145.43275452 C-24.88678686 143.58228558 -26.59599686 141.84259033 -28.359375 140.11328125 C-31.30820283 137.20991993 -34.0206961 134.1707324 -36.71875 131.03515625 C-38.94420368 128.5173072 -41.22951626 126.06619692 -43.52978516 123.61694336 C-49.59068794 117.1593301 -55.39110059 110.58760536 -60.859375 103.61328125 C-61.60832031 102.68257813 -62.35726562 101.751875 -63.12890625 100.79296875 C-73.09256378 88.06257156 -81.66213754 73.07529639 -82.859375 56.61328125 C-82.92253906 55.78054687 -82.98570313 54.9478125 -83.05078125 54.08984375 C-83.71944916 37.99867412 -78.28318188 24.08434951 -68.046875 11.80078125 C-50.80435354 -6.53597715 -21.98485681 -14.29015692 0 0 Z " fill="#000000" transform="translate(82.859375,7.38671875)"/>
<path d="M0 0 C11.34946305 8.69569154 19.48732607 19.75106124 22 34 C23.37398556 52.70136481 20.62564759 68.22262861 13.5625 85.4375 C13.00574585 86.81639404 13.00574585 86.81639404 12.43774414 88.22314453 C9.66365938 94.61930339 9.66365938 94.61930339 6.21484375 96.59765625 C5.48394531 96.73042969 4.75304687 96.86320312 4 97 C3.01 96.01 2.02 95.02 1 94 C2.25656489 89.99392182 3.76702268 86.18237073 5.46264648 82.34301758 C13.69129744 63.46578326 17.45125641 44.17805138 10.00390625 24.34765625 C4.62576834 12.2701078 -5.03675257 5.76721199 -17 1 C-30.69812821 -3.4653991 -44.66635856 -3.41151575 -58.01953125 2.2890625 C-69.88220755 8.35833875 -74.65008138 16.27571026 -80 28 C-81.65 27.67 -83.3 27.34 -85 27 C-86.58127265 22.20196697 -85.28291459 19.59431845 -83.0625 15.1875 C-76.86509672 3.20158784 -67.50835263 -4.02071736 -54.75 -8.375 C-36.20536606 -13.19336559 -15.97529797 -10.80257348 0 0 Z " fill="#000000" transform="translate(174,12)"/>
</svg>
