<?xml version="1.0" encoding="UTF-8"?>
<svg version="1.1" xmlns="http://www.w3.org/2000/svg" width="650" height="650">
<path d="M0 0 C1.010625 0.7425 2.02125 1.485 3.0625 2.25 C16.14948175 13.37763137 24.42792924 32.34163514 27 49 C27.98742299 62.97649241 27.07883732 76.88742414 21.35546875 89.84375 C19.82323776 92.76397691 19.82323776 92.76397691 20.125 95.1875 C21.16810165 97.34821055 22.54384306 99.09912486 24 101 C24.21914063 100.09121094 24.43828125 99.18242187 24.6640625 98.24609375 C32.70094354 66.39260182 50.78962981 40.52081378 78.97753906 23.19628906 C113.91003117 2.53366095 156.66406221 -1.65193095 196.375 -1.375 C197.58092804 -1.37001495 198.78685608 -1.36502991 200.02932739 -1.3598938 C214.5837562 -1.28965679 229.14664901 -1.11800387 243.66998291 -0.09674072 C245.15824272 0.00777517 246.6471767 0.10317282 248.13665771 0.1885376 C257.2366188 0.74034459 263.64693173 2.14433793 270 9 C271.77964061 12.55928122 270.94474993 16.23748283 270 20 C268.39119235 23.06217495 266.33711672 25.67379856 264.1875 28.375 C262.99582642 29.95519453 261.80844281 31.53863188 260.625 33.125 C260.02042969 33.93066406 259.41585938 34.73632812 258.79296875 35.56640625 C243.14011948 56.81199469 235.4749561 79.70462773 229.25 105.09375 C228.94843994 106.3209375 228.64687988 107.548125 228.33618164 108.8125 C227.75539955 111.19558415 227.18363345 113.58089179 226.62280273 115.96875 C219.86574735 143.97760567 204.74675827 169.19026254 180.02783203 184.81103516 C154.65131583 199.68987382 123.08135734 204.53683247 94.3125 200.1875 C93.12849609 200.02185547 91.94449219 199.85621094 90.72460938 199.68554688 C76.87385607 197.62927257 76.87385607 197.62927257 71.0625 192.3125 C68.34016146 187.94025931 68.35510229 186.0785695 69 181 C70.78011444 176.87762973 73.22243627 174.40390419 77 172 C82.39447168 170.81161391 86.91658491 171.29411821 92.25 172.375 C119.88120304 177.40171933 146.29712415 174.96316129 170 159 C180.2647936 151.38062972 187.54557762 141.34212165 193.3125 130.0625 C193.78260498 129.15165649 193.78260498 129.15165649 194.26220703 128.22241211 C199.40545979 117.66788568 201.747277 106.08123982 204.25 94.6875 C209.96361959 69.55171807 218.01672385 45.31116463 233 24 C223.79545645 19.39772823 207.46627981 21.75692343 197.25 21.75 C195.89822159 21.74898788 195.89822159 21.74898788 194.51913452 21.74795532 C156.06560525 21.79347253 114.82218916 27.19074175 84 52 C82.948125 52.78375 81.89625 53.5675 80.8125 54.375 C62.20467839 71.74230017 54.26622324 93.04760952 52.984375 117.87109375 C52.88103277 124.96553757 53.95168999 131.99971498 55 139 C58.7205087 135.54335717 61.58025528 131.64323713 64.5625 127.5625 C72.02413162 117.49821287 80.04469035 108.05246855 88.5 98.8125 C89.25700195 97.98262573 89.25700195 97.98262573 90.02929688 97.13598633 C92.25057846 94.73801189 94.2652794 92.82314707 97 91 C97.9355066 88.74806083 97.9355066 88.74806083 98.625 85.9375 C100.67616607 78.86972233 103.04311489 71.93688182 105.5 65 C105.87979004 63.90163818 106.25958008 62.80327637 106.65087891 61.67163086 C107.02390137 60.62499268 107.39692383 59.57835449 107.78125 58.5 C108.11189453 57.5615625 108.44253906 56.623125 108.78320312 55.65625 C110.46662955 51.98135444 112.55043547 48.96055481 115.9453125 46.7109375 C119.91065465 45.33889896 123.87347399 45.46544213 128 46 C131.89195522 47.98135902 134.94325506 50.10300958 137 54 C137.52565697 56.67981983 137.77243714 59.26924563 138 62 C138.56960449 61.57444824 139.13920898 61.14889648 139.72607422 60.71044922 C146.52941372 55.77278172 153.60637987 51.86267997 161.125 48.125 C162.25292969 47.54492188 163.38085938 46.96484375 164.54296875 46.3671875 C177.81523597 39.72329233 177.81523597 39.72329233 185.6875 42.125 C189.2584522 44.1462937 191.56643834 45.68150683 194 49 C194.83749259 52.93222713 194.38749443 56.05279139 192.875 59.75 C189.11191806 64.26569832 184.05231442 66.53828502 178.78564453 68.88891602 C158.67463532 77.86965885 141.20526686 90.37751724 124 104 C124.84594727 104.04487549 125.69189453 104.08975098 126.56347656 104.13598633 C129.76232314 104.31129849 132.96035115 104.49715054 136.15820312 104.68969727 C137.53101566 104.77029072 138.90406782 104.84692048 140.27734375 104.91918945 C162.26193391 106.08430845 162.26193391 106.08430845 169.125 111.4375 C169.74375 112.283125 170.3625 113.12875 171 114 C171.680625 114.8971875 171.680625 114.8971875 172.375 115.8125 C173.37608372 119.31629301 172.93573885 122.54602277 172 126 C169.80199532 129.80423888 167.252771 131.99815268 163.1015625 133.5703125 C158.73107423 134.46390676 154.37297018 133.58732711 150 133 C136.00082862 131.50286639 121.96376444 131.21308936 108.05615234 133.64599609 C106.66443078 133.88560619 105.2684421 134.10144225 103.86962891 134.29541016 C93.83799095 135.76991824 87.87625256 138.98675593 81.6875 147.125 C79.36628997 150.35966131 77.17541841 153.66619923 75 157 C73.96389392 158.51025087 72.92617227 160.01939485 71.88671875 161.52734375 C55.28928492 186.16570399 41.54578345 216.49166087 36.31640625 245.8359375 C34.37936229 256.45137617 34.37936229 256.45137617 31.5625 259.375 C26.35754195 261.74919139 21.62526895 261.8745166 16 261 C12.92634214 259.19196596 11.56980268 258.13960536 10 255 C9.31773641 246.78725205 11.48344295 239.95659985 14 232.1875 C14.41210689 230.8922777 14.82413401 229.59703002 15.23608398 228.30175781 C19.19961122 215.963266 23.65340109 203.8453148 29.3125 192.17578125 C29.68882568 191.39879883 30.06515137 190.62181641 30.45288086 189.82128906 C31.17014746 188.36118993 31.90183193 186.90804694 32.65063477 185.46386719 C36.26484972 178.22280963 33.33745513 172.52263104 30.9375 165.25 C23.79609466 143.90130568 13.12462178 122.09250102 -3 106 C-3.66 106 -4.32 106 -5 106 C-5.0825 107.19625 -5.165 108.3925 -5.25 109.625 C-5.79104739 113.92289756 -7.19516448 116.63419738 -10 120 C-15.30071848 123.49875762 -22.20838939 122.3457339 -28.3125 122.3125 C-28.99328613 122.31067719 -29.67407227 122.30885437 -30.37548828 122.30697632 C-40.23620703 122.26225816 -49.5066656 121.91832132 -59 119 C-60.16789062 118.64808594 -61.33578125 118.29617188 -62.5390625 117.93359375 C-75.67894235 113.59657458 -86.71895758 107.23971497 -97 98 C-97.65742188 97.41347656 -98.31484375 96.82695312 -98.9921875 96.22265625 C-111.76433696 84.16007064 -117.32060464 69.00141215 -121.40429688 52.39746094 C-126.14643138 33.31231307 -132.98258222 13.45258463 -145.9375 -1.6875 C-148.97911604 -5.4588311 -149.78906975 -8.03757342 -149.3671875 -12.85546875 C-148.81195814 -16.09824448 -148.19596405 -18.91567165 -147 -22 C-143.88905162 -24.07396558 -142.51954254 -24.38456281 -138.90625 -24.81640625 C-137.8848291 -24.94039795 -136.8634082 -25.06438965 -135.81103516 -25.19213867 C-134.17207275 -25.37546753 -134.17207275 -25.37546753 -132.5 -25.5625 C-130.82043213 -25.75646362 -130.82043213 -25.75646362 -129.10693359 -25.9543457 C-87.11010503 -30.63029976 -33.41342448 -29.941049 0 0 Z M-111 2 C-110.64808594 2.4640625 -110.29617187 2.928125 -109.93359375 3.40625 C-99.9248294 17.41329358 -94.89783818 34.39132371 -91.5390625 51.09228516 C-89.92253192 59.0474044 -88.09813639 65.48125931 -83 72 C-82.37480469 72.82628906 -81.74960938 73.65257812 -81.10546875 74.50390625 C-70.8272001 86.99419561 -55.94216239 94.69110967 -40 97 C-38.06545481 97.10649478 -36.12856382 97.17591217 -34.19140625 97.2109375 C-33.11439453 97.23929687 -32.03738281 97.26765625 -30.92773438 97.296875 C-28.68831691 97.3488638 -26.44870744 97.39316319 -24.20898438 97.4296875 C-18.06834346 97.60586847 -13.4392461 98.07298124 -8 101 C-9.52079073 97.49172085 -11.5995673 95.04728354 -14.1875 92.25 C-17.00471364 89.18116919 -19.79154995 86.1026442 -22.5 82.9375 C-28.81496034 75.72454071 -35.60723225 69.33334134 -43.0859375 63.33984375 C-46.2383189 60.80864206 -49.34068208 58.22354511 -52.4375 55.625 C-56.25074828 52.40234354 -56.25074828 52.40234354 -60.2890625 49.48046875 C-62.45968041 47.60224001 -62.65952122 46.51117914 -62.9375 43.6875 C-63.3120909 38.05950014 -61.6048354 34.84799228 -57.9375 30.625 C-53.72965812 28.29725768 -49.71214761 28.1827369 -45 29 C-40.34653398 31.21629887 -36.87626698 34.72913138 -33.1875 38.25 C-31.93438452 39.43052746 -30.68048489 40.61022314 -29.42578125 41.7890625 C-28.82975098 42.35012695 -28.2337207 42.91119141 -27.61962891 43.48925781 C-25.15454538 45.78861519 -22.61099565 47.99030267 -20.05859375 50.19140625 C-17.31147521 52.60490888 -14.62627707 55.08451843 -11.9375 57.5625 C-7.69905374 61.46730957 -3.41102131 65.29073208 1 69 C4.19368325 59.41895026 0.42410351 47.9018447 -3.28515625 38.87109375 C-12.07378658 21.66104605 -27.45330119 12.08628585 -45.32080078 6.24072266 C-61.23071458 1.40056968 -76.66524864 -0.15561854 -93.25 -0.25 C-94.53696777 -0.25942627 -95.82393555 -0.26885254 -97.14990234 -0.27856445 C-98.36371582 -0.27429443 -99.5775293 -0.27002441 -100.828125 -0.265625 C-101.9202832 -0.26336914 -103.01244141 -0.26111328 -104.13769531 -0.25878906 C-106.95226824 -0.00431556 -108.60962458 0.54379428 -111 2 Z M-7 102 C-6 104 -6 104 -6 104 Z " fill="#000000" transform="translate(264,236)"/>
<path d="M0 0 C3.69675816 3.23466339 6.59989346 6.84999108 9.64453125 10.6953125 C11.84526425 13.43254259 14.12920934 16.03492155 16.5 18.625 C20.41891252 22.92491791 24.09170869 27.38419547 27.75 31.90625 C29.93501569 34.54647729 32.19171391 37.0922972 34.5 39.625 C39.2057274 44.79304448 43.64912303 50.15582533 48 55.625 C48.56074219 56.31078125 49.12148438 56.9965625 49.69921875 57.703125 C51.78194534 60.78030662 52.20487116 63.99383528 52 67.625 C47.52419486 77.39039304 36.20649183 83.78417715 27.77929688 89.92553711 C22.49806597 93.77432039 17.2698204 97.68175764 12.08398438 101.65820312 C8.58776428 104.33906857 5.07745672 107.00122017 1.56787109 109.66455078 C-0.13854284 110.96731784 -1.8388171 112.27816797 -3.53271484 113.59716797 C-5.92424826 115.4592384 -8.33460642 117.29404563 -10.75 119.125 C-11.80296265 119.96236694 -11.80296265 119.96236694 -12.87719727 120.81665039 C-17.28115346 124.10581409 -20.42082056 125.21492722 -25.93676758 124.9831543 C-29.69560814 124.33066121 -31.94332725 122.93309983 -35 120.625 C-37.52184192 116.94731386 -37.29200704 113.15589543 -36.63671875 108.87890625 C-34.23376985 100.37276197 -24.81346987 95.68918061 -17.94042969 90.96728516 C-14.64037715 88.68448585 -11.3853011 86.33903939 -8.125 84 C-6.94030411 83.15336599 -5.75542714 82.30698525 -4.5703125 81.4609375 C-3.72210938 80.85507813 -2.87390625 80.24921875 -2 79.625 C-42.37023468 78.677524 -83.70917854 91.75396319 -119 110.625 C-119.66193359 110.97530273 -120.32386719 111.32560547 -121.00585938 111.68652344 C-130.89905815 116.9550068 -140.06912288 122.85910727 -149 129.625 C-149.57991699 130.06070313 -150.15983398 130.49640625 -150.75732422 130.9453125 C-159.66227738 137.66640266 -167.95133275 144.9045149 -176 152.625 C-176.82371094 153.40746094 -177.64742188 154.18992188 -178.49609375 154.99609375 C-184.15469352 160.49778261 -189.11219544 166.43654236 -194 172.625 C-194.78117187 173.57761719 -195.56234375 174.53023437 -196.3671875 175.51171875 C-207.60868638 189.53665585 -216.43913186 205.35450096 -224 221.625 C-224.51949219 222.73488281 -225.03898437 223.84476563 -225.57421875 224.98828125 C-231.89356458 239.10314555 -236.62454028 253.74762867 -239.8125 268.875 C-240.007229 269.79522949 -240.20195801 270.71545898 -240.40258789 271.66357422 C-243.26093595 286.04467723 -244.41430157 300.36354105 -244.375 315 C-244.37445618 315.77369934 -244.37391235 316.54739868 -244.37335205 317.34454346 C-244.2140497 367.13226288 -226.53258123 414.52989965 -196 453.625 C-195.19691406 454.65367187 -194.39382812 455.68234375 -193.56640625 456.7421875 C-180.29533562 473.01529439 -165.12904284 487.49949904 -148 499.625 C-146.88355428 500.43672992 -145.76763765 501.24918823 -144.65234375 502.0625 C-130.15815605 512.40779382 -114.74110508 520.40034298 -98.65234375 527.9609375 C-83.72601447 534.98633611 -83.72601447 534.98633611 -82 539.625 C-81.46367111 544.63073632 -81.89291777 547.63017999 -85 551.625 C-89.23866278 555.45346961 -93.08538014 555.90520231 -98.72998047 555.86889648 C-102.90174353 555.420672 -106.44012923 553.61293161 -110.1875 551.8125 C-111.05189697 551.40797607 -111.91629395 551.00345215 -112.80688477 550.58666992 C-115.54945384 549.28867712 -118.27609595 547.96167668 -121 546.625 C-122.30420898 545.99126465 -122.30420898 545.99126465 -123.63476562 545.34472656 C-142.83557267 535.9318591 -160.55738945 524.28456104 -177 510.625 C-177.56203125 510.16448242 -178.1240625 509.70396484 -178.703125 509.22949219 C-192.04511963 498.2689234 -204.44559128 486.3206018 -215 472.625 C-216.01485065 471.34964385 -217.0305378 470.07495307 -218.046875 468.80078125 C-225.88504586 458.87886926 -232.74699748 448.61164951 -239 437.625 C-239.42909668 436.87524902 -239.85819336 436.12549805 -240.30029297 435.35302734 C-260.57481779 399.52523206 -270.48460355 359.08756821 -270.3125 318.0625 C-270.31034485 317.13646973 -270.3081897 316.21043945 -270.30596924 315.25634766 C-270.25347364 301.18388709 -269.77380445 287.46162383 -267 273.625 C-266.80132324 272.60664063 -266.60264648 271.58828125 -266.39794922 270.5390625 C-253.62347238 206.69538499 -217.24437436 149.52047073 -165 110.625 C-164.36255859 110.14708008 -163.72511719 109.66916016 -163.06835938 109.17675781 C-132.83717831 86.67396013 -97.65451214 70.37048008 -61 61.625 C-60.11586426 61.41391602 -59.23172852 61.20283203 -58.32080078 60.98535156 C-36.13028557 55.80388718 -13.75290647 53.36973396 9 52.625 C7.85724609 51.40876953 7.85724609 51.40876953 6.69140625 50.16796875 C0.95760486 44.0312062 -4.57382981 37.82390586 -9.828125 31.265625 C-12.79878996 27.65380933 -15.96075299 24.23315332 -19.15234375 20.81640625 C-22.73973587 16.56159234 -23.461458 13.28473083 -23.30859375 7.80859375 C-22.82503682 4.3869694 -21.57871563 2.87311106 -19 0.625 C-12.45798988 -3.22324125 -6.76435293 -3.10032843 0 0 Z " fill="#000000" transform="translate(311,10.375)"/>
<path d="M0 0 C0.90943359 0.39550049 1.81886719 0.79100098 2.75585938 1.19848633 C29.4214586 13.03629856 54.11632633 29.47872205 75.37890625 49.44140625 C78.00186811 51.88926078 80.67751001 54.26002033 83.375 56.625 C88.3699824 61.12841271 92.83209176 65.94213873 97.1875 71.0625 C97.91259766 71.91110596 97.91259766 71.91110596 98.65234375 72.77685547 C135.24730551 115.86263184 158.55947777 170.19025691 160.1875 227.0625 C160.20941406 227.77664063 160.23132813 228.49078125 160.25390625 229.2265625 C161.90569065 292.43484567 139.01648906 353.16838533 98.1875 401.0625 C97.55199219 401.81015625 96.91648437 402.5578125 96.26171875 403.328125 C84.94636561 416.24740198 72.7755149 428.63658438 58.90283203 438.80029297 C57.12576515 440.10792687 55.37287627 441.44388094 53.62109375 442.78515625 C3.58178205 480.75407969 -56.72067856 497.91175541 -118.8125 500.0625 C-114.15258089 505.90753434 -109.40326783 511.59198454 -104.3125 517.0625 C-87.25588725 535.43576356 -87.25588725 535.43576356 -87.49609375 544.03515625 C-88.18562175 548.45324309 -90.78640875 551.17892142 -94.0625 554 C-97.79706443 555.44289989 -101.06875038 555.30139002 -104.8125 554.0625 C-109.89087529 551.18129933 -113.25639141 547.60301695 -116.9375 543.1875 C-117.49953125 542.52621094 -118.0615625 541.86492188 -118.640625 541.18359375 C-119.80408603 539.81404882 -120.964563 538.44196337 -122.12207031 537.06738281 C-124.66662911 534.0494861 -127.24072604 531.05719551 -129.8125 528.0625 C-130.29912109 527.49370117 -130.78574219 526.92490234 -131.28710938 526.33886719 C-134.43254158 522.66230747 -137.59719445 519.00310906 -140.77246094 515.35229492 C-159.94958333 493.29860417 -159.94958333 493.29860417 -160.3125 487.4375 C-160.42078125 486.21160156 -160.42078125 486.21160156 -160.53125 484.9609375 C-158.62515292 477.27439383 -150.90474498 472.31163604 -144.6875 468.0625 C-143.08800759 466.93880702 -141.49043003 465.81238468 -139.89453125 464.68359375 C-139.0638916 464.09690918 -138.23325195 463.51022461 -137.37744141 462.90576172 C-132.97164973 459.73959694 -128.677292 456.42967639 -124.375 453.125 C-117.39390877 447.78731615 -110.4113601 442.45221866 -103.375 437.1875 C-102.600354 436.598479 -101.82570801 436.00945801 -101.02758789 435.40258789 C-96.03395575 431.68810188 -91.26854755 428.35762331 -84.75 429.1875 C-80.86505066 429.81889712 -78.58856985 431.20478104 -75.8125 434.0625 C-74.11391845 436.9153993 -73.49563224 439.12396219 -73.4375 442.4375 C-73.40914063 443.16710937 -73.38078125 443.89671875 -73.3515625 444.6484375 C-74.68275618 451.62028237 -80.38800637 455.42985381 -85.75 459.375 C-86.49693115 459.93533936 -87.2438623 460.49567871 -88.01342773 461.07299805 C-94.49607644 465.90614594 -101.10461684 470.54780298 -107.8125 475.0625 C-53.08738177 477.8985426 8.85164956 451.63535684 49.53125 416.203125 C52.11868515 413.85737335 54.65605398 411.46824066 57.1875 409.0625 C58.5769001 407.84677491 59.97231591 406.63787389 61.375 405.4375 C69.15556642 398.63741146 75.80130871 391.17354883 82.1875 383.0625 C82.68975098 382.43134277 83.19200195 381.80018555 83.70947266 381.14990234 C91.34689361 371.52670597 98.22728163 361.80612853 104.1875 351.0625 C104.58533691 350.35963867 104.98317383 349.65677734 105.39306641 348.93261719 C122.67673793 318.24954835 133.17819947 283.38801857 134.1875 248.0625 C134.22746094 246.95261719 134.26742188 245.84273437 134.30859375 244.69921875 C134.80520096 217.97006572 130.28262467 191.18262024 121.1875 166.0625 C120.90036133 165.26569824 120.61322266 164.46889648 120.31738281 163.64794922 C108.90576094 132.51581106 91.10130278 104.93600426 68.1875 81.0625 C67.65253906 80.50030762 67.11757813 79.93811523 66.56640625 79.35888672 C58.86551985 71.3045243 50.88797044 64.03073428 41.9453125 57.38037109 C40.20442923 56.07519222 38.49198619 54.73889131 36.78125 53.39453125 C20.93763033 41.12893272 3.07102773 32.09448667 -15.22265625 24.0859375 C-26.33619168 19.2125864 -26.33619168 19.2125864 -29.8125 14.0625 C-31.39549585 9.31351245 -31.36457896 5.49790528 -29.5625 0.8125 C-27.32901376 -2.69726409 -25.50719528 -4.30804175 -21.625 -5.75 C-14.06383947 -6.25407737 -6.79801968 -2.96606838 0 0 Z " fill="#000000" transform="translate(438.8125,85.9375)"/>
</svg>
