<?xml version="1.0" encoding="UTF-8"?>
<svg version="1.1" xmlns="http://www.w3.org/2000/svg" width="185" height="184">
<path d="M0 0 C18.17424356 15.87796009 31.41408389 36.67231477 33.64916992 61.140625 C33.78308056 64.463391 33.81574719 67.76458497 33.78515625 71.08984375 C33.77685791 72.26716064 33.76855957 73.44447754 33.76000977 74.6574707 C33.57661302 84.17778507 32.51475668 92.85464569 29.34765625 101.83984375 C29.11159668 102.51015625 28.87553711 103.18046875 28.63232422 103.87109375 C19.70141509 128.19356969 1.63989945 145.99121713 -21.53515625 157.04296875 C-43.60746924 167.05407912 -69.83704953 166.51305408 -92.375 158.51953125 C-115.3229384 149.38030877 -134.36666092 130.95878208 -144.19018555 108.29638672 C-153.93298329 84.47520017 -153.37643268 58.31610803 -143.90234375 34.52734375 C-133.55455098 11.88668438 -114.54898042 -6.31643923 -91.28564453 -15.21020508 C-60.25631548 -26.44523392 -25.60085955 -20.85018459 0 0 Z M-76.80859375 -4.09765625 C-82.88742623 3.04255968 -86.71698452 11.40394072 -90.65234375 19.83984375 C-87.90065788 21.35639351 -85.65533094 22.14349337 -82.53515625 22.47265625 C-81.76300781 22.55644531 -80.99085937 22.64023437 -80.1953125 22.7265625 C-79.39738281 22.80519531 -78.59945312 22.88382813 -77.77734375 22.96484375 C-76.98714844 23.05121094 -76.19695312 23.13757812 -75.3828125 23.2265625 C-71.07233295 23.67840977 -67.02140985 23.83984375 -62.65234375 23.83984375 C-62.65234375 11.95984375 -62.65234375 0.07984375 -62.65234375 -12.16015625 C-67.87851571 -12.16015625 -73.20369695 -7.5458184 -76.80859375 -4.09765625 Z M-54.65234375 -12.16015625 C-54.65234375 -0.28015625 -54.65234375 11.59984375 -54.65234375 23.83984375 C-40.45653945 23.09794862 -40.45653945 23.09794862 -26.65234375 20.83984375 C-29.70892698 12.642003 -33.35613573 5.79433049 -38.65234375 -1.16015625 C-39.25046875 -2.06765625 -39.84859375 -2.97515625 -40.46484375 -3.91015625 C-43.94279569 -7.48747825 -48.2166862 -9.91141697 -52.65234375 -12.16015625 C-53.31234375 -12.16015625 -53.97234375 -12.16015625 -54.65234375 -12.16015625 Z M-34.65234375 -9.16015625 C-34.31203125 -8.68449219 -33.97171875 -8.20882813 -33.62109375 -7.71875 C-27.81907478 0.66022952 -23.15893847 9.71169016 -18.65234375 18.83984375 C-11.83026568 17.18448657 -5.81860623 15.21383643 0.34765625 11.83984375 C-9.26843192 1.60336279 -21.03361499 -5.60819773 -34.65234375 -9.16015625 Z M-117.65234375 10.83984375 C-114.38136034 13.57236061 -111.05351953 15.05668133 -107.08984375 16.58984375 C-105.38634766 17.26273438 -105.38634766 17.26273438 -103.6484375 17.94921875 C-100.64135713 19.154757 -100.64135713 19.154757 -97.65234375 17.83984375 C-96.26375544 15.18701833 -95.02909769 12.57991018 -93.83984375 9.83984375 C-90.95371178 3.42450348 -87.89936717 -2.51354556 -83.65234375 -8.16015625 C-96.10568218 -8.16015625 -108.89121067 2.87517732 -117.65234375 10.83984375 Z M-125.1328125 19.31640625 C-133.31431114 29.61348692 -138.40393354 41.14310062 -141.65234375 53.83984375 C-141.85085937 54.60167969 -142.049375 55.36351562 -142.25390625 56.1484375 C-142.82495198 60.00579545 -142.65234375 63.9404459 -142.65234375 67.83984375 C-130.77234375 67.83984375 -118.89234375 67.83984375 -106.65234375 67.83984375 C-106.21921875 63.67359375 -105.78609375 59.50734375 -105.33984375 55.21484375 C-104.30559672 45.59934414 -103.09531951 36.21324718 -100.65234375 26.83984375 C-101.24660156 26.60910156 -101.84085938 26.37835938 -102.453125 26.140625 C-108.19990243 23.8794513 -113.81650732 21.42719843 -119.40234375 18.79296875 C-122.55401888 17.40130678 -122.55401888 17.40130678 -125.1328125 19.31640625 Z M-1.96484375 20.58984375 C-6.5240308 22.83863196 -10.70942168 24.69032699 -15.65234375 25.83984375 C-14.97597002 33.33764547 -13.95471308 40.73379848 -12.7578125 48.1640625 C-11.73068297 54.75221655 -11.21049834 61.14198862 -10.65234375 67.83984375 C1.22765625 67.83984375 13.10765625 67.83984375 25.34765625 67.83984375 C25.34765625 50.59305389 19.37467463 33.30025983 8.34765625 19.83984375 C4.51057183 16.71512943 2.12940594 18.49220231 -1.96484375 20.58984375 Z M-93.65234375 28.83984375 C-94.30236053 31.83899094 -94.94745412 34.83906176 -95.58984375 37.83984375 C-95.86344727 39.09861328 -95.86344727 39.09861328 -96.14257812 40.3828125 C-98.14189091 49.76140702 -98.65234375 58.09390779 -98.65234375 67.83984375 C-86.77234375 67.83984375 -74.89234375 67.83984375 -62.65234375 67.83984375 C-62.65234375 55.95984375 -62.65234375 44.07984375 -62.65234375 31.83984375 C-66.65359375 31.34484375 -70.65484375 30.84984375 -74.77734375 30.33984375 C-76.02789551 30.18322266 -77.27844727 30.02660156 -78.56689453 29.86523438 C-79.5670459 29.74341797 -80.56719727 29.62160156 -81.59765625 29.49609375 C-82.61359863 29.37041016 -83.62954102 29.24472656 -84.67626953 29.11523438 C-87.68642585 28.83668997 -90.63117769 28.79257648 -93.65234375 28.83984375 Z M-35.70703125 29.49609375 C-37.2072583 29.67881836 -37.2072583 29.67881836 -38.73779297 29.86523438 C-39.98834473 30.02185547 -41.23889648 30.17847656 -42.52734375 30.33984375 C-46.52859375 30.83484375 -50.52984375 31.32984375 -54.65234375 31.83984375 C-54.65234375 43.71984375 -54.65234375 55.59984375 -54.65234375 67.83984375 C-42.77234375 67.83984375 -30.89234375 67.83984375 -18.65234375 67.83984375 C-18.65234375 60.15813634 -18.73659661 53.49922878 -20.02734375 46.08984375 C-20.15367187 45.30480469 -20.28 44.51976563 -20.41015625 43.7109375 C-21.24487127 38.67760595 -22.35678091 33.77424831 -23.65234375 28.83984375 C-27.73615388 28.77595102 -31.65485032 28.99479302 -35.70703125 29.49609375 Z M-142.65234375 75.83984375 C-142.65234375 93.08663361 -136.67936213 110.37942767 -125.65234375 123.83984375 C-123.89970066 125.48503487 -123.89970066 125.48503487 -121.65234375 125.83984375 C-118.57989682 124.86409761 -118.57989682 124.86409761 -115.40234375 123.15234375 C-110.54945978 120.72009688 -105.75066607 118.68214144 -100.65234375 116.83984375 C-101.05066406 115.03966797 -101.05066406 115.03966797 -101.45703125 113.203125 C-104.1254099 100.7490099 -105.62263842 88.5395428 -106.65234375 75.83984375 C-118.53234375 75.83984375 -130.41234375 75.83984375 -142.65234375 75.83984375 Z M-98.65234375 75.83984375 C-98.65234375 83.22166567 -98.46785437 89.83838056 -97.33984375 97.02734375 C-97.22189453 97.86458984 -97.10394531 98.70183594 -96.98242188 99.56445312 C-96.15602495 105.00172111 -94.74675119 109.75342568 -92.65234375 114.83984375 C-82.62047719 114.09237134 -72.64645613 112.97553834 -62.65234375 111.83984375 C-62.65234375 99.95984375 -62.65234375 88.07984375 -62.65234375 75.83984375 C-74.53234375 75.83984375 -86.41234375 75.83984375 -98.65234375 75.83984375 Z M-54.65234375 75.83984375 C-54.65234375 87.71984375 -54.65234375 99.59984375 -54.65234375 111.83984375 C-50.65109375 112.33484375 -46.64984375 112.82984375 -42.52734375 113.33984375 C-41.27679199 113.49646484 -40.02624023 113.65308594 -38.73779297 113.81445312 C-37.7376416 113.93626953 -36.73749023 114.05808594 -35.70703125 114.18359375 C-34.69108887 114.30927734 -33.67514648 114.43496094 -32.62841797 114.56445312 C-29.61826165 114.84299753 -26.67350981 114.88711102 -23.65234375 114.83984375 C-23.00232697 111.84069656 -22.35723338 108.84062574 -21.71484375 105.83984375 C-21.53244141 105.00066406 -21.35003906 104.16148438 -21.16210938 103.296875 C-19.16279659 93.91828048 -18.65234375 85.58577971 -18.65234375 75.83984375 C-30.53234375 75.83984375 -42.41234375 75.83984375 -54.65234375 75.83984375 Z M-10.65234375 75.83984375 C-11.08546875 80.00609375 -11.51859375 84.17234375 -11.96484375 88.46484375 C-12.99909078 98.08034336 -14.20936799 107.46644032 -16.65234375 116.83984375 C-16.05808594 117.07058594 -15.46382812 117.30132812 -14.8515625 117.5390625 C-9.11481706 119.79628893 -3.5908331 122.27939 1.90234375 125.08203125 C4.26730558 126.04187221 4.26730558 126.04187221 6.39453125 125.35546875 C9.14025138 123.22478993 10.88826473 120.61800573 12.72265625 117.71484375 C13.11332275 117.1010083 13.50398926 116.48717285 13.90649414 115.85473633 C21.41968766 103.57376259 25.34765625 90.20407877 25.34765625 75.83984375 C13.46765625 75.83984375 1.58765625 75.83984375 -10.65234375 75.83984375 Z M-54.65234375 119.83984375 C-54.65234375 131.71984375 -54.65234375 143.59984375 -54.65234375 155.83984375 C-43.42813867 152.09844206 -37.36904881 144.91870454 -31.65234375 134.83984375 C-29.77144589 130.90745496 -28.12330282 126.94226729 -26.65234375 122.83984375 C-36.05871143 120.74728247 -44.85436748 120.4161953 -54.65234375 119.83984375 Z M-77.77734375 120.71484375 C-78.97423828 120.83279297 -78.97423828 120.83279297 -80.1953125 120.953125 C-80.96746094 121.03691406 -81.73960938 121.12070313 -82.53515625 121.20703125 C-83.57760498 121.31700439 -83.57760498 121.31700439 -84.64111328 121.42919922 C-86.8948855 121.8893649 -88.64499861 122.73352604 -90.65234375 123.83984375 C-84.45134027 137.13242036 -78.70025636 149.41644876 -64.65234375 155.83984375 C-63.99234375 155.83984375 -63.33234375 155.83984375 -62.65234375 155.83984375 C-62.65234375 143.95984375 -62.65234375 132.07984375 -62.65234375 119.83984375 C-67.81130705 119.83984375 -72.671375 120.15676886 -77.77734375 120.71484375 Z M-18.65234375 124.83984375 C-19.14863281 125.86722656 -19.64492187 126.89460937 -20.15625 127.953125 C-24.21452323 136.2625399 -28.45496716 144.17371328 -33.65234375 151.83984375 C-21.07563032 150.3033222 -9.97598449 141.97386525 -0.65234375 133.83984375 C-0.32234375 133.17984375 0.00765625 132.51984375 0.34765625 131.83984375 C-1.31472271 131.03921271 -2.982525 130.24984007 -4.65234375 129.46484375 C-5.58046875 129.02398437 -6.50859375 128.583125 -7.46484375 128.12890625 C-11.1637388 126.63302958 -14.76660916 125.73590755 -18.65234375 124.83984375 Z M-108.27734375 127.83984375 C-108.98375 128.12601563 -109.69015625 128.4121875 -110.41796875 128.70703125 C-112.16401294 129.414887 -113.90834325 130.12696763 -115.65234375 130.83984375 C-115.65234375 132.15984375 -115.65234375 133.47984375 -115.65234375 134.83984375 C-107.5740726 142.84413806 -94.95367517 150.47412394 -83.65234375 151.83984375 C-84.06484375 151.23140625 -84.47734375 150.62296875 -84.90234375 149.99609375 C-90.21004223 141.9397657 -94.46120877 133.51603745 -98.65234375 124.83984375 C-102.07882129 124.83984375 -105.14228173 126.55574086 -108.27734375 127.83984375 Z " fill="#000000" transform="translate(150.65234375,20.16015625)"/>
</svg>
