<?xml version="1.0" encoding="UTF-8"?>
<svg version="1.1" xmlns="http://www.w3.org/2000/svg" width="148" height="184">
<path d="M0 0 C1.81508422 0.02011713 3.63019024 0.03835858 5.4453125 0.0546875 C9.83909206 0.0982212 14.23179699 0.16695268 18.625 0.25 C18.66741723 2.58294775 18.66592937 4.91702567 18.625 7.25 C17.625 8.25 17.625 8.25 13.78515625 8.27734375 C12.08592424 8.24815782 10.38670623 8.21815014 8.6875 8.1875 C-9.22005564 8.05263944 -28.21869528 9.14579685 -43.5625 19.375 C-46.375 21.25 -46.375 21.25 -49.375 22.25 C-50.58382096 24.25016466 -50.58382096 24.25016466 -51.375 26.25 C-52.035 26.25 -52.695 26.25 -53.375 26.25 C-53.64570312 26.80945313 -53.91640625 27.36890625 -54.1953125 27.9453125 C-54.99514829 29.50790559 -55.84657829 31.04494626 -56.7421875 32.5546875 C-62.47362946 42.32486576 -66.32836954 52.80956549 -65.375 64.25 C-64.88 65.24 -64.88 65.24 -64.375 66.25 C-62.98840949 76.79718025 -68.32770259 85.40692808 -73.0078125 94.48828125 C-74.26995761 97.03781437 -75.35913628 99.59424199 -76.375 102.25 C-75.50875 102.3325 -74.6425 102.415 -73.75 102.5 C-69.8636685 103.36362922 -67.51595694 104.83949816 -64.375 107.25 C-62.93990779 110.12018441 -63.26341494 112.58543723 -63.27734375 115.7890625 C-63.28056641 117.09101562 -63.28378906 118.39296875 -63.28710938 119.734375 C-63.29546534 121.11458399 -63.30393029 122.49479232 -63.3125 123.875 C-63.31751499 125.26301926 -63.3220779 126.65104022 -63.32617188 128.0390625 C-63.33799024 131.44275132 -63.35446566 134.84635439 -63.375 138.25 C-62.54307129 138.22643433 -62.54307129 138.22643433 -61.69433594 138.20239258 C-59.17132848 138.13987138 -56.64848424 138.10095658 -54.125 138.0625 C-53.25230469 138.03736328 -52.37960938 138.01222656 -51.48046875 137.98632812 C-50.21396484 137.97182617 -50.21396484 137.97182617 -48.921875 137.95703125 C-47.75930176 137.93346558 -47.75930176 137.93346558 -46.57324219 137.90942383 C-43.71493309 138.35226492 -42.38929338 139.18251175 -40.375 141.25 C-39.99682617 143.41967773 -39.99682617 143.41967773 -40.16796875 145.93359375 C-40.22082031 146.85624023 -40.27367187 147.77888672 -40.328125 148.72949219 C-40.40546875 149.70563477 -40.4828125 150.68177734 -40.5625 151.6875 C-40.65724609 153.1729834 -40.65724609 153.1729834 -40.75390625 154.68847656 C-40.9411016 157.5441416 -41.15535305 160.39667659 -41.375 163.25 C-41.46626425 164.60016515 -41.55633385 165.9504123 -41.64453125 167.30078125 C-42.19062054 174.88124108 -42.19062054 174.88124108 -43.375 177.25 C-21.265 177.25 0.845 177.25 23.625 177.25 C21.975 170.65 20.325 164.05 18.625 157.25 C17.80422378 151.85632772 17.06419922 146.66069045 16.625 141.25 C16.51671875 139.92162109 16.51671875 139.92162109 16.40625 138.56640625 C15.89075294 125.48566842 19.79420747 113.25271743 26.625 102.25 C28.84765625 99.85546875 28.84765625 99.85546875 30.625 98.25 C32.605 99.57 34.585 100.89 36.625 102.25 C35.45663035 105.54267809 33.95250446 108.43911893 32.1875 111.4375 C23.95445329 126.17926799 24.85727209 141.70927672 29.26220703 157.54003906 C29.48634277 158.3131543 29.71047852 159.08626953 29.94140625 159.8828125 C30.16747559 160.66309814 30.39354492 161.44338379 30.62646484 162.24731445 C31.06735565 163.73520324 31.52350013 165.21870289 31.99853516 166.69604492 C33.92951998 173.06445354 33.625 177.00002441 33.625 184.25 C5.575 184.25 -22.475 184.25 -51.375 184.25 C-51.375 175.28966109 -51.23763789 166.73452423 -50.375 157.875 C-50.27960937 156.84117187 -50.18421875 155.80734375 -50.0859375 154.7421875 C-49.85464232 152.24419954 -49.61765608 149.74690529 -49.375 147.25 C-50.21478394 147.27356567 -50.21478394 147.27356567 -51.0715332 147.29760742 C-53.6100859 147.35999848 -56.14847729 147.39900218 -58.6875 147.4375 C-59.56857422 147.46263672 -60.44964844 147.48777344 -61.35742188 147.51367188 C-62.62875977 147.52817383 -62.62875977 147.52817383 -63.92578125 147.54296875 C-65.09620972 147.56653442 -65.09620972 147.56653442 -66.2902832 147.59057617 C-68.375 147.25 -68.375 147.25 -70.12109375 146.1875 C-72.00894768 143.27044221 -71.85526998 140.32576722 -71.88671875 136.95703125 C-71.90466995 136.25100266 -71.92262115 135.54497406 -71.94111633 134.81755066 C-71.99523178 132.56592759 -72.02911722 130.31451657 -72.0625 128.0625 C-72.09567219 126.53447569 -72.13016177 125.00647937 -72.16601562 123.47851562 C-72.25095825 119.73583011 -72.31776248 115.99320759 -72.375 112.25 C-72.98915771 112.05301514 -73.60331543 111.85603027 -74.23608398 111.65307617 C-75.04376221 111.38986572 -75.85144043 111.12665527 -76.68359375 110.85546875 C-77.48337646 110.59660889 -78.28315918 110.33774902 -79.10717773 110.07104492 C-81.76138591 109.11011241 -84.04080356 107.83122985 -86.375 106.25 C-85.9975057 97.78682143 -81.37216538 90.71565375 -77.59179688 83.32226562 C-76.78645508 81.70674805 -76.78645508 81.70674805 -75.96484375 80.05859375 C-75.46847412 79.08720459 -74.97210449 78.11581543 -74.46069336 77.11499023 C-72.94633944 73.1188258 -72.70608215 69.83867989 -74.375 65.875 C-77.89013661 56.64776639 -73.40575723 46.1848453 -69.8671875 37.5859375 C-61.85883985 20.48904648 -48.93258239 9.68678644 -31.46728516 3.1640625 C-20.91329006 -0.2863756 -10.99631341 -0.2142664 0 0 Z " fill="#090909" transform="translate(86.375,-0.25)"/>
<path d="M0 0 C3.97324752 0.57676174 4.56602252 0.81273923 7.3359375 3.34375 C8.03187012 3.97917725 8.72780273 4.61460449 9.44482422 5.26928711 C10.24678223 6.02604736 11.04874023 6.78280762 11.875 7.5625 C12.83035645 8.46299072 13.78571289 9.36348145 14.77001953 10.29125977 C17.45099989 12.83888574 20.09775619 15.41946154 22.73242188 18.01489258 C23.83569107 19.0963522 24.94519132 20.17148841 26.06054688 21.24047852 C27.69045473 22.80358298 29.2998795 24.38541596 30.90625 25.97265625 C31.40612427 26.44469986 31.90599854 26.91674347 32.42102051 27.40309143 C34.89544351 29.89261374 35.83954957 31.27395957 36.27294922 34.80151367 C35.79299776 38.13143453 35.14831454 38.82364718 32.5 40.8125 C29.06459012 43.5559722 25.95192229 46.41889519 22.875 49.5625 C19.28589236 53.19008199 15.63578047 56.65822564 11.74609375 59.9609375 C10.48378844 61.0414076 9.24677508 62.1520444 8.03515625 63.2890625 C4.47700403 66.57470854 1.96465548 68.5625 -3.125 68.5625 C-5.125 66.5625 -5.125 66.5625 -5.3203125 63.0859375 C-5.30701493 61.70299032 -5.28316232 60.32011346 -5.25 58.9375 C-5.24097656 58.23109375 -5.23195312 57.5246875 -5.22265625 56.796875 C-5.19907603 55.05193902 -5.16320461 53.30717705 -5.125 51.5625 C-21.11321266 51.09802151 -21.11321266 51.09802151 -35.125 57.5625 C-38.68736648 61.7143228 -40.67718506 66.29771841 -42.125 71.5625 C-44.9375 71.875 -44.9375 71.875 -48.125 71.5625 C-52.83251611 65.2895391 -52.60764621 57.82572383 -51.65234375 50.31640625 C-50.02400638 39.49029234 -47.68146491 29.10080432 -39.125 21.5625 C-33.39010706 17.8556635 -27.86318888 16.42300191 -21.04296875 16.46484375 C-20.11162109 16.46806641 -19.18027344 16.47128906 -18.22070312 16.47460938 C-17.26099609 16.48298828 -16.30128906 16.49136719 -15.3125 16.5 C-14.33345703 16.50451172 -13.35441406 16.50902344 -12.34570312 16.51367188 C-9.93873889 16.52541316 -7.53190143 16.54183581 -5.125 16.5625 C-5.14820313 15.57507812 -5.17140625 14.58765625 -5.1953125 13.5703125 C-5.21335938 12.28898437 -5.23140625 11.00765625 -5.25 9.6875 C-5.27320313 8.41132813 -5.29640625 7.13515625 -5.3203125 5.8203125 C-5.0567858 1.42468713 -4.30156029 0.77428085 0 0 Z M2.875 13.5625 C2.78412109 14.51962891 2.78412109 14.51962891 2.69140625 15.49609375 C2.60761719 16.32238281 2.52382812 17.14867187 2.4375 18 C2.35628906 18.82371094 2.27507812 19.64742187 2.19140625 20.49609375 C1.875 22.5625 1.875 22.5625 0.875 23.5625 C-0.95730113 23.67201208 -2.79344323 23.71838502 -4.62890625 23.73828125 C-5.76263672 23.76212891 -6.89636719 23.78597656 -8.06445312 23.81054688 C-10.4523006 23.8530261 -12.84037206 23.88453838 -15.22851562 23.90429688 C-23.40673137 24.10264052 -29.14154982 25.07177623 -35.3671875 30.52734375 C-41.30635555 37.70265443 -42.44899048 42.29277228 -42.125 51.5625 C-41.568125 51.22476563 -41.01125 50.88703125 -40.4375 50.5390625 C-39.674375 50.09304687 -38.91125 49.64703125 -38.125 49.1875 C-37.3825 48.74664062 -36.64 48.30578125 -35.875 47.8515625 C-27.76608861 44.05051029 -19.92569586 44.31668791 -11.125 44.4375 C-9.87332031 44.44652344 -8.62164062 44.45554687 -7.33203125 44.46484375 C-4.2628199 44.48827284 -1.19401244 44.52107853 1.875 44.5625 C2.37 50.0075 2.37 50.0075 2.875 55.5625 C7.59353518 52.12356758 11.7917092 48.74301201 15.875 44.5625 C19.18378552 41.53498682 22.52695326 38.54648729 25.875 35.5625 C24.30280662 31.51836401 21.42353353 29.05643659 18.25 26.25 C17.71528076 25.76942139 17.18056152 25.28884277 16.62963867 24.79370117 C15.05001164 23.37727933 13.46305547 21.96945695 11.875 20.5625 C11.03839844 19.81226563 10.20179687 19.06203125 9.33984375 18.2890625 C6.45677537 15.18739598 6.45677537 15.18739598 2.875 13.5625 Z " fill="#020101" transform="translate(112.125,15.4375)"/>
<path d="M0 0 C0.66 0 1.32 0 2 0 C2 0.66 2 1.32 2 2 C2.66 2 3.32 2 4 2 C4 2.66 4 3.32 4 4 C4.556875 4.226875 5.11375 4.45375 5.6875 4.6875 C9.77100016 7.00516226 12.63678907 10.51722149 15.5625 14.125 C17.61806922 16.54951754 19.48299618 18.13555272 22 20 C22 20.66 22 21.32 22 22 C22.66 22 23.32 22 24 22 C24.66 23.65 25.32 25.3 26 27 C25.26680542 27.68775513 25.26680542 27.68775513 24.51879883 28.3894043 C22.28257715 30.48793085 20.04753026 32.5877046 17.8125 34.6875 C16.65911133 35.7693457 16.65911133 35.7693457 15.48242188 36.87304688 C14.73154297 37.57880859 13.98066406 38.28457031 13.20703125 39.01171875 C12.47822754 39.69669434 11.74942383 40.38166992 10.99853516 41.08740234 C9.31567651 42.69789766 7.68732231 44.34007896 6.07421875 46.01953125 C4 48 4 48 2 48 C1.34 49.32 0.68 50.64 0 52 C-0.03738281 51.16855469 -0.07476562 50.33710937 -0.11328125 49.48046875 C-0.21189453 47.85044922 -0.21189453 47.85044922 -0.3125 46.1875 C-0.37050781 45.10855469 -0.42851563 44.02960938 -0.48828125 42.91796875 C-1.0431573 39.75390454 -1.63264023 39.01193847 -4 37 C-4 36.34 -4 35.68 -4 35 C-2.68 35.33 -1.36 35.66 0 36 C0.66 39.3 1.32 42.6 2 46 C2.78375 45.175 3.5675 44.35 4.375 43.5 C7 41 7 41 9 41 C9.33 40.01 9.66 39.02 10 38 C11.671875 36.31640625 11.671875 36.31640625 13.75 34.5625 C14.46671875 33.9540625 15.1834375 33.345625 15.921875 32.71875 C18.26014318 30.78484399 20.60876067 28.86815572 23 27 C21.44298875 23.10747188 18.98565894 20.93857023 15.875 18.1875 C14.89660156 17.31738281 13.91820313 16.44726562 12.91015625 15.55078125 C11.94980469 14.70902344 10.98945312 13.86726563 10 13 C9.17371094 12.27167969 8.34742187 11.54335938 7.49609375 10.79296875 C5.669652 9.18870596 3.8382552 7.59069648 2 6 C1.814375 7.918125 1.814375 7.918125 1.625 9.875 C1.25 13.75 1.25 13.75 -1 16 C-3.625 16.125 -3.625 16.125 -6 16 C-4.71034824 14.62437146 -3.37310707 13.29233607 -2 12 C-1.34 12 -0.68 12 0 12 C0 8.04 0 4.08 0 0 Z " fill="#181818" transform="translate(114,24)"/>
<path d="M0 0 C0.33 0 0.66 0 1 0 C1.33 2.64 1.66 5.28 2 8 C2.598125 7.401875 3.19625 6.80375 3.8125 6.1875 C9.47205081 2.30349454 16.15985534 0.75216867 23 1 C20.20392978 2.46491151 17.42993234 3.62245922 14.4375 4.625 C13.67308594 4.88539062 12.90867187 5.14578125 12.12109375 5.4140625 C10 6 10 6 7 6 C6.67 6.99 6.34 7.98 6 9 C5.401875 9.28875 4.80375 9.5775 4.1875 9.875 C1.30899659 11.35537318 -0.10099999 13.42278571 -2 16 C-1.85833643 14.08302063 -1.71150416 12.16642277 -1.5625 10.25 C-1.48128906 9.18265625 -1.40007812 8.1153125 -1.31640625 7.015625 C-1.05909227 4.56320038 -0.68187782 2.36078709 0 0 Z " fill="#151515" transform="translate(69,58)"/>
<path d="M0 0 C-2.93828597 2.50298434 -5.17902761 3.46930939 -9 4 C-9 4.66 -9 5.32 -9 6 C-9.99 6 -10.98 6 -12 6 C-12.33 6.99 -12.66 7.98 -13 9 C-13.78375 9.763125 -14.5675 10.52625 -15.375 11.3125 C-18.05674473 14.05809579 -19.45923438 16.51300413 -21 20 C-22.13013378 16.60959867 -21.99031591 16.23423454 -20.5 13.1875 C-16.55676612 5.79053713 -8.75027387 -0.77208299 0 0 Z " fill="#181415" transform="translate(86,33)"/>
<path d="M0 0 C3.96 1.98 3.96 1.98 8 4 C7.34 4.66 6.68 5.32 6 6 C3.375 5.625 3.375 5.625 1 5 C0.67 3.35 0.34 1.7 0 0 Z " fill="#181818" transform="translate(107,78)"/>
<path d="M0 0 C0.99 0.33 1.98 0.66 3 1 C1.35 2.65 -0.3 4.3 -2 6 C-2.33 5.01 -2.66 4.02 -3 3 C-2.01 2.01 -1.02 1.02 0 0 Z " fill="#1E1E1E" transform="translate(72,38)"/>
</svg>
