<svg xmlns="http://www.w3.org/2000/svg" _ngcontent-serverApp-c12="" class="icon" width="100%" height="100%" viewBox="0 0 18 18"><!----><path fill="currentColor" fill-rule="evenodd" d="M7.815 0C3.508 0 0 3.507 0 7.815s3.507 7.816 7.815 7.816c1.9 0 3.64-.681 4.996-1.813l3.974 3.974a.712.712 0 0 0 1.007 0 .704.704 0 0 0 0-1l-3.974-3.974a7.796 7.796 0 0 0 1.813-5.003C15.63 3.508 12.124 0 7.815 0zm0 1.421a6.384 6.384 0 0 1 6.395 6.394 6.384 6.384 0 0 1-6.395 6.395 6.384 6.384 0 0 1-6.394-6.395 6.384 6.384 0 0 1 6.394-6.394z"></path></svg>