<?xml version="1.0" encoding="UTF-8"?>
<svg version="1.1" xmlns="http://www.w3.org/2000/svg" width="184" height="184">
<path d="M0 0 C0.6703125 0.23605957 1.340625 0.47211914 2.03125 0.71533203 C25.69691629 9.40506887 43.87091121 26.95569924 54.8125 49.5 C64.99980938 73.2586385 65.13699493 100.26156669 55.67382812 124.19897461 C46.20468617 146.7472347 28.28410105 164.32940623 5.8671875 173.94140625 C-19.24608334 183.21347219 -46.0533545 182.77966448 -70.4621582 171.7746582 C-80.2993832 167.09337693 -88.10638426 160.4253504 -96 153 C-96.61617187 152.45988281 -97.23234375 151.91976562 -97.8671875 151.36328125 C-107.44614794 142.6009603 -113.68170041 130.03611161 -118 118 C-118.41378906 116.84886719 -118.82757813 115.69773437 -119.25390625 114.51171875 C-124.64073558 96.73705889 -124.1788288 75.52959902 -118 58 C-117.64591064 56.99453125 -117.64591064 56.99453125 -117.28466797 55.96875 C-108.3530155 31.64424967 -90.29306118 13.85628526 -67.12109375 2.796875 C-46.81766618 -6.41411171 -21.01942451 -7.40892165 0 0 Z M-96.75390625 34.0546875 C-111.76455245 53.73821312 -117.57407895 76.91830689 -114.72314453 101.375 C-111.29345651 123.48067711 -98.71330172 143.4918455 -81 157 C-60.47246207 170.86487869 -36.76729435 176.64604748 -12.26586914 171.97045898 C3.02883146 168.50835537 16.21642648 161.19667393 28 151 C28.67289063 150.42765625 29.34578125 149.8553125 30.0390625 149.265625 C45.12933549 135.34674306 54.22916555 113.90254711 55.37890625 93.62890625 C56.1791526 69.3031152 48.94046077 48.42126095 33 30 C32.42765625 29.32710937 31.8553125 28.65421875 31.265625 27.9609375 C17.34674306 12.87066451 -4.09745289 3.77083445 -24.37109375 2.62109375 C-53.005746 1.67909865 -77.8935769 12.31420933 -96.75390625 34.0546875 Z " fill="#000000" transform="translate(122,4)"/>
<path d="M0 0 C4.74304264 0.96735573 8.04983656 3.99459756 11.72070312 7.00390625 C13.47585557 8.38158162 15.23106586 9.7591833 16.98632812 11.13671875 C17.88544922 11.85504883 18.78457031 12.57337891 19.7109375 13.31347656 C24.24124816 16.90919022 28.86106656 20.38592587 33.47070312 23.87890625 C35.2158421 25.21178497 36.96064534 26.54510341 38.70507812 27.87890625 C41.59758004 30.0855572 44.49921575 32.27749616 47.42382812 34.44140625 C47.99230469 34.86244629 48.56078125 35.28348633 49.14648438 35.71728516 C50.59034455 36.78271424 52.03814537 37.84279761 53.48632812 38.90234375 C55.47070312 40.50390625 55.47070312 40.50390625 56.47070312 42.50390625 C57.029813 48.18818998 57.029813 48.18818998 56.47070312 50.50390625 C52.67553684 54.9463102 47.95929265 58.39237573 43.34570312 61.94140625 C42.56308105 62.54686279 41.78045898 63.15231934 40.97412109 63.77612305 C33.68117645 69.39260367 26.27979158 74.85755895 18.84570312 80.28515625 C16.12974448 82.27152462 13.44017567 84.28307715 10.78320312 86.34765625 C10.23647949 86.77006592 9.68975586 87.19247559 9.12646484 87.62768555 C7.71774092 88.72163719 6.31650812 89.82521747 4.91601562 90.9296875 C2.32900291 92.59512859 0.51793294 93.21441942 -2.52929688 93.50390625 C-5.94971338 92.52664439 -8.34507297 91.34339733 -10.52929688 88.50390625 C-11.81316873 84.79901693 -11.67711003 81.02542036 -11.67456055 77.15258789 C-11.67791916 76.41876389 -11.68127777 75.68493988 -11.68473816 74.92887878 C-11.69422368 72.50725606 -11.69618998 70.08570264 -11.69726562 67.6640625 C-11.70047957 65.97781852 -11.70384375 64.29157482 -11.70735168 62.60533142 C-11.71333673 59.07224888 -11.71519219 55.53919077 -11.71459961 52.00610352 C-11.71449795 47.48227869 -11.72815657 42.95861069 -11.74537182 38.43482304 C-11.75649745 34.95266502 -11.75851865 31.47054487 -11.75798988 27.9883709 C-11.7591689 26.32063697 -11.7635863 24.65290203 -11.77132225 22.98518562 C-11.78113474 20.65155202 -11.77823936 18.31825838 -11.7722168 15.98461914 C-11.7778363 15.29822357 -11.78345581 14.611828 -11.78924561 13.90463257 C-11.75819882 9.16327109 -11.08377126 5.52106145 -8.16113281 1.72851562 C-5.4988657 -0.26937962 -3.24205504 -0.12036685 0 0 Z M-3.52929688 7.50390625 C-3.52929688 33.24390625 -3.52929688 58.98390625 -3.52929688 85.50390625 C1.75089889 84.4478671 4.15894787 82.66100922 8.09570312 79.31640625 C13.96218083 74.47402398 19.95111767 69.86305867 26.09570312 65.37890625 C27.69864587 64.20192935 29.30151171 63.02484773 30.90429688 61.84765625 C33.12582113 60.21844526 35.34900673 58.59200306 37.58056641 56.9765625 C39.44849394 55.62207415 41.30443121 54.25266968 43.15820312 52.87890625 C44.19332031 52.12351563 45.2284375 51.368125 46.29492188 50.58984375 C47.37193359 49.55730469 47.37193359 49.55730469 48.47070312 48.50390625 C48.91403492 44.66324811 48.91403492 44.66324811 47.11987305 42.98681641 C46.48670166 42.51034668 45.85353027 42.03387695 45.20117188 41.54296875 C44.48654785 40.99600342 43.77192383 40.44903809 43.03564453 39.88549805 C42.25108887 39.30582275 41.4665332 38.72614746 40.65820312 38.12890625 C39.45043213 37.21395386 39.45043213 37.21395386 38.21826172 36.28051758 C35.64671714 34.33979959 33.06093109 32.41960072 30.47070312 30.50390625 C29.63780762 29.88531738 28.80491211 29.26672852 27.94677734 28.62939453 C23.92685599 25.64631054 19.89637448 22.6784778 15.85351562 19.7265625 C13.11500577 17.72342623 10.39963869 15.69703288 7.71289062 13.625 C7.15714355 13.19807861 6.60139648 12.77115723 6.02880859 12.33129883 C4.58852963 11.21983316 3.15433572 10.10049421 1.72070312 8.98046875 C-0.49878194 7.22957803 -0.49878194 7.22957803 -3.52929688 7.50390625 Z " fill="#000000" transform="translate(76.529296875,45.49609375)"/>
</svg>
