<?xml version="1.0" encoding="UTF-8"?>
<svg version="1.1" xmlns="http://www.w3.org/2000/svg" width="24" height="88">
<path d="M0 0 C0.7115625 -0.01998047 1.423125 -0.03996094 2.15625 -0.06054688 C5.48735415 -0.0574395 7.64663257 0.2090152 10.46484375 2.03125 C13.58347383 6.91948443 12.76891327 12.88423749 12 18.4375 C9.50641581 22.03934383 6.9893498 23.7819563 3 25.4375 C0.59765625 25.58984375 0.59765625 25.58984375 -1.9375 25.375 C-2.77152344 25.32214844 -3.60554687 25.26929687 -4.46484375 25.21484375 C-8.15344049 24.08382564 -9.688065 22.51058262 -12 19.4375 C-12.4777751 16.48775809 -12.66093018 14.23348201 -12.5625 11.3125 C-12.57345703 10.59707031 -12.58441406 9.88164062 -12.59570312 9.14453125 C-12.552248 6.04473206 -12.40239864 3.9525293 -10.46484375 1.47265625 C-6.99194755 0.01414992 -3.70355974 -0.03690141 0 0 Z " fill="#9A9A9A" transform="translate(12,-0.4375)"/>
<path d="M0 0 C1.4706777 2.9413554 1.17048999 5.60227405 1.1875 8.875 C1.20167969 10.10992187 1.21585938 11.34484375 1.23046875 12.6171875 C1.01620993 15.76207117 0.75080274 17.43215598 -1 20 C-5.48463787 22.80289867 -10.89253513 22.53848671 -16 22 C-19.5625 20.6875 -19.5625 20.6875 -22 19 C-23.16348868 15.50953395 -23.16834776 12.67722983 -23.1875 9 C-23.20167969 7.7625 -23.21585938 6.525 -23.23046875 5.25 C-23 2 -23 2 -21 -1 C-14.20053296 -4.91484466 -6.57217189 -3.55992644 0 0 Z " fill="#9B9B9B" transform="translate(23,34)"/>
<path d="M0 0 C3.28679787 2.7233468 4.88890897 4.85033036 5.54296875 9.1484375 C5.79182884 13.62791914 5.71965147 16.8141695 2.8125 20.375 C-1.43726548 24.3212108 -4.46491071 24.14243178 -10.10546875 24.10546875 C-13.69693175 23.71678228 -15.44290824 22.49803733 -17.8125 19.8125 C-19.91316847 15.61116307 -19.35385038 10.37531034 -18.8125 5.8125 C-17.4561659 3.01080602 -16.23432535 1.89639624 -13.8125 -0.1875 C-9.00385086 -1.79038305 -4.64178589 -1.95986515 0 0 Z " fill="#9A9A9A" transform="translate(18.8125,64.1875)"/>
<path d="M0 0 C3.28679787 2.7233468 4.88890897 4.85033036 5.54296875 9.1484375 C5.79182884 13.62791914 5.71965147 16.8141695 2.8125 20.375 C-1.43726548 24.3212108 -4.46491071 24.14243178 -10.10546875 24.10546875 C-13.69693175 23.71678228 -15.44290824 22.49803733 -17.8125 19.8125 C-19.91316847 15.61116307 -19.35385038 10.37531034 -18.8125 5.8125 C-17.4561659 3.01080602 -16.23432535 1.89639624 -13.8125 -0.1875 C-9.00385086 -1.79038305 -4.64178589 -1.95986515 0 0 Z M-16.8125 4.8125 C-18.1599395 8.85481851 -18.37707161 12.58584224 -17.8125 16.8125 C-16.18525054 19.44388206 -16.18525054 19.44388206 -13.8125 20.8125 C-12.8225 20.8125 -11.8325 20.8125 -10.8125 20.8125 C-10.8125 21.4725 -10.8125 22.1325 -10.8125 22.8125 C-6.53184922 23.24056508 -4.21749165 23.02604105 -0.375 21 C1.69334642 19.07544237 2.15621067 17.98587369 2.6640625 15.171875 C2.78166483 11.17339569 2.86415471 8.08229823 0.953125 4.49609375 C-0.69336534 2.62706812 -0.69336534 2.62706812 -3.08203125 2.3515625 C-10.14941614 2.57822561 -10.14941614 2.57822561 -16.8125 4.8125 Z " fill="#C2C2C2" transform="translate(18.8125,64.1875)"/>
<path d="M0 0 C1.4706777 2.9413554 1.17048999 5.60227405 1.1875 8.875 C1.20167969 10.10992187 1.21585938 11.34484375 1.23046875 12.6171875 C1.01620993 15.76207117 0.75080274 17.43215598 -1 20 C-5.5516253 22.84476581 -10.82741689 22.18078931 -16 22 C-16 21.67 -16 21.34 -16 21 C-13.03 21 -10.06 21 -7 21 C-7 20.34 -7 19.68 -7 19 C-6.01 19 -5.02 19 -4 19 C-3.34 13.06 -2.68 7.12 -2 1 C-3.65 1 -5.3 1 -7 1 C-7.33 0.67 -7.66 0.34 -8 0 C-12.71889824 -0.47188982 -14.94334124 -0.66041173 -19 1.875 C-22.31916046 7.06118822 -21.4428288 12.23231999 -20.5 18.125 C-20.335 18.74375 -20.17 19.3625 -20 20 C-22 19 -22 19 -23 16 C-23.12047541 13.66894093 -23.17534303 11.33413858 -23.1875 9 C-23.20167969 7.7625 -23.21585938 6.525 -23.23046875 5.25 C-23 2 -23 2 -21 -1 C-14.20053296 -4.91484466 -6.57217189 -3.55992644 0 0 Z " fill="#CACACA" transform="translate(23,34)"/>
<path d="M0 0 C-0.66 1.32 -1.32 2.64 -2 4 C-2.66 4 -3.32 4 -4 4 C-4.05429959 5.74965358 -4.09292823 7.49979787 -4.125 9.25 C-4.14820313 10.22453125 -4.17140625 11.1990625 -4.1953125 12.203125 C-3.99645953 15.05069951 -3.55438946 16.63037132 -2 19 C0.83269666 20.41634833 3.47466438 20.3463005 6.625 20.5625 C7.81351563 20.64628906 9.00203125 20.73007812 10.2265625 20.81640625 C11.59941406 20.90728516 11.59941406 20.90728516 13 21 C13 20.34 13 19.68 13 19 C13.66 19 14.32 19 15 19 C15.66 14.71 16.32 10.42 17 6 C16.34 6 15.68 6 15 6 C14.01 4.02 13.02 2.04 12 0 C14.46800047 1.15173355 16.04783565 2.04783565 18 4 C18.74028037 10.14822329 19.35163265 16.04764173 15.75 21.25 C11.59136994 23.89640094 9.08188895 25.36287194 4.0625 24.9375 C3.22847656 24.88464844 2.39445313 24.83179687 1.53515625 24.77734375 C-2.15344049 23.64632564 -3.688065 22.07308262 -6 19 C-6.4777751 16.05025809 -6.66093018 13.79598201 -6.5625 10.875 C-6.57345703 10.15957031 -6.58441406 9.44414062 -6.59570312 8.70703125 C-6.54855095 5.34350941 -6.46414202 3.4840745 -4.08984375 1.0078125 C-2 0 -2 0 0 0 Z " fill="#D6D6D6" transform="translate(6,0)"/>
<path d="M0 0 C1.32 0.66 2.64 1.32 4 2 C4 2.66 4 3.32 4 4 C4.66 4 5.32 4 6 4 C6.86097841 13.68122385 6.86097841 13.68122385 3.625 17.5625 C-0.06718917 20.99096137 -1.69510225 21.11982439 -6.625 21.0625 C-7.62789062 21.05347656 -8.63078125 21.04445313 -9.6640625 21.03515625 C-10.43492188 21.02355469 -11.20578125 21.01195313 -12 21 C-12 20.01 -12 19.02 -12 18 C-11.34 18 -10.68 18 -10 18 C-10 18.66 -10 19.32 -10 20 C-6.32176116 19.71151068 -3.41519622 19.19434717 -0.0625 17.625 C2.7903093 13.9941518 2.47627538 11.16049876 2.37109375 6.65625 C2.00259854 4.01860005 1.33933728 2.28063859 0 0 Z " fill="#B4B4B4" transform="translate(18,67)"/>
<path d="M0 0 C0.66 0 1.32 0 2 0 C2.02725341 1.7290774 2.04650987 3.45828176 2.0625 5.1875 C2.07410156 6.15042969 2.08570312 7.11335938 2.09765625 8.10546875 C2.00394469 10.88307938 1.74457883 13.32328624 1 16 C-3.37573445 18.96420721 -8.92617738 18.17733749 -14 18 C-14 17.67 -14 17.34 -14 17 C-11.03 17 -8.06 17 -5 17 C-5 16.34 -5 15.68 -5 15 C-4.01 15 -3.02 15 -2 15 C-1.34 10.05 -0.68 5.1 0 0 Z " fill="#BFBFBF" transform="translate(21,38)"/>
<path d="M0 0 C2.125 1.625 2.125 1.625 4.125 3.625 C3.795 4.615 3.465 5.605 3.125 6.625 C2.568125 5.8 2.01125 4.975 1.4375 4.125 C-0.75131478 1.85298466 -1.8896687 1.62349051 -5.1015625 1.29296875 C-8.37169399 1.31077992 -11.61218771 1.41002701 -14.875 1.625 C-12.34158017 -3.44183966 -4.31086561 -2.06171833 0 0 Z " fill="#DEDEDE" transform="translate(18.875,64.375)"/>
<path d="M0 0 C2.53594386 0.34269512 4.50213255 0.66730184 6.6484375 2.1015625 C8.71905283 5.00999906 8.35976602 7.54663558 8.3125 11.0625 C8.30863281 12.31160156 8.30476563 13.56070313 8.30078125 14.84765625 C8 18 8 18 6 20 C6.33 15.38 6.66 10.76 7 6 C6.34 6 5.68 6 5 6 C5 5.01 5 4.02 5 3 C2.525 2.01 2.525 2.01 0 1 C0 0.67 0 0.34 0 0 Z " fill="#D8D8D8" transform="translate(16,32)"/>
<path d="M0 0 C1.04285156 0.00128906 2.08570313 0.00257812 3.16015625 0.00390625 C6.19344942 0.47745835 7.10319262 1.04464919 8.9375 3.4375 C8.6075 4.4275 8.2775 5.4175 7.9375 6.4375 C7.6075 5.4475 7.2775 4.4575 6.9375 3.4375 C3.23205389 2.2023513 -0.21155191 1.860607 -4.0625 2.4375 C-7.02981398 4.27406989 -7.02981398 4.27406989 -9.0625 6.4375 C-9.3925 5.7775 -9.7225 5.1175 -10.0625 4.4375 C-6.89581753 0.58406711 -4.94918341 -0.09199226 0 0 Z " fill="#AFAFAF" transform="translate(12.0625,-0.4375)"/>
<path d="M0 0 C1.98 0.99 1.98 0.99 4 2 C4 2.66 4 3.32 4 4 C4.66 4 5.32 4 6 4 C6.05395478 5.62463842 6.09277195 7.24978541 6.125 8.875 C6.14820313 9.77992187 6.17140625 10.68484375 6.1953125 11.6171875 C6 14 6 14 4 16 C4.04640625 15.33613281 4.0928125 14.67226562 4.140625 13.98828125 C4.43641303 8.14042429 4.43641303 8.14042429 2 2.9375 C1.34 2.298125 0.68 1.65875 0 1 C0 0.67 0 0.34 0 0 Z " fill="#C4C4C4" transform="translate(18,67)"/>
<path d="M0 0 C0.66 0 1.32 0 2 0 C2.08167446 1.41569064 2.13949698 2.83276805 2.1875 4.25 C2.22230469 5.03890625 2.25710937 5.8278125 2.29296875 6.640625 C2 9 2 9 -1 13 C-0.67 8.71 -0.34 4.42 0 0 Z " fill="#AFAFAF" transform="translate(21,6)"/>
<path d="M0 0 C-0.66 1.32 -1.32 2.64 -2 4 C-2.66 4 -3.32 4 -4 4 C-4.33 7.63 -4.66 11.26 -5 15 C-5.33 15 -5.66 15 -6 15 C-6.10807131 13.06372231 -6.1856225 11.12572244 -6.25 9.1875 C-6.29640625 8.10855469 -6.3428125 7.02960937 -6.390625 5.91796875 C-6 3 -6 3 -4.109375 1.11328125 C-2 0 -2 0 0 0 Z " fill="#CECECE" transform="translate(6,0)"/>
<path d="M0 0 C0.66 0 1.32 0 2 0 C3.32 2.64 4.64 5.28 6 8 C3.5625 7.375 3.5625 7.375 1 6 C0.1875 2.875 0.1875 2.875 0 0 Z " fill="#DEDEDE" transform="translate(0,15)"/>
</svg>
