<?xml version="1.0" encoding="UTF-8"?>
<svg version="1.1" xmlns="http://www.w3.org/2000/svg" width="650" height="650">
<path d="M0 0 C6.6725297 6.6725297 12.65874605 15.44186968 14.75 24.75 C16.02528564 24.7593457 17.30057129 24.76869141 18.61450195 24.77832031 C23.39153692 24.81849574 28.16794638 24.88432887 32.94458008 24.95751953 C35.00341699 24.9855704 37.06235841 25.0068631 39.12133789 25.02099609 C55.39013026 25.13931458 68.38182189 26.31927018 80.91015625 37.71484375 C89.4212485 46.5122905 92.9182384 57.07970082 92.86352539 69.09863281 C92.86367142 69.93802399 92.86381744 70.77741516 92.8639679 71.64224243 C92.86327207 74.41256304 92.85549507 77.18281615 92.84765625 79.953125 C92.8457909 81.87554894 92.84436755 83.79797336 92.84336853 85.72039795 C92.83955257 90.77727575 92.82973012 95.83412477 92.81866455 100.89099121 C92.80843065 106.05232351 92.80386667 111.21366047 92.79882812 116.375 C92.78810705 126.50001467 92.77051768 136.62500044 92.75 146.75 C100.34 146.75 107.93 146.75 115.75 146.75 C115.72905273 144.17735352 115.70810547 141.60470703 115.68652344 138.95410156 C115.61999293 130.41665941 115.57596102 121.87920527 115.54275131 113.34157181 C115.52195177 108.16946859 115.49377479 102.9976329 115.44824219 97.82568359 C115.40451068 92.8265498 115.38080561 87.82767196 115.37049103 82.82836151 C115.36314838 80.9291354 115.34881097 79.02992195 115.32707977 77.13080597 C115.14782116 60.80326995 116.94392131 49.03391727 128.59375 36.81640625 C135.46360075 30.27033945 144.6331073 25.6088595 154.24316406 25.63647461 C155.56408051 25.63658791 155.56408051 25.63658791 156.91168213 25.63670349 C157.85348328 25.64186478 158.79528442 25.64702606 159.765625 25.65234375 C161.22207428 25.65446617 161.22207428 25.65446617 162.70794678 25.65663147 C165.80532935 25.66222337 168.90263932 25.67477441 172 25.6875 C174.10156146 25.69251605 176.20312404 25.69707877 178.3046875 25.70117188 C183.45315292 25.71219015 188.60156416 25.72944926 193.75 25.75 C193.94906952 25.06410797 194.14813904 24.37821594 194.35324097 23.67153931 C194.61807281 22.77140106 194.88290466 21.87126282 195.15576172 20.94384766 C195.41670624 20.05170563 195.67765076 19.1595636 195.94650269 18.24038696 C199.19048204 8.1858868 206.79636033 0.10405798 215.86328125 -5.00390625 C229.95894236 -11.87781854 242.76668971 -13.03682953 257.75 -8.25 C269.56759673 -2.93654656 278.5946535 4.89582845 284.18359375 16.8046875 C289.22397483 30.43033305 289.23380634 44.15844463 283.53125 57.62890625 C277.68375129 69.30766062 268.45301424 77.2562943 256.4375 82.0625 C244.39311411 85.80251843 230.11152657 85.30989598 218.75 79.75 C207.89392488 73.88841311 198.92323496 64.86262579 195.11328125 52.99609375 C194.85458252 52.19743896 194.59588379 51.39878418 194.3293457 50.57592773 C194.13816162 49.97337158 193.94697754 49.37081543 193.75 48.75 C188.19992205 48.65061844 182.65036982 48.5782904 177.09960938 48.53027344 C175.21410084 48.51024233 173.32865377 48.48300927 171.44335938 48.44824219 C168.72250138 48.39934728 166.00246944 48.37694618 163.28125 48.359375 C162.44758911 48.33872986 161.61392822 48.31808472 160.75500488 48.29681396 C154.36893603 48.29440291 149.00808359 49.73998658 144.22131348 54.16229248 C139.3168696 59.71842395 138.45167278 64.73495406 138.43115234 71.93676758 C138.42110672 72.74704407 138.4110611 73.55732056 138.40071106 74.39215088 C138.36992007 77.05960406 138.35285534 79.72695704 138.3359375 82.39453125 C138.31722256 84.24827433 138.2976489 86.10200892 138.2772522 87.95573425 C138.22595942 92.8267618 138.18631839 97.69781695 138.14910889 102.56896973 C138.10905138 107.54279393 138.05796699 112.51650355 138.0078125 117.49023438 C137.91108699 127.24340906 137.82667136 136.99664849 137.75 146.75 C138.85087952 146.74333817 139.95175903 146.73667633 141.08599854 146.72981262 C151.50125915 146.66878654 161.91648311 146.6239246 172.33188248 146.59456348 C177.68552397 146.5789608 183.0390202 146.55782188 188.39257812 146.52368164 C193.56676394 146.49089477 198.74081072 146.47310647 203.91509247 146.46536827 C205.88128597 146.45985928 207.84747255 146.44910229 209.81360626 146.43280983 C226.55479621 146.29970091 239.63201176 147.26660857 252.5 159 C261.14759629 168.12913298 263.08667878 179.91525689 262.97705078 192.05517578 C262.97734283 192.92470383 262.97763489 193.79423187 262.97793579 194.69010925 C262.9765576 197.52528342 262.96106861 200.36018502 262.9453125 203.1953125 C262.94157698 205.17642066 262.93873256 207.15753068 262.93673706 209.13864136 C262.92914301 214.32370203 262.90953131 219.5086486 262.8873291 224.69366455 C262.86677908 229.99628151 262.85771585 235.2989171 262.84765625 240.6015625 C262.82628104 250.98442481 262.79219677 261.36720287 262.75 271.75 C273.3207478 271.68871009 283.89125031 271.61154697 294.46173191 271.51428509 C299.37038586 271.46961445 304.27895744 271.43035099 309.18774414 271.40356445 C313.92764583 271.37749855 318.66723001 271.3370728 323.40693474 271.28681374 C325.2125242 271.27016726 327.01816856 271.25863918 328.82382393 271.25238609 C331.35887834 271.24272079 333.8931245 271.21463312 336.42797852 271.18237305 C337.54036896 271.18452568 337.54036896 271.18452568 338.67523193 271.1867218 C345.92018558 271.05687551 351.44930836 268.75620877 356.75 263.75 C359.7281318 259.49552601 360.88025898 255.86976539 360.86352539 250.71582031 C360.86344986 249.93531311 360.86337433 249.15480591 360.86329651 248.35064697 C360.85813522 247.51821472 360.85297394 246.68578247 360.84765625 245.828125 C360.8462413 244.96813904 360.84482635 244.10815308 360.84336853 243.22210693 C360.83778097 240.48136891 360.82523075 237.74071324 360.8125 235 C360.80748339 233.1393241 360.80292077 231.27864691 360.79882812 229.41796875 C360.78781561 224.86194754 360.77055951 220.30598772 360.75 215.75 C360.08178223 215.4931543 359.41356445 215.23630859 358.72509766 214.97167969 C357.83870605 214.62524414 356.95231445 214.27880859 356.0390625 213.921875 C355.16459473 213.5825293 354.29012695 213.24318359 353.38916016 212.89355469 C340.83422257 207.45346887 332.9561282 198.18501959 327.75 185.75 C323.04020976 173.02039211 324.12676963 159.80363592 329.75 147.5625 C336.11861758 135.67264846 345.75897691 127.35778057 358.57421875 123.328125 C372.48025097 119.63316491 385.88739617 121.66272102 398.47265625 128.3828125 C409.06573501 134.74229374 416.386787 145.63108026 419.46875 157.5234375 C422.17906238 171.11066139 420.31290973 183.91044253 412.8125 195.625 C410.38868415 199.02557746 407.8909388 201.97428664 404.75 204.75 C404.11449219 205.31589844 403.47898437 205.88179687 402.82421875 206.46484375 C402.09847656 207.07457031 401.37273438 207.68429688 400.625 208.3125 C399.96242188 208.87066406 399.29984375 209.42882812 398.6171875 210.00390625 C394.27736297 212.64682392 389.54944476 214.13043644 384.75 215.75 C384.7406543 216.98975586 384.73130859 218.22951172 384.72167969 219.50683594 C384.68144773 224.15904103 384.61560056 228.81060765 384.54248047 233.46240234 C384.51446179 235.46589888 384.49315346 237.46950204 384.47900391 239.47314453 C384.35153678 256.51125065 382.80537407 269.63045027 370.94140625 282.75 C362.56292842 290.83235699 351.75469838 293.91520843 340.40136719 293.86352539 C339.14228043 293.86374443 339.14228043 293.86374443 337.85775757 293.8639679 C335.08743696 293.86327207 332.31718385 293.85549507 329.546875 293.84765625 C327.62445106 293.8457909 325.70202664 293.84436755 323.77960205 293.84336853 C318.72272425 293.83955257 313.66587523 293.82973012 308.60900879 293.81866455 C303.44767649 293.80843065 298.28633953 293.80386667 293.125 293.79882812 C282.99998533 293.78810705 272.87499956 293.77051768 262.75 293.75 C262.75 301.34 262.75 308.93 262.75 316.75 C265.30282715 316.73428955 267.8556543 316.7185791 270.48583984 316.70239258 C278.94748861 316.65254555 287.40914409 316.61949079 295.87090111 316.59456348 C300.99816062 316.57894884 306.12526891 316.55778768 311.25244141 316.52368164 C316.20616759 316.4909379 321.15974887 316.47311543 326.11357498 316.46536827 C327.99768986 316.45985162 329.88179736 316.4490793 331.76585007 316.43280983 C346.92406594 316.30719241 359.3787172 317.37851966 371.203125 327.94140625 C378.59265921 335.5633927 383.73341233 345.37288462 383.95532227 356.15136719 C383.97526749 357.0119574 383.99521271 357.87254761 384.01576233 358.75921631 C384.03247482 359.67914368 384.04918732 360.59907104 384.06640625 361.546875 C384.08718735 362.49564514 384.10796844 363.44441528 384.12937927 364.42193604 C384.19467934 367.44788482 384.25366888 370.4739192 384.3125 373.5 C384.3557038 375.55339421 384.39931869 377.60677982 384.44335938 379.66015625 C384.55034073 384.6900168 384.65166323 389.71996332 384.75 394.75 C385.47807861 394.99741943 386.20615723 395.24483887 386.95629883 395.49975586 C400.42069436 400.20865829 409.317317 407.50087863 416.05859375 420.21875 C421.63539279 432.80229655 422.09628647 446.53558798 417.40234375 459.4609375 C411.23913067 472.89470218 401.80105414 481.46323416 388.1015625 486.77734375 C375.4864996 490.7912274 362.68656421 489.3461497 350.6875 484.125 C339.70201177 478.21494268 330.65962241 467.57239886 326.75 455.75 C323.29928756 442.46942022 324.36007551 429.25640528 331.171875 417.2421875 C333.94126319 412.91680285 336.91804524 409.19875928 340.75 405.75 C341.636875 404.925 342.52375 404.1 343.4375 403.25 C348.43070809 399.15167855 354.48115591 396.22754986 360.75 394.75 C360.84952633 389.36064933 360.92177659 383.9718439 360.96972656 378.58178711 C360.98973374 376.75161407 361.01694851 374.92150408 361.05175781 373.09155273 C361.10076003 370.44759488 361.12307761 367.80448835 361.140625 365.16015625 C361.16127014 364.35353043 361.18191528 363.5469046 361.20318604 362.71583557 C361.20568847 356.25417462 359.72139499 350.10750683 355.33770752 345.15419006 C349.81534698 340.29629619 344.69922453 339.45148524 337.56323242 339.43115234 C336.75295593 339.42110672 335.94267944 339.4110611 335.10784912 339.40071106 C332.44039594 339.36992007 329.77304296 339.35285534 327.10546875 339.3359375 C325.25172567 339.31722256 323.39799108 339.2976489 321.54426575 339.2772522 C316.6732382 339.22595942 311.80218305 339.18631839 306.93103027 339.14910889 C301.95720607 339.10905138 296.98349645 339.05796699 292.00976562 339.0078125 C282.25659094 338.91108699 272.50335151 338.82667136 262.75 338.75 C262.75444122 339.82804398 262.75888245 340.90608795 262.76345825 342.01679993 C262.80412683 352.21164844 262.83404299 362.40648035 262.85362434 372.60139179 C262.86402995 377.84179904 262.87812989 383.08214042 262.90087891 388.32250977 C262.92272271 393.38645761 262.93459283 398.45034238 262.93975449 403.51433372 C262.94342962 405.43947529 262.95060586 407.36461369 262.96146011 409.28972816 C263.12869259 440.19934361 263.12869259 440.19934361 251.5625 452.5625 C242.09830105 461.44597696 231.13551553 464.08962594 218.46655273 463.97705078 C217.14784935 463.97748886 217.14784935 463.97748886 215.80250549 463.97793579 C212.92943049 463.97655506 210.05662281 463.96105372 207.18359375 463.9453125 C205.17863608 463.94157789 203.17367658 463.93873304 201.16871643 463.93673706 C195.91623816 463.92913587 190.66387219 463.90951784 185.41143799 463.8873291 C180.04188556 463.86679466 174.67231483 463.85771915 169.30273438 463.84765625 C158.78510717 463.8262684 148.26756296 463.79217526 137.75 463.75 C137.78810866 474.4338983 137.84754579 485.11744757 137.93390274 495.80107117 C137.97334228 500.76241339 138.00554806 505.72357906 138.02099609 510.68505859 C138.03618586 515.47689825 138.07067262 520.26825241 138.11830902 525.05987549 C138.1330989 526.88417328 138.14103964 528.7085404 138.14188385 530.53289795 C138.14426252 533.09667175 138.17141302 535.65911357 138.20410156 538.22265625 C138.1990712 538.97000534 138.19404083 539.71735443 138.18885803 540.48735046 C138.30690772 546.50634639 140.01920729 551.78529325 144.16168594 556.28260803 C150.10021193 561.50724832 155.42767516 562.06121297 162.98828125 562.1640625 C164.30943184 562.19311172 164.30943184 562.19311172 165.65727234 562.2227478 C168.45891766 562.28232851 171.26060456 562.32884265 174.0625 562.375 C175.96681438 562.41319959 177.87111185 562.45225247 179.77539062 562.4921875 C184.43345572 562.58801233 189.09160168 562.6721226 193.75 562.75 C193.92958252 562.08758301 194.10916504 561.42516602 194.29418945 560.74267578 C197.50872287 549.38859939 204.38579304 539.16852418 214.6796875 532.9921875 C227.62566449 526.3093515 242.11660163 524.01685803 256.3125 528.3125 C262.08688004 530.60289655 266.95135637 533.83751704 271.75 537.75 C272.38679688 538.25015625 273.02359375 538.7503125 273.6796875 539.265625 C282.04532214 546.62738349 287.13750276 558.9430907 287.99609375 569.88671875 C288.53631933 584.76747785 283.73960922 597.4470765 273.75 608.4375 C264.22634954 617.48015801 252.69273639 621.02881158 239.875 622.0625 C227.00003855 621.6149042 214.99601319 616.55056979 205.59765625 607.7890625 C199.33671581 600.87952569 196.17889273 593.62107031 193.75 584.75 C192.49977051 584.76571045 191.24954102 584.7814209 189.96142578 584.79760742 C185.28359525 584.85227184 180.60579245 584.88648195 175.92773438 584.91479492 C173.91043333 584.92979884 171.89316444 584.95020855 169.87597656 584.97631836 C166.96150737 585.01307353 164.04747274 585.02981068 161.1328125 585.04296875 C159.79937302 585.06619453 159.79937302 585.06619453 158.43899536 585.08988953 C146.43884652 585.09305082 136.04010166 580.68555861 127.0625 572.75 C119.20225947 564.44166975 115.58625632 553.47174461 115.63647461 542.30957031 C115.63632858 541.46042557 115.63618256 540.61128082 115.6360321 539.73640442 C115.63672799 536.9336185 115.64450524 534.13089929 115.65234375 531.328125 C115.65420908 529.38328081 115.65563244 527.43843614 115.65663147 525.49359131 C115.66044758 520.37752991 115.67027016 515.26149695 115.68133545 510.14544678 C115.69156902 504.92379135 115.69613326 499.70213132 115.70117188 494.48046875 C115.71189322 484.23696467 115.72948272 473.99348915 115.75 463.75 C108.16 463.75 100.57 463.75 92.75 463.75 C92.77094727 466.29235352 92.79189453 468.83470703 92.81347656 471.45410156 C92.88001212 479.89175804 92.92404096 488.32942666 92.95724869 496.76727676 C92.97804674 501.87884752 93.00622091 506.99014752 93.05175781 512.1015625 C93.09549476 517.04234191 93.11919551 521.9828623 93.12950897 526.9238205 C93.13685066 528.8007184 93.15118615 530.67760353 93.17292023 532.55438995 C93.35111616 548.59242862 91.48477029 561.30348943 80.09375 573.52734375 C70.92409087 582.02657969 59.82017099 585.00875942 47.66015625 585.1640625 C46.2433683 585.19311172 46.2433683 585.19311172 44.79795837 585.2227478 C41.80289533 585.28217692 38.80779309 585.32878154 35.8125 585.375 C33.77277038 585.41321356 31.73305631 585.45226723 29.69335938 585.4921875 C24.71236701 585.5878481 19.73129917 585.67201365 14.75 585.75 C14.25862549 586.97432739 14.25862549 586.97432739 13.75732422 588.22338867 C13.3192041 589.2982251 12.88108398 590.37306152 12.4296875 591.48046875 C11.99897949 592.54418701 11.56827148 593.60790527 11.12451172 594.70385742 C9.21688142 598.93147789 6.78641156 602.27549921 3.75 605.75 C3.27304688 606.34296875 2.79609375 606.9359375 2.3046875 607.546875 C-4.44332721 615.2104495 -15.36433228 620.27248515 -25.40625 621.6015625 C-40.95837255 622.41334912 -54.52743278 618.39020849 -66.28515625 607.94140625 C-75.77118048 597.91332349 -79.64621335 585.47130611 -79.62109375 571.96166992 C-79.32042601 561.1739618 -75.78421549 552.25884105 -69.25 543.75 C-68.6725 542.88375 -68.095 542.0175 -67.5 541.125 C-58.79329101 531.93458496 -47.40799576 526.67569677 -34.81152344 526.20898438 C-21.17862714 526.09736409 -10.9391124 529.03483518 -0.25 537.75 C0.38679687 538.25015625 1.02359375 538.7503125 1.6796875 539.265625 C8.12550444 544.93794391 12.06389202 553.69167607 14.75 561.75 C20.13935067 561.84952633 25.5281561 561.92177659 30.91821289 561.96972656 C32.74838593 561.98973374 34.57849592 562.01694851 36.40844727 562.05175781 C39.05240512 562.10076003 41.69551165 562.12307761 44.33984375 562.140625 C45.14646957 562.16127014 45.9530954 562.18191528 46.78416443 562.20318604 C53.25877162 562.20569348 59.33772607 560.69416827 64.34580994 556.37310791 C69.35594465 550.77887818 70.04789866 544.7681757 70.06884766 537.54150391 C70.07889328 536.74083496 70.0889389 535.94016602 70.09928894 535.11523438 C70.13002116 532.48568395 70.14712819 529.85623489 70.1640625 527.2265625 C70.18278217 525.39666884 70.20235618 523.56678375 70.2227478 521.73690796 C70.27399054 516.9332993 70.31365827 512.12966269 70.35089111 507.32592773 C70.39098008 502.41903816 70.44205008 497.51226412 70.4921875 492.60546875 C70.58885372 482.98706042 70.67328822 473.36858673 70.75 463.75 C69.09868073 463.75999275 69.09868073 463.75999275 67.41400146 463.77018738 C56.99874085 463.83121346 46.58351689 463.8760754 36.16811752 463.90543652 C30.81447603 463.9210392 25.4609798 463.94217812 20.10742188 463.97631836 C14.93323606 464.00910523 9.75918928 464.02689353 4.58490753 464.03463173 C2.61871403 464.04014072 0.65252745 464.05089771 -1.31360626 464.06719017 C-16.53005377 464.18817589 -29.9058653 463.77717567 -42.25 453.75 C-50.58435339 445.40015525 -54.35369732 434.99915944 -54.37442017 423.35292053 C-54.37082489 422.51997971 -54.36722961 421.68703888 -54.36352539 420.82885742 C-54.36367142 419.94055237 -54.36381744 419.05224731 -54.3639679 418.13702393 C-54.36327293 415.20981376 -54.3555 412.28266775 -54.34765625 409.35546875 C-54.34579059 407.32237279 -54.34436739 405.28927638 -54.34336853 403.25617981 C-54.33955499 397.91161859 -54.32973462 392.56708464 -54.31866455 387.22253418 C-54.30842543 381.76619842 -54.30386555 376.30985823 -54.29882812 370.85351562 C-54.28811132 360.15233178 -54.27104885 349.45116816 -54.25 338.75 C-64.9338983 338.78810866 -75.61744757 338.84754579 -86.30107117 338.93390274 C-91.26241339 338.97334228 -96.22357906 339.00554806 -101.18505859 339.02099609 C-105.97689825 339.03618586 -110.76825241 339.07067262 -115.55987549 339.11830902 C-117.38417328 339.1330989 -119.2085404 339.14103964 -121.03289795 339.14188385 C-123.59667175 339.14426252 -126.15911357 339.17141302 -128.72265625 339.20410156 C-129.47000534 339.1990712 -130.21735443 339.19404083 -130.98735046 339.18885803 C-137.00634639 339.30690772 -142.28529325 341.01920729 -146.78260803 345.16168594 C-152.0570213 351.15678581 -152.53796906 356.36626193 -152.4453125 363.98828125 C-152.44106766 365.30943184 -152.44106766 365.30943184 -152.43673706 366.65727234 C-152.42557833 369.45915545 -152.40048171 372.26071416 -152.375 375.0625 C-152.36496463 376.96679225 -152.35583975 378.87108952 -152.34765625 380.77539062 C-152.32565309 385.43371797 -152.29115294 390.09180406 -152.25 394.75 C-151.58250732 395.00612061 -150.91501465 395.26224121 -150.22729492 395.52612305 C-137.88841899 400.34383968 -127.19461538 407.51229179 -121.25 419.75 C-115.76133392 432.61069798 -115.24309716 446.62027579 -119.921875 459.81640625 C-122.10463983 464.63774856 -124.88258492 468.68463778 -128.25 472.75 C-128.75015625 473.38550781 -129.2503125 474.02101563 -129.765625 474.67578125 C-137.09943902 483.02818055 -149.51224211 488.24106099 -160.45703125 488.9609375 C-174.63386067 489.36028481 -187.84459687 485.59990233 -198.37109375 475.75390625 C-208.20715212 465.26347393 -212.63925697 453.02859879 -212.46484375 438.74609375 C-211.51608167 425.51517535 -206.02133901 413.70706076 -196.25 404.75 C-191.12653208 400.80002099 -186.2694962 397.97311588 -180.05615234 396.15576172 C-178.70594498 395.75851395 -178.70594498 395.75851395 -177.32846069 395.35324097 C-176.64256866 395.15417145 -175.95667664 394.95510193 -175.25 394.75 C-175.27094727 393.47995117 -175.29189453 392.20990234 -175.31347656 390.90136719 C-175.38650262 386.13781241 -175.43202512 381.37430594 -175.46972656 376.61035156 C-175.48970057 374.55818326 -175.51688947 372.50607083 -175.55175781 370.45410156 C-175.83973996 353.05659187 -174.89427635 340.91295931 -162.40625 327.81640625 C-153.97755783 319.78496801 -144.22187498 316.585131 -132.80957031 316.63647461 C-131.96042557 316.63632858 -131.11128082 316.63618256 -130.23640442 316.6360321 C-127.4336185 316.63672799 -124.63089929 316.64450524 -121.828125 316.65234375 C-119.88328081 316.65420908 -117.93843614 316.65563244 -115.99359131 316.65663147 C-110.87752991 316.66044758 -105.76149695 316.67027016 -100.64544678 316.68133545 C-95.42379135 316.69156902 -90.20213132 316.69613326 -84.98046875 316.70117188 C-74.73696467 316.71189322 -64.49348915 316.72948272 -54.25 316.75 C-54.25 309.16 -54.25 301.57 -54.25 293.75 C-56.80282715 293.76571045 -59.3556543 293.7814209 -61.98583984 293.79760742 C-70.44748861 293.84745445 -78.90914409 293.88050921 -87.37090111 293.90543652 C-92.49816062 293.92105116 -97.62526891 293.94221232 -102.75244141 293.97631836 C-107.70616759 294.0090621 -112.65974887 294.02688457 -117.61357498 294.03463173 C-119.49768986 294.04014838 -121.38179736 294.0509207 -123.26585007 294.06719017 C-139.06222564 294.19809608 -151.60168491 292.65397941 -163.9375 281.75 C-170.30216128 275.02250767 -175.26836136 264.55146374 -175.45532227 255.25683594 C-175.4852401 253.93591949 -175.4852401 253.93591949 -175.51576233 252.58831787 C-175.53247482 251.64651672 -175.54918732 250.70471558 -175.56640625 249.734375 C-175.58718735 248.76340881 -175.60796844 247.79244263 -175.62937927 246.79205322 C-175.69468862 243.69477315 -175.75367323 240.59740932 -175.8125 237.5 C-175.85570292 235.39842889 -175.89931778 233.2968662 -175.94335938 231.1953125 C-176.05035098 226.04696052 -176.1516709 220.89852442 -176.25 215.75 C-177.34103027 215.38104614 -177.34103027 215.38104614 -178.45410156 215.00463867 C-191.54404267 210.43926596 -200.75293469 203.14286533 -207.5 190.9375 C-213.44438756 178.02383048 -213.69129476 165.10970117 -209.25 151.75 C-204.64651136 139.85765434 -196.58021457 131.50455635 -185.25 125.75 C-172.65267603 120.26302126 -159.1669166 119.87078674 -146.21875 124.421875 C-134.52914669 129.65143437 -125.07690504 138.78303622 -120.0546875 150.55078125 C-115.37761445 163.68256327 -115.49606434 177.96157919 -121.25 190.75 C-128.16626232 203.46344771 -138.71244026 211.23748009 -152.25 215.75 C-152.34938156 221.30007795 -152.4217096 226.84963018 -152.46972656 232.40039062 C-152.48975767 234.28589916 -152.51699073 236.17134623 -152.55175781 238.05664062 C-152.60065272 240.77749862 -152.62305382 243.49753056 -152.640625 246.21875 C-152.66127014 247.05241089 -152.68191528 247.88607178 -152.70318604 248.74499512 C-152.70560173 255.14337016 -151.23300019 260.4381412 -146.87310791 265.27868652 C-141.24575108 270.3358565 -135.3322633 271.04771288 -128.04150391 271.06884766 C-127.24083496 271.07889328 -126.44016602 271.0889389 -125.61523438 271.09928894 C-122.98568395 271.13002116 -120.35623489 271.14712819 -117.7265625 271.1640625 C-115.89666884 271.18278217 -114.06678375 271.20235618 -112.23690796 271.2227478 C-107.4332993 271.27399054 -102.62966269 271.31365827 -97.82592773 271.35089111 C-92.91903816 271.39098008 -88.01226412 271.44205008 -83.10546875 271.4921875 C-73.48706042 271.58885372 -63.86858673 271.67328822 -54.25 271.75 C-54.25999275 270.07655769 -54.25999275 270.07655769 -54.27018738 268.36930847 C-54.33117864 257.82129051 -54.37605886 247.27330865 -54.40543652 236.72515392 C-54.42104792 231.30310363 -54.44220311 225.88119646 -54.47631836 220.45922852 C-54.5090737 215.22020893 -54.526887 209.98132644 -54.53463173 204.7422123 C-54.54014631 202.7500728 -54.55091449 200.75794024 -54.56719017 198.7658596 C-54.67453636 185.07430044 -54.60030018 173.23495545 -46.25 161.75 C-45.6725 160.88375 -45.095 160.0175 -44.5 159.125 C-36.11558711 150.27478639 -24.99289002 146.68632503 -13.05066967 146.328228 C-8.39070044 146.27094516 -3.73406874 146.30833451 0.92578125 146.359375 C2.94743791 146.36685052 4.96910189 146.37253724 6.99076843 146.37652588 C12.26964909 146.39167908 17.54807803 146.43087015 22.82678223 146.4753418 C28.23016248 146.51651895 33.63361689 146.53458449 39.03710938 146.5546875 C49.6082696 146.59737588 60.179097 146.66549984 70.75 146.75 C70.68871009 136.1792522 70.61154697 125.60874969 70.51428509 115.03826809 C70.46961445 110.12961414 70.43035099 105.22104256 70.40356445 100.31225586 C70.37749855 95.57235417 70.3370728 90.83276999 70.28681374 86.09306526 C70.27016726 84.2874758 70.25863918 82.48183144 70.25238609 80.67617607 C70.24272079 78.14112166 70.21463312 75.6068755 70.18237305 73.07202148 C70.18452568 71.95963104 70.18452568 71.95963104 70.1867218 70.82476807 C70.04626355 62.98770533 67.31621658 57.31621658 61.75 51.75 C56.13897225 48.7398225 51.61413847 48.34078113 45.31640625 48.45703125 C43.9995005 48.46339851 43.9995005 48.46339851 42.6559906 48.46989441 C39.8745042 48.4865771 37.09376436 48.52420915 34.3125 48.5625 C32.41732823 48.57756032 30.52214502 48.59124636 28.62695312 48.60351562 C24.00101803 48.6364464 19.37563523 48.68815572 14.75 48.75 C14.42749268 49.56041748 14.10498535 50.37083496 13.77270508 51.20581055 C13.33853271 52.27613525 12.90436035 53.34645996 12.45703125 54.44921875 C12.03139893 55.50713623 11.6057666 56.56505371 11.16723633 57.6550293 C5.98049467 68.98187236 -3.84620347 77.15752086 -15.25 81.75 C-26.26396136 85.54103742 -39.85844079 85.31822553 -50.6796875 81.0078125 C-63.4338364 74.76642049 -72.81321474 65.17045417 -77.5625 51.75 C-81.3535143 38.38087203 -80.03957363 25.1802486 -73.7421875 12.78125 C-66.78895279 1.00926194 -56.48183017 -6.72151195 -43.25 -10.25 C-27.13546288 -13.2904787 -13.35171548 -9.24349533 0 0 Z M-51.6875 20.5625 C-55.79778896 26.76868702 -58.46827805 33.17729437 -57.25 40.75 C-55.10157836 48.87052228 -51.28169566 54.54455305 -44.18359375 59.06640625 C-37.54896691 62.47273524 -30.71374129 63.16406111 -23.57421875 60.90234375 C-16.69074113 57.82096909 -11.45845759 53.3325495 -8.15625 46.48046875 C-5.30326684 38.72722286 -5.7728918 32.63089589 -9.06640625 25.109375 C-12.1610186 18.94057678 -16.19593298 15.50394739 -22.375 12.671875 C-33.19453654 9.20256709 -44.46447027 11.58682335 -51.6875 20.5625 Z M220.3125 20.0625 C215.53612523 26.3272635 213.74789761 32.92536491 214.75 40.75 C216.43371638 47.77201093 220.02385905 53.60388904 225.6875 58.0625 C232.28434684 61.69749724 238.27911004 62.71431324 245.75 61.75 C253.06456177 59.46419945 258.6596597 55.23109321 262.75 48.75 C265.67950754 42.46524333 266.53563336 36.47952981 264.75 29.75 C261.85920314 21.86083023 256.89623915 17.0998847 249.75 12.75 C239.03302214 9.17767405 227.99047159 11.85760879 220.3125 20.0625 Z M-184.25 152.75 C-188.97806102 159.75410031 -190.88789569 166.28473016 -189.6875 174.6875 C-187.60356749 181.74508476 -183.24689133 187.86738271 -177.03125 191.8203125 C-170.90369437 195.01846654 -164.41324656 195.84317952 -157.765625 194.09765625 C-149.89456027 191.31893188 -144.63819676 186.9514442 -140.8125 179.5 C-138.4161376 173.36322847 -138.10224439 167.37309952 -140.09765625 161.07421875 C-143.17988158 154.1888408 -147.67559029 148.9209063 -154.5546875 145.65625 C-165.3565781 141.72828978 -176.23058284 144.41609589 -184.25 152.75 Z M352.3828125 153.640625 C347.66184968 160.84209372 346.94454333 167.15478428 347.75 175.75 C348.69203457 178.73229597 350.01360117 181.16052719 351.75 183.75 C352.306875 184.636875 352.86375 185.52375 353.4375 186.4375 C358.69629485 191.69629485 365.04135666 194.43028937 372.375 195.0625 C378.69673741 194.97978568 384.27601555 192.2893681 389.5625 189 C395.98058305 182.39854315 398.13317317 175.98380567 398.0234375 166.88671875 C397.39770225 159.70864151 394.12064773 154.11908087 388.875 149.2578125 C377.60118374 141.2583767 360.94258354 141.80368447 352.3828125 153.640625 Z M-29.25 175.75 C-32.11215245 181.96491045 -32.68045097 187.10423532 -32.63095093 193.89015198 C-32.6356309 194.88435164 -32.64031087 195.8785513 -32.64513266 196.90287822 C-32.65705763 200.21997617 -32.64763502 203.53665907 -32.63818359 206.85375977 C-32.64225036 209.23764283 -32.64759284 211.621524 -32.65411377 214.00540161 C-32.6663617 219.79930785 -32.66458511 225.59308315 -32.65587585 231.38699336 C-32.64909015 236.09689728 -32.6481864 240.80676854 -32.6514473 245.51667595 C-32.651907 246.18798375 -32.65236669 246.85929155 -32.65284032 247.55094201 C-32.65379953 248.91484063 -32.65477217 250.27873924 -32.6557581 251.64263784 C-32.66430425 264.41935085 -32.65448971 277.1959992 -32.638357 289.9727016 C-32.62495144 300.92869215 -32.62728534 311.88458734 -32.64111328 322.84057617 C-32.65717753 335.57431178 -32.66348357 348.30799079 -32.65427649 361.04173511 C-32.65332088 362.40020334 -32.65237776 363.75867157 -32.6514473 365.11713982 C-32.65098447 365.78547372 -32.65052164 366.45380763 -32.65004479 367.14239408 C-32.64745766 371.84554406 -32.65181985 376.54865804 -32.65888596 381.25180244 C-32.66755149 387.58428233 -32.661541 393.91658209 -32.64420319 400.24904251 C-32.64023634 402.57302616 -32.64137574 404.89702496 -32.64799118 407.22100258 C-32.65618856 410.39315029 -32.6459064 413.56472073 -32.63095093 416.73683167 C-32.64098918 418.11631205 -32.64098918 418.11631205 -32.65123022 419.52366072 C-32.58792963 426.44555851 -31.47978683 431.24148982 -26.75 436.5625 C-20.34752958 442.16466162 -14.65933949 441.89809558 -6.55326843 441.89044189 C-5.57050472 441.89341302 -4.587741 441.89638414 -3.57519656 441.8994453 C-0.2788822 441.90812372 3.01739582 441.90963982 6.3137207 441.91113281 C8.6758329 441.91576154 11.03794435 441.92078628 13.40005493 441.92617798 C20.48891145 441.9406656 27.57776018 441.94668501 34.66662887 441.95157349 C38.00733396 441.95415325 41.34803774 441.95794319 44.68874168 441.96169281 C55.79704417 441.97388219 66.90534473 441.98418263 78.01365376 441.9875679 C78.72415997 441.98778747 79.43466618 441.98800703 80.16670288 441.98823325 C80.87888117 441.98845153 81.59105946 441.98866981 82.32481891 441.9888947 C83.76789685 441.98933816 85.21097479 441.98978473 86.65405273 441.99023438 C87.3698649 441.9904558 88.08567707 441.99067723 88.82318052 441.99090537 C100.42166888 441.99485334 112.02009441 442.0123088 123.6185585 442.0355939 C135.53360868 442.05932106 147.44862734 442.07177035 159.36370152 442.07293582 C166.05076228 442.07385174 172.73772871 442.07990277 179.42476845 442.09775543 C185.71451203 442.114221 192.00410014 442.11639887 198.29385757 442.10761642 C200.60130034 442.10684528 202.90875141 442.11119892 205.21617317 442.12107468 C208.36840665 442.13377425 211.52008781 442.12792784 214.6723175 442.11749268 C216.03882532 442.12957728 216.03882532 442.12957728 217.43293935 442.14190602 C224.46398199 442.08754591 230.1021511 440.99491538 235.625 436.3125 C238.62244383 432.69793538 239.99842219 430.10501653 240.00726891 425.38863659 C240.0137178 424.51762379 240.02016669 423.64661099 240.026811 422.74920386 C240.0237138 421.79678394 240.0206166 420.84436402 240.01742554 419.86308289 C240.02422221 418.34015797 240.02422221 418.34015797 240.03115618 416.7864669 C240.04384702 413.37411891 240.04217678 409.96192957 240.04052734 406.54956055 C240.04650968 404.10715529 240.05331454 401.66475193 240.06088257 399.22235107 C240.0767407 393.27017366 240.08299229 387.31805896 240.08410732 381.36586627 C240.08505769 376.5271521 240.08916744 371.68845101 240.09550858 366.84974098 C240.11312252 353.12978201 240.12234729 339.40985433 240.12084763 325.68988397 C240.12076772 324.95022275 240.1206878 324.21056153 240.12060547 323.44848633 C240.12048283 322.33763898 240.12048283 322.33763898 240.12035771 321.20435027 C240.11954492 309.20417321 240.13868032 297.2041217 240.1668822 285.20398095 C240.19561408 272.88102632 240.20942231 260.55813293 240.20769465 248.23514396 C240.20703082 241.31725343 240.21251996 234.39949449 240.23405075 227.48163414 C240.25417126 220.97520262 240.25358571 214.46900156 240.23901749 207.96253967 C240.23692313 205.57404996 240.24166739 203.18554303 240.2537384 200.7970829 C240.26914761 197.53701619 240.25991041 194.27791362 240.24447632 191.01786804 C240.25990701 189.59927641 240.25990701 189.59927641 240.27564943 188.15202636 C240.21303705 182.16937157 239.21253109 178.66558239 235.75 173.75 C231.36432297 169.99909202 226.15515559 168.62823439 220.49795818 168.61857224 C219.65132915 168.61473109 218.80470012 168.61088995 217.93241566 168.6069324 C216.54464074 168.60823213 216.54464074 168.60823213 215.12882996 168.60955811 C214.14213155 168.60658698 213.15543314 168.60361586 212.13883477 168.6005547 C208.82326088 168.59186359 205.50772307 168.59035911 202.19213867 168.58886719 C199.81869937 168.58423934 197.44526081 168.57921473 195.07182312 168.57382202 C188.61725168 168.56069361 182.16268716 168.5542156 175.70810485 168.54981136 C171.67707357 168.5470475 167.64604469 168.5428099 163.61501503 168.53830719 C152.45184956 168.52611619 141.28868601 168.51581628 130.12551403 168.5124321 C129.41125353 168.51221253 128.69699302 168.51199297 127.96108826 168.51176675 C127.24513146 168.51154847 126.52917466 168.51133019 125.7915222 168.5111053 C124.34075113 168.51066183 122.88998006 168.51021527 121.43920898 168.50976562 C120.35976309 168.50943348 120.35976309 168.50943348 119.25851021 168.50909463 C107.59785086 168.50514657 95.93725401 168.4876916 84.2766188 168.4644061 C72.30171447 168.44068624 60.32684148 168.42822997 48.35191327 168.42706418 C41.62966178 168.42614782 34.90749173 168.42040524 28.18526268 168.40224457 C21.86270467 168.38579012 15.54030134 168.3835957 9.21772957 168.39238358 C6.89696718 168.39315533 4.57619656 168.3887931 2.25545502 168.37892532 C-0.91250802 168.36624491 -4.07991998 168.37206171 -7.24787903 168.38250732 C-8.16637015 168.37445092 -9.08486127 168.36639452 -10.03118545 168.35809398 C-17.58861107 168.41637957 -23.80022605 170.14884344 -29.25 175.75 Z M-185.25 425.75 C-188.89859447 431.72748455 -191.00574521 438.20826195 -189.84375 445.19140625 C-187.80620581 453.13540294 -184.09053564 459.2871199 -177.0625 463.6875 C-170.56963539 466.90665136 -163.6479492 467.68447078 -156.625 465.8125 C-149.49707064 462.97156586 -143.82677818 457.89416072 -140.6875 450.875 C-138.31042061 443.67773184 -138.13445354 437.5434363 -141.25 430.5625 C-145.07424422 423.71117796 -150.61981647 418.5524011 -158.1875 416.1875 C-168.54909143 413.98958667 -178.35949046 417.67826026 -185.25 425.75 Z M352.125 425.8125 C347.58758235 432.53612797 346.9483687 438.78442315 347.75 446.75 C349.4624338 453.40490741 353.16874114 458.75009782 358.75 462.75 C365.71449499 466.45656405 372.0661922 467.69981433 379.75 465.75 C387.7001984 463.29027011 393.392991 457.16939187 397.25 449.9375 C398.8912589 439.47447449 397.7692236 432.64486128 391.875 424 C386.48319591 418.29103096 380.30449736 415.86488788 372.5625 415.25 C364.67471921 415.46610358 356.92901852 419.62248103 352.125 425.8125 Z M-49 555 C-54.25775271 561.4261422 -57.65831729 566.95524176 -57.53125 575.46875 C-56.67168314 582.44079227 -53.34755328 588.98489585 -48.25 593.75 C-41.02759382 598.84896467 -33.95181153 599.96291235 -25.25 598.75 C-22.25205552 597.80049025 -19.83648448 596.52164927 -17.25 594.75 C-16.363125 594.193125 -15.47625 593.63625 -14.5625 593.0625 C-9.47867345 587.97867345 -6.5595224 581.69641054 -6 574.5625 C-6.57437499 565.80328138 -9.73763681 559.64849289 -16.25 553.75 C-26.8304166 546.24831118 -39.04366309 546.85390617 -49 555 Z M220.75 556.75 C216.03946671 563.98130516 213.84496906 570.07678685 214.75 578.75 C217.02125626 586.47720879 221.22312545 592.55441571 228.25 596.625 C234.91386051 599.69833268 242.0387284 600.07602015 249.109375 598.0859375 C255.46418733 595.25336611 260.27837077 590.39893261 263.625 584.375 C266.13137848 576.29889156 266.4987182 569.5404958 262.75 561.75 C258.45290073 555.32950975 253.36987695 550.59351862 245.75 548.75 C236.33537529 547.59334611 227.21697252 549.29654015 220.75 556.75 Z " fill="#000000" transform="translate(218.25,19.25)"/>
<path d="M0 0 C12.1124932 6.19708955 16.28009614 28.64973331 20.17784119 40.70928955 C20.7394973 42.45420685 20.7394973 42.45420685 21.3125 44.234375 C21.69269791 45.40941589 22.07289581 46.58445679 22.46461487 47.79510498 C25.64599602 57.62942444 25.64599602 57.62942444 27.18652344 62.50585938 C28.33421219 66.13023957 29.50836043 69.7451244 30.6875 73.359375 C31.03143799 74.46972107 31.37537598 75.58006714 31.72973633 76.72406006 C33.66670315 83.05803601 33.66670315 83.05803601 38.18237305 87.60424805 C39.11218994 88.06484619 40.04200684 88.52544434 41 89 C43.07832017 91.9399207 43.19287382 93.92423861 42.6875 97.4375 C42.58824219 98.17871094 42.48898437 98.91992188 42.38671875 99.68359375 C42 102 42 102 41.39550781 104.33105469 C40.94541815 107.36832639 41.35733246 109.11005569 42.28515625 112.01953125 C42.56810547 112.95990234 42.85105469 113.90027344 43.14257812 114.86914062 C43.75287413 116.8218287 44.37000178 118.77239549 44.99414062 120.72070312 C46.85672535 126.96483727 47.39339684 130.86041681 45 137 C41.2648928 140.55724495 38.0968276 141.45282069 33.125 141.62890625 C29.68280014 140.61016695 27.26043361 138.71227849 25 136 C23.67308979 133.14777962 22.9521799 130.24627647 22.25 127.1875 C22.05535156 126.41857422 21.86070312 125.64964844 21.66015625 124.85742188 C21.2747479 123.32484169 20.90022872 121.78947848 20.53710938 120.25146484 C20.01180337 118.04947758 19.43733594 115.86442809 18.859375 113.67578125 C18 110 18 110 18 106 C1.83 106 -14.34 106 -31 106 C-31.33 108.31 -31.66 110.62 -32 113 C-32.92952492 116.7563269 -34.09457651 120.43256151 -35.25 124.125 C-35.53746094 125.10082031 -35.82492188 126.07664062 -36.12109375 127.08203125 C-37.86835831 132.67480385 -39.35398308 136.3408821 -44 140 C-47.4740271 141.73701355 -51.20178024 141.45263759 -55 141 C-58 139.5 -58 139.5 -60 137 C-62.08791696 129.17219475 -59.43903248 122.722649 -56.92578125 115.265625 C-56.48462499 113.91743014 -56.04490248 112.56876539 -55.60652161 111.21966553 C-54.43566415 107.63017006 -53.24499446 104.04755299 -52.04990387 100.46606445 C-50.81831148 96.76485237 -49.60421542 93.05790958 -48.38818359 89.3515625 C-46.47392765 83.52457729 -44.54898573 77.70124042 -42.61474609 71.88085938 C-40.44761134 65.35958526 -38.30532988 58.83050835 -36.17578125 52.296875 C-35.39496145 49.91245474 -34.61282052 47.52847666 -33.82943726 45.14489746 C-33.37118867 43.74960467 -32.91426873 42.35387458 -32.45889282 40.9576416 C-30.01495873 33.4856908 -27.33506812 26.14248078 -24.37109375 18.86328125 C-23.93852768 17.79406433 -23.93852768 17.79406433 -23.4972229 16.70324707 C-19.09839467 6.09991099 -12.70058231 -3.54105455 0 0 Z M-7 36 C-9.28076771 42.6744884 -11.55918539 49.34977553 -13.8359375 56.02563477 C-14.61143204 58.29860797 -15.38747298 60.57139482 -16.1640625 62.84399414 C-17.27746531 66.10254355 -18.38892875 69.36174873 -19.5 72.62109375 C-20.0249707 74.15545326 -20.0249707 74.15545326 -20.56054688 75.72080994 C-20.88087891 76.66170975 -21.20121094 77.60260956 -21.53125 78.57202148 C-21.81548828 79.40475082 -22.09972656 80.23748016 -22.39257812 81.09544373 C-23.05064194 82.8256076 -23.05064194 82.8256076 -23 84 C-12.11 84 -1.22 84 10 84 C8.36613698 78.9314281 6.73100882 73.86329827 5.09277344 68.79614258 C4.53736247 67.0769751 3.9826579 65.35757922 3.42871094 63.63793945 C0.44149245 54.36623875 -2.55147753 45.1134016 -6 36 C-6.33 36 -6.66 36 -7 36 Z " fill="#000000" transform="translate(290,254)"/>
<path d="M0 0 C0.85577637 -0.01297119 1.71155273 -0.02594238 2.59326172 -0.03930664 C9.67506381 -0.04977648 17.098012 0.14726392 22.9375 4.4375 C25.17939967 7.61955114 25.875 9.29510442 25.875 13.1875 C24.6838361 17.32153942 23.88250969 19.52580716 20.24609375 21.9140625 C16.29135395 23.40797348 13.10480642 23.32306945 9 22.875 C7.74171387 22.75358643 6.48342773 22.63217285 5.18701172 22.50708008 C4.09404785 22.40161865 3.00108398 22.29615723 1.875 22.1875 C1.87990952 22.78379211 1.88481903 23.38008423 1.88987732 23.9944458 C2.00676769 40.67790689 1.66064891 57.3213882 1.07543945 73.99414062 C0.98273003 76.64448153 0.89190679 79.29478726 0.80493164 81.9453125 C0.67656098 85.85428284 0.54411004 89.76309235 0.41015625 93.671875 C0.35227684 95.42223053 0.35227684 95.42223053 0.29322815 97.20794678 C0.01909333 104.8873137 -0.47867113 112.53060169 -1.125 120.1875 C0.11636719 120.15269531 1.35773438 120.11789062 2.63671875 120.08203125 C4.27863226 120.05388416 5.92056046 120.02658499 7.5625 120 C8.37912109 119.97486328 9.19574219 119.94972656 10.03710938 119.92382812 C15.92874139 119.85226984 19.27472493 120.76655425 23.6875 124.875 C25.44566682 128.29879854 25.65065806 131.47999678 24.875 135.1875 C22.89821824 138.70935256 20.7762851 140.88707163 16.875 142.1875 C14.0805632 142.26789422 11.3132242 142.2917621 8.51953125 142.265625 C7.68130325 142.26121399 6.84307526 142.25680298 5.97944641 142.2522583 C3.27789926 142.23596333 0.57648567 142.21181764 -2.125 142.1875 C-3.89274012 142.17630998 -5.660481 142.16524138 -7.42822266 142.15429688 C-11.86800025 142.12181406 -16.30666554 142.05873691 -20.74584961 141.97998047 C-22.56345474 141.95129446 -24.38119567 141.93032488 -26.19897461 141.91650391 C-28.87937019 141.89510449 -31.55832076 141.84861722 -34.23828125 141.796875 C-35.44766106 141.79503204 -35.44766106 141.79503204 -36.68147278 141.79315186 C-41.92522368 141.65693337 -44.97020856 140.66291889 -49.125 137.1875 C-51.79634463 133.18048306 -51.95153281 129.89873704 -51.125 125.1875 C-48.59531526 121.90574682 -47.04768669 120.49506223 -43.125 119.1875 C-40.46806002 119.090884 -37.84359145 119.04823272 -35.1875 119.0625 C-34.47142578 119.05863281 -33.75535156 119.05476563 -33.01757812 119.05078125 C-29.54757208 119.05721314 -26.46142823 119.25719868 -23.125 120.1875 C-23.13642029 119.1255114 -23.13642029 119.1255114 -23.14807129 118.04206848 C-23.20716007 107.79091885 -22.84407118 97.56697517 -22.46875 87.32421875 C-22.40128762 85.43708504 -22.33403043 83.54994398 -22.26696777 81.66279602 C-22.09145534 76.73915238 -21.91318899 71.81561232 -21.73431396 66.89208984 C-21.55165445 61.85064647 -21.37164792 56.80910842 -21.19140625 51.76757812 C-20.83850785 41.90745859 -20.48269485 32.04744662 -20.125 22.1875 C-21.23306 22.34917664 -22.34112 22.51085327 -23.48275757 22.6774292 C-27.60966327 23.25537373 -31.59168462 23.40811261 -35.75 23.4375 C-36.48734375 23.458125 -37.2246875 23.47875 -37.984375 23.5 C-42.56693837 23.53284992 -45.49509166 23.04055295 -49.125 20.1875 C-51.37342701 16.61045703 -51.45311249 13.27872297 -50.80078125 9.12109375 C-49.54840899 5.53771647 -47.2692965 4.22204479 -44.125 2.1875 C-40.89602593 1.11874299 -37.76887377 0.99373806 -34.3828125 0.87109375 C-33.24440918 0.82895752 -32.10600586 0.78682129 -30.93310547 0.7434082 C-29.10996826 0.68479614 -29.10996826 0.68479614 -27.25 0.625 C-26.00234863 0.5839917 -24.75469727 0.5429834 -23.46923828 0.50073242 C-15.64720138 0.25981648 -7.82563565 0.06106274 0 0 Z " fill="#000000" transform="translate(390.125,253.8125)"/>
</svg>
