<?xml version="1.0" encoding="UTF-8"?>
<svg version="1.1" xmlns="http://www.w3.org/2000/svg" width="167" height="172">
<path d="M0 0 C5.97704224 0.42483525 9.57399838 2.19665669 14.47265625 5.55078125 C15.15879501 6.00599655 15.84493378 6.46121185 16.55186462 6.93022156 C18.73015151 8.37929879 20.89629272 9.84544282 23.0625 11.3125 C24.52071231 12.28696362 25.97969039 13.26028236 27.43945312 14.23242188 C30.72325569 16.42258161 33.99842279 18.62512248 37.26956177 20.83413696 C39.8398942 22.56586914 42.41961204 24.28329459 45 26 C45.01417969 25.29875 45.02835938 24.5975 45.04296875 23.875 C45.38552458 17.0609165 46.38877949 12.16366502 51 7 C57.89771141 0.8418093 63.11207655 -0.43124792 72.34765625 -0.3359375 C79.42459195 0.31498921 84.80567418 3.1737457 89.5 8.5 C93.06244446 13.73296926 93.45466198 19.83203889 94 26 C94.54188965 25.63874023 95.0837793 25.27748047 95.64208984 24.90527344 C96.40730957 24.39512695 97.1725293 23.88498047 97.9609375 23.359375 C98.81679443 22.78848145 99.67265137 22.21758789 100.55444336 21.62939453 C102.44728769 20.36815367 104.34134803 19.10873603 106.23657227 17.85107422 C110.91791541 14.74115405 115.58017724 11.61159534 120.19140625 8.3984375 C120.99336426 7.84575195 121.79532227 7.29306641 122.62158203 6.72363281 C124.13424253 5.6794729 125.63954129 4.62454418 127.13623047 3.55761719 C130.20249204 1.45581985 132.52528299 0.10542795 136.18359375 -0.70703125 C140.24445172 0.31240744 141.86879629 2.88860278 144.125 6.1875 C144.96066224 7.34785454 145.79659615 8.50801347 146.6328125 9.66796875 C147.02758789 10.23563965 147.42236328 10.80331055 147.82910156 11.38818359 C149.12169239 13.22081189 149.12169239 13.22081189 151.3046875 15.61328125 C153 18 153 18 153.625 20.54296875 C152.65608159 24.35202927 150.26995432 25.30284058 147 27.3125 C145.88625 28.00988281 144.7725 28.70726563 143.625 29.42578125 C142.75875 29.94527344 141.8925 30.46476562 141 31 C141.2165625 31.96873047 141.2165625 31.96873047 141.4375 32.95703125 C144.26048844 47.2876184 144.49712138 61.3308187 139 75 C136.69 74.34 134.38 73.68 132 73 C132.2165625 71.865625 132.433125 70.73125 132.65625 69.5625 C132.93787302 68.0417357 133.21910196 66.52089838 133.5 65 C133.64308594 64.25621094 133.78617188 63.51242188 133.93359375 62.74609375 C135.23048085 55.64409295 135.42785346 49.13926731 134 42 C133.814375 41.05125 133.62875 40.1025 133.4375 39.125 C133.2209375 38.073125 133.2209375 38.073125 133 37 C123.69498781 42.04512264 115.06300267 47.96688494 106.39208984 54.01977539 C105.46605957 54.66164795 104.5400293 55.30352051 103.5859375 55.96484375 C102.7511084 56.5487085 101.9162793 57.13257324 101.05615234 57.73413086 C99 59 99 59 97 59 C96.37531916 82.66553877 100.34757432 103.25967681 106.99291992 125.87701416 C108.85131331 132.22608943 110.64826031 138.59268371 112.43723488 144.96160126 C113.06191258 147.15982003 113.70701619 149.35121337 114.35539246 151.5425415 C114.7370649 152.87358288 115.11822328 154.20477181 115.4987793 155.53613281 C115.83773727 156.69203918 116.17669525 157.84794556 116.52592468 159.03887939 C117 162 117 162 116.22254944 164.34118652 C114.54941261 166.61137849 113.12058725 166.95493607 110.421875 167.703125 C109.50792969 167.9609375 108.59398438 168.21875 107.65234375 168.484375 C106.69457031 168.73703125 105.73679687 168.9896875 104.75 169.25 C103.33654297 169.6521875 103.33654297 169.6521875 101.89453125 170.0625 C97.17005026 171.36123531 92.94630741 172.36516363 88 172 C85.00185232 165.65226084 83.26153393 159.09128395 81.4609375 152.3203125 C81.13461334 151.11180634 80.80828918 149.90330017 80.47207642 148.65817261 C79.61078484 145.46696466 78.75355044 142.2747085 77.89886475 139.08172607 C76.68896237 134.56252995 75.47511794 130.04441142 74.25650024 125.52755737 C73.6086831 123.12574913 72.96421198 120.72303552 72.32333374 118.31936646 C72.03278107 117.24089447 71.74222839 116.16242249 71.44287109 115.05126953 C71.18766693 114.09753448 70.93246277 113.14379944 70.66952515 112.16116333 C70.19688802 110.04149221 70.19688802 110.04149221 69 109 C68.78924332 109.77452011 68.57848663 110.54904022 68.36134338 111.34703064 C66.37833497 118.63213272 64.39211256 125.91634705 62.40223789 133.19957638 C61.37924359 136.94433369 60.35751283 140.68942637 59.33862305 144.43530273 C58.35601213 148.04762175 57.37014331 151.65903677 56.38197136 155.26983833 C56.00480968 156.65027482 55.62883995 158.03103751 55.25406075 159.41212273 C54.73051759 161.3406209 54.20241024 163.26787827 53.67407227 165.19506836 C53.3742897 166.29427109 53.07450714 167.39347382 52.76564026 168.52598572 C52 171 52 171 51 172 C44.60718894 171.54112566 38.71253384 170.31892099 32.5625 168.5625 C31.76134766 168.34529297 30.96019531 168.12808594 30.13476562 167.90429688 C24.25471129 166.25471129 24.25471129 166.25471129 22 164 C22.4408172 156.07037545 25.66588797 147.93780878 27.87890625 140.3671875 C28.84677909 136.97810849 29.80340474 133.58584124 30.76202488 130.19413567 C31.74713076 126.71763992 32.74445679 123.24568418 33.77124023 119.78125 C39.83096358 99.28161528 42.37311087 80.41053267 42 59 C41.21620468 58.69445694 40.43240936 58.38891388 39.62486267 58.07411194 C37.18448042 57.07549066 35.23793869 55.9747296 33.06640625 54.49609375 C32.34114746 54.00657227 31.61588867 53.51705078 30.86865234 53.01269531 C29.72710693 52.23297363 29.72710693 52.23297363 28.5625 51.4375 C26.96288677 50.35711408 25.36261767 49.27769864 23.76171875 48.19921875 C22.96556152 47.66216309 22.1694043 47.12510742 21.34912109 46.57177734 C17.88549862 44.25429641 14.38559846 41.99547649 10.875 39.75 C9.97890015 39.1765686 9.97890015 39.1765686 9.06469727 38.59155273 C7.71063787 37.72638622 6.35546401 36.86296423 5 36 C2.86522842 53.2306563 4.04057829 68.72492036 13 84 C10.75 85.625 10.75 85.625 8 87 C5.17906703 86.15098134 4.18441604 85.296215 2.62109375 82.78515625 C1.35634771 79.87582296 0.14653556 76.95806174 -1 74 C-1.32484375 73.20851563 -1.6496875 72.41703125 -1.984375 71.6015625 C-4.20305662 65.13389627 -4.27813205 58.70573235 -4.3125 51.9375 C-4.31805908 51.01541748 -4.32361816 50.09333496 -4.3293457 49.14331055 C-4.26423043 42.89502695 -3.43771022 37.0775558 -2 31 C-2.86625 30.48050781 -3.7325 29.96101563 -4.625 29.42578125 C-5.73875 28.72839844 -6.8525 28.03101562 -8 27.3125 C-9.11375 26.62800781 -10.2275 25.94351562 -11.375 25.23828125 C-14 23 -14 23 -14.35546875 20.63671875 C-13.92437307 17.43903103 -12.9520835 16.07446077 -10.9375 13.57421875 C-10.30585938 12.77822266 -9.67421875 11.98222656 -9.0234375 11.16210938 C-8.35570312 10.34548828 -7.68796875 9.52886719 -7 8.6875 C-6.33226562 7.85154297 -5.66453125 7.01558594 -4.9765625 6.15429688 C-3.32829025 4.09395656 -1.66936429 2.04325876 0 0 Z M57 11 C54.16991265 14.70782458 52.63753196 18.35880604 52.875 23.0625 C53.76164323 27.69681048 56.49183729 30.96014004 60 34 C64.65097289 36.92514018 69.6874566 36.62455155 75 36 C79.40295581 33.83854897 82.39012327 31.15647034 85 27 C86.15332617 22.8480258 86.15290891 20.52168922 84.9375 16.375 C82.42590618 11.9999656 79.57476963 9.28738481 75 7 C67.91959483 6.28374011 62.60595881 6.4237071 57 11 Z M3 8 C1.611891 9.80776986 0.26426551 11.64674024 -1.0625 13.5 C-1.79597656 14.5209375 -2.52945312 15.541875 -3.28515625 16.59375 C-3.85105469 17.3878125 -4.41695312 18.181875 -5 19 C-0.64159721 23.87596312 4.46199726 27.01918228 10 30.4375 C17.9094905 35.39087811 25.74628839 40.43081286 33.5 45.625 C34.36496094 46.20435303 35.22992188 46.78370605 36.12109375 47.38061523 C37.66145041 48.41375532 39.20126176 49.44770951 40.74023438 50.48291016 C43.08806277 52.10915833 43.08806277 52.10915833 46.08470154 53.68328857 C49 56 49 56 49.82496643 59.01382446 C49.85122604 60.19213837 49.87748566 61.37045227 49.90454102 62.58447266 C49.92958238 63.56305803 49.92958238 63.56305803 49.95512962 64.56141281 C49.99107547 66.7225347 49.9718357 68.87790427 49.94140625 71.0390625 C49.93637683 72.16184034 49.93637683 72.16184034 49.9312458 73.30730057 C49.77532125 90.69740497 45.56459176 106.6091307 40.59759521 123.16009521 C39.03759836 128.39455899 37.54991309 133.65018291 36.05482483 138.9034729 C35.26568191 141.67612896 34.45696439 144.44178066 33.63108826 147.20370483 C33.27063919 148.43505157 32.91019012 149.66639832 32.53881836 150.93505859 C32.05583534 152.55328018 32.05583534 152.55328018 31.56309509 154.20419312 C31.00867602 156.95692292 31.04347957 158.39932007 32 161 C33.76949612 161.50471197 35.54065223 162.00360685 37.3125 162.5 C38.29863281 162.7784375 39.28476562 163.056875 40.30078125 163.34375 C43.02287203 164.11812196 43.02287203 164.11812196 46 164 C47.50288287 158.62580218 49.00254776 153.25071352 50.5 147.875 C50.72420624 147.07032288 50.94841248 146.26564575 51.17941284 145.43658447 C54.7376987 132.65496626 58.20704513 119.85232968 61.57421875 107.01904297 C62.03441406 105.27324951 62.03441406 105.27324951 62.50390625 103.4921875 C62.77017822 102.47495605 63.0364502 101.45772461 63.31079102 100.40966797 C64 98 64 98 65 96 C67.97 96 70.94 96 74 96 C75.50288287 101.37419782 77.00254776 106.74928648 78.5 112.125 C78.83630936 113.33201569 78.83630936 113.33201569 79.17941284 114.56341553 C82.7376987 127.34503374 86.20704513 140.14767032 89.57421875 152.98095703 C90.03441406 154.72675049 90.03441406 154.72675049 90.50390625 156.5078125 C90.77017822 157.52504395 91.0364502 158.54227539 91.31079102 159.59033203 C91.91567509 161.98469381 91.91567509 161.98469381 93 164 C94.56365584 163.71459486 96.12588434 163.42136502 97.6875 163.125 C98.55761719 162.96257812 99.42773438 162.80015625 100.32421875 162.6328125 C103.02667865 161.9936906 105.43643208 161.05547631 108 160 C105.88083827 150.28022275 103.38804815 140.72976165 100.546875 131.1953125 C83.45898448 73.36743447 83.45898448 73.36743447 90 56 C95.05997561 48.99397822 102.61500435 45.60137137 110.22363281 41.95361328 C116.68233719 38.74083168 122.53153136 34.4682842 128.46478271 30.39205933 C131.71639485 28.16800344 134.99948202 25.99169304 138.28125 23.8125 C139.39664075 23.06924503 140.51189188 22.32578046 141.62695312 21.58203125 C142.41005859 21.05996094 143.19316406 20.53789062 144 20 C143.04454634 18.53977837 142.08553322 17.08188532 141.125 15.625 C140.59132812 14.81289062 140.05765625 14.00078125 139.5078125 13.1640625 C138.04134945 10.92405904 138.04134945 10.92405904 136 9 C131.45857676 9.24878364 128.2199051 11.54852865 124.58203125 14.05078125 C123.97230469 14.4613829 123.36257812 14.87198456 122.734375 15.29502869 C121.43164442 16.17346911 120.13121693 17.05533309 118.83291626 17.94030762 C116.79483007 19.32450076 114.74533431 20.69009629 112.69213867 22.05175781 C106.96847098 25.86159203 101.30321092 29.64769298 95.96875 33.99609375 C85.87834766 42.07696681 76.05375824 44.62676516 63.07421875 43.5546875 C51.74513865 41.70421387 42.94389835 34.61165673 34.06098938 27.79888916 C28.44110916 23.50091295 22.54177784 19.70002847 16.55645752 15.93505859 C14.90004913 14.89079198 13.251462 13.83415248 11.60302734 12.77734375 C7.56937631 9.66021017 7.56937631 9.66021017 3 8 Z " fill="#0F0E0D" transform="translate(14,0)"/>
<path d="M0 0 C1.98 0.99 3.96 1.98 6 3 C4.60580513 7.66131417 1.97151638 10.23172772 -1.625 13.3125 C-2.140625 13.76689453 -2.65625 14.22128906 -3.1875 14.68945312 C-4.4512443 15.80108006 -5.72467176 16.9016822 -7 18 C-9.62187494 16.95125002 -10.79371361 16.35068687 -12.25 13.875 C-12.4975 13.25625 -12.745 12.6375 -13 12 C-12.31292969 11.38511719 -11.62585938 10.77023438 -10.91796875 10.13671875 C-10.01691406 9.32847656 -9.11585937 8.52023438 -8.1875 7.6875 C-7.29417969 6.88699219 -6.40085938 6.08648437 -5.48046875 5.26171875 C-3.60073214 3.54775419 -1.77407253 1.82122396 0 0 Z " fill="#0E0F0C" transform="translate(137,100)"/>
<path d="M0 0 C1.98 0.66 3.96 1.32 6 2 C6 5.76687864 5.76462683 6.91190305 4 10 C1.03824877 9.38722388 -0.38058783 8.74627478 -3 7 C-1.125 2.25 -1.125 2.25 0 0 Z " fill="#0E0F0E" transform="translate(143,90)"/>
<path d="M0 0 C2.62187494 1.04874998 3.79371361 1.64931313 5.25 4.125 C5.4975 4.74375 5.745 5.3625 6 6 C4.35 7.32 2.7 8.64 1 10 C-0.65 8.35 -2.3 6.7 -4 5 C-3 2 -3 2 0 0 Z " fill="#0E0E0E" transform="translate(28,100)"/>
</svg>
