<?xml version="1.0" encoding="UTF-8"?>
<svg version="1.1" xmlns="http://www.w3.org/2000/svg" width="185" height="184">
<path d="M0 0 C3.61691275 2.09780939 4.68291409 3.04874226 6 7 C7.62164916 21.86511732 -3.90855532 36.2574228 -12.62841797 47.30371094 C-15.23333086 50.52530844 -17.91878938 53.67581779 -20.625 56.8125 C-21.15101807 57.42246826 -21.67703613 58.03243652 -22.21899414 58.66088867 C-22.7371167 59.25361572 -23.25523926 59.84634277 -23.7890625 60.45703125 C-24.30114258 61.04693848 -24.81322266 61.6368457 -25.34082031 62.24462891 C-27 64 -27 64 -29.02636719 65.68896484 C-30.99860756 67.36561027 -32.57342402 68.83786362 -34 71 C-34.26486407 74.27872101 -33.13183094 76.95419227 -32 80 C-31.27822496 82.26158447 -30.55690546 84.52331436 -29.8359375 86.78515625 C-29.02024631 89.21249536 -28.1998367 91.63825338 -27.375 94.0625 C-26.74464844 95.93325195 -26.74464844 95.93325195 -26.1015625 97.84179688 C-25.07181153 100.89594465 -24.03786449 103.94860185 -23 107 C-22.23558594 106.51402344 -21.47117188 106.02804688 -20.68359375 105.52734375 C-17.3997385 103.65836645 -15.72987766 103.46716033 -12 104 C-8.65231265 105.73822228 -6.56246548 107.09516422 -4.5625 110.3125 C-3.77874273 114.05711806 -3.93103347 116.29005734 -5 120 C-7.4962822 123.46670392 -10.35101973 126.60981491 -13.61938477 129.36523438 C-15.43622499 131.14713932 -15.43622499 131.14713932 -14.87890625 134.953125 C-14.02901439 140.66532336 -12.4825528 146.19354563 -10.9375 151.75 C-10.37833199 153.76402848 -9.82473461 155.77961378 -9.27734375 157.796875 C-8.90984009 159.11703613 -8.90984009 159.11703613 -8.53491211 160.46386719 C-7.97075675 163.13864852 -7.69326493 165.27906978 -8 168 C-9.95897065 170.97203833 -12.58591839 173.32809899 -15.125 175.8125 C-15.79015625 176.50537109 -16.4553125 177.19824219 -17.140625 177.91210938 C-17.79804688 178.56630859 -18.45546875 179.22050781 -19.1328125 179.89453125 C-19.72980957 180.49112549 -20.32680664 181.08771973 -20.94189453 181.70239258 C-23.70542979 183.44476386 -25.79946573 183.22521019 -29 183 C-36.57143168 166.29980204 -43.99634698 149.53616914 -51.33117676 132.73077393 C-52.23305346 130.66561346 -53.13644772 128.60111504 -54.04138184 126.53729248 C-55.32763328 123.60231128 -56.60794211 120.66480684 -57.88671875 117.7265625 C-58.46564125 116.40933197 -58.46564125 116.40933197 -59.05625916 115.06549072 C-61.06638917 110.42713286 -62.74182221 105.89792115 -64 101 C-68.57266576 104.46199242 -73.03858578 108.00967554 -77.37158203 111.76904297 C-85.82941932 119.09283909 -94.85936706 125.56004368 -104 132 C-103.2997569 141.00151209 -100.34067872 149.40566191 -97.70703125 157.99804688 C-97.34738281 159.20912109 -96.98773438 160.42019531 -96.6171875 161.66796875 C-96.11614502 163.31188599 -96.11614502 163.31188599 -95.60498047 164.98901367 C-94.9715506 168.14159262 -95.01034859 169.96190974 -96 173 C-97.67935528 175.11993571 -99.27989986 176.93003293 -101.1875 178.8125 C-101.65736328 179.31458984 -102.12722656 179.81667969 -102.61132812 180.33398438 C-105.18356559 182.91324022 -106.48881084 183.97762445 -110.18481445 184.1394043 C-111.11382568 184.09340088 -112.04283691 184.04739746 -113 184 C-114.797224 179.99846717 -116.59366284 175.99658304 -118.3894043 171.99438477 C-118.9992195 170.63556617 -119.60924166 169.27684043 -120.21948242 167.91821289 C-121.10130603 165.95483947 -121.98236172 163.99112294 -122.86328125 162.02734375 C-123.39219971 160.84906006 -123.92111816 159.67077637 -124.46606445 158.45678711 C-124.97226318 157.31604736 -125.47846191 156.17530762 -126 155 C-126.28459076 154.37666779 -126.56918152 153.75333557 -126.86239624 153.1111145 C-128.15428552 150.22433287 -129 148.20069746 -129 145 C-130.3303125 145.1546875 -130.3303125 145.1546875 -131.6875 145.3125 C-135 145 -135 145 -137.875 142.875 C-140.32150834 139.56501812 -140.46707789 138.01686987 -140 134 C-140.66676758 133.89945313 -141.33353516 133.79890625 -142.02050781 133.6953125 C-145.75434706 132.82396096 -149.16236369 131.384046 -152.671875 129.875 C-153.39489807 129.56804199 -154.11792114 129.26108398 -154.862854 128.94482422 C-156.38332621 128.29815402 -157.9028216 127.64918284 -159.42138672 126.99804688 C-161.75385665 125.99834704 -164.08952412 125.00643739 -166.42578125 124.015625 C-167.9038393 123.38587054 -169.38171062 122.7556776 -170.859375 122.125 C-171.56036316 121.82706543 -172.26135132 121.52913086 -172.98358154 121.22216797 C-177.88397249 119.11602751 -177.88397249 119.11602751 -179 118 C-179.57234158 113.92870425 -179.27956975 112.38725213 -176.83984375 109.0078125 C-175.88826521 108.03115769 -174.92014357 107.07039303 -173.9375 106.125 C-173.47150391 105.62742187 -173.00550781 105.12984375 -172.52539062 104.6171875 C-169.93769914 102.0541407 -168.40799082 101.03121894 -164.7487793 100.7512207 C-160.90029371 101.00661678 -157.63274615 101.72093485 -153.9296875 102.78515625 C-152.60808946 103.1543561 -151.28647437 103.52349493 -149.96484375 103.89257812 C-147.91232491 104.47771092 -145.86092027 105.06655679 -143.81005859 105.6574707 C-141.8107481 106.23009801 -139.80802835 106.78932265 -137.8046875 107.34765625 C-136.61858887 107.68804932 -135.43249023 108.02844238 -134.21044922 108.37915039 C-130.97924077 109.0040145 -129.09592637 109.05237563 -126 108 C-123.70970081 105.60999969 -123.70970081 105.60999969 -121.6875 102.5625 C-120.89847632 101.45737474 -120.10808987 100.3532213 -119.31640625 99.25 C-118.55199219 98.1775 -117.78757813 97.105 -117 96 C-110.43443211 87.47126231 -103.62098988 78.62098988 -96 71 C-107.91202681 65.36077149 -119.93941993 60.00027717 -132 54.6875 C-133.91263929 53.84335604 -135.8252367 52.99911719 -137.73779297 52.15478516 C-148.77815238 47.28392403 -159.82580109 42.43045226 -170.91796875 37.6784668 C-176.8950755 35.1049245 -176.8950755 35.1049245 -178 34 C-178.3137618 31.10506902 -178.3432789 29.527332 -176.73413086 27.05541992 C-174.81917477 25.08021683 -172.89761668 23.1180579 -170.9375 21.1875 C-170.28072266 20.49462891 -169.62394531 19.80175781 -168.94726562 19.08789062 C-168.29306641 18.43369141 -167.63886719 17.77949219 -166.96484375 17.10546875 C-166.3730835 16.50887451 -165.78132324 15.91228027 -165.17163086 15.29760742 C-161.18919628 12.91799643 -157.17354173 13.75925747 -152.7902832 14.65844727 C-151.72124756 14.95807373 -150.65221191 15.2577002 -149.55078125 15.56640625 C-147.78444336 16.0469043 -147.78444336 16.0469043 -145.98242188 16.53710938 C-143.52392468 17.22402317 -141.06559278 17.91152885 -138.60742188 18.59960938 C-137.43373047 18.91865234 -136.26003906 19.23769531 -135.05078125 19.56640625 C-133.98512939 19.86490479 -132.91947754 20.16340332 -131.8215332 20.47094727 C-129.02383375 20.99553104 -127.60718754 21.05852752 -125 20 C-122.63780838 17.96327214 -122.63780838 17.96327214 -120.375 15.5 C-115.25568381 10.12556838 -115.25568381 10.12556838 -110.25 9.625 C-106.89941932 9.64941225 -105.15105468 10.24398646 -102.5625 12.375 C-99.54632169 15.46474364 -99.05424417 16.04168632 -98.8125 20.3125 C-98.99010873 23.80547165 -99.6290839 25.85176976 -101 29 C-96.31928221 30.58390238 -91.62564263 32.11554607 -86.91308594 33.60205078 C-85.31417093 34.1142083 -83.71959173 34.64012016 -82.12988281 35.18017578 C-73.34729184 38.53080075 -73.34729184 38.53080075 -64.33422852 38.15014648 C-62.22515664 36.6004448 -60.67150451 35.00771147 -59 33 C-57.97742749 32.04776316 -56.94521724 31.10574062 -55.90234375 30.17578125 C-54.91295054 29.22250691 -53.92469683 28.2680487 -52.9375 27.3125 C-39.34311671 14.51448238 -19.78601483 -2.49960309 0 0 Z M-56.74169922 41.94287109 C-57.32064941 42.58434082 -57.89959961 43.22581055 -58.49609375 43.88671875 C-59.25490845 44.77750122 -59.25490845 44.77750122 -60.02905273 45.6862793 C-63.11748826 47.74485375 -65.33690971 47.34820949 -69 47 C-72.32608822 46.23896464 -75.55319334 45.23362692 -78.80078125 44.19140625 C-79.71836716 43.90522934 -80.63595306 43.61905243 -81.5813446 43.32420349 C-84.49472865 42.41288779 -87.40350165 41.48770737 -90.3125 40.5625 C-92.28683629 39.94378935 -94.26144322 39.32594163 -96.23632812 38.70898438 C-99.83533296 37.57995596 -103.4340312 36.45007798 -107.02856445 35.30688477 C-107.74913528 35.07816177 -108.46970612 34.84943878 -109.21211243 34.61378479 C-111 34 -111 34 -113 33 C-112.68237076 29.40020192 -111.76194661 27.5360319 -109.375 24.9375 C-106.70080664 22.31886137 -106.70080664 22.31886137 -107.1875 19.625 C-107.455625 19.08875 -107.72375 18.5525 -108 18 C-114.07783529 18.50828872 -116.50076893 22.48721583 -120.3046875 26.84765625 C-123.82017086 29.65494803 -125.57120534 29.27562349 -130 29 C-132.16711042 28.55543494 -134.31906472 28.03062765 -136.44921875 27.43359375 C-137.62677734 27.11326172 -138.80433594 26.79292969 -140.01757812 26.46289062 C-142.47607532 25.77597683 -144.93440722 25.08847115 -147.39257812 24.40039062 C-149.15311523 23.92182617 -149.15311523 23.92182617 -150.94921875 23.43359375 C-152.54769653 22.98584595 -152.54769653 22.98584595 -154.1784668 22.52905273 C-156.96115538 22.00728358 -158.40088677 21.96020785 -161 23 C-162.75600676 24.60744878 -162.75600676 24.60744878 -164.25 26.5625 C-165.16666667 27.70833333 -166.08333333 28.85416667 -167 30 C-157.91655979 34.64987674 -148.76848032 38.94262354 -139.375 42.9375 C-136.77213378 44.05166281 -134.17094256 45.16969105 -131.5703125 46.2890625 C-130.89319214 46.58031509 -130.21607178 46.87156769 -129.51843262 47.17164612 C-124.03238824 49.53845989 -118.57173458 51.96001614 -113.1171875 54.3984375 C-112.29378876 54.7662886 -111.47039001 55.13413971 -110.62203979 55.51313782 C-107.35462264 56.97380373 -104.08770853 58.43552168 -100.82391357 59.90426636 C-98.55583515 60.92489873 -96.28588132 61.94125482 -94.015625 62.95703125 C-93.33370087 63.26575165 -92.65177673 63.57447205 -91.94918823 63.89254761 C-88.60553494 65.47545199 -88.60553494 65.47545199 -85 66 C-86.20909367 71.71636592 -88.27056004 74.94004927 -92.4375 79.0625 C-103.94312286 91.00419098 -113.39573391 104.51766338 -123 118 C-132.11073986 117.38726005 -140.65264967 114.75078524 -149.37524414 112.2121582 C-151.36791752 111.63532545 -153.36494626 111.0763787 -155.36328125 110.51953125 C-157.13119019 110.01063354 -157.13119019 110.01063354 -158.93481445 109.49145508 C-161.90117087 108.78197511 -161.90117087 108.78197511 -164.28979492 109.7175293 C-166.28313939 111.06408395 -166.28313939 111.06408395 -168 114 C-156.13991014 119.6658801 -144.10364221 124.87768126 -132 130 C-132 132.31 -132 134.62 -132 137 C-129.36 137 -126.72 137 -124 137 C-123.63261719 138.19496094 -123.26523438 139.38992187 -122.88671875 140.62109375 C-120.66122971 147.29756088 -117.70507935 153.65514468 -114.8125 160.0625 C-114.24765492 161.32208993 -113.68319889 162.5818544 -113.11914062 163.84179688 C-111.74989682 166.89626383 -110.37676603 169.94891809 -109 173 C-106.525 171.02 -106.525 171.02 -104 169 C-105.52813321 160.33055138 -107.98987495 152.05203762 -110.609375 143.65820312 C-113.97505697 132.52175543 -113.97505697 132.52175543 -113 128 C-110.854691 125.72335355 -108.35875818 124.22399047 -105.6875 122.625 C-104.20328756 121.67306698 -102.721521 120.71730999 -101.2421875 119.7578125 C-100.51354492 119.29149414 -99.78490234 118.82517578 -99.03417969 118.34472656 C-94.39293199 115.27655657 -90.22489954 111.60662156 -86 108 C-84.89513058 107.06829922 -83.78963073 106.13734569 -82.68359375 105.20703125 C-81.53896511 104.24230304 -80.39443373 103.27745942 -79.25 102.3125 C-78.41915894 101.61290161 -78.41915894 101.61290161 -77.5715332 100.89916992 C-75.27639475 98.95926032 -73.00645049 97.00594726 -70.796875 94.96875 C-66.52158781 91.02805051 -66.52158781 91.02805051 -63.3125 90.85546875 C-62.549375 90.90316406 -61.78625 90.95085937 -61 91 C-57.07427629 98.59023416 -53.61419175 106.33471661 -50.25 114.1875 C-49.69923646 115.46535237 -49.14803582 116.74301641 -48.59643555 118.02050781 C-47.39383775 120.80603981 -46.19226156 123.59200806 -44.99169922 126.37841797 C-41.6542846 134.12310603 -38.31399982 141.86649948 -34.95861816 149.60342407 C-34.19548044 151.36563498 -33.43416327 153.12863541 -32.67468262 154.89242554 C-31.6064805 157.37290003 -30.5324252 159.85076173 -29.45703125 162.328125 C-29.13674454 163.07570572 -28.81645782 163.82328644 -28.48646545 164.59352112 C-26.73725586 168.61583427 -26.73725586 168.61583427 -24 172 C-22.78654632 171.03165791 -21.60485992 170.02343884 -20.4375 169 C-19.77621094 168.443125 -19.11492187 167.88625 -18.43359375 167.3125 C-16.25643742 163.8005748 -17.13791385 160.83201387 -18 157 C-19.23842441 151.86342969 -20.60742753 146.76356442 -22.00390625 141.66796875 C-22.40802734 140.12689453 -22.40802734 140.12689453 -22.8203125 138.5546875 C-23.19567139 137.16999268 -23.19567139 137.16999268 -23.57861328 135.75732422 C-24.07137225 132.53297901 -23.81091953 130.15366632 -23 127 C-21.18545605 124.83160583 -19.49635701 123.01678372 -17.4375 121.125 C-16.91736328 120.62742187 -16.39722656 120.12984375 -15.86132812 119.6171875 C-14.58532211 118.39971388 -13.29413056 117.19819008 -12 116 C-12.66 114.68 -13.32 113.36 -14 112 C-17.25900191 112.36211132 -18.10242829 113.10768102 -20.4375 115.5625 C-23 118 -23 118 -25.66015625 118.15234375 C-26.43230469 118.10207031 -27.20445312 118.05179687 -28 118 C-29.98131835 112.13035869 -31.95664463 106.25874756 -33.92651367 100.38525391 C-34.59708125 98.38861099 -35.26926548 96.39251025 -35.94311523 94.39697266 C-36.91298009 91.52388222 -37.87696043 88.6488741 -38.83984375 85.7734375 C-39.14091537 84.88570648 -39.441987 83.99797546 -39.75218201 83.08334351 C-41.19519848 78.75546096 -42.5683236 74.56839003 -43 70 C-41.953125 68.0859375 -41.953125 68.0859375 -40.25 66.375 C-39.59773437 65.69050781 -38.94546875 65.00601563 -38.2734375 64.30078125 C-37.52320313 63.54152344 -36.77296875 62.78226563 -36 62 C-13.55305356 39.50108235 -13.55305356 39.50108235 -1.8125 11.25 C-1.75348985 9.03119607 -1.75348985 9.03119607 -3 8 C-21.55990618 6.62349274 -45.08971016 28.94503973 -56.74169922 41.94287109 Z " fill="#000000" transform="translate(179,0)"/>
</svg>
