<?xml version="1.0" encoding="UTF-8"?>
<svg version="1.1" xmlns="http://www.w3.org/2000/svg" width="150" height="184">
<path d="M0 0 C0.58694535 2.14484816 1.16925187 4.29096556 1.75 6.4375 C1.93336914 7.10402588 2.11673828 7.77055176 2.30566406 8.45727539 C3.2965562 12.12128178 4.17537457 15.76866439 4.875 19.5 C6.62300468 28.57056604 8.65700995 34.04247977 16 40 C17.1732913 41.28801312 18.319555 42.60116574 19.4375 43.9375 C21.91377864 46.82742338 24.5062183 49.48843535 27.25 52.125 C34.17292795 58.96565207 39.88635169 66.84082197 45.7109375 74.61328125 C46.14865479 75.19303711 46.58637207 75.77279297 47.03735352 76.37011719 C48.23639731 77.96149601 49.42519669 79.56057891 50.61328125 81.16015625 C55.16004473 86.8610023 55.16004473 86.8610023 61.63305664 89.4831543 C64.72260972 89.71494029 67.77698125 89.79533118 70.875 89.8125 C71.94492188 89.83763672 73.01484375 89.86277344 74.1171875 89.88867188 C76.74516165 89.94733201 79.37147825 89.9837667 82 90 C84.21231563 94.80339347 86.34627168 99.49266966 87.6875 104.625 C87.91824219 105.48351562 88.14898437 106.34203125 88.38671875 107.2265625 C92.29346337 124.89400632 89.74792205 142.40849012 83 159 C82.39639648 158.96745117 81.79279297 158.93490234 81.17089844 158.90136719 C68.51547842 157.96085014 68.51547842 157.96085014 57.21875 162.4921875 C55.15931734 164.50622249 53.34145447 166.68279042 51.52734375 168.91796875 C47.93582699 173.29773185 43.7446416 176.00673617 39 179 C38.35546875 179.5053125 37.7109375 180.010625 37.046875 180.53125 C28.64132974 186.48793562 16.27881325 184.77241577 6.53515625 183.4140625 C3.16044482 182.69134944 3.16044482 182.69134944 1 184 C-1.88980391 184.17878097 -4.73325538 184.27779906 -7.625 184.3125 C-8.40746094 184.34150391 -9.18992188 184.37050781 -9.99609375 184.40039062 C-15.78680896 184.46281127 -20.18892427 183.30323233 -25 180 C-28.60096721 175.84503784 -29.56486181 172.43922743 -30 167 C-30.59167969 166.85304687 -31.18335937 166.70609375 -31.79296875 166.5546875 C-37.51617007 164.93015727 -40.88382417 163.3559272 -44 158 C-44.2734375 155.52734375 -44.2734375 155.52734375 -44.375 152.875 C-44.44510472 149.30364359 -44.44510472 149.30364359 -46.5 146.609375 C-48.29664855 145.66613451 -50.14833697 144.83005584 -52 144 C-54.93786344 140.76835021 -55.93364687 138.15012093 -56.1875 133.75 C-56 130 -56 130 -54.6875 126.5625 C-53.90891571 122.52801776 -54.20602419 122.04212077 -56.3125 118.75 C-56.78300781 118.10546875 -57.25351562 117.4609375 -57.73828125 116.796875 C-61.3137148 111.70492629 -60.50126568 104.922096 -60 99 C-58.32435426 93.31693644 -53.85430402 89.14920799 -49 86 C-36.15294373 79.52279336 -24.11074249 78.57843389 -10 78 C-12.72376433 68.50809399 -15.52085618 59.32998829 -20.125 50.5625 C-25.55281032 40.22021709 -29.88562308 30.76264352 -26.8125 19 C-24.18707547 11.1237264 -21.38674349 7.44883082 -13.875 3.625 C-9.06354809 1.38125559 -5.34401746 -0.1444329 0 0 Z M-7 10 C-14.81737955 14.42326024 -14.81737955 14.42326024 -19 22 C-20.63950862 32.21179652 -16.87095809 39.35356034 -12 48 C-5.28408933 60.68904781 -2.49157622 71.85634783 -1 86 C-1.67353516 86.0093457 -2.34707031 86.01869141 -3.04101562 86.02832031 C-27.04443531 86.26002537 -27.04443531 86.26002537 -49 95 C-52.39023172 98.71831866 -52.56978066 102.58284164 -52.41796875 107.43359375 C-51.53083157 112.88078186 -48.43635654 116.56364346 -44.625 120.375 C-37.93895921 124.51397763 -30.69433997 124.85361284 -23 124 C-18.53554377 122.56829157 -14.43389798 120.6022796 -10.25 118.5 C-9.15945312 117.97535156 -8.06890625 117.45070313 -6.9453125 116.91015625 C-4.28604631 115.62717695 -1.63901912 114.32399115 1 113 C0.40092859 109.51515777 0.14640675 109.11139644 -2.875 106.8125 C-7.59719191 104.07362869 -11.61628695 103.33672655 -17 104 C-19.01513444 104.61941716 -21.01503146 105.28982794 -23 106 C-28.04605478 107.76898263 -31.68761374 108.93199759 -37 108 C-39.17115788 106.16327475 -40.39759409 104.40360887 -42 102 C-41.31035156 101.96261719 -40.62070312 101.92523438 -39.91015625 101.88671875 C-35.17572605 101.55550347 -30.85389744 101.12508668 -26.375 99.5 C-18.47123108 96.65015082 -11.02663175 96.27397412 -3 99 C3.97869314 102.33176318 8.49434019 107.12615723 12 114 C12 114.66 12 115.32 12 116 C11.01 116.495 11.01 116.495 10 117 C11.15070252 120.45210757 12.66511031 121.34038263 15.43359375 123.53515625 C18.06933212 125.99999887 19.41640786 128.77190832 21 132 C21 132.66 21 133.32 21 134 C19.515 134.495 19.515 134.495 18 135 C19.32311027 137.89311672 20.80305739 140.08581133 22.9375 142.4375 C25.31854647 145.1387361 27.26835184 147.82531171 29 151 C25.535 151.99 25.535 151.99 22 153 C22 156.53410492 22.48474307 156.84881566 24.8125 159.3125 C27.83259377 162.51156229 28.86121741 164.72243483 31 169 C24.07 172.465 24.07 172.465 17 176 C17 176.66 17 177.32 17 178 C22.14562355 179.06706479 25.7988136 178.66899789 30.4296875 176.08984375 C37.98809837 170.93619276 47.0120931 164.72920454 52.24853516 157.20629883 C54.3425747 154.3060356 55.82237375 152.32764798 59.35253906 151.34545898 C62.04828017 151.08935853 64.66766394 151.0296721 67.375 151.0625 C68.30183594 151.04638672 69.22867188 151.03027344 70.18359375 151.01367188 C72.45724724 150.97851228 74.72634812 150.97480806 77 151 C83.37902823 134.71945817 83.37713843 117.62821611 78 101 C77.67 100.34 77.34 99.68 77 99 C75.06524487 98.58113103 75.06524487 98.58113103 72.73828125 98.47265625 C71.86623047 98.40240234 70.99417969 98.33214844 70.09570312 98.25976562 C68.25994176 98.12965201 66.42400454 98.00199314 64.58789062 97.87695312 C55.59776277 97.14481505 50.94722046 94.47020258 45.125 87.64453125 C42.11477615 83.89835194 39.27045215 80.0369354 36.41015625 76.17578125 C29.71223694 67.35015986 22.42467316 59.25144548 14.51171875 51.5078125 C11.70371275 48.70417354 9.09416165 45.78413516 6.53515625 42.75390625 C5.00337278 40.92352998 5.00337278 40.92352998 3.00610352 39.26806641 C0.56856399 36.51222581 0.10235183 34.54333808 -0.6328125 30.95703125 C-0.88160156 29.80138672 -1.13039062 28.64574219 -1.38671875 27.45507812 C-1.63035156 26.25302734 -1.87398437 25.05097656 -2.125 23.8125 C-2.62018833 21.42162914 -3.1224098 19.03220041 -3.6328125 16.64453125 C-3.84824707 15.58596924 -4.06368164 14.52740723 -4.28564453 13.43676758 C-4.52138184 12.63263428 -4.75711914 11.82850098 -5 11 C-5.66 10.67 -6.32 10.34 -7 10 Z M-5.078125 123.96875 C-19.06668631 130.87349183 -28.49959094 132.79936144 -43.98828125 129.33984375 C-44.98408203 129.17162109 -44.98408203 129.17162109 -46 129 C-47.30746709 130.09923541 -47.30746709 130.09923541 -47.3125 132.8125 C-47.24397128 135.99304815 -47.24397128 135.99304815 -45.5625 138.25 C-38.22137963 143.26344806 -26.50998659 143.35105265 -17.90380859 142.55322266 C-8.10392598 140.686186 1.16406305 135.47586469 10 131 C10 130.01 10 129.02 10 128 C8.0767867 126.30133498 8.0767867 126.30133498 5.625 124.8125 C4.40683594 124.01779297 4.40683594 124.01779297 3.1640625 123.20703125 C-0.30075407 121.27448916 -1.72665092 122.25717223 -5.078125 123.96875 Z M3.17578125 141.96875 C-10.41129016 149.14159855 -21.78943609 150.15201707 -37 149 C-36.63487596 153.57550359 -36.63487596 153.57550359 -33.6875 156.8125 C-25.09776098 160.60796608 -14.57714736 160.83834701 -5.71142578 157.91601562 C1.6962385 154.98266008 8.88330089 151.57650881 16 148 C16 147.01 16 146.02 16 145 C11.31041163 140.51883778 8.97433863 138.70274344 3.17578125 141.96875 Z M5.53881836 160.79492188 C-3.50955938 165.43867753 -10.8098409 167.23732539 -21 167 C-20.58422269 171.35836778 -20.58422269 171.35836778 -18.1875 174.8125 C-13.14412052 177.55033458 -7.60787163 177.69199386 -2 177 C2.05069251 175.67226536 5.80736169 173.88588275 9.625 172 C10.62917969 171.52304688 11.63335937 171.04609375 12.66796875 170.5546875 C15.12075067 169.38669611 17.56368267 168.20185688 20 167 C17.96913891 163.5110848 16.06415798 160.66878275 13 158 C10.0936772 158 8.06224652 159.48108803 5.53881836 160.79492188 Z " fill="#000000" transform="translate(60,0)"/>
</svg>
