<?xml version="1.0" encoding="utf-8"?>
<!DOCTYPE svg PUBLIC "-//W3C//DTD SVG 20010904//EN" "http://www.w3.org/TR/2001/REC-SVG-20010904/DTD/svg10.dtd">
<svg version="1.0" xmlns="http://www.w3.org/2000/svg" width="1862pt" height="1862pt" viewBox="0 0 1862 1862" preserveAspectRatio="xMidYMid meet">
<g fill="#FE0101FB">
<path d="M 845.00 1855.16 L 845.00 1849.32 L 825.34 1848.66 C 814.53 1848.30 796.10 1848.00 784.39 1848.00 C 758.82 1848.00 758.00 1847.78 758.00 1840.84 L 758.00 1836.00 L 742.15 1836.00 C 733.44 1836.00 722.21 1835.71 717.20 1835.35 L 708.09 1834.71 L 707.80 1829.10 L 707.50 1823.50 L 682.75 1823.23 L 658.00 1822.97 L 658.00 1816.98 L 658.00 1811.00 L 649.25 1810.99 C 644.44 1810.99 636.11 1810.70 630.75 1810.34 L 621.00 1809.70 L 621.00 1803.85 L 621.00 1798.00 L 608.50 1798.00 L 596.00 1798.00 L 596.00 1792.00 L 596.00 1786.00 L 587.25 1785.99 C 582.44 1785.99 574.11 1785.70 568.75 1785.34 L 559.00 1784.70 L 559.00 1778.85 L 559.00 1773.00 L 546.50 1773.00 L 534.00 1773.00 L 534.00 1766.50 L 534.00 1760.00 L 521.50 1760.00 L 509.00 1760.00 L 509.00 1754.00 L 509.00 1748.00 L 499.75 1747.80 C 494.66 1747.69 489.26 1747.58 487.75 1747.56 C 485.05 1747.52 485.00 1747.41 485.00 1741.26 L 485.00 1735.00 L 478.50 1735.00 L 472.00 1735.00 L 472.00 1729.00 L 472.00 1723.00 L 463.25 1722.99 C 458.44 1722.99 450.11 1722.70 444.75 1722.34 L 435.00 1721.70 L 435.00 1715.85 L 435.00 1710.00 L 429.05 1710.00 L 423.10 1710.00 L 422.80 1703.75 L 422.50 1697.50 L 416.25 1697.20 L 410.00 1696.90 L 410.00 1690.95 L 410.00 1685.00 L 398.00 1685.00 L 386.00 1685.00 L 386.00 1678.50 L 386.00 1672.00 L 379.50 1672.00 L 373.00 1672.00 L 373.00 1666.05 L 373.00 1660.10 L 366.75 1659.80 L 360.50 1659.50 L 360.20 1653.80 L 359.90 1648.10 L 354.20 1647.80 L 348.50 1647.50 L 348.21 1641.36 L 347.91 1635.22 L 335.96 1634.50 L 324.00 1633.78 L 324.00 1627.89 L 324.00 1622.00 L 317.50 1622.00 L 311.00 1622.00 L 311.00 1615.50 L 311.00 1609.00 L 305.00 1609.00 L 299.00 1609.00 L 299.00 1603.00 L 299.00 1597.00 L 292.50 1597.00 L 286.00 1597.00 L 286.00 1590.50 L 286.00 1584.00 L 280.00 1584.00 L 274.00 1584.00 L 274.00 1578.00 L 274.00 1572.00 L 268.05 1572.00 L 262.10 1572.00 L 261.80 1565.75 L 261.50 1559.50 L 255.50 1559.00 L 249.50 1558.50 L 249.20 1552.25 L 248.90 1546.00 L 243.06 1546.00 L 237.22 1546.00 L 236.50 1534.00 L 235.78 1522.00 L 229.89 1522.00 L 224.00 1522.00 L 224.00 1515.50 L 224.00 1509.00 L 218.00 1509.00 L 212.00 1509.00 L 212.00 1502.50 L 212.00 1496.00 L 206.11 1496.00 L 200.22 1496.00 L 199.50 1484.00 L 198.78 1472.00 L 192.89 1472.00 L 187.00 1472.00 L 187.00 1465.50 L 187.00 1459.00 L 181.00 1459.00 L 175.00 1459.00 L 175.00 1452.50 L 175.00 1446.00 L 168.50 1446.00 L 162.00 1446.00 L 162.00 1433.50 L 162.00 1421.00 L 156.00 1421.00 L 150.00 1421.00 L 150.00 1408.50 L 150.00 1396.00 L 143.50 1396.00 L 137.00 1396.00 L 137.00 1389.50 L 137.00 1383.00 L 130.92 1383.00 L 124.85 1383.00 L 125.02 1379.25 C 125.12 1377.19 125.15 1371.56 125.10 1366.75 L 125.00 1358.00 L 119.00 1358.00 L 113.00 1358.00 L 113.00 1345.50 L 113.00 1333.00 L 107.15 1333.00 L 101.30 1333.00 L 100.65 1323.85 C 100.29 1318.81 100.00 1310.49 100.00 1305.35 L 100.00 1296.00 L 94.05 1296.00 L 88.09 1296.00 L 87.80 1289.25 L 87.50 1282.50 L 81.75 1282.20 L 76.00 1281.90 L 76.00 1272.60 C 76.00 1267.49 75.71 1259.19 75.35 1254.15 L 74.70 1245.00 L 68.85 1245.00 L 63.00 1245.00 L 63.00 1220.00 L 63.00 1195.00 L 57.00 1195.00 L 51.00 1195.00 L 51.00 1179.15 C 51.00 1170.44 50.71 1159.21 50.35 1154.20 L 49.71 1145.09 L 44.60 1144.80 L 39.50 1144.50 L 38.87 1137.50 C 38.53 1133.65 38.19 1122.29 38.12 1112.25 L 38.00 1094.00 L 32.00 1094.00 L 26.00 1094.00 L 26.00 1050.25 C 26.00 1026.19 25.70 998.06 25.34 987.75 L 24.68 969.00 L 19.34 969.00 L 14.00 969.00 L 14.00 937.00 L 14.00 905.00 L 19.34 905.00 L 24.68 905.00 L 25.34 886.84 C 25.70 876.85 26.00 848.73 26.00 824.34 L 26.00 780.00 L 32.00 780.00 L 38.00 780.00 L 38.00 755.00 L 38.00 730.00 L 43.85 730.00 L 49.70 730.00 L 50.34 720.25 C 50.70 714.89 50.99 703.64 50.99 695.25 L 51.00 680.00 L 57.00 680.00 L 63.00 680.00 L 63.00 654.50 L 63.00 629.00 L 68.85 629.00 L 74.70 629.00 L 75.35 619.85 C 75.71 614.81 76.00 606.49 76.00 601.35 L 76.00 592.00 L 82.00 592.00 L 88.00 592.00 L 88.00 579.50 L 88.00 567.00 L 94.00 567.00 L 100.00 567.00 L 100.00 554.55 L 100.00 542.10 L 106.25 541.80 L 112.50 541.50 L 112.78 528.75 L 113.06 516.00 L 119.00 516.00 L 124.94 516.00 L 125.22 503.75 L 125.50 491.50 L 131.20 491.20 L 136.91 490.90 L 137.20 484.70 L 137.50 478.50 L 143.15 478.20 L 148.80 477.91 L 149.52 465.45 L 150.24 453.00 L 156.09 453.00 L 161.94 453.00 L 162.22 440.75 L 162.50 428.50 L 168.75 428.20 L 175.00 427.90 L 175.00 415.95 L 175.00 404.00 L 181.00 404.00 L 187.00 404.00 L 187.00 397.55 L 187.00 391.10 L 193.25 390.80 L 199.50 390.50 L 199.80 384.25 L 200.10 378.00 L 206.05 378.00 L 212.00 378.00 L 212.00 371.50 L 212.00 365.00 L 217.87 365.00 L 223.74 365.00 L 224.46 353.05 L 225.17 341.09 L 230.83 340.80 L 236.50 340.50 L 236.80 334.25 L 237.10 328.00 L 243.05 328.00 L 249.00 328.00 L 249.00 321.50 L 249.00 315.00 L 255.50 315.00 L 262.00 315.00 L 262.00 309.00 L 262.00 303.00 L 268.00 303.00 L 274.00 303.00 L 274.00 296.50 L 274.00 290.00 L 280.00 290.00 L 286.00 290.00 L 286.00 284.05 L 286.00 278.10 L 292.25 277.80 L 298.50 277.50 L 298.80 271.25 L 299.10 265.00 L 305.05 265.00 L 311.00 265.00 L 311.00 259.05 L 311.00 253.10 L 317.25 252.80 L 323.50 252.50 L 323.80 246.25 L 324.10 240.00 L 330.05 240.00 L 336.00 240.00 L 336.00 234.11 L 336.00 228.22 L 348.00 227.50 L 360.00 226.78 L 360.00 220.89 L 360.00 215.00 L 366.50 215.00 L 373.00 215.00 L 373.00 208.50 L 373.00 202.00 L 379.50 202.00 L 386.00 202.00 L 386.00 196.00 L 386.00 190.00 L 392.00 190.00 L 398.00 190.00 L 398.00 183.50 L 398.00 177.00 L 410.50 177.00 L 423.00 177.00 L 423.00 171.00 L 423.00 165.00 L 429.00 165.00 L 435.00 165.00 L 435.00 158.50 L 435.00 152.00 L 447.50 152.00 L 460.00 152.00 L 460.00 146.10 L 460.00 140.20 L 472.50 139.48 L 485.00 138.76 L 485.00 132.93 L 485.00 127.10 L 491.24 126.80 L 497.48 126.50 L 498.26 121.06 C 498.69 118.08 499.21 115.45 499.43 115.24 C 499.64 115.03 507.51 114.59 516.91 114.27 L 534.00 113.70 L 534.00 107.97 L 534.00 102.24 L 546.50 101.52 L 559.00 100.80 L 559.00 94.90 L 559.00 89.00 L 571.50 89.00 L 584.00 89.00 L 584.00 83.10 L 584.00 77.20 L 596.50 76.48 L 609.00 75.76 L 609.00 69.88 L 609.00 64.00 L 627.50 64.00 L 646.00 64.00 L 646.00 58.16 L 646.00 52.32 L 664.75 51.66 C 675.06 51.30 689.01 51.00 695.75 51.00 L 708.00 51.00 L 708.00 45.00 L 708.00 39.00 L 717.35 39.00 C 722.49 39.00 730.81 38.71 735.85 38.35 L 745.00 37.70 L 745.00 32.50 L 745.00 27.30 L 755.66 26.65 C 761.52 26.29 772.77 26.00 780.66 26.00 L 795.00 26.00 L 795.00 20.00 L 795.00 14.00 L 931.50 14.00 L 1068.00 14.00 L 1068.00 20.00 L 1068.00 26.00 L 1080.25 26.11 C 1086.99 26.16 1094.75 26.29 1097.50 26.38 C 1100.25 26.47 1105.76 26.65 1109.75 26.77 L 1117.00 27.00 L 1117.00 32.35 L 1117.00 37.70 L 1126.75 38.34 C 1132.11 38.70 1143.14 38.99 1151.25 38.99 L 1166.00 39.00 L 1166.00 45.00 L 1166.00 51.00 L 1181.25 51.01 C 1189.64 51.01 1200.89 51.30 1206.25 51.66 L 1216.00 52.30 L 1216.00 58.15 L 1216.00 64.00 L 1234.50 64.00 L 1253.00 64.00 L 1253.00 69.89 L 1253.00 75.78 L 1266.00 76.50 L 1279.00 77.22 L 1279.00 83.11 L 1279.00 89.00 L 1291.00 89.00 C 1298.33 89.00 1303.00 89.39 1303.00 90.00 C 1303.00 90.56 1305.67 91.00 1309.00 91.00 L 1315.00 91.00 L 1315.00 96.50 L 1315.00 102.00 L 1321.50 102.00 L 1328.00 102.00 L 1328.00 107.98 L 1328.00 113.95 L 1346.25 114.23 L 1364.50 114.50 L 1364.80 120.75 L 1365.10 127.00 L 1377.00 127.00 L 1388.90 127.00 L 1389.20 133.25 L 1389.50 139.50 L 1395.75 139.80 L 1402.00 140.10 L 1402.00 146.05 L 1402.00 152.00 L 1414.50 152.00 L 1427.00 152.00 L 1427.00 158.50 L 1427.00 165.00 L 1433.50 165.00 L 1440.00 165.00 L 1440.00 171.00 L 1440.00 177.00 L 1447.36 177.00 C 1451.41 177.00 1456.81 177.29 1459.36 177.64 L 1464.00 178.27 L 1464.00 183.59 L 1464.00 188.90 L 1470.25 189.20 L 1476.50 189.50 L 1476.80 195.75 L 1477.10 202.00 L 1483.05 202.00 L 1489.00 202.00 L 1489.00 207.89 L 1489.00 213.78 L 1501.00 214.50 L 1513.00 215.22 L 1513.00 221.11 L 1513.00 227.00 L 1519.50 227.00 L 1526.00 227.00 L 1526.00 233.50 L 1526.00 240.00 L 1532.50 240.00 L 1539.00 240.00 L 1539.00 246.00 L 1539.00 252.00 L 1545.00 252.00 L 1551.00 252.00 L 1551.00 258.45 L 1551.00 264.90 L 1557.25 265.20 L 1563.50 265.50 L 1563.80 271.11 L 1564.09 276.71 L 1572.30 277.46 C 1584.60 278.59 1584.51 278.58 1585.80 279.38 C 1586.48 279.80 1587.09 279.56 1587.20 278.81 C 1587.31 278.09 1587.65 283.12 1587.95 290.00 L 1588.50 302.50 L 1594.75 302.80 L 1601.00 303.10 L 1601.00 309.05 L 1601.00 315.00 L 1607.00 315.00 L 1613.00 315.00 L 1613.00 321.50 L 1613.00 328.00 L 1619.00 328.00 L 1625.00 328.00 L 1625.00 333.95 L 1625.00 339.90 L 1631.25 340.20 L 1637.50 340.50 L 1638.00 347.49 L 1638.50 354.47 L 1643.25 354.81 C 1646.68 355.06 1648.02 354.79 1648.07 353.83 C 1648.11 353.10 1648.53 353.40 1649.00 354.50 C 1649.47 355.60 1649.89 361.34 1649.93 367.25 L 1650.00 378.00 L 1656.50 378.00 L 1663.00 378.00 L 1663.00 384.50 L 1663.00 391.00 L 1669.00 391.00 L 1675.00 391.00 L 1675.00 397.00 L 1675.00 403.00 L 1681.00 403.00 L 1687.00 403.00 L 1687.00 415.45 L 1687.00 427.90 L 1693.25 428.20 L 1699.50 428.50 L 1699.80 434.75 L 1700.10 441.00 L 1706.05 441.00 L 1712.00 441.00 L 1712.00 453.50 L 1712.00 466.00 L 1717.95 466.00 L 1723.90 466.00 L 1724.20 472.25 L 1724.50 478.50 L 1730.50 479.00 L 1736.50 479.50 L 1736.77 497.75 L 1737.05 516.00 L 1742.90 516.00 L 1748.76 516.00 L 1749.48 528.45 L 1750.20 540.91 L 1755.85 541.20 L 1761.50 541.50 L 1761.78 553.75 L 1762.06 566.00 L 1768.03 566.00 L 1774.00 566.00 L 1774.00 572.50 L 1774.00 579.00 L 1779.87 579.00 L 1785.75 579.00 L 1786.48 603.95 L 1787.21 628.91 L 1792.86 629.20 L 1798.50 629.50 L 1798.77 648.25 L 1799.04 667.00 L 1805.02 667.00 L 1811.00 667.00 L 1811.00 682.85 C 1811.00 691.56 1811.29 702.81 1811.65 707.85 L 1812.30 717.00 L 1817.50 717.00 L 1822.70 717.00 L 1823.34 726.75 C 1823.70 732.11 1823.99 740.66 1823.99 745.75 L 1824.00 755.00 L 1829.99 755.00 L 1835.98 755.00 L 1836.24 805.25 L 1836.50 855.50 L 1842.25 855.80 L 1848.00 856.10 L 1848.00 925.05 L 1848.00 994.00 L 1842.65 994.00 L 1837.30 994.00 L 1836.65 1003.15 C 1836.29 1008.19 1836.00 1033.61 1836.00 1059.65 L 1836.00 1107.00 L 1830.12 1107.00 L 1824.24 1107.00 L 1823.50 1132.00 L 1822.76 1157.00 L 1817.53 1157.00 L 1812.30 1157.00 L 1811.66 1166.75 C 1811.30 1172.11 1811.01 1180.66 1811.01 1185.75 L 1811.00 1195.00 L 1805.00 1195.00 L 1799.00 1195.00 L 1799.00 1214.00 L 1799.00 1233.00 L 1793.12 1233.00 L 1787.24 1233.00 L 1786.50 1258.00 L 1785.76 1283.00 L 1779.88 1283.00 L 1774.00 1283.00 L 1774.00 1295.50 L 1774.00 1308.00 L 1768.12 1308.00 L 1762.24 1308.00 L 1761.52 1320.50 L 1760.80 1333.00 L 1754.90 1333.00 L 1749.00 1333.00 L 1749.00 1345.50 L 1749.00 1358.00 L 1743.00 1358.00 L 1737.00 1358.00 L 1737.00 1370.50 L 1737.00 1383.00 L 1731.12 1383.00 L 1725.24 1383.00 L 1724.52 1395.50 L 1723.80 1408.00 L 1717.90 1408.00 L 1712.00 1408.00 L 1712.00 1414.50 L 1712.00 1421.00 L 1706.12 1421.00 L 1700.24 1421.00 L 1699.52 1433.50 L 1698.80 1446.00 L 1692.90 1446.00 L 1687.00 1446.00 L 1687.00 1452.50 L 1687.00 1459.00 L 1681.00 1459.00 L 1675.00 1459.00 L 1675.00 1471.50 L 1675.00 1484.00 L 1668.50 1484.00 L 1662.00 1484.00 L 1662.00 1490.00 L 1662.00 1496.00 L 1656.00 1496.00 L 1650.00 1496.00 L 1650.00 1502.50 L 1650.00 1509.00 L 1644.00 1509.00 L 1638.00 1509.00 L 1638.00 1515.50 L 1638.00 1522.00 L 1632.10 1522.00 L 1626.20 1522.00 L 1625.48 1534.50 L 1624.76 1547.00 L 1618.88 1547.00 L 1613.00 1547.00 L 1613.00 1552.95 L 1613.00 1558.90 L 1606.75 1559.20 L 1600.50 1559.50 L 1600.20 1565.75 L 1599.90 1572.00 L 1593.95 1572.00 L 1588.00 1572.00 L 1588.00 1578.00 L 1588.00 1584.00 L 1582.00 1584.00 L 1576.00 1584.00 L 1576.00 1590.50 L 1576.00 1597.00 L 1569.50 1597.00 L 1563.00 1597.00 L 1563.00 1603.00 L 1563.00 1609.00 L 1557.00 1609.00 L 1551.00 1609.00 L 1551.00 1615.50 L 1551.00 1622.00 L 1544.50 1622.00 L 1538.00 1622.00 L 1538.00 1628.00 L 1538.00 1634.00 L 1532.00 1634.00 L 1526.00 1634.00 L 1526.00 1640.37 L 1526.00 1646.74 L 1514.05 1647.46 L 1502.09 1648.17 L 1501.80 1653.83 L 1501.50 1659.50 L 1495.25 1659.80 L 1489.00 1660.10 L 1489.00 1666.00 L 1489.00 1671.90 L 1482.75 1672.20 L 1476.50 1672.50 L 1476.20 1678.75 L 1475.90 1685.00 L 1464.00 1685.00 L 1452.10 1685.00 L 1451.80 1691.25 L 1451.50 1697.50 L 1445.25 1697.80 L 1439.00 1698.10 L 1439.00 1704.05 L 1439.00 1710.00 L 1433.00 1710.00 L 1427.00 1710.00 L 1427.00 1715.85 L 1427.00 1721.70 L 1417.25 1722.34 C 1411.89 1722.70 1403.56 1722.99 1398.75 1722.99 L 1390.00 1723.00 L 1390.00 1729.00 L 1390.00 1735.00 L 1383.50 1735.00 L 1377.00 1735.00 L 1377.00 1741.50 L 1377.00 1748.00 L 1365.00 1748.00 L 1353.00 1748.00 L 1353.00 1753.88 L 1353.00 1759.76 L 1340.50 1760.48 L 1328.00 1761.20 L 1328.00 1767.10 L 1328.00 1773.00 L 1315.50 1773.00 L 1303.00 1773.00 L 1303.00 1778.85 L 1303.00 1784.70 L 1293.25 1785.34 C 1287.89 1785.70 1279.56 1785.99 1274.75 1785.99 L 1266.00 1786.00 L 1266.00 1792.00 L 1266.00 1798.00 L 1253.50 1798.00 L 1241.00 1798.00 L 1241.00 1803.85 L 1241.00 1809.70 L 1231.85 1810.35 C 1226.81 1810.71 1218.49 1811.00 1213.35 1811.00 L 1204.00 1811.00 L 1204.00 1817.00 L 1204.00 1823.00 L 1188.15 1823.00 C 1179.44 1823.00 1168.19 1823.29 1163.15 1823.65 L 1154.00 1824.30 L 1154.00 1829.50 L 1154.00 1834.70 L 1144.85 1835.35 C 1139.81 1835.71 1125.86 1836.00 1113.85 1836.00 L 1092.00 1836.00 L 1092.00 1842.00 L 1092.00 1848.00 L 1079.75 1848.00 C 1073.01 1848.00 1059.06 1848.30 1048.75 1848.66 L 1030.00 1849.32 L 1030.00 1855.16 L 1030.00 1861.00 L 937.50 1861.00 L 845.00 1861.00 L 845.00 1855.16ZM 999.25 1760.34 L 1018.00 1759.68 L 1018.00 1753.85 L 1018.00 1748.02 L 1061.25 1747.76 L 1104.50 1747.50 L 1104.80 1741.91 L 1105.09 1736.31 L 1123.21 1735.66 C 1133.17 1735.30 1146.87 1735.00 1153.66 1735.00 L 1166.00 1735.00 L 1166.00 1729.00 L 1166.00 1723.00 L 1176.25 1722.99 C 1181.89 1722.99 1190.19 1722.70 1194.70 1722.35 L 1202.91 1721.71 L 1203.20 1716.11 C 1203.42 1712.00 1203.90 1710.46 1205.00 1710.37 C 1205.83 1710.29 1211.34 1710.18 1217.25 1710.12 L 1228.00 1710.00 L 1228.00 1704.00 L 1228.00 1698.00 L 1237.35 1698.00 C 1242.49 1698.00 1250.81 1697.71 1255.85 1697.35 L 1265.00 1696.70 L 1265.00 1690.85 L 1265.00 1685.00 L 1278.00 1685.00 L 1291.00 1685.00 L 1291.00 1679.11 L 1291.00 1673.22 L 1303.00 1672.50 L 1315.00 1671.78 L 1315.00 1665.89 L 1315.00 1660.00 L 1321.50 1660.00 L 1328.00 1660.00 L 1328.00 1654.10 L 1328.00 1648.20 L 1340.50 1647.48 L 1353.00 1646.76 L 1353.00 1640.88 L 1353.00 1635.00 L 1365.00 1635.00 L 1377.00 1635.00 L 1377.00 1629.10 L 1377.00 1623.20 L 1389.39 1622.49 L 1401.77 1621.77 L 1402.49 1609.39 L 1403.20 1597.00 L 1415.10 1597.00 L 1427.00 1597.00 L 1427.00 1591.05 L 1427.00 1585.10 L 1433.25 1584.80 L 1439.50 1584.50 L 1439.80 1578.25 L 1440.10 1572.00 L 1452.05 1572.00 L 1464.00 1572.00 L 1464.00 1565.50 L 1464.00 1559.00 L 1470.00 1559.00 L 1476.00 1559.00 L 1476.00 1553.00 L 1476.00 1547.00 L 1482.50 1547.00 L 1489.00 1547.00 L 1489.00 1540.50 L 1489.00 1534.00 L 1495.00 1534.00 L 1501.00 1534.00 L 1501.00 1528.05 L 1501.00 1522.10 L 1507.25 1521.80 L 1513.50 1521.50 L 1513.80 1515.25 L 1514.10 1509.00 L 1520.00 1509.00 L 1525.90 1509.00 L 1526.20 1502.75 L 1526.50 1496.50 L 1532.75 1496.20 L 1539.00 1495.90 L 1539.00 1489.95 L 1539.00 1484.00 L 1545.00 1484.00 L 1551.00 1484.00 L 1551.00 1477.50 L 1551.00 1471.00 L 1556.90 1471.00 L 1562.80 1471.00 L 1563.52 1458.50 L 1564.24 1446.00 L 1570.12 1446.00 L 1576.00 1446.00 L 1576.00 1440.00 L 1576.00 1434.00 L 1582.00 1434.00 L 1588.00 1434.00 L 1588.00 1427.50 L 1588.00 1421.00 L 1593.90 1421.00 L 1599.80 1421.00 L 1600.52 1408.50 L 1601.24 1396.00 L 1607.12 1396.00 L 1613.00 1396.00 L 1613.00 1383.50 L 1613.00 1371.00 L 1619.50 1371.00 L 1626.00 1371.00 L 1626.00 1365.05 L 1626.00 1359.10 L 1631.75 1358.80 L 1637.50 1358.50 L 1637.80 1351.75 L 1638.09 1345.00 L 1644.01 1345.00 L 1649.94 1345.00 L 1650.22 1332.75 L 1650.50 1320.50 L 1656.10 1320.20 L 1661.71 1319.91 L 1662.35 1310.80 C 1662.71 1305.79 1663.00 1297.49 1663.00 1292.35 L 1663.00 1283.00 L 1669.00 1283.00 L 1675.00 1283.00 L 1675.00 1270.50 L 1675.00 1258.00 L 1680.88 1258.00 L 1686.76 1258.00 L 1687.48 1245.55 L 1688.20 1233.09 L 1693.85 1232.80 L 1699.50 1232.50 L 1699.77 1213.75 L 1700.04 1195.00 L 1706.00 1195.00 L 1711.96 1195.00 L 1712.23 1176.25 L 1712.50 1157.50 L 1718.10 1157.20 L 1723.71 1156.91 L 1724.35 1147.80 C 1724.71 1142.79 1725.00 1131.56 1725.00 1122.85 L 1725.00 1107.00 L 1730.95 1107.00 L 1736.91 1107.00 L 1737.39 1080.25 C 1737.66 1065.54 1738.06 1052.15 1738.27 1050.50 C 1738.49 1048.85 1739.00 1044.80 1739.41 1041.50 C 1740.59 1032.09 1740.64 1032.00 1745.07 1032.00 L 1749.00 1032.00 L 1749.00 937.50 L 1749.00 843.00 L 1744.55 843.00 C 1740.28 843.00 1740.07 842.86 1739.61 839.75 C 1738.05 829.25 1736.98 808.73 1736.99 789.75 L 1737.00 768.00 L 1731.00 768.00 L 1725.00 768.00 L 1724.99 752.25 C 1724.99 743.59 1724.70 732.11 1724.34 726.75 L 1723.70 717.00 L 1717.85 717.00 L 1712.00 717.00 L 1712.00 698.00 L 1712.00 679.00 L 1706.02 679.00 L 1700.04 679.00 L 1699.77 660.25 L 1699.50 641.50 L 1693.78 641.20 L 1688.06 640.90 L 1687.78 628.70 L 1687.50 616.50 L 1681.25 616.20 L 1675.00 615.90 L 1675.00 603.45 L 1675.00 591.00 L 1669.00 591.00 L 1663.00 591.00 L 1663.00 581.65 C 1663.00 576.51 1662.71 568.19 1662.35 563.15 L 1661.70 554.00 L 1655.85 554.00 L 1650.00 554.00 L 1650.00 541.50 L 1650.00 529.00 L 1644.00 529.00 L 1638.00 529.00 L 1638.00 522.50 L 1638.00 516.00 L 1632.13 516.00 L 1626.26 516.00 L 1625.54 504.00 L 1624.82 492.00 L 1618.91 492.00 L 1613.00 492.00 L 1613.00 479.00 L 1613.00 466.00 L 1607.05 466.00 L 1601.10 466.00 L 1600.80 459.75 L 1600.50 453.50 L 1594.25 453.20 L 1588.00 452.90 L 1588.00 446.95 L 1588.00 441.00 L 1582.00 441.00 L 1576.00 441.00 L 1576.00 434.50 L 1576.00 428.00 L 1570.10 428.00 L 1564.20 428.00 L 1563.48 415.50 L 1562.76 403.00 L 1556.88 403.00 L 1551.00 403.00 L 1551.00 397.00 L 1551.00 391.00 L 1545.00 391.00 L 1539.00 391.00 L 1539.00 384.50 L 1539.00 378.00 L 1532.50 378.00 L 1526.00 378.00 L 1526.00 371.50 L 1526.00 365.00 L 1520.00 365.00 L 1514.00 365.00 L 1514.00 359.00 L 1514.00 353.00 L 1508.11 353.00 C 1501.37 353.00 1501.00 352.58 1501.00 344.92 L 1501.00 340.00 L 1495.00 340.00 L 1489.00 340.00 L 1489.00 334.00 L 1489.00 328.00 L 1483.00 328.00 L 1477.00 328.00 L 1477.00 321.50 L 1477.00 315.00 L 1470.50 315.00 L 1464.00 315.00 L 1464.00 309.05 L 1464.00 303.10 L 1457.75 302.80 L 1451.50 302.50 L 1451.20 296.25 L 1450.90 290.00 L 1438.95 290.00 L 1427.00 290.00 L 1427.00 283.50 L 1427.00 277.00 L 1421.00 277.00 L 1415.00 277.00 L 1415.00 271.00 L 1415.00 265.00 L 1408.50 265.00 L 1402.00 265.00 L 1402.00 259.11 L 1402.00 253.22 L 1390.00 252.50 L 1378.00 251.78 L 1378.00 246.01 L 1378.00 240.24 L 1365.50 239.52 L 1353.00 238.80 L 1353.00 232.90 L 1353.00 227.00 L 1346.50 227.00 L 1340.00 227.00 L 1340.00 221.11 L 1340.00 215.22 L 1328.00 214.50 L 1316.00 213.78 L 1316.00 207.89 L 1316.00 202.00 L 1303.50 202.00 L 1291.00 202.00 L 1291.00 196.11 L 1291.00 190.22 L 1278.00 189.50 L 1265.00 188.78 L 1265.00 182.89 L 1265.00 177.00 L 1259.06 177.00 C 1255.79 177.00 1252.83 176.54 1252.48 175.97 C 1252.13 175.41 1251.32 175.01 1250.67 175.09 C 1250.03 175.17 1247.59 175.18 1245.25 175.12 L 1241.00 175.00 L 1241.00 170.15 L 1241.00 165.30 L 1231.85 164.65 C 1226.81 164.29 1218.49 164.00 1213.35 164.00 L 1204.00 164.00 L 1204.00 158.15 L 1204.00 152.30 L 1194.25 151.66 C 1188.89 151.30 1180.56 151.01 1175.75 151.01 L 1167.00 151.00 L 1167.00 145.00 L 1167.00 139.00 L 1136.00 139.00 L 1105.00 139.00 L 1105.00 133.15 L 1105.00 127.30 L 1095.25 126.66 C 1089.89 126.30 1078.64 126.01 1070.25 126.01 L 1055.00 126.00 L 1055.00 120.62 L 1055.00 115.24 L 1043.75 114.64 C 1031.86 114.02 924.32 113.54 858.25 113.83 L 819.00 114.00 L 819.00 120.00 L 819.00 126.00 L 800.75 126.00 C 790.71 126.00 774.06 126.30 763.75 126.66 L 745.00 127.32 L 745.00 133.14 L 745.00 138.97 L 720.25 139.23 L 695.50 139.50 L 695.20 145.10 L 694.91 150.71 L 685.80 151.35 C 680.79 151.71 672.49 152.00 667.35 152.00 L 658.00 152.00 L 658.00 158.00 L 658.00 164.00 L 648.65 164.00 C 643.51 164.00 635.21 164.29 630.20 164.65 L 621.09 165.29 L 620.80 170.36 C 620.44 176.50 619.86 176.76 605.75 176.90 L 596.00 177.00 L 596.00 182.88 L 596.00 188.76 L 583.50 189.48 L 571.00 190.20 L 571.00 196.10 L 571.00 202.00 L 559.00 202.00 L 547.00 202.00 L 547.00 207.88 L 547.00 213.76 L 534.50 214.48 L 522.00 215.20 L 522.00 221.10 L 522.00 227.00 L 515.50 227.00 L 509.00 227.00 L 509.00 232.89 L 509.00 238.78 L 497.00 239.50 L 485.00 240.22 L 485.00 245.99 L 485.00 251.76 L 472.50 252.48 L 460.00 253.20 L 460.00 259.10 L 460.00 265.00 L 453.50 265.00 L 447.00 265.00 L 447.00 271.50 L 447.00 278.00 L 441.00 278.00 L 435.00 278.00 L 435.00 284.00 L 435.00 290.00 L 423.05 290.00 L 411.10 290.00 L 410.80 296.25 L 410.50 302.50 L 404.25 302.80 L 398.00 303.10 L 398.00 309.05 L 398.00 315.00 L 391.50 315.00 L 385.00 315.00 L 385.00 321.50 L 385.00 328.00 L 379.00 328.00 L 373.00 328.00 L 373.00 334.00 L 373.00 340.00 L 367.05 340.00 L 361.10 340.00 L 360.80 346.25 L 360.50 352.50 L 354.25 352.80 L 348.00 353.10 L 348.00 359.05 L 348.00 365.00 L 342.00 365.00 L 336.00 365.00 L 336.00 371.50 L 336.00 378.00 L 329.50 378.00 L 323.00 378.00 L 323.00 384.50 L 323.00 391.00 L 317.00 391.00 L 311.00 391.00 L 311.00 397.50 L 311.00 404.00 L 305.11 404.00 L 299.22 404.00 L 298.50 416.00 L 297.78 428.00 L 291.89 428.00 L 286.00 428.00 L 286.00 434.50 L 286.00 441.00 L 280.05 441.00 L 274.10 441.00 L 273.80 447.25 L 273.50 453.50 L 267.86 453.80 L 262.22 454.09 L 261.50 466.05 L 260.78 478.00 L 254.89 478.00 L 249.00 478.00 L 249.00 485.00 L 249.00 492.00 L 243.11 492.00 L 237.22 492.00 L 236.50 504.00 L 235.78 516.00 L 229.89 516.00 L 224.00 516.00 L 224.00 528.50 L 224.00 541.00 L 218.12 541.00 L 212.24 541.00 L 211.52 553.50 L 210.80 566.00 L 204.90 566.00 L 199.00 566.00 L 199.00 572.50 L 199.00 579.00 L 193.00 579.00 L 187.00 579.00 L 187.00 598.00 L 187.00 617.00 L 181.10 617.00 L 175.20 617.00 L 174.48 629.50 L 173.76 642.00 L 167.88 642.00 L 162.00 642.00 L 162.00 654.50 L 162.00 667.00 L 156.00 667.00 L 150.00 667.00 L 149.99 682.75 C 149.99 691.41 149.70 702.89 149.34 708.25 L 148.70 718.00 L 143.50 718.00 L 138.30 718.00 L 137.65 727.15 C 137.29 732.19 137.00 746.36 137.00 758.65 L 137.00 781.00 L 131.00 781.00 L 125.00 781.00 L 124.79 806.75 C 124.68 820.91 124.74 840.49 124.93 850.25 L 125.27 868.00 L 119.14 868.00 L 113.00 868.00 L 113.00 937.00 L 113.00 1006.00 L 119.14 1006.00 L 125.28 1006.00 L 124.94 1030.25 C 124.75 1043.59 124.68 1060.69 124.80 1068.25 L 125.00 1082.00 L 131.00 1082.00 L 137.00 1082.00 L 137.00 1103.85 C 137.00 1115.86 137.29 1129.81 137.65 1134.85 L 138.30 1144.00 L 143.54 1144.00 L 148.77 1144.00 L 149.51 1169.50 L 150.25 1195.00 L 156.12 1195.00 L 162.00 1195.00 L 162.00 1207.50 L 162.00 1220.00 L 168.00 1220.00 L 174.00 1220.00 L 174.00 1232.45 L 174.00 1244.90 L 180.25 1245.20 L 186.50 1245.50 L 186.77 1264.25 L 187.04 1283.00 L 193.02 1283.00 L 199.00 1283.00 L 199.00 1295.50 L 199.00 1308.00 L 204.90 1308.00 L 210.80 1308.00 L 211.52 1320.50 L 212.24 1333.00 L 218.12 1333.00 L 224.00 1333.00 L 224.00 1339.50 L 224.00 1346.00 L 228.00 1346.00 C 230.29 1346.00 232.00 1346.48 232.00 1347.12 C 232.00 1347.91 232.43 1347.89 233.46 1347.03 C 235.43 1345.39 235.94 1347.82 236.25 1360.50 L 236.50 1370.50 L 242.50 1371.00 L 248.50 1371.50 L 248.78 1383.75 L 249.06 1396.00 L 254.91 1396.00 L 260.76 1396.00 L 261.48 1408.50 L 262.20 1421.00 L 268.10 1421.00 L 274.00 1421.00 L 274.00 1427.00 L 274.00 1433.00 L 280.00 1433.00 L 286.00 1433.00 L 286.00 1439.50 L 286.00 1446.00 L 291.95 1446.00 L 297.90 1446.00 L 298.20 1452.25 L 298.50 1458.50 L 304.75 1458.80 L 311.00 1459.10 L 311.00 1471.55 L 311.00 1484.00 L 317.50 1484.00 L 324.00 1484.00 L 324.00 1489.95 L 324.00 1495.90 L 329.75 1496.20 L 335.50 1496.50 L 335.80 1502.75 L 336.10 1509.00 L 342.00 1509.00 L 347.90 1509.00 L 348.20 1515.25 L 348.50 1521.50 L 354.75 1521.80 L 361.00 1522.10 L 361.00 1527.94 L 361.00 1533.78 L 372.90 1534.49 L 384.79 1535.21 L 385.51 1547.10 L 386.22 1559.00 L 392.11 1559.00 L 398.00 1559.00 L 398.00 1564.89 L 398.00 1570.78 L 409.96 1571.50 L 421.91 1572.22 L 422.21 1578.36 L 422.50 1584.50 L 434.75 1584.78 L 447.00 1585.06 L 447.00 1591.03 L 447.00 1597.00 L 452.95 1597.00 L 458.90 1597.00 L 459.20 1603.25 L 459.50 1609.50 L 465.75 1609.80 L 472.00 1610.10 L 472.00 1616.00 L 472.00 1621.90 L 478.25 1622.20 L 484.50 1622.50 L 484.80 1628.14 L 485.09 1633.78 L 497.05 1634.50 L 509.00 1635.22 L 509.00 1640.99 L 509.00 1646.76 L 521.50 1647.48 L 534.00 1648.20 L 534.00 1654.10 L 534.00 1660.00 L 541.25 1660.17 C 551.78 1660.42 556.34 1660.59 557.75 1660.81 C 558.59 1660.94 559.00 1662.97 559.00 1667.00 L 559.00 1673.00 L 565.50 1673.00 L 572.00 1673.00 L 572.00 1679.00 L 572.00 1685.00 L 589.95 1685.00 L 607.90 1685.00 L 608.20 1691.25 L 608.50 1697.50 L 626.75 1697.77 L 645.00 1698.05 L 645.00 1703.90 L 645.00 1709.76 L 657.45 1710.48 L 669.91 1711.20 L 670.20 1716.85 L 670.50 1722.50 L 688.75 1722.77 L 707.00 1723.05 L 707.00 1728.90 L 707.00 1734.75 L 731.95 1735.48 L 756.91 1736.21 L 757.20 1741.86 L 757.50 1747.50 L 800.75 1747.76 L 844.00 1748.02 L 844.00 1753.99 L 844.00 1759.96 L 862.75 1760.25 C 904.27 1760.91 981.61 1760.96 999.25 1760.34ZM 460.00 1402.00 L 460.00 1396.00 L 453.50 1396.00 L 447.00 1396.00 L 447.00 1390.00 L 447.00 1384.00 L 441.00 1384.00 L 435.00 1384.00 L 435.00 1352.50 L 435.00 1321.00 L 441.50 1321.00 L 448.00 1321.00 L 448.00 1314.50 L 448.00 1308.00 L 454.00 1308.00 L 460.00 1308.00 L 460.00 1302.00 L 460.00 1296.00 L 466.00 1296.00 L 472.00 1296.00 L 472.00 1289.55 L 472.00 1283.10 L 478.25 1282.80 L 484.50 1282.50 L 484.80 1276.25 L 485.10 1270.00 L 491.05 1270.00 L 497.00 1270.00 L 497.00 1264.00 L 497.00 1258.00 L 502.95 1258.00 L 508.90 1258.00 L 509.20 1251.75 L 509.50 1245.50 L 515.75 1245.20 L 522.00 1244.90 L 522.00 1238.95 L 522.00 1233.00 L 527.95 1233.00 L 533.90 1233.00 L 534.20 1226.75 L 534.50 1220.50 L 546.75 1220.22 L 559.00 1219.94 L 559.00 1214.02 L 559.00 1208.10 L 565.25 1207.80 L 571.50 1207.50 L 571.80 1201.25 L 572.10 1195.00 L 584.05 1195.00 L 596.00 1195.00 L 596.00 1189.05 L 596.00 1183.10 L 602.25 1182.80 L 608.50 1182.50 L 608.81 1177.53 C 608.99 1174.79 609.60 1171.98 610.19 1171.28 C 610.89 1170.43 614.02 1170.00 619.47 1170.00 C 623.99 1170.00 631.81 1169.71 636.85 1169.35 L 646.00 1168.70 L 646.00 1163.45 L 646.00 1158.20 L 658.50 1157.48 L 671.00 1156.76 L 671.00 1150.88 L 671.00 1145.00 L 680.35 1145.00 C 685.49 1145.00 693.81 1144.71 698.85 1144.35 L 708.00 1143.70 L 708.00 1137.85 L 708.00 1132.00 L 720.50 1132.00 L 733.00 1132.00 L 733.00 1126.00 L 733.00 1120.00 L 754.25 1119.99 C 765.94 1119.99 779.89 1119.70 785.25 1119.34 L 795.00 1118.70 L 795.00 1112.85 L 795.00 1107.00 L 931.00 1107.00 L 1067.00 1107.00 L 1067.00 1112.85 L 1067.00 1118.70 L 1076.75 1119.34 C 1082.11 1119.70 1096.06 1119.99 1107.75 1119.99 L 1129.00 1120.00 L 1129.00 1126.00 L 1129.00 1132.00 L 1135.75 1132.08 C 1139.46 1132.13 1145.09 1132.10 1148.25 1132.01 L 1154.00 1131.86 L 1154.00 1137.78 L 1154.00 1143.70 L 1163.15 1144.35 C 1168.19 1144.71 1176.51 1145.00 1181.65 1145.00 L 1191.00 1145.00 L 1191.00 1151.00 L 1191.00 1157.00 L 1200.35 1157.00 C 1205.49 1157.00 1213.81 1157.29 1218.85 1157.65 L 1228.00 1158.30 L 1228.00 1164.15 L 1228.00 1170.00 L 1240.50 1170.00 L 1253.00 1170.00 L 1253.00 1175.95 L 1253.00 1181.90 L 1259.25 1182.20 L 1265.50 1182.50 L 1265.80 1188.75 L 1266.10 1195.00 L 1278.00 1195.00 L 1289.90 1195.00 L 1290.20 1201.25 L 1290.50 1207.50 L 1302.75 1207.78 L 1315.00 1208.06 L 1315.00 1214.03 L 1315.00 1220.00 L 1321.50 1220.00 L 1328.00 1220.00 L 1328.00 1226.50 L 1328.00 1233.00 L 1334.00 1233.00 L 1340.00 1233.00 L 1340.00 1239.00 L 1340.00 1245.00 L 1346.50 1245.00 L 1353.00 1245.00 L 1353.00 1251.50 L 1353.00 1258.00 L 1359.00 1258.00 L 1365.00 1258.00 L 1365.00 1263.95 L 1365.00 1269.90 L 1371.25 1270.20 L 1377.50 1270.50 L 1377.80 1276.75 L 1378.10 1283.00 L 1384.05 1283.00 L 1390.00 1283.00 L 1390.00 1289.00 L 1390.00 1295.00 L 1396.00 1295.00 L 1402.00 1295.00 L 1402.00 1301.50 L 1402.00 1308.00 L 1408.00 1308.00 L 1414.00 1308.00 L 1414.00 1314.50 L 1414.00 1321.00 L 1420.50 1321.00 L 1427.00 1321.00 L 1427.00 1358.50 L 1427.00 1396.00 L 1414.50 1396.00 L 1402.00 1396.00 L 1402.00 1402.00 L 1402.00 1408.00 L 1383.50 1408.00 L 1365.00 1408.00 L 1365.00 1402.00 L 1365.00 1396.00 L 1352.50 1396.00 L 1340.00 1396.00 L 1340.00 1383.50 L 1340.00 1371.00 L 1334.00 1371.00 L 1328.00 1371.00 L 1328.00 1364.50 L 1328.00 1358.00 L 1322.00 1358.00 L 1316.00 1358.00 L 1316.00 1352.05 L 1316.00 1346.10 L 1309.75 1345.80 L 1303.50 1345.50 L 1303.20 1339.25 L 1302.90 1333.00 L 1297.00 1333.00 L 1291.10 1333.00 L 1290.80 1326.75 L 1290.50 1320.50 L 1284.25 1320.20 L 1278.00 1319.90 L 1278.00 1313.95 L 1278.00 1308.00 L 1272.00 1308.00 L 1266.00 1308.00 L 1266.00 1302.10 L 1266.00 1296.20 L 1253.50 1295.48 L 1241.00 1294.76 L 1241.00 1288.93 L 1241.00 1283.10 L 1234.75 1282.80 L 1228.50 1282.50 L 1228.20 1276.83 L 1227.91 1271.17 L 1215.95 1270.46 L 1204.00 1269.74 L 1204.00 1263.99 L 1204.00 1258.24 L 1191.50 1257.52 L 1179.00 1256.80 L 1179.00 1250.90 L 1179.00 1245.00 L 1160.50 1245.00 L 1142.00 1245.00 L 1142.00 1239.15 L 1142.00 1233.30 L 1132.85 1232.65 C 1127.81 1232.29 1119.49 1232.00 1114.35 1232.00 L 1105.00 1232.00 L 1105.00 1226.02 L 1105.00 1220.04 L 1086.25 1219.77 L 1067.50 1219.50 L 1067.20 1213.91 L 1066.91 1208.31 L 1048.79 1207.66 C 1038.83 1207.30 1024.90 1207.00 1017.84 1207.00 L 1005.00 1207.00 L 1005.00 1201.00 L 1005.00 1195.00 L 937.00 1195.00 L 869.00 1195.00 L 869.00 1201.00 L 869.00 1207.00 L 847.15 1207.00 C 835.14 1207.00 821.21 1207.29 816.20 1207.65 L 807.09 1208.29 L 806.80 1213.90 C 806.54 1218.82 806.26 1219.47 804.50 1219.28 C 803.40 1219.16 801.38 1219.10 800.00 1219.15 C 798.62 1219.20 785.69 1219.43 771.25 1219.65 L 745.00 1220.06 L 745.00 1225.91 L 745.00 1231.76 L 732.50 1232.48 L 720.00 1233.20 L 720.00 1239.10 C 720.00 1242.35 719.66 1244.95 719.25 1244.88 C 718.84 1244.82 710.51 1244.82 700.75 1244.88 L 683.00 1245.00 L 683.00 1250.90 L 683.00 1256.80 L 670.50 1257.52 L 658.00 1258.24 L 658.00 1264.07 L 658.00 1269.90 L 651.75 1270.20 L 645.50 1270.50 L 645.20 1276.17 L 644.91 1281.83 L 632.95 1282.54 L 621.00 1283.26 L 621.00 1289.01 L 621.00 1294.76 L 608.50 1295.48 L 596.00 1296.20 L 596.00 1302.10 L 596.00 1308.00 L 590.00 1308.00 L 584.00 1308.00 L 584.00 1313.95 L 584.00 1319.90 L 577.75 1320.20 L 571.50 1320.50 L 571.20 1326.75 L 570.90 1333.00 L 564.95 1333.00 L 559.00 1333.00 L 559.00 1339.50 L 559.00 1346.00 L 552.50 1346.00 L 546.00 1346.00 L 546.00 1352.00 L 546.00 1358.00 L 540.00 1358.00 L 534.00 1358.00 L 534.00 1364.50 L 534.00 1371.00 L 528.12 1371.00 L 522.24 1371.00 L 521.52 1383.50 L 520.80 1396.00 L 508.90 1396.00 L 497.00 1396.00 L 497.00 1402.00 L 497.00 1408.00 L 478.50 1408.00 L 460.00 1408.00 L 460.00 1402.00ZM 695.80 836.75 L 695.50 830.50 L 689.25 830.20 L 683.00 829.90 L 683.00 823.95 L 683.00 818.00 L 677.05 818.00 L 671.10 818.00 L 670.80 811.75 L 670.50 805.50 L 664.25 805.20 L 658.00 804.90 L 658.00 792.45 L 658.00 780.00 L 652.02 780.00 L 646.04 780.00 L 645.77 761.25 L 645.50 742.50 L 639.75 742.20 L 634.00 741.90 L 634.00 704.45 L 634.00 667.00 L 639.35 667.00 L 644.70 667.00 L 645.34 657.25 C 645.70 651.89 645.99 640.64 645.99 632.25 L 646.00 617.00 L 652.00 617.00 L 658.00 617.00 L 658.00 604.50 L 658.00 592.00 L 663.95 592.00 L 669.90 592.00 L 670.20 585.75 L 670.50 579.50 L 676.75 579.20 L 683.00 578.90 L 683.00 572.45 L 683.00 566.00 L 689.00 566.00 L 695.00 566.00 L 695.00 560.00 L 695.00 554.00 L 714.00 554.00 L 733.00 554.00 L 733.00 559.89 L 733.00 565.78 L 745.00 566.50 L 757.00 567.22 L 757.00 573.11 L 757.00 579.00 L 762.91 579.00 L 768.82 579.00 L 769.54 592.00 L 770.26 605.00 L 776.13 605.00 L 782.00 605.00 L 782.00 614.35 C 782.00 619.49 782.29 627.81 782.65 632.85 L 783.30 642.00 L 788.50 642.00 L 793.70 642.00 L 794.41 663.14 C 794.80 674.77 794.80 702.90 794.41 725.64 L 793.69 767.00 L 787.85 767.00 L 782.00 767.00 L 782.00 779.50 L 782.00 792.00 L 776.11 792.00 L 770.22 792.00 L 769.50 805.00 L 768.78 818.00 L 762.89 818.00 L 757.00 818.00 L 757.00 823.89 L 757.00 829.78 L 745.00 830.50 L 733.00 831.22 L 733.00 837.11 L 733.00 843.00 L 714.55 843.00 L 696.10 843.00 L 695.80 836.75ZM 1129.00 837.11 L 1129.00 831.22 L 1117.04 830.50 L 1105.09 829.78 L 1104.79 823.64 L 1104.50 817.50 L 1098.85 817.20 L 1093.20 816.91 L 1092.48 804.45 L 1091.76 792.00 L 1085.88 792.00 L 1080.00 792.00 L 1079.99 776.75 C 1079.99 768.36 1079.70 757.11 1079.34 751.75 L 1078.70 742.00 L 1073.35 742.00 L 1068.00 742.00 L 1068.00 698.50 L 1068.00 655.00 L 1073.35 655.00 L 1078.70 655.00 L 1079.34 645.25 C 1079.70 639.89 1079.99 628.64 1079.99 620.25 L 1080.00 605.00 L 1085.97 605.00 L 1091.94 605.00 L 1092.22 592.25 L 1092.50 579.50 L 1098.75 579.20 L 1105.00 578.90 L 1105.00 573.06 L 1105.00 567.22 L 1117.00 566.50 L 1129.00 565.78 L 1129.00 559.89 L 1129.00 554.00 L 1148.00 554.00 L 1167.00 554.00 L 1167.00 559.89 L 1167.00 565.78 L 1178.90 566.49 L 1190.79 567.21 L 1191.50 579.06 L 1192.22 590.91 L 1197.86 591.20 L 1203.50 591.50 L 1203.80 597.75 L 1204.10 604.00 L 1210.05 604.00 L 1216.00 604.00 L 1216.00 619.85 C 1216.00 628.56 1216.29 639.81 1216.65 644.85 L 1217.30 654.00 L 1222.65 654.00 L 1228.00 654.00 L 1228.00 698.50 L 1228.00 743.00 L 1222.65 743.00 L 1217.30 743.00 L 1216.65 752.15 C 1216.29 757.19 1216.00 768.44 1216.00 777.15 L 1216.00 793.00 L 1210.05 793.00 L 1204.10 793.00 L 1203.80 799.25 L 1203.50 805.50 L 1197.87 805.80 L 1192.23 806.09 L 1191.52 817.52 L 1190.81 828.95 L 1187.65 829.40 C 1185.92 829.64 1183.60 829.90 1182.50 829.96 C 1181.40 830.02 1177.46 830.32 1173.75 830.62 L 1167.00 831.17 L 1167.00 837.09 L 1167.00 843.00 L 1148.00 843.00 L 1129.00 843.00 L 1129.00 837.11Z"/></g>
</svg>
