<?xml version="1.0" encoding="utf-8"?>
<!DOCTYPE svg PUBLIC "-//W3C//DTD SVG 20010904//EN" "http://www.w3.org/TR/2001/REC-SVG-20010904/DTD/svg10.dtd">
<svg version="1.0" xmlns="http://www.w3.org/2000/svg" width="328pt" height="328pt" viewBox="0 0 328 328" preserveAspectRatio="xMidYMid meet">
<g fill="#3EB14DFC">
<path d="M 143.00 324.09 C 143.00 323.59 139.18 322.86 134.50 322.47 C 129.82 322.08 126.00 321.42 126.00 321.01 C 126.00 320.59 123.66 320.03 120.79 319.75 C 117.93 319.48 115.42 318.75 115.21 318.13 C 115.00 317.51 112.85 317.00 110.42 317.00 C 107.16 317.00 106.00 316.61 106.00 315.50 C 106.00 314.42 104.89 314.00 102.00 314.00 C 99.80 314.00 98.00 313.56 98.00 313.02 C 98.00 312.48 96.77 311.73 95.26 311.35 C 93.75 310.97 91.92 310.06 91.19 309.33 C 90.46 308.60 88.76 308.00 87.43 308.00 C 86.09 308.00 85.00 307.55 85.00 307.00 C 85.00 306.45 84.31 306.00 83.47 306.00 C 82.63 306.00 81.69 305.37 81.40 304.59 C 81.10 303.81 79.76 302.91 78.43 302.57 C 77.09 302.24 76.00 301.52 76.00 300.98 C 76.00 300.44 75.31 300.00 74.46 300.00 C 72.86 300.00 71.06 298.77 68.21 295.75 C 67.30 294.79 65.98 294.00 65.28 294.00 C 64.57 294.00 64.00 293.56 64.00 293.02 C 64.00 292.48 62.87 291.76 61.50 291.41 C 60.12 291.07 59.00 290.16 59.00 289.39 C 59.00 288.63 58.33 288.00 57.50 288.00 C 56.67 288.00 56.00 287.55 56.00 287.00 C 56.00 286.45 55.33 286.00 54.50 286.00 C 53.67 286.00 53.00 285.32 53.00 284.50 C 53.00 283.68 52.33 283.00 51.50 283.00 C 50.67 283.00 50.00 282.52 50.00 281.92 C 50.00 280.52 44.48 275.00 43.08 275.00 C 42.48 275.00 42.00 274.53 42.00 273.95 C 42.00 273.38 40.87 271.86 39.50 270.59 C 38.12 269.31 37.00 267.79 37.00 267.21 C 37.00 266.63 35.65 264.80 34.00 263.15 C 32.35 261.50 31.00 259.66 31.00 259.05 C 31.00 258.44 30.32 257.68 29.50 257.36 C 28.67 257.05 28.00 255.92 28.00 254.86 C 28.00 253.80 27.32 252.68 26.50 252.36 C 25.67 252.05 25.00 251.16 25.00 250.39 C 25.00 249.63 24.56 249.00 24.02 249.00 C 23.48 249.00 22.73 247.77 22.35 246.26 C 21.97 244.75 21.06 242.92 20.33 242.19 C 19.60 241.46 19.00 240.21 19.00 239.43 C 19.00 238.64 18.55 238.00 18.00 238.00 C 17.45 238.00 17.00 236.86 17.00 235.47 C 17.00 234.08 16.32 232.68 15.50 232.36 C 14.52 231.99 14.00 230.43 14.00 227.89 C 14.00 225.10 13.58 224.00 12.50 224.00 C 11.50 224.00 11.00 223.00 11.00 221.00 C 11.00 219.35 10.58 218.00 10.07 218.00 C 9.56 218.00 8.83 215.53 8.46 212.50 C 8.08 209.47 7.39 207.00 6.93 207.00 C 6.48 207.00 5.79 204.30 5.42 201.00 C 5.05 197.70 4.35 195.00 3.87 195.00 C 3.39 195.00 3.00 183.07 3.00 168.50 C 3.00 153.93 3.39 142.00 3.87 142.00 C 4.35 142.00 5.05 138.85 5.43 135.00 C 5.81 131.15 6.49 128.00 6.93 128.00 C 7.38 128.00 7.97 125.66 8.25 122.79 C 8.52 119.93 9.25 117.42 9.87 117.21 C 10.49 117.00 11.00 115.52 11.00 113.92 C 11.00 111.99 11.51 111.00 12.50 111.00 C 13.58 111.00 14.00 109.89 14.00 107.00 C 14.00 104.11 14.42 103.00 15.50 103.00 C 16.43 103.00 17.00 102.06 17.00 100.50 C 17.00 99.12 17.41 98.00 17.92 98.00 C 18.43 98.00 19.14 96.65 19.50 95.00 C 19.86 93.35 20.57 92.00 21.08 92.00 C 21.59 92.00 22.00 91.33 22.00 90.50 C 22.00 89.67 22.68 89.00 23.50 89.00 C 24.50 89.00 25.00 88.00 25.00 86.00 C 25.00 84.00 25.50 83.00 26.50 83.00 C 27.43 83.00 28.00 82.06 28.00 80.50 C 28.00 78.94 28.57 78.00 29.50 78.00 C 30.32 78.00 31.00 77.49 31.00 76.86 C 31.00 76.24 32.12 74.69 33.50 73.41 C 34.87 72.14 36.00 70.66 36.00 70.12 C 36.00 69.59 37.35 67.80 39.00 66.15 C 40.65 64.50 42.00 62.67 42.00 62.08 C 42.00 61.48 42.67 61.00 43.50 61.00 C 44.33 61.00 45.00 60.33 45.00 59.50 C 45.00 58.67 45.67 58.00 46.50 58.00 C 47.33 58.00 48.00 57.33 48.00 56.50 C 48.00 55.67 48.48 55.00 49.07 55.00 C 50.46 55.00 53.00 52.46 53.00 51.07 C 53.00 50.48 53.64 50.00 54.42 50.00 C 55.21 50.00 57.20 48.65 58.85 47.00 C 60.50 45.35 62.56 44.00 63.42 44.00 C 64.29 44.00 65.00 43.33 65.00 42.50 C 65.00 41.67 65.48 41.00 66.07 41.00 C 66.66 41.00 67.77 40.44 68.54 39.75 C 72.01 36.64 73.01 36.00 74.46 36.00 C 75.31 36.00 76.00 35.33 76.00 34.50 C 76.00 33.56 76.95 33.00 78.53 33.00 C 79.92 33.00 81.32 32.33 81.64 31.50 C 81.95 30.68 83.29 30.00 84.61 30.00 C 86.07 30.00 87.00 29.42 87.00 28.50 C 87.00 27.50 88.00 27.00 90.00 27.00 C 91.65 27.00 93.00 26.56 93.00 26.02 C 93.00 25.48 94.12 24.76 95.50 24.41 C 96.88 24.07 98.00 23.38 98.00 22.89 C 98.00 22.40 99.32 22.00 100.93 22.00 C 102.54 22.00 104.53 21.33 105.36 20.50 C 106.18 19.68 108.03 19.00 109.46 19.00 C 110.89 19.00 112.32 18.32 112.64 17.50 C 113.07 16.38 114.85 16.00 119.64 16.00 C 124.43 16.00 126.21 15.62 126.64 14.50 C 127.08 13.34 129.01 13.00 135.11 13.00 C 139.70 13.00 143.00 12.58 143.00 12.00 C 143.00 11.38 148.83 11.00 158.50 11.00 C 168.17 11.00 174.00 11.38 174.00 12.00 C 174.00 12.60 177.80 13.00 183.39 13.00 C 190.82 13.00 192.91 13.31 193.36 14.50 C 193.78 15.58 195.47 16.00 199.47 16.00 C 203.72 16.00 205.00 16.35 205.00 17.50 C 205.00 18.50 206.00 19.00 208.00 19.00 C 209.65 19.00 211.00 19.44 211.00 19.99 C 211.00 20.53 212.80 21.26 215.00 21.62 C 217.20 21.97 219.00 22.65 219.00 23.13 C 219.00 23.61 220.14 24.00 221.53 24.00 C 222.92 24.00 224.32 24.68 224.64 25.50 C 225.01 26.48 226.57 27.00 229.11 27.00 C 231.90 27.00 233.00 27.42 233.00 28.50 C 233.00 29.32 233.63 30.00 234.39 30.00 C 235.16 30.00 236.05 30.68 236.36 31.50 C 236.68 32.33 238.08 33.00 239.47 33.00 C 241.05 33.00 242.00 33.56 242.00 34.50 C 242.00 35.34 242.89 36.00 244.05 36.00 C 245.17 36.00 247.14 37.12 248.41 38.50 C 249.69 39.87 251.24 41.00 251.86 41.00 C 252.49 41.00 253.00 41.67 253.00 42.50 C 253.00 43.43 253.94 44.00 255.50 44.00 C 257.06 44.00 258.00 44.57 258.00 45.50 C 258.00 46.33 258.68 47.00 259.50 47.00 C 260.32 47.00 261.00 47.67 261.00 48.50 C 261.00 49.33 261.43 50.00 261.96 50.00 C 263.31 50.00 272.00 58.58 272.00 59.91 C 272.00 60.51 272.68 61.00 273.50 61.00 C 274.32 61.00 275.00 61.67 275.00 62.50 C 275.00 63.33 275.68 64.00 276.50 64.00 C 277.32 64.00 278.00 64.67 278.00 65.50 C 278.00 66.33 278.68 67.00 279.50 67.00 C 280.32 67.00 281.00 67.67 281.00 68.50 C 281.00 69.33 281.68 70.00 282.50 70.00 C 283.43 70.00 284.00 70.94 284.00 72.50 C 284.00 74.06 284.57 75.00 285.50 75.00 C 286.32 75.00 287.00 75.67 287.00 76.50 C 287.00 77.33 287.40 78.00 287.89 78.00 C 288.38 78.00 289.07 79.12 289.41 80.50 C 289.76 81.88 290.48 83.00 291.02 83.00 C 291.56 83.00 292.00 83.69 292.00 84.53 C 292.00 85.37 292.68 86.32 293.50 86.64 C 294.32 86.95 295.00 88.29 295.00 89.61 C 295.00 91.07 295.58 92.00 296.50 92.00 C 297.42 92.00 298.00 92.93 298.00 94.39 C 298.00 95.71 298.67 97.05 299.50 97.36 C 300.32 97.68 301.00 99.08 301.00 100.47 C 301.00 101.86 301.39 103.00 301.87 103.00 C 302.35 103.00 303.03 104.80 303.38 107.00 C 303.74 109.20 304.47 111.00 305.01 111.00 C 305.56 111.00 306.00 112.35 306.00 114.00 C 306.00 116.00 306.50 117.00 307.50 117.00 C 308.65 117.00 309.00 118.28 309.00 122.50 C 309.00 126.72 309.35 128.00 310.50 128.00 C 311.66 128.00 312.00 129.32 312.00 133.92 C 312.00 137.76 312.44 139.98 313.25 140.25 C 314.19 140.56 314.58 146.59 314.83 164.68 C 315.10 184.81 314.90 189.30 313.58 192.47 C 312.71 194.55 312.00 198.70 312.00 201.69 C 312.00 205.20 311.47 207.68 310.50 208.64 C 309.68 209.47 309.00 211.27 309.00 212.64 C 309.00 214.02 308.33 215.82 307.50 216.64 C 306.68 217.47 306.00 219.49 306.00 221.14 C 306.00 222.79 305.32 224.82 304.50 225.64 C 303.68 226.47 303.00 228.24 303.00 229.57 C 303.00 230.91 302.55 232.00 302.00 232.00 C 301.45 232.00 301.00 232.87 301.00 233.93 C 301.00 234.99 300.32 236.53 299.50 237.36 C 298.68 238.18 298.00 239.74 298.00 240.82 C 298.00 241.90 297.32 243.05 296.50 243.36 C 295.68 243.68 295.00 245.08 295.00 246.47 C 295.00 248.05 294.44 249.00 293.50 249.00 C 292.68 249.00 292.00 249.68 292.00 250.50 C 292.00 251.32 291.60 252.00 291.11 252.00 C 290.62 252.00 289.93 253.12 289.59 254.50 C 289.24 255.88 288.52 257.00 287.98 257.00 C 287.44 257.00 287.00 257.69 287.00 258.53 C 287.00 259.37 286.32 260.32 285.50 260.64 C 284.68 260.95 284.00 262.29 284.00 263.61 C 284.00 265.07 283.42 266.00 282.50 266.00 C 281.68 266.00 281.00 266.68 281.00 267.50 C 281.00 268.32 280.32 269.00 279.50 269.00 C 278.68 269.00 278.00 269.68 278.00 270.50 C 278.00 271.32 277.52 272.00 276.92 272.00 C 275.52 272.00 270.00 277.52 270.00 278.92 C 270.00 279.52 269.32 280.00 268.50 280.00 C 267.68 280.00 267.00 280.68 267.00 281.50 C 267.00 282.32 266.32 283.00 265.50 283.00 C 264.68 283.00 264.00 283.68 264.00 284.50 C 264.00 285.32 263.49 286.00 262.86 286.00 C 262.24 286.00 260.74 287.07 259.52 288.38 C 258.31 289.69 256.34 291.07 255.16 291.45 C 253.97 291.83 253.00 292.55 253.00 293.07 C 253.00 293.58 252.32 294.00 251.50 294.00 C 250.68 294.00 250.00 294.68 250.00 295.50 C 250.00 296.32 249.32 297.00 248.50 297.00 C 247.68 297.00 247.00 297.68 247.00 298.50 C 247.00 299.42 246.07 300.00 244.61 300.00 C 243.29 300.00 241.95 300.68 241.64 301.50 C 241.32 302.32 239.92 303.00 238.53 303.00 C 237.14 303.00 236.00 303.44 236.00 303.98 C 236.00 304.52 234.88 305.24 233.50 305.59 C 232.12 305.93 231.00 306.62 231.00 307.11 C 231.00 307.60 230.10 308.00 229.00 308.00 C 227.89 308.00 227.00 308.67 227.00 309.50 C 227.00 310.58 225.89 311.00 223.00 311.00 C 220.11 311.00 219.00 311.42 219.00 312.50 C 219.00 313.58 217.89 314.00 215.00 314.00 C 212.11 314.00 211.00 314.42 211.00 315.50 C 211.00 316.50 210.00 317.00 208.00 317.00 C 206.35 317.00 205.00 317.39 205.00 317.87 C 205.00 318.35 202.70 318.97 199.89 319.24 C 197.08 319.51 194.50 320.17 194.14 320.72 C 193.79 321.26 189.45 322.03 184.50 322.42 C 179.55 322.81 175.35 323.55 175.17 324.07 C 174.73 325.28 143.00 325.30 143.00 324.09ZM 179.75 307.25 C 180.03 306.41 182.44 306.00 187.08 306.00 C 192.56 306.00 194.00 305.69 194.00 304.50 C 194.00 303.41 195.12 303.00 198.07 303.00 C 200.36 303.00 202.80 302.34 203.64 301.50 C 204.47 300.68 206.46 300.00 208.07 300.00 C 209.68 300.00 211.00 299.59 211.00 299.08 C 211.00 298.57 212.35 297.86 214.00 297.50 C 215.65 297.14 217.00 296.43 217.00 295.92 C 217.00 295.41 218.12 295.00 219.50 295.00 C 221.06 295.00 222.00 294.43 222.00 293.50 C 222.00 292.50 223.00 292.00 225.00 292.00 C 227.00 292.00 228.00 291.50 228.00 290.50 C 228.00 289.57 228.94 289.00 230.50 289.00 C 232.06 289.00 233.00 288.43 233.00 287.50 C 233.00 286.57 233.94 286.00 235.50 286.00 C 236.88 286.00 238.00 285.54 238.00 284.97 C 238.00 284.40 238.79 283.65 239.75 283.29 C 240.71 282.94 242.49 281.60 243.70 280.32 C 244.91 279.05 246.38 278.00 246.95 278.00 C 247.53 278.00 248.00 277.32 248.00 276.50 C 248.00 275.57 248.94 275.00 250.50 275.00 C 251.88 275.00 253.00 274.56 253.00 274.01 C 253.00 272.49 256.29 269.00 257.72 269.00 C 258.43 269.00 259.00 268.52 259.00 267.92 C 259.00 267.33 260.35 265.50 262.00 263.85 C 263.65 262.20 265.00 260.21 265.00 259.42 C 265.00 258.64 265.45 258.00 266.00 258.00 C 266.55 258.00 267.00 257.32 267.00 256.50 C 267.00 255.68 267.68 255.00 268.50 255.00 C 269.32 255.00 270.00 254.32 270.00 253.50 C 270.00 252.68 270.68 252.00 271.50 252.00 C 272.32 252.00 273.00 251.32 273.00 250.50 C 273.00 249.68 273.42 249.00 273.93 249.00 C 274.45 249.00 275.17 248.03 275.55 246.84 C 275.93 245.66 277.31 243.69 278.62 242.48 C 279.93 241.26 281.00 239.30 281.00 238.10 C 281.00 236.91 281.68 235.68 282.50 235.36 C 283.32 235.05 284.00 233.71 284.00 232.39 C 284.00 230.93 284.58 230.00 285.50 230.00 C 286.44 230.00 287.00 229.05 287.00 227.43 C 287.00 226.01 287.68 224.18 288.50 223.36 C 289.32 222.53 290.00 220.54 290.00 218.93 C 290.00 217.32 290.44 216.00 290.99 216.00 C 291.53 216.00 292.26 214.20 292.62 212.00 C 292.97 209.80 293.62 208.00 294.07 208.00 C 294.51 208.00 295.18 205.97 295.55 203.50 C 295.92 201.03 296.63 199.00 297.11 199.00 C 297.61 199.00 298.00 185.77 298.00 169.00 C 298.00 152.50 297.61 139.00 297.14 139.00 C 296.67 139.00 296.00 136.67 295.67 133.83 C 295.33 130.98 294.66 128.39 294.17 128.08 C 293.69 127.76 292.98 125.81 292.60 123.75 C 292.22 121.69 291.48 120.00 290.95 120.00 C 290.43 120.00 290.00 118.68 290.00 117.07 C 290.00 115.46 289.32 113.47 288.50 112.64 C 287.68 111.82 287.00 109.99 287.00 108.57 C 287.00 106.95 286.44 106.00 285.50 106.00 C 284.50 106.00 284.00 105.00 284.00 103.00 C 284.00 101.00 283.50 100.00 282.50 100.00 C 281.68 100.00 281.00 99.33 281.00 98.50 C 281.00 97.67 280.55 97.00 280.00 97.00 C 279.45 97.00 279.00 95.88 279.00 94.50 C 279.00 93.03 278.43 92.00 277.61 92.00 C 276.84 92.00 275.93 90.88 275.59 89.50 C 275.24 88.12 274.52 87.00 273.98 87.00 C 273.44 87.00 273.00 86.31 273.00 85.47 C 273.00 84.63 272.32 83.68 271.50 83.36 C 270.68 83.05 270.00 82.16 270.00 81.39 C 270.00 80.63 269.32 80.00 268.50 80.00 C 267.68 80.00 267.00 79.52 267.00 78.94 C 267.00 76.83 248.17 58.00 246.06 58.00 C 245.48 58.00 245.00 57.33 245.00 56.50 C 245.00 55.67 244.31 55.00 243.46 55.00 C 241.86 55.00 240.06 53.77 237.21 50.75 C 236.30 49.79 234.98 49.00 234.28 49.00 C 233.57 49.00 233.00 48.60 233.00 48.11 C 233.00 47.62 231.88 46.93 230.50 46.59 C 229.12 46.24 228.00 45.52 228.00 44.98 C 228.00 44.44 226.65 44.00 225.00 44.00 C 223.00 44.00 222.00 43.50 222.00 42.50 C 222.00 41.58 221.07 41.00 219.61 41.00 C 218.29 41.00 216.95 40.33 216.64 39.50 C 216.32 38.68 214.92 38.00 213.53 38.00 C 212.14 38.00 211.00 37.57 211.00 37.05 C 211.00 36.52 209.31 35.78 207.25 35.40 C 205.19 35.02 203.23 34.29 202.89 33.78 C 202.56 33.27 200.42 32.60 198.14 32.29 C 195.86 31.99 194.00 31.41 194.00 31.00 C 194.00 30.60 190.76 30.04 186.79 29.75 C 182.80 29.47 179.41 28.74 179.21 28.12 C 178.66 26.47 138.31 26.56 137.76 28.21 C 137.52 28.95 134.58 29.57 130.18 29.82 C 126.23 30.04 123.00 30.57 123.00 30.99 C 123.00 31.40 121.20 32.03 119.00 32.38 C 116.80 32.74 115.00 33.41 115.00 33.88 C 115.00 34.35 113.10 34.99 110.77 35.30 C 108.45 35.62 106.38 36.35 106.19 36.94 C 105.99 37.52 104.75 38.00 103.42 38.00 C 101.94 38.00 101.00 38.58 101.00 39.50 C 101.00 40.50 100.00 41.00 98.00 41.00 C 96.00 41.00 95.00 41.50 95.00 42.50 C 95.00 43.43 94.06 44.00 92.50 44.00 C 91.12 44.00 90.00 44.41 90.00 44.92 C 90.00 45.43 88.65 46.14 87.00 46.50 C 85.35 46.86 84.00 47.57 84.00 48.08 C 84.00 48.59 83.33 49.00 82.50 49.00 C 81.67 49.00 81.00 49.63 81.00 50.39 C 81.00 51.16 79.88 52.07 78.50 52.41 C 77.13 52.76 76.00 53.48 76.00 54.02 C 76.00 54.56 75.33 55.00 74.50 55.00 C 73.67 55.00 73.00 55.67 73.00 56.50 C 73.00 57.33 72.33 58.00 71.50 58.00 C 70.67 58.00 70.00 58.45 70.00 59.00 C 70.00 59.55 69.33 60.00 68.50 60.00 C 67.67 60.00 67.00 60.67 67.00 61.50 C 67.00 62.33 66.31 63.00 65.47 63.00 C 64.62 63.00 62.61 64.35 61.00 66.00 C 59.39 67.65 57.60 69.00 57.03 69.00 C 56.47 69.00 56.00 69.85 56.00 70.89 C 56.00 71.93 55.33 73.05 54.50 73.36 C 53.68 73.68 53.00 74.40 53.00 74.97 C 53.00 75.54 51.26 77.69 49.14 79.75 C 47.02 81.81 44.93 84.62 44.50 86.00 C 44.07 87.38 42.66 89.49 41.36 90.70 C 40.06 91.91 39.00 93.83 39.00 94.95 C 39.00 96.11 38.34 97.00 37.50 97.00 C 36.67 97.00 36.00 97.89 36.00 99.00 C 36.00 100.10 35.56 101.00 35.02 101.00 C 34.48 101.00 33.76 102.12 33.41 103.50 C 33.07 104.87 32.39 106.00 31.90 106.00 C 31.42 106.00 30.74 107.80 30.38 110.00 C 30.03 112.20 29.39 114.00 28.95 114.00 C 28.52 114.00 27.86 115.35 27.50 117.00 C 27.14 118.65 26.43 120.00 25.92 120.00 C 25.41 120.00 25.00 122.03 25.00 124.50 C 25.00 127.83 24.61 129.00 23.50 129.00 C 22.37 129.00 22.00 130.21 22.00 133.89 C 22.00 137.32 21.55 138.96 20.50 139.36 C 18.24 140.23 18.24 196.00 20.50 196.00 C 21.67 196.00 22.00 197.33 22.00 202.00 C 22.00 206.67 22.33 208.00 23.50 208.00 C 24.58 208.00 25.00 209.11 25.00 212.00 C 25.00 214.20 25.41 216.00 25.92 216.00 C 26.43 216.00 27.14 217.35 27.50 219.00 C 27.86 220.65 28.52 222.00 28.95 222.00 C 29.39 222.00 30.03 223.80 30.38 226.00 C 30.74 228.20 31.47 230.00 32.01 230.00 C 32.56 230.00 33.00 230.64 33.00 231.43 C 33.00 232.21 33.60 233.46 34.33 234.19 C 35.06 234.92 35.97 236.75 36.35 238.26 C 36.73 239.77 37.48 241.00 38.02 241.00 C 38.56 241.00 39.00 241.68 39.00 242.50 C 39.00 243.32 39.67 244.00 40.50 244.00 C 41.33 244.00 42.00 244.68 42.00 245.50 C 42.00 246.32 42.40 247.00 42.89 247.00 C 43.38 247.00 44.07 248.12 44.41 249.50 C 44.76 250.88 45.48 252.00 46.02 252.00 C 46.56 252.00 47.00 252.68 47.00 253.50 C 47.00 254.32 47.67 255.00 48.50 255.00 C 49.33 255.00 50.00 255.68 50.00 256.50 C 50.00 257.32 50.67 258.00 51.50 258.00 C 52.43 258.00 53.00 258.94 53.00 260.50 C 53.00 262.06 53.57 263.00 54.50 263.00 C 55.33 263.00 56.00 263.68 56.00 264.50 C 56.00 265.32 56.67 266.00 57.50 266.00 C 58.33 266.00 59.00 266.63 59.00 267.39 C 59.00 268.16 60.10 269.06 61.43 269.39 C 62.77 269.73 64.15 270.90 64.50 272.00 C 64.85 273.10 66.23 274.27 67.57 274.61 C 68.90 274.94 70.00 275.84 70.00 276.61 C 70.00 277.37 70.67 278.00 71.50 278.00 C 72.33 278.00 73.00 278.68 73.00 279.50 C 73.00 280.32 73.67 281.00 74.50 281.00 C 75.33 281.00 76.00 281.40 76.00 281.89 C 76.00 282.38 77.12 283.07 78.50 283.41 C 79.88 283.76 81.00 284.48 81.00 285.02 C 81.00 285.56 81.67 286.00 82.50 286.00 C 83.33 286.00 84.00 286.68 84.00 287.50 C 84.00 288.50 85.00 289.00 87.00 289.00 C 89.00 289.00 90.00 289.50 90.00 290.50 C 90.00 291.42 90.93 292.00 92.39 292.00 C 93.71 292.00 95.05 292.68 95.36 293.50 C 95.68 294.32 97.08 295.00 98.47 295.00 C 99.86 295.00 101.00 295.41 101.00 295.92 C 101.00 296.43 102.35 297.14 104.00 297.50 C 105.65 297.86 107.00 298.52 107.00 298.95 C 107.00 299.39 108.80 300.03 111.00 300.38 C 113.20 300.74 115.00 301.47 115.00 302.01 C 115.00 302.56 116.83 303.00 119.07 303.00 C 121.36 303.00 123.80 303.66 124.64 304.50 C 125.64 305.50 128.13 306.00 132.07 306.00 C 135.33 306.00 138.00 306.42 138.00 306.93 C 138.00 308.45 142.46 308.77 161.42 308.63 C 174.77 308.53 179.44 308.18 179.75 307.25ZM 155.00 259.10 C 155.00 258.60 150.65 258.04 145.33 257.85 C 138.75 257.61 135.53 257.10 135.25 256.25 C 135.01 255.53 133.16 255.00 130.92 255.00 C 128.10 255.00 127.00 254.58 127.00 253.50 C 127.00 252.39 125.83 252.00 122.50 252.00 C 119.17 252.00 118.00 251.61 118.00 250.50 C 118.00 249.68 117.33 249.00 116.50 249.00 C 115.67 249.00 115.00 248.59 115.00 248.08 C 115.00 247.57 113.65 246.86 112.00 246.50 C 110.35 246.14 109.00 245.44 109.00 244.94 C 109.00 244.44 107.88 243.76 106.50 243.41 C 105.12 243.07 104.00 242.38 104.00 241.89 C 104.00 241.40 103.33 241.00 102.50 241.00 C 101.67 241.00 101.00 240.32 101.00 239.50 C 101.00 238.68 100.33 238.00 99.50 238.00 C 98.67 238.00 98.00 237.32 98.00 236.50 C 98.00 235.68 97.52 235.00 96.92 235.00 C 95.52 235.00 90.00 229.48 90.00 228.08 C 90.00 227.48 89.33 227.00 88.50 227.00 C 87.67 227.00 87.00 226.32 87.00 225.50 C 87.00 224.68 86.33 224.00 85.50 224.00 C 84.67 224.00 84.00 223.32 84.00 222.50 C 84.00 221.68 83.60 221.00 83.11 221.00 C 82.62 221.00 81.93 219.88 81.59 218.50 C 81.24 217.12 80.52 216.00 79.98 216.00 C 79.44 216.00 79.00 215.31 79.00 214.47 C 79.00 213.63 78.33 212.68 77.50 212.36 C 76.67 212.05 76.00 210.71 76.00 209.39 C 76.00 207.93 75.42 207.00 74.50 207.00 C 73.35 207.00 73.01 205.76 73.03 201.75 C 73.05 196.65 73.16 196.45 76.85 194.75 C 81.52 192.60 84.00 192.52 84.00 194.50 C 84.00 195.32 84.67 196.00 85.50 196.00 C 86.33 196.00 87.00 196.68 87.00 197.50 C 87.00 198.32 87.44 199.00 87.98 199.00 C 88.52 199.00 89.24 200.12 89.59 201.50 C 89.93 202.88 90.62 204.00 91.11 204.00 C 91.60 204.00 92.00 204.69 92.00 205.53 C 92.00 206.37 92.67 207.32 93.50 207.64 C 94.33 207.95 95.00 209.08 95.00 210.14 C 95.00 211.20 95.67 212.32 96.50 212.64 C 97.33 212.95 98.00 213.84 98.00 214.61 C 98.00 215.37 98.67 216.00 99.50 216.00 C 100.33 216.00 101.00 216.68 101.00 217.50 C 101.00 218.32 101.48 219.00 102.07 219.00 C 103.46 219.00 106.00 221.54 106.00 222.93 C 106.00 223.52 106.67 224.00 107.50 224.00 C 108.33 224.00 109.00 224.68 109.00 225.50 C 109.00 226.32 109.63 227.00 110.39 227.00 C 111.16 227.00 112.05 227.68 112.36 228.50 C 112.68 229.32 114.08 230.00 115.47 230.00 C 117.05 230.00 118.00 230.56 118.00 231.50 C 118.00 232.42 118.93 233.00 120.39 233.00 C 121.71 233.00 123.05 233.68 123.36 234.50 C 123.68 235.32 125.08 236.00 126.47 236.00 C 127.86 236.00 129.00 236.45 129.00 237.00 C 129.00 237.55 130.35 238.00 132.00 238.00 C 134.00 238.00 135.00 238.50 135.00 239.50 C 135.00 240.68 136.40 241.00 141.57 241.00 C 146.08 241.00 148.61 241.47 149.64 242.50 C 150.70 243.56 153.29 244.00 158.50 244.00 C 163.71 244.00 166.30 243.56 167.36 242.50 C 168.41 241.45 170.98 241.00 175.93 241.00 C 181.55 241.00 183.00 240.69 183.00 239.50 C 183.00 238.50 184.00 238.00 186.00 238.00 C 187.65 238.00 189.00 237.55 189.00 237.00 C 189.00 236.45 190.09 236.00 191.43 236.00 C 192.76 236.00 194.45 235.41 195.18 234.69 C 195.91 233.98 197.29 233.09 198.25 232.73 C 199.21 232.36 200.00 231.60 200.00 231.03 C 200.00 230.46 201.12 230.00 202.50 230.00 C 204.06 230.00 205.00 229.43 205.00 228.50 C 205.00 227.68 205.68 227.00 206.50 227.00 C 207.32 227.00 208.00 226.32 208.00 225.50 C 208.00 224.68 208.68 224.00 209.50 224.00 C 210.32 224.00 211.00 223.32 211.00 222.50 C 211.00 221.68 211.48 221.00 212.08 221.00 C 212.67 221.00 214.47 219.68 216.08 218.08 C 217.68 216.47 219.00 214.67 219.00 214.08 C 219.00 213.48 219.68 213.00 220.50 213.00 C 221.43 213.00 222.00 212.06 222.00 210.50 C 222.00 208.94 222.57 208.00 223.50 208.00 C 224.33 208.00 225.00 207.11 225.00 206.00 C 225.00 204.89 225.67 204.00 226.50 204.00 C 227.43 204.00 228.00 203.06 228.00 201.50 C 228.00 200.12 228.45 199.00 229.00 199.00 C 229.55 199.00 230.00 198.32 230.00 197.50 C 230.00 196.68 230.68 196.00 231.50 196.00 C 232.32 196.00 233.00 195.60 233.00 195.11 C 233.00 193.37 238.03 192.88 239.61 194.47 C 240.45 195.31 241.79 196.00 242.57 196.00 C 243.64 196.00 244.00 197.40 244.00 201.50 C 244.00 204.53 243.60 207.00 243.11 207.00 C 242.62 207.00 241.93 208.12 241.59 209.50 C 241.24 210.88 240.52 212.00 239.98 212.00 C 239.44 212.00 239.00 212.69 239.00 213.53 C 239.00 214.37 238.32 215.32 237.50 215.64 C 236.68 215.95 236.00 217.29 236.00 218.61 C 236.00 220.07 235.42 221.00 234.50 221.00 C 233.68 221.00 233.00 221.50 233.00 222.12 C 233.00 222.73 231.24 224.94 229.10 227.02 C 226.95 229.10 224.90 231.75 224.53 232.90 C 224.15 234.09 223.02 235.00 221.90 235.00 C 220.82 235.00 219.68 235.68 219.36 236.50 C 219.05 237.32 218.16 238.00 217.39 238.00 C 216.63 238.00 216.00 238.68 216.00 239.50 C 216.00 240.32 215.32 241.00 214.50 241.00 C 213.68 241.00 213.00 241.44 213.00 241.98 C 213.00 242.52 211.88 243.24 210.50 243.59 C 209.12 243.93 208.00 244.62 208.00 245.11 C 208.00 245.60 207.36 246.00 206.57 246.00 C 205.79 246.00 204.54 246.60 203.81 247.33 C 203.08 248.06 201.25 248.97 199.74 249.35 C 198.23 249.73 197.00 250.48 197.00 251.02 C 197.00 251.56 195.65 252.00 194.00 252.00 C 192.00 252.00 191.00 252.50 191.00 253.50 C 191.00 254.61 189.84 255.00 186.58 255.00 C 184.15 255.00 182.00 255.50 181.80 256.11 C 181.58 256.77 177.65 257.44 172.21 257.75 C 167.15 258.04 163.00 258.66 163.00 259.14 C 163.00 259.61 161.20 260.00 159.00 260.00 C 156.80 260.00 155.00 259.59 155.00 259.10ZM 116.75 150.31 C 115.79 150.06 115.00 149.03 115.00 148.03 C 115.00 147.03 114.33 145.95 113.50 145.64 C 112.67 145.32 112.00 144.41 112.00 143.61 C 112.00 142.82 111.46 141.99 110.80 141.77 C 109.18 141.23 109.00 115.25 110.61 114.21 C 111.21 113.82 112.02 111.84 112.39 109.81 C 112.83 107.39 113.75 105.90 115.03 105.49 C 116.12 105.15 117.00 104.45 117.00 103.93 C 117.00 103.42 119.03 103.00 121.50 103.00 C 124.83 103.00 126.00 103.39 126.00 104.50 C 126.00 105.33 126.67 106.00 127.50 106.00 C 128.32 106.00 129.00 106.67 129.00 107.50 C 129.00 108.33 129.68 109.00 130.50 109.00 C 131.49 109.00 132.00 109.99 132.00 111.92 C 132.00 113.52 132.54 115.01 133.20 115.23 C 134.93 115.81 134.98 138.17 133.25 138.75 C 132.56 138.98 132.00 140.48 132.00 142.08 C 132.00 144.01 131.49 145.00 130.50 145.00 C 129.68 145.00 129.00 145.74 129.00 146.64 C 129.00 150.10 122.92 151.92 116.75 150.31ZM 191.00 149.50 C 191.00 148.68 190.32 148.00 189.50 148.00 C 188.68 148.00 188.00 147.32 188.00 146.50 C 188.00 145.68 187.60 145.00 187.11 145.00 C 186.62 145.00 185.93 143.88 185.59 142.50 C 185.24 141.12 184.52 140.00 183.98 140.00 C 183.40 140.00 183.00 135.35 183.00 128.50 C 183.00 122.17 183.39 117.00 183.87 117.00 C 184.35 117.00 185.03 115.20 185.38 113.00 C 185.74 110.80 186.47 109.00 187.01 109.00 C 187.56 109.00 188.00 108.33 188.00 107.50 C 188.00 106.67 188.68 106.00 189.50 106.00 C 190.32 106.00 191.00 105.33 191.00 104.50 C 191.00 103.35 192.28 103.00 196.50 103.00 C 200.72 103.00 202.00 103.35 202.00 104.50 C 202.00 105.33 202.68 106.00 203.50 106.00 C 204.50 106.00 205.00 107.00 205.00 109.00 C 205.00 111.00 205.50 112.00 206.50 112.00 C 207.68 112.00 208.00 113.39 208.00 118.50 C 208.00 122.17 208.44 125.00 209.00 125.00 C 209.55 125.00 210.00 126.35 210.00 128.00 C 210.00 129.65 209.55 131.00 209.00 131.00 C 208.45 131.00 208.00 133.47 208.00 136.50 C 208.00 140.72 207.65 142.00 206.50 142.00 C 205.50 142.00 205.00 143.00 205.00 145.00 C 205.00 146.65 204.52 148.00 203.93 148.00 C 203.34 148.00 202.18 148.68 201.36 149.50 C 200.48 150.38 198.03 151.00 195.43 151.00 C 192.16 151.00 191.00 150.61 191.00 149.50Z"/></g>
</svg>
