<?xml version="1.0" encoding="UTF-8"?>
<svg version="1.1" xmlns="http://www.w3.org/2000/svg" width="370" height="350">
<path d="M0 0 C1.19416786 -0.01270432 1.19416786 -0.01270432 2.41246033 -0.02566528 C5.02595301 -0.04893047 7.6388533 -0.05005993 10.25244141 -0.04882812 C12.08175895 -0.05593626 13.91107427 -0.06363621 15.74038696 -0.07189941 C19.56836143 -0.08532033 23.39612974 -0.08692386 27.22412109 -0.08105469 C32.11212232 -0.07516222 36.99912906 -0.10574237 41.8869381 -0.14617157 C45.66353619 -0.17211292 49.4398969 -0.17492014 53.21657181 -0.17127991 C55.01778283 -0.17296527 56.8190055 -0.18255127 58.62012863 -0.20042419 C69.84072998 -0.2995197 78.37281221 0.06679963 86.77978516 8.23242188 C91.50859782 14.25713459 94.57839831 21.56443211 97.91650391 28.41992188 C98.63371423 29.8708823 99.3518068 31.32140698 100.07080078 32.77148438 C103.11193316 38.93135393 106.06575891 45.0856074 108.72900391 51.41992188 C118.99206788 52.00980891 129.2376614 52.48250653 139.51806641 52.59570312 C140.40943298 52.60761688 141.30079956 52.61953064 142.21917725 52.63180542 C145.85577574 52.68035075 149.49200686 52.72825068 153.12890625 52.74584961 C175.63452422 52.87487282 175.63452422 52.87487282 182.60791016 59.09619141 C187.32756398 64.05094077 189.85484727 69.55773287 190.10400391 76.41992188 C189.85443088 83.29357889 187.32875793 88.71908853 182.61256409 93.679245 C173.6531495 101.95901539 162.9717908 101.17299191 151.54541016 101.11914062 C149.68032884 101.12505988 147.81525133 101.13231091 145.95018005 101.14082336 C142.05423076 101.1526602 138.15885433 101.14606878 134.26293945 101.12670898 C129.29539901 101.10383349 124.32957055 101.13061 119.36219883 101.17177105 C115.51426285 101.19747146 111.66672984 101.19473592 107.81873894 101.18387794 C105.9884886 101.18240143 104.15820579 101.18996225 102.32803535 101.20712852 C90.82268216 101.29754356 81.54219433 100.88303907 72.71852112 92.51274109 C69.99295031 89.6127795 68.50309038 87.35916191 67.72900391 83.41992188 C67.06900391 83.41992188 66.40900391 83.41992188 65.72900391 83.41992188 C65.47376953 84.25007813 65.21853516 85.08023438 64.95556641 85.93554688 C63.33828864 90.52985188 61.23799741 94.8254353 59.11962891 99.20507812 C57.34052836 102.65721131 57.34052836 102.65721131 56.72900391 106.41992188 C57.68154053 106.81783936 58.63407715 107.21575684 59.61547852 107.62573242 C63.19045226 109.12079813 66.76249228 110.6227678 70.33374023 112.12670898 C71.87202584 112.77341681 73.4110734 113.41831564 74.95092773 114.0612793 C101.72964922 125.24732751 101.72964922 125.24732751 107.16650391 136.35742188 C109.68547984 150.0718464 102.48428513 161.17634124 96.60400391 173.23242188 C95.73933731 175.01452354 94.87467742 176.79662856 94.01065063 178.57904053 C93.13996076 180.37505655 92.26846886 182.17068369 91.39697266 183.96630859 C89.39144364 188.1188574 87.41913371 192.28652974 85.44921875 196.45605469 C83.23711677 201.12435266 80.99265898 205.77642269 78.72900391 210.41992188 C78.25688477 211.38849121 77.78476562 212.35706055 77.29833984 213.35498047 C75.8783776 216.24121845 74.43337587 219.11339292 72.97900391 221.98242188 C72.55538574 222.84528809 72.13176758 223.7081543 71.6953125 224.59716797 C67.98038272 231.80731965 63.00291712 237.39720948 55.08837891 239.94335938 C46.79210297 241.61909723 39.29050459 241.22676698 31.88916016 236.97851562 C26.84505431 233.33909748 23.77130469 229.27905008 21.72900391 223.41992188 C20.57837296 214.63579831 22.5226078 207.95619202 26.29150391 200.10742188 C27.00850464 198.54713257 27.00850464 198.54713257 27.73999023 196.95532227 C29.37353845 193.4291006 31.04689192 189.9231078 32.72900391 186.41992188 C33.39359086 185.02874085 34.05797174 183.63746137 34.72216797 182.24609375 C39.00838415 173.2797498 43.34903556 164.34082796 47.72900391 155.41992188 C47.11484619 155.21713623 46.50068848 155.01435059 45.86791992 154.80541992 C45.0602417 154.53769775 44.25256348 154.26997559 43.42041016 153.99414062 C42.62062744 153.72947998 41.82084473 153.46481934 40.99682617 153.19213867 C38.53597677 152.35419415 36.12626515 151.42522498 33.72900391 150.41992188 C33.45822021 151.28818604 33.18743652 152.1564502 32.90844727 153.05102539 C31.76824623 156.30783229 30.42064736 159.24879123 28.85791016 162.32226562 C28.28983643 163.44673096 27.7217627 164.57119629 27.13647461 165.72973633 C26.8361734 166.32001617 26.53587219 166.91029602 26.22647095 167.51846313 C24.61848438 170.68116387 23.02538767 173.85134513 21.43212891 177.02148438 C21.11141922 177.65917252 20.79070953 178.29686066 20.46028137 178.95387268 C17.75266853 184.34848389 15.12772136 189.77880982 12.54150391 195.23242188 C7.84403924 205.11825254 3.08846155 214.97519803 -1.69546509 224.81942749 C-2.52367382 226.52465257 -3.35083891 228.23038502 -4.17684937 229.93667603 C-8.21013368 238.26631853 -12.27546987 246.58099261 -16.54052734 254.79492188 C-17.14098877 255.95765625 -17.7414502 257.12039063 -18.36010742 258.31835938 C-22.10836385 264.4021526 -27.43469623 269.14115526 -34.27099609 271.41992188 C-44.03247777 272.06489906 -51.34437411 271.83066017 -59.52099609 266.16992188 C-64.57474266 261.11617531 -67.29763131 255.55469261 -67.64208984 248.38085938 C-67.55128492 242.26831998 -64.99042821 237.44328069 -62.33349609 232.04492188 C-61.80425537 230.9342334 -61.27501465 229.82354492 -60.72973633 228.67919922 C-59.24936185 225.58477451 -57.75301147 222.49923566 -56.24658203 219.41748047 C-54.8931855 216.64633672 -53.54787285 213.87129213 -52.20188904 211.09654236 C-49.68573831 205.90974265 -47.16633143 200.72456944 -44.63598633 195.54467773 C-40.11432649 186.27984962 -35.70413888 176.97354449 -31.39599609 167.60742188 C-27.1871377 158.46096283 -22.83193956 149.41158383 -18.29077148 140.42578125 C-13.6062278 131.14689581 -9.14327912 121.76627842 -4.68017578 112.37939453 C-2.28355128 107.3461509 0.12882076 102.32048275 2.54150391 97.29492188 C3.0286084 96.27954346 3.51571289 95.26416504 4.01757812 94.21801758 C6.8330588 88.35326834 9.65915055 82.49376979 12.49462891 76.63867188 C13.13290294 75.3198286 13.77116796 74.00098097 14.40942383 72.68212891 C15.63696981 70.14577758 16.8666013 67.61045189 18.09741211 65.07568359 C20.76320482 59.56931723 23.39810759 54.07711507 25.72900391 48.41992188 C22.42900391 48.41992188 19.12900391 48.41992188 15.72900391 48.41992188 C15.25591797 49.40162354 14.78283203 50.3833252 14.29541016 51.39477539 C12.50181164 55.1145455 10.70409779 58.83231515 8.90527344 62.54956055 C8.13433159 64.14408846 7.36443653 65.73912301 6.59570312 67.3347168 C2.6388026 75.54593195 -1.35695688 83.73418835 -5.59130859 91.80664062 C-5.90559814 92.41528458 -6.2198877 93.02392853 -6.54370117 93.65101624 C-10.22910578 100.579889 -14.70846355 104.76351205 -22.08349609 107.41992188 C-29.62913399 109.28604738 -37.50528573 108.69331032 -44.34912109 104.86132812 C-49.95969878 100.65339486 -54.52953721 95.65341291 -55.75537109 88.65429688 C-56.67670894 76.56851214 -51.86069078 67.98447697 -46.36181641 57.49316406 C-43.77193326 52.49891039 -41.34119912 47.42765204 -38.88818359 42.36523438 C-37.4251601 39.36633635 -35.95960909 36.36869081 -34.49273682 33.37167358 C-33.51621713 31.3716772 -32.54396275 29.36959227 -31.57611084 27.36538696 C-30.19332286 24.50961629 -28.78941914 21.66515277 -27.38037109 18.82226562 C-26.76498978 17.53444687 -26.76498978 17.53444687 -26.13717651 16.22061157 C-22.42081777 8.81091848 -17.97297072 4.21014815 -10.211586 1.02418423 C-6.85408867 -0.02127583 -3.47985338 -0.01384093 0 0 Z M-12.99145508 17.65087891 C-13.43303955 18.44349121 -13.87462402 19.23610352 -14.32958984 20.05273438 C-14.82571777 20.93477539 -15.3218457 21.81681641 -15.83300781 22.72558594 C-16.30754395 23.6147168 -16.78208008 24.50384766 -17.27099609 25.41992188 C-17.69783691 26.21881836 -18.12467773 27.01771484 -18.56445312 27.84082031 C-19.85132231 30.31132577 -21.09848118 32.7981052 -22.33349609 35.29492188 C-22.79175781 36.2167627 -23.25001953 37.13860352 -23.72216797 38.08837891 C-27.6791332 46.10692793 -31.49512447 54.18996674 -35.27099609 62.29492188 C-35.82279541 63.47683105 -36.37459473 64.65874023 -36.94311523 65.87646484 C-43.11588517 77.29098272 -43.11588517 77.29098272 -43.18896484 89.59179688 C-41.25519426 93.44288041 -38.41803797 95.6657956 -34.38037109 97.08398438 C-29.63069032 98.03766044 -26.3752463 96.99623504 -22.17578125 94.76147461 C-18.89342245 92.44968768 -17.55588411 89.49633699 -15.89599609 85.91992188 C-15.50661865 85.13762207 -15.11724121 84.35532227 -14.71606445 83.54931641 C-13.78781823 81.67836046 -12.87116125 79.80163279 -11.96289062 77.92089844 C-8.70785945 71.18537937 -5.38625776 64.48278524 -2.0614624 57.78149414 C-0.84012988 55.30835497 0.36672407 52.82852379 1.57226562 50.34765625 C2.33111509 48.80642988 3.09037469 47.26540535 3.85009766 45.72460938 C4.1966188 45.00252289 4.54313995 44.2804364 4.90016174 43.53646851 C5.76799587 41.79153384 6.74055786 40.09947761 7.72900391 38.41992188 C11.20682973 37.2606466 13.91703647 37.30679121 17.58447266 37.32226562 C18.57692741 37.32438805 18.57692741 37.32438805 19.58943176 37.32655334 C21.69850218 37.33214192 23.80746568 37.34469223 25.91650391 37.35742188 C27.348143 37.36243836 28.77978375 37.36700101 30.21142578 37.37109375 C33.71731979 37.38210757 37.22315141 37.39936433 40.72900391 37.41992188 C40.96282485 42.35694975 40.56536373 45.61529597 38.34228516 50.02539062 C37.82351807 51.0751709 37.30475098 52.12495117 36.77026367 53.20654297 C36.19977295 54.32883301 35.62928223 55.45112305 35.04150391 56.60742188 C34.13322943 58.43417022 33.23026534 60.26348144 32.32762146 62.09301758 C31.70637358 63.35173626 31.08360436 64.60970515 30.45936584 65.86694336 C27.44348376 71.95213298 24.61434601 78.11813473 21.79150391 84.29492188 C15.51473641 97.94380465 8.88858399 111.41660623 2.26519775 124.89978027 C-3.73339488 137.11600046 -9.63144395 149.3583374 -15.29272461 161.73510742 C-19.8052726 171.54363691 -24.56055256 181.22675084 -29.32437134 190.9151001 C-39.18458035 210.97080289 -39.18458035 210.97080289 -48.72341919 231.18051147 C-49.33105721 232.49079942 -49.94458971 233.7983724 -50.56442261 235.10293579 C-51.40814326 236.88290706 -52.22694565 238.6746262 -53.04443359 240.46679688 C-53.50253418 241.45518555 -53.96063477 242.44357422 -54.43261719 243.46191406 C-55.47628127 247.14421866 -55.1038535 249.70967116 -54.27099609 253.41992188 C-51.51795034 258.07892238 -48.39636945 259.82928877 -43.27099609 261.41992188 C-38.21403872 261.31671866 -35.20372362 259.50743615 -31.27099609 256.41992188 C-29.49463094 253.98892981 -28.21196429 251.37217495 -26.89599609 248.66992188 C-26.48663818 247.86135742 -26.07728027 247.05279297 -25.65551758 246.21972656 C-24.71819521 244.36170162 -23.78864804 242.49974206 -22.86523438 240.63476562 C-21.07926751 237.0332937 -19.26780866 233.44521977 -17.45458984 229.85742188 C-11.10319168 217.26777647 -4.83331607 204.64272402 1.20288086 191.8984375 C4.36195092 185.24134389 7.57846405 178.61390902 10.81494141 171.99414062 C11.49435791 170.6041964 11.49435791 170.6041964 12.1875 169.18617249 C14.4854031 164.48679347 16.78608651 159.7887922 19.08935547 155.09204102 C19.94064334 153.3524012 20.79188247 151.61273754 21.64306641 149.87304688 C22.04045013 149.06473923 22.43783386 148.25643158 22.84725952 147.42362976 C23.2125174 146.67636124 23.57777527 145.92909271 23.95410156 145.15917969 C24.27400055 144.50685364 24.59389954 143.85452759 24.92349243 143.18243408 C25.84594751 141.24696774 25.84594751 141.24696774 26.72900391 138.41992188 C34.37167358 138.87323319 40.60354929 140.98458419 47.66650391 143.85742188 C48.70613281 144.26541016 49.74576172 144.67339844 50.81689453 145.09375 C58.44523429 148.13615226 58.44523429 148.13615226 60.72900391 150.41992188 C60.44919245 156.03232762 58.65868138 160.33300966 56.22900391 165.27539062 C55.70088356 166.37899681 55.70088356 166.37899681 55.16209412 167.50489807 C54.41207818 169.06987331 53.65789972 170.6328595 52.89987183 172.19396973 C51.72110231 174.62370904 50.55531832 177.05927478 49.39331055 179.49707031 C46.62046716 185.31223445 43.83288782 191.12029707 41.04492188 196.92822266 C39.73683072 199.66862721 38.44792955 202.41697796 37.16650391 205.16992188 C36.62219727 206.28983521 36.62219727 206.28983521 36.06689453 207.43237305 C33.80972376 212.32803965 33.21534847 216.02083246 33.72900391 221.41992188 C35.26606149 224.80798923 37.89228863 226.93550777 41.10400391 228.79492188 C45.83063245 229.92030962 49.30690652 230.05841458 53.79150391 228.04492188 C62.78783798 220.00564462 67.54189247 206.15058047 72.85400391 195.48242188 C73.31688812 194.55449829 73.77977234 193.62657471 74.25668335 192.67053223 C80.02789794 181.08490104 85.72261617 169.47104768 91.04150391 157.66992188 C91.53215332 156.59621338 92.02280273 155.52250488 92.52832031 154.41625977 C92.96192871 153.43262451 93.39553711 152.44898926 93.84228516 151.43554688 C94.21135986 150.60313477 94.58043457 149.77072266 94.96069336 148.91308594 C96.25487492 144.71347294 96.1636109 141.46297866 94.47900391 137.41992188 C88.22725934 129.05688386 72.24899821 125.1658108 62.79150391 121.23242188 C59.86385093 120.01418463 56.93842887 118.79078798 54.01416016 117.56445312 C53.0265847 117.15656303 53.0265847 117.15656303 52.01905823 116.74043274 C48.39669856 115.22116097 45.04171633 113.53175132 41.72900391 111.41992188 C42.32791185 107.82007305 43.30389059 104.85426892 44.88134766 101.56835938 C45.32373779 100.64289307 45.76612793 99.71742676 46.22192383 98.76391602 C46.69863525 97.78414795 47.17534668 96.80437988 47.66650391 95.79492188 C48.1528833 94.7861499 48.6392627 93.77737793 49.14038086 92.73803711 C53.78090239 83.18022785 58.69618762 73.77593827 63.72900391 64.41992188 C66.57275391 64.21289062 66.57275391 64.21289062 69.72900391 64.41992188 C71.19775391 65.78320312 71.19775391 65.78320312 72.22900391 67.73242188 C72.63248047 68.456875 73.03595703 69.18132812 73.45166016 69.92773438 C74.35634057 71.69282949 75.25987191 73.45851378 76.16259766 75.22460938 C80.17974736 82.94813852 80.17974736 82.94813852 86.72900391 88.41992188 C91.51497755 89.31794647 96.1601576 89.55433536 101.02197266 89.58105469 C101.71400787 89.58601959 102.40604309 89.5909845 103.11904907 89.59609985 C105.38487781 89.61058271 107.65063669 89.61749801 109.91650391 89.62304688 C110.69569183 89.62587425 111.47487976 89.62870163 112.27767944 89.63161469 C116.3965488 89.64654647 120.51538363 89.65581541 124.63427734 89.66015625 C128.87428043 89.6656498 133.11396387 89.68971345 137.35386658 89.7181282 C140.62936316 89.73679639 143.90478309 89.74196228 147.18032837 89.74349213 C148.74315143 89.74650684 150.30597352 89.75449523 151.8687439 89.76767731 C154.05808646 89.7848356 156.24665165 89.78283494 158.43603516 89.77636719 C159.67844971 89.78001282 160.92086426 89.78365845 162.20092773 89.78741455 C167.72696289 89.21180979 171.50733709 87.53761704 175.66650391 83.73242188 C177.69363228 80.47673085 178.52562571 78.31285212 178.29541016 74.45117188 C177.23574306 70.65098644 174.61937785 68.00328719 171.72900391 65.41992188 C168.89489574 64.00286779 166.428193 64.21048984 163.25976562 64.12280273 C162.59623077 64.10314957 161.93269592 64.0834964 161.24905396 64.06324768 C159.05236828 63.99929579 156.85556125 63.94201086 154.65869141 63.88476562 C153.13696143 63.84176391 151.61524313 63.79834739 150.09353638 63.75453186 C146.08561746 63.64024789 142.07756441 63.53161247 138.06945801 63.4241333 C133.98061741 63.31349551 129.89192795 63.19754306 125.80322266 63.08203125 C117.77862179 62.85611194 109.75387154 62.63615683 101.72900391 62.41992188 C92.1778205 44.5142403 92.1778205 44.5142403 87.93603516 35.58007812 C87.36820313 34.39607422 86.80037109 33.21207031 86.21533203 31.9921875 C85.36623648 30.21176194 84.51769496 28.43097791 83.68920898 26.64086914 C82.85294546 24.8408411 81.98855397 23.05396556 81.12353516 21.26757812 C80.63731689 20.23640869 80.15109863 19.20523926 79.65014648 18.14282227 C77.25352429 14.74600852 74.49877567 13.01155789 70.72900391 11.41992188 C67.00391529 10.82273697 67.00391529 10.82273697 63.05297852 10.90234375 C61.95399483 10.89182983 61.95399483 10.89182983 60.83280945 10.88110352 C58.43192672 10.86362243 56.03224053 10.87510867 53.63134766 10.88867188 C51.95178503 10.88597438 50.27222393 10.88208982 48.59266663 10.8770752 C45.08156388 10.87119383 41.57086955 10.87969989 38.05981445 10.8984375 C33.5684181 10.92124422 29.07797704 10.90808497 24.58661556 10.88414764 C21.12151438 10.86966763 17.65663833 10.87430537 14.19153023 10.88465881 C12.53579151 10.88731911 10.88003206 10.88408093 9.22431755 10.8747406 C6.90754191 10.86453615 4.59229691 10.88012724 2.27563477 10.90234375 C0.95994003 10.90552612 -0.3557547 10.9087085 -1.71131897 10.9119873 C-6.70336748 11.62430865 -9.92126486 13.66969567 -12.99145508 17.65087891 Z " fill="#000000" transform="translate(179.27099609375,73.580078125)"/>
<path d="M0 0 C8.43089723 6.00212882 13.01062651 13.35356517 15.1328125 23.453125 C16.59656234 34.19649645 13.35204785 42.89733292 7.015625 51.59375 C0.61283554 58.71842258 -8.96024583 63.04968459 -18.43359375 63.6953125 C-30.80626536 63.87615545 -41.07599392 61.05120462 -50.49609375 52.67578125 C-57.81916146 44.9467439 -60.06998611 36.82810576 -59.92382812 26.32421875 C-59.4294028 15.25750715 -53.90357653 8.52337353 -46.015625 1.2421875 C-32.40443383 -8.05326013 -14.11109681 -8.67338116 0 0 Z M-37.453125 9.4921875 C-38.360625 10.1109375 -39.268125 10.7296875 -40.203125 11.3671875 C-45.99202185 16.83447897 -48.08140517 22.64233935 -48.453125 30.4921875 C-47.56281213 37.59186195 -43.65091291 42.774688 -38.453125 47.4921875 C-32.2104366 52.00151983 -26.0177206 53.3199244 -18.453125 52.4921875 C-11.14732777 50.63032228 -4.60774179 48.13252704 -0.2421875 41.7109375 C2.86455553 36.1584606 4.24537435 30.48840975 3.140625 24.16796875 C0.97674645 16.58151359 -3.17218511 11.52972123 -9.953125 7.5546875 C-18.87768407 3.48336297 -29.3791328 3.79521004 -37.453125 9.4921875 Z " fill="#000000" transform="translate(296.453125,10.5078125)"/>
<path d="M0 0 C0.92541595 -0.00708481 1.85083191 -0.01416962 2.80429077 -0.02146912 C4.33166367 -0.01775299 4.33166367 -0.01775299 5.88989258 -0.01396179 C7.49485092 -0.02162819 7.49485092 -0.02162819 9.13223267 -0.02944946 C12.68301932 -0.0433948 16.23361298 -0.04238511 19.78442383 -0.04008484 C22.24300204 -0.04396876 24.70157959 -0.04830279 27.16015625 -0.05307007 C32.31846286 -0.06054272 37.47670105 -0.06023322 42.63500977 -0.05497742 C49.25999106 -0.04917835 55.88469319 -0.06611957 62.5096283 -0.08932209 C67.58811086 -0.10402053 72.66652557 -0.1049365 77.74502563 -0.10181236 C80.1883703 -0.10232743 82.63171857 -0.10759972 85.07504272 -0.11762428 C88.48486732 -0.12989739 91.89413998 -0.12325208 95.30395508 -0.11161804 C96.32220367 -0.11926178 97.34045227 -0.12690552 98.38955688 -0.13478088 C99.77768082 -0.12425941 99.77768082 -0.12425941 101.19384766 -0.11352539 C102.00058426 -0.11369313 102.80732086 -0.11386087 103.63850403 -0.1140337 C104.60792183 0.07145771 104.60792183 0.07145771 105.59692383 0.26069641 C107.75194914 3.49323437 108.06548517 4.51220564 107.59692383 8.26069641 C106.02310389 10.32928738 105.1312998 11.16216386 102.54948425 11.63821983 C101.75971695 11.63935091 100.96994965 11.64048199 100.15625 11.64164734 C98.79347427 11.65433655 98.79347427 11.65433655 97.40316772 11.6672821 C96.40878693 11.66120941 95.41440613 11.65513672 94.38989258 11.64888 C92.81638535 11.65676544 92.81638535 11.65676544 91.21109009 11.66481018 C87.73538426 11.67803954 84.26013451 11.66926145 80.78442383 11.65913391 C78.37451082 11.66115379 75.96459841 11.66406451 73.5546875 11.66783142 C68.5006733 11.67225877 63.44681802 11.66581036 58.39282227 11.65180969 C51.90583142 11.63471778 45.4192129 11.64455674 38.93223572 11.66252708 C33.95492738 11.67335373 28.9777077 11.66992369 24.00039673 11.66214371 C21.60812333 11.66013861 19.21584196 11.66261178 16.82357788 11.66958237 C13.48348585 11.67717825 10.14400169 11.66561824 6.80395508 11.64888 C5.80957428 11.6549527 4.81519348 11.66102539 3.79067993 11.6672821 C2.88216278 11.65882263 1.97364563 11.65036316 1.03759766 11.64164734 C-0.1470533 11.63995072 -0.1470533 11.63995072 -1.3556366 11.63821983 C-3.95087926 11.15968806 -4.83995332 10.35947378 -6.40307617 8.26069641 C-6.71557617 5.19819641 -6.71557617 5.19819641 -6.40307617 2.26069641 C-3.9627706 -0.17960916 -3.34574808 0.00851379 0 0 Z " fill="#000000" transform="translate(6.403076171875,169.7393035888672)"/>
<path d="M0 0 C1.20241585 0.00607269 1.20241585 0.00607269 2.42912292 0.01226807 C3.27315674 0.00876343 4.11719055 0.00525879 4.98680115 0.00164795 C7.78609869 -0.00717829 10.58514493 -0.00131657 13.38444519 0.00543213 C15.32496184 0.00408561 17.26547816 0.00214519 19.20599365 -0.00036621 C23.27731023 -0.00331879 27.34853917 0.00098399 31.41984558 0.01031494 C36.64343726 0.02170196 41.86682327 0.01515559 47.09040737 0.00317001 C51.09920811 -0.00405145 55.10795996 -0.0017592 59.11676216 0.0034256 C61.04292386 0.00476169 62.96908996 0.00311577 64.89524651 -0.00153351 C67.58634597 -0.00660257 70.27711092 0.00111721 72.96818542 0.01226807 C73.76777176 0.0082196 74.56735809 0.00417114 75.39117432 0 C79.21476415 0.02940779 81.00447301 0.09847151 84.26335144 2.27105713 C84.51335144 5.83355713 84.51335144 5.83355713 84.26335144 9.27105713 C82.23416912 11.30023945 78.18352915 10.6896643 75.39616394 10.82574463 C74.55868622 10.86779022 73.7212085 10.90983582 72.85835266 10.95315552 C62.14089879 11.43528064 51.41875064 11.42068531 40.69255066 11.40142822 C37.1366807 11.3960546 33.58093641 11.40141476 30.02507019 11.40777588 C20.0847771 11.4124465 10.1406871 11.39404557 0.20866394 10.95074463 C-1.10344055 10.89386475 -2.41554504 10.83698486 -3.76741028 10.77838135 C-4.74725891 10.61096436 -5.72710754 10.44354736 -6.73664856 10.27105713 C-8.73664856 7.27105713 -8.73664856 7.27105713 -8.48664856 4.70855713 C-6.99698155 -0.13286066 -4.64874356 0.03589219 0 0 Z " fill="#000000" transform="translate(60.73664855957031,199.72894287109375)"/>
<path d="M0 0 C1.23282463 0.00607269 1.23282463 0.00607269 2.49055481 0.01226807 C3.35570206 0.00876343 4.2208493 0.00525879 5.11221313 0.00164795 C7.98124641 -0.00717794 10.85003451 -0.0013172 13.71907043 0.00543213 C15.7068232 0.00408573 17.69457564 0.0021454 19.68232727 -0.00036621 C23.85199615 -0.00331864 28.02157945 0.00098398 32.1912384 0.01031494 C37.54496319 0.02170953 42.89848747 0.01515069 48.2522049 0.00317001 C52.35790019 -0.00404538 56.46354768 -0.00176213 60.56924438 0.0034256 C62.54368107 0.00476298 64.51812204 0.00311129 66.49255371 -0.00153351 C69.24851534 -0.00659348 72.00414896 0.001104 74.76008606 0.01226807 C75.58196915 0.0082196 76.40385223 0.00417114 77.25064087 0 C82.89679237 0.04252907 82.89679237 0.04252907 85.12532043 2.27105713 C85.25032043 5.39605713 85.25032043 5.39605713 85.12532043 8.27105713 C81.27585962 10.82534853 77.27109181 10.55974794 72.82429504 10.54571533 C71.98972275 10.55082626 71.15515045 10.55593719 70.29528809 10.561203 C67.53934034 10.57509253 64.78364275 10.57414311 62.02766418 10.57183838 C60.11242581 10.57572486 58.1971883 10.58005944 56.2819519 10.58482361 C52.26967065 10.59228385 48.2574774 10.59199537 44.24519348 10.58673096 C39.09781916 10.58092806 33.95080369 10.59788805 28.80348873 10.62107563 C24.84958788 10.63578765 20.89577404 10.63668828 16.94185066 10.6335659 C15.04359283 10.63408011 13.14533026 10.63933643 11.24709892 10.64937782 C8.59681015 10.66167976 5.94722829 10.65498907 3.29695129 10.64337158 C2.11631104 10.65483719 2.11631104 10.65483719 0.91181946 10.66653442 C-4.37196727 10.61519903 -4.37196727 10.61519903 -6.86587524 8.90794373 C-8.29882449 6.58283928 -8.21756123 4.94553414 -7.87467957 2.27105713 C-5.28710989 -0.31651254 -3.52600228 0.02655926 0 0 Z " fill="#000000" transform="translate(30.874679565429688,139.72894287109375)"/>
</svg>
