<svg xmlns="http://www.w3.org/2000/svg" width="58" height="59" viewBox="0 0 58 59">
<g>
<path d="M 21.14 52.63 C5.15,46.85 0.72,25.07 13.13,13.30 C26.58,0.54 49.85,8.47 52.59,26.75 C55.21,44.21 37.69,58.62 21.14,52.63 ZM 34.28 48.94 C38.74,47.70 44.46,42.95 46.69,38.62 C49.06,34.06 48.74,26.09 46.01,21.23 C38.14,7.22 18.60,7.95 11.89,22.50 C7.20,32.66 12.23,44.82 22.66,48.54 C27.36,50.22 29.41,50.29 34.28,48.94 ZM 27.00 42.57 C27.00,40.48 27.48,40.00 29.57,40.00 C31.66,40.00 32.08,40.42 31.82,42.25 C31.61,43.70 30.70,44.61 29.25,44.82 C27.42,45.08 27.00,44.66 27.00,42.57 ZM 27.29 34.58 C27.61,32.60 28.80,29.68 29.94,28.09 C33.86,22.57 31.58,19.36 26.06,22.62 C22.08,24.97 20.08,23.37 23.03,20.19 C25.49,17.55 31.46,17.23 34.78,19.56 C37.62,21.54 37.67,25.66 34.89,28.62 C33.72,29.86 32.47,32.36 32.10,34.18 C31.60,36.66 30.83,37.59 29.07,37.84 C26.88,38.15 26.75,37.92 27.29,34.58 Z" fill="rgba(0,0,0,1)"/>
</g>
</svg>